<?xml version='1.0' encoding='ASCII' standalone='yes'?>
<svg xmlns:xlink="http://www.w3.org/1999/xlink" xmlns="http://www.w3.org/2000/svg" version="1.1" width="460.8px" viewBox="0 0 460.8px 345.6px" height="345.6px">
  <g>
    <g><defs>
  <style type="text/css">
*{stroke-linecap:butt;stroke-linejoin:round;}
  </style>
 </defs>
 <g id="figure_1">
  <g id="patch_1">
   <path d="M 0 345.6  L 460.8 345.6  L 460.8 0  L 0 0  z " style="fill:#ffffff;"/>
  </g>
  <g id="axes_1">
   <g id="patch_2">
    <path d="M 49.52 300.76  L 440.55 300.76  L 440.55 21.72  L 49.52 21.72  z " style="fill:#ffffff;"/>
   </g>
   <g id="matplotlib.axis_1">
    <g id="xtick_1">
     <g id="line2d_1">
      <defs>
       <path d="M 0 0  L 0 3.5  " id="m4726596adc" style="stroke:#000000;stroke-width:0.8;"/>
      </defs>
      <g>
       <use style="stroke:#000000;stroke-width:0.8;" x="49.52" xlink:href="#m4726596adc" y="300.76"/>
      </g>
     </g>
     <g id="text_1">
      <!-- 0 -->
      <defs>
       <path d="M 31.78125 66.40625  Q 24.171875 66.40625 20.328125 58.90625  Q 16.5 51.421875 16.5 36.375  Q 16.5 21.390625 20.328125 13.890625  Q 24.171875 6.390625 31.78125 6.390625  Q 39.453125 6.390625 43.28125 13.890625  Q 47.125 21.390625 47.125 36.375  Q 47.125 51.421875 43.28125 58.90625  Q 39.453125 66.40625 31.78125 66.40625  z M 31.78125 74.21875  Q 44.046875 74.21875 50.515625 64.515625  Q 56.984375 54.828125 56.984375 36.375  Q 56.984375 17.96875 50.515625 8.265625  Q 44.046875 -1.421875 31.78125 -1.421875  Q 19.53125 -1.421875 13.0625 8.265625  Q 6.59375 17.96875 6.59375 36.375  Q 6.59375 54.828125 13.0625 64.515625  Q 19.53125 74.21875 31.78125 74.21875  z " id="DejaVuSans-30"/>
      </defs>
      <g transform="translate(46.33875 315.358437)scale(0.1 -0.1)">
       <use xlink:href="#DejaVuSans-30"/>
      </g>
     </g>
    </g>
    <g id="xtick_2">
     <g id="line2d_2">
      <g>
       <use style="stroke:#000000;stroke-width:0.8;" x="98.39875" xlink:href="#m4726596adc" y="300.76"/>
      </g>
     </g>
     <g id="text_2">
      <!-- 25 -->
      <defs>
       <path d="M 19.1875 8.296875  L 53.609375 8.296875  L 53.609375 0  L 7.328125 0  L 7.328125 8.296875  Q 12.9375 14.109375 22.625 23.890625  Q 32.328125 33.6875 34.8125 36.53125  Q 39.546875 41.84375 41.421875 45.53125  Q 43.3125 49.21875 43.3125 52.78125  Q 43.3125 58.59375 39.234375 62.25  Q 35.15625 65.921875 28.609375 65.921875  Q 23.96875 65.921875 18.8125 64.3125  Q 13.671875 62.703125 7.8125 59.421875  L 7.8125 69.390625  Q 13.765625 71.78125 18.9375 73  Q 24.125 74.21875 28.421875 74.21875  Q 39.75 74.21875 46.484375 68.546875  Q 53.21875 62.890625 53.21875 53.421875  Q 53.21875 48.921875 51.53125 44.890625  Q 49.859375 40.875 45.40625 35.40625  Q 44.1875 33.984375 37.640625 27.21875  Q 31.109375 20.453125 19.1875 8.296875  z " id="DejaVuSans-32"/>
       <path d="M 10.796875 72.90625  L 49.515625 72.90625  L 49.515625 64.59375  L 19.828125 64.59375  L 19.828125 46.734375  Q 21.96875 47.46875 24.109375 47.828125  Q 26.265625 48.1875 28.421875 48.1875  Q 40.625 48.1875 47.75 41.5  Q 54.890625 34.8125 54.890625 23.390625  Q 54.890625 11.625 47.5625 5.09375  Q 40.234375 -1.421875 26.90625 -1.421875  Q 22.3125 -1.421875 17.546875 -0.640625  Q 12.796875 0.140625 7.71875 1.703125  L 7.71875 11.625  Q 12.109375 9.234375 16.796875 8.0625  Q 21.484375 6.890625 26.703125 6.890625  Q 35.15625 6.890625 40.078125 11.328125  Q 45.015625 15.765625 45.015625 23.390625  Q 45.015625 31 40.078125 35.4375  Q 35.15625 39.890625 26.703125 39.890625  Q 22.75 39.890625 18.8125 39.015625  Q 14.890625 38.140625 10.796875 36.28125  z " id="DejaVuSans-35"/>
      </defs>
      <g transform="translate(92.03625 315.358437)scale(0.1 -0.1)">
       <use xlink:href="#DejaVuSans-32"/>
       <use x="63.623047" xlink:href="#DejaVuSans-35"/>
      </g>
     </g>
    </g>
    <g id="xtick_3">
     <g id="line2d_3">
      <g>
       <use style="stroke:#000000;stroke-width:0.8;" x="147.2775" xlink:href="#m4726596adc" y="300.76"/>
      </g>
     </g>
     <g id="text_3">
      <!-- 50 -->
      <g transform="translate(140.915 315.358437)scale(0.1 -0.1)">
       <use xlink:href="#DejaVuSans-35"/>
       <use x="63.623047" xlink:href="#DejaVuSans-30"/>
      </g>
     </g>
    </g>
    <g id="xtick_4">
     <g id="line2d_4">
      <g>
       <use style="stroke:#000000;stroke-width:0.8;" x="196.15625" xlink:href="#m4726596adc" y="300.76"/>
      </g>
     </g>
     <g id="text_4">
      <!-- 75 -->
      <defs>
       <path d="M 8.203125 72.90625  L 55.078125 72.90625  L 55.078125 68.703125  L 28.609375 0  L 18.3125 0  L 43.21875 64.59375  L 8.203125 64.59375  z " id="DejaVuSans-37"/>
      </defs>
      <g transform="translate(189.79375 315.358437)scale(0.1 -0.1)">
       <use xlink:href="#DejaVuSans-37"/>
       <use x="63.623047" xlink:href="#DejaVuSans-35"/>
      </g>
     </g>
    </g>
    <g id="xtick_5">
     <g id="line2d_5">
      <g>
       <use style="stroke:#000000;stroke-width:0.8;" x="245.035" xlink:href="#m4726596adc" y="300.76"/>
      </g>
     </g>
     <g id="text_5">
      <!-- 100 -->
      <defs>
       <path d="M 12.40625 8.296875  L 28.515625 8.296875  L 28.515625 63.921875  L 10.984375 60.40625  L 10.984375 69.390625  L 28.421875 72.90625  L 38.28125 72.90625  L 38.28125 8.296875  L 54.390625 8.296875  L 54.390625 0  L 12.40625 0  z " id="DejaVuSans-31"/>
      </defs>
      <g transform="translate(235.49125 315.358437)scale(0.1 -0.1)">
       <use xlink:href="#DejaVuSans-31"/>
       <use x="63.623047" xlink:href="#DejaVuSans-30"/>
       <use x="127.246094" xlink:href="#DejaVuSans-30"/>
      </g>
     </g>
    </g>
    <g id="xtick_6">
     <g id="line2d_6">
      <g>
       <use style="stroke:#000000;stroke-width:0.8;" x="293.91375" xlink:href="#m4726596adc" y="300.76"/>
      </g>
     </g>
     <g id="text_6">
      <!-- 125 -->
      <g transform="translate(284.37 315.358437)scale(0.1 -0.1)">
       <use xlink:href="#DejaVuSans-31"/>
       <use x="63.623047" xlink:href="#DejaVuSans-32"/>
       <use x="127.246094" xlink:href="#DejaVuSans-35"/>
      </g>
     </g>
    </g>
    <g id="xtick_7">
     <g id="line2d_7">
      <g>
       <use style="stroke:#000000;stroke-width:0.8;" x="342.7925" xlink:href="#m4726596adc" y="300.76"/>
      </g>
     </g>
     <g id="text_7">
      <!-- 150 -->
      <g transform="translate(333.24875 315.358437)scale(0.1 -0.1)">
       <use xlink:href="#DejaVuSans-31"/>
       <use x="63.623047" xlink:href="#DejaVuSans-35"/>
       <use x="127.246094" xlink:href="#DejaVuSans-30"/>
      </g>
     </g>
    </g>
    <g id="xtick_8">
     <g id="line2d_8">
      <g>
       <use style="stroke:#000000;stroke-width:0.8;" x="391.67125" xlink:href="#m4726596adc" y="300.76"/>
      </g>
     </g>
     <g id="text_8">
      <!-- 175 -->
      <g transform="translate(382.1275 315.358437)scale(0.1 -0.1)">
       <use xlink:href="#DejaVuSans-31"/>
       <use x="63.623047" xlink:href="#DejaVuSans-37"/>
       <use x="127.246094" xlink:href="#DejaVuSans-35"/>
      </g>
     </g>
    </g>
    <g id="xtick_9">
     <g id="line2d_9">
      <g>
       <use style="stroke:#000000;stroke-width:0.8;" x="440.55" xlink:href="#m4726596adc" y="300.76"/>
      </g>
     </g>
     <g id="text_9">
      <!-- 200 -->
      <g transform="translate(431.00625 315.358437)scale(0.1 -0.1)">
       <use xlink:href="#DejaVuSans-32"/>
       <use x="63.623047" xlink:href="#DejaVuSans-30"/>
       <use x="127.246094" xlink:href="#DejaVuSans-30"/>
      </g>
     </g>
    </g>
    <g id="text_10">
     <!-- Distance ($\mu$m) -->
     <defs>
      <path d="M 19.671875 64.796875  L 19.671875 8.109375  L 31.59375 8.109375  Q 46.6875 8.109375 53.6875 14.9375  Q 60.6875 21.78125 60.6875 36.53125  Q 60.6875 51.171875 53.6875 57.984375  Q 46.6875 64.796875 31.59375 64.796875  z M 9.8125 72.90625  L 30.078125 72.90625  Q 51.265625 72.90625 61.171875 64.09375  Q 71.09375 55.28125 71.09375 36.53125  Q 71.09375 17.671875 61.125 8.828125  Q 51.171875 0 30.078125 0  L 9.8125 0  z " id="DejaVuSans-44"/>
      <path d="M 9.421875 54.6875  L 18.40625 54.6875  L 18.40625 0  L 9.421875 0  z M 9.421875 75.984375  L 18.40625 75.984375  L 18.40625 64.59375  L 9.421875 64.59375  z " id="DejaVuSans-69"/>
      <path d="M 44.28125 53.078125  L 44.28125 44.578125  Q 40.484375 46.53125 36.375 47.5  Q 32.28125 48.484375 27.875 48.484375  Q 21.1875 48.484375 17.84375 46.4375  Q 14.5 44.390625 14.5 40.28125  Q 14.5 37.15625 16.890625 35.375  Q 19.28125 33.59375 26.515625 31.984375  L 29.59375 31.296875  Q 39.15625 29.25 43.1875 25.515625  Q 47.21875 21.78125 47.21875 15.09375  Q 47.21875 7.46875 41.1875 3.015625  Q 35.15625 -1.421875 24.609375 -1.421875  Q 20.21875 -1.421875 15.453125 -0.5625  Q 10.6875 0.296875 5.421875 2  L 5.421875 11.28125  Q 10.40625 8.6875 15.234375 7.390625  Q 20.0625 6.109375 24.8125 6.109375  Q 31.15625 6.109375 34.5625 8.28125  Q 37.984375 10.453125 37.984375 14.40625  Q 37.984375 18.0625 35.515625 20.015625  Q 33.0625 21.96875 24.703125 23.78125  L 21.578125 24.515625  Q 13.234375 26.265625 9.515625 29.90625  Q 5.8125 33.546875 5.8125 39.890625  Q 5.8125 47.609375 11.28125 51.796875  Q 16.75 56 26.8125 56  Q 31.78125 56 36.171875 55.265625  Q 40.578125 54.546875 44.28125 53.078125  z " id="DejaVuSans-73"/>
      <path d="M 18.3125 70.21875  L 18.3125 54.6875  L 36.8125 54.6875  L 36.8125 47.703125  L 18.3125 47.703125  L 18.3125 18.015625  Q 18.3125 11.328125 20.140625 9.421875  Q 21.96875 7.515625 27.59375 7.515625  L 36.8125 7.515625  L 36.8125 0  L 27.59375 0  Q 17.1875 0 13.234375 3.875  Q 9.28125 7.765625 9.28125 18.015625  L 9.28125 47.703125  L 2.6875 47.703125  L 2.6875 54.6875  L 9.28125 54.6875  L 9.28125 70.21875  z " id="DejaVuSans-74"/>
      <path d="M 34.28125 27.484375  Q 23.390625 27.484375 19.1875 25  Q 14.984375 22.515625 14.984375 16.5  Q 14.984375 11.71875 18.140625 8.90625  Q 21.296875 6.109375 26.703125 6.109375  Q 34.1875 6.109375 38.703125 11.40625  Q 43.21875 16.703125 43.21875 25.484375  L 43.21875 27.484375  z M 52.203125 31.203125  L 52.203125 0  L 43.21875 0  L 43.21875 8.296875  Q 40.140625 3.328125 35.546875 0.953125  Q 30.953125 -1.421875 24.3125 -1.421875  Q 15.921875 -1.421875 10.953125 3.296875  Q 6 8.015625 6 15.921875  Q 6 25.140625 12.171875 29.828125  Q 18.359375 34.515625 30.609375 34.515625  L 43.21875 34.515625  L 43.21875 35.40625  Q 43.21875 41.609375 39.140625 45  Q 35.0625 48.390625 27.6875 48.390625  Q 23 48.390625 18.546875 47.265625  Q 14.109375 46.140625 10.015625 43.890625  L 10.015625 52.203125  Q 14.9375 54.109375 19.578125 55.046875  Q 24.21875 56 28.609375 56  Q 40.484375 56 46.34375 49.84375  Q 52.203125 43.703125 52.203125 31.203125  z " id="DejaVuSans-61"/>
      <path d="M 54.890625 33.015625  L 54.890625 0  L 45.90625 0  L 45.90625 32.71875  Q 45.90625 40.484375 42.875 44.328125  Q 39.84375 48.1875 33.796875 48.1875  Q 26.515625 48.1875 22.3125 43.546875  Q 18.109375 38.921875 18.109375 30.90625  L 18.109375 0  L 9.078125 0  L 9.078125 54.6875  L 18.109375 54.6875  L 18.109375 46.1875  Q 21.34375 51.125 25.703125 53.5625  Q 30.078125 56 35.796875 56  Q 45.21875 56 50.046875 50.171875  Q 54.890625 44.34375 54.890625 33.015625  z " id="DejaVuSans-6e"/>
      <path d="M 48.78125 52.59375  L 48.78125 44.1875  Q 44.96875 46.296875 41.140625 47.34375  Q 37.3125 48.390625 33.40625 48.390625  Q 24.65625 48.390625 19.8125 42.84375  Q 14.984375 37.3125 14.984375 27.296875  Q 14.984375 17.28125 19.8125 11.734375  Q 24.65625 6.203125 33.40625 6.203125  Q 37.3125 6.203125 41.140625 7.25  Q 44.96875 8.296875 48.78125 10.40625  L 48.78125 2.09375  Q 45.015625 0.34375 40.984375 -0.53125  Q 36.96875 -1.421875 32.421875 -1.421875  Q 20.0625 -1.421875 12.78125 6.34375  Q 5.515625 14.109375 5.515625 27.296875  Q 5.515625 40.671875 12.859375 48.328125  Q 20.21875 56 33.015625 56  Q 37.15625 56 41.109375 55.140625  Q 45.0625 54.296875 48.78125 52.59375  z " id="DejaVuSans-63"/>
      <path d="M 56.203125 29.59375  L 56.203125 25.203125  L 14.890625 25.203125  Q 15.484375 15.921875 20.484375 11.0625  Q 25.484375 6.203125 34.421875 6.203125  Q 39.59375 6.203125 44.453125 7.46875  Q 49.3125 8.734375 54.109375 11.28125  L 54.109375 2.78125  Q 49.265625 0.734375 44.1875 -0.34375  Q 39.109375 -1.421875 33.890625 -1.421875  Q 20.796875 -1.421875 13.15625 6.1875  Q 5.515625 13.8125 5.515625 26.8125  Q 5.515625 40.234375 12.765625 48.109375  Q 20.015625 56 32.328125 56  Q 43.359375 56 49.78125 48.890625  Q 56.203125 41.796875 56.203125 29.59375  z M 47.21875 32.234375  Q 47.125 39.59375 43.09375 43.984375  Q 39.0625 48.390625 32.421875 48.390625  Q 24.90625 48.390625 20.390625 44.140625  Q 15.875 39.890625 15.1875 32.171875  z " id="DejaVuSans-65"/>
      <path id="DejaVuSans-20"/>
      <path d="M 31 75.875  Q 24.46875 64.65625 21.28125 53.65625  Q 18.109375 42.671875 18.109375 31.390625  Q 18.109375 20.125 21.3125 9.0625  Q 24.515625 -2 31 -13.1875  L 23.1875 -13.1875  Q 15.875 -1.703125 12.234375 9.375  Q 8.59375 20.453125 8.59375 31.390625  Q 8.59375 42.28125 12.203125 53.3125  Q 15.828125 64.359375 23.1875 75.875  z " id="DejaVuSans-28"/>
      <path d="M -1.3125 -20.796875  L 13.375 54.6875  L 22.40625 54.6875  L 15.765625 20.65625  Q 15.578125 19.625 15.421875 18.359375  Q 15.28125 17.09375 15.28125 15.828125  Q 15.28125 11.28125 18.140625 8.828125  Q 21 6.390625 26.3125 6.390625  Q 33.546875 6.390625 37.984375 10.484375  Q 42.4375 14.59375 44 22.796875  L 50.203125 54.6875  L 59.1875 54.6875  L 51.03125 12.640625  Q 50.828125 11.71875 50.75 11.03125  Q 50.6875 10.359375 50.6875 9.8125  Q 50.6875 8.296875 51.296875 7.59375  Q 51.90625 6.890625 53.21875 6.890625  Q 53.71875 6.890625 54.5625 7.125  Q 55.421875 7.375 56.984375 8.015625  L 55.609375 0.78125  Q 53.46875 -0.296875 51.515625 -0.859375  Q 49.5625 -1.421875 47.703125 -1.421875  Q 44.484375 -1.421875 42.65625 0.625  Q 40.828125 2.6875 40.828125 6.296875  Q 38.09375 2.390625 34.296875 0.484375  Q 30.515625 -1.421875 25.390625 -1.421875  Q 20.84375 -1.421875 17.453125 0.671875  Q 14.0625 2.78125 12.984375 6.203125  L 7.71875 -20.796875  z " id="DejaVuSans-Oblique-3bc"/>
      <path d="M 52 44.1875  Q 55.375 50.25 60.0625 53.125  Q 64.75 56 71.09375 56  Q 79.640625 56 84.28125 50.015625  Q 88.921875 44.046875 88.921875 33.015625  L 88.921875 0  L 79.890625 0  L 79.890625 32.71875  Q 79.890625 40.578125 77.09375 44.375  Q 74.3125 48.1875 68.609375 48.1875  Q 61.625 48.1875 57.5625 43.546875  Q 53.515625 38.921875 53.515625 30.90625  L 53.515625 0  L 44.484375 0  L 44.484375 32.71875  Q 44.484375 40.625 41.703125 44.40625  Q 38.921875 48.1875 33.109375 48.1875  Q 26.21875 48.1875 22.15625 43.53125  Q 18.109375 38.875 18.109375 30.90625  L 18.109375 0  L 9.078125 0  L 9.078125 54.6875  L 18.109375 54.6875  L 18.109375 46.1875  Q 21.1875 51.21875 25.484375 53.609375  Q 29.78125 56 35.6875 56  Q 41.65625 56 45.828125 52.96875  Q 50 49.953125 52 44.1875  z " id="DejaVuSans-6d"/>
      <path d="M 8.015625 75.875  L 15.828125 75.875  Q 23.140625 64.359375 26.78125 53.3125  Q 30.421875 42.28125 30.421875 31.390625  Q 30.421875 20.453125 26.78125 9.375  Q 23.140625 -1.703125 15.828125 -13.1875  L 8.015625 -13.1875  Q 14.5 -2 17.703125 9.0625  Q 20.90625 20.125 20.90625 31.390625  Q 20.90625 42.671875 17.703125 53.65625  Q 14.5 64.65625 8.015625 75.875  z " id="DejaVuSans-29"/>
     </defs>
     <g transform="translate(209.585 329.038125)scale(0.1 -0.1)">
      <use transform="translate(0 0.015625)" xlink:href="#DejaVuSans-44"/>
      <use transform="translate(77.001953 0.015625)" xlink:href="#DejaVuSans-69"/>
      <use transform="translate(104.785156 0.015625)" xlink:href="#DejaVuSans-73"/>
      <use transform="translate(156.884766 0.015625)" xlink:href="#DejaVuSans-74"/>
      <use transform="translate(196.09375 0.015625)" xlink:href="#DejaVuSans-61"/>
      <use transform="translate(257.373047 0.015625)" xlink:href="#DejaVuSans-6e"/>
      <use transform="translate(320.751953 0.015625)" xlink:href="#DejaVuSans-63"/>
      <use transform="translate(375.732422 0.015625)" xlink:href="#DejaVuSans-65"/>
      <use transform="translate(437.255859 0.015625)" xlink:href="#DejaVuSans-20"/>
      <use transform="translate(469.042969 0.015625)" xlink:href="#DejaVuSans-28"/>
      <use transform="translate(508.056641 0.015625)" xlink:href="#DejaVuSans-Oblique-3bc"/>
      <use transform="translate(571.679688 0.015625)" xlink:href="#DejaVuSans-6d"/>
      <use transform="translate(669.091797 0.015625)" xlink:href="#DejaVuSans-29"/>
     </g>
    </g>
   </g>
   <g id="matplotlib.axis_2">
    <g id="ytick_1">
     <g id="line2d_10">
      <defs>
       <path d="M 0 0  L -3.5 0  " id="m30c82a3885" style="stroke:#000000;stroke-width:0.8;"/>
      </defs>
      <g>
       <use style="stroke:#000000;stroke-width:0.8;" x="49.52" xlink:href="#m30c82a3885" y="280.752395"/>
      </g>
     </g>
     <g id="text_11">
      <!-- &#8722;3 -->
      <defs>
       <path d="M 10.59375 35.5  L 73.1875 35.5  L 73.1875 27.203125  L 10.59375 27.203125  z " id="DejaVuSans-2212"/>
       <path d="M 40.578125 39.3125  Q 47.65625 37.796875 51.625 33  Q 55.609375 28.21875 55.609375 21.1875  Q 55.609375 10.40625 48.1875 4.484375  Q 40.765625 -1.421875 27.09375 -1.421875  Q 22.515625 -1.421875 17.65625 -0.515625  Q 12.796875 0.390625 7.625 2.203125  L 7.625 11.71875  Q 11.71875 9.328125 16.59375 8.109375  Q 21.484375 6.890625 26.8125 6.890625  Q 36.078125 6.890625 40.9375 10.546875  Q 45.796875 14.203125 45.796875 21.1875  Q 45.796875 27.640625 41.28125 31.265625  Q 36.765625 34.90625 28.71875 34.90625  L 20.21875 34.90625  L 20.21875 43.015625  L 29.109375 43.015625  Q 36.375 43.015625 40.234375 45.921875  Q 44.09375 48.828125 44.09375 54.296875  Q 44.09375 59.90625 40.109375 62.90625  Q 36.140625 65.921875 28.71875 65.921875  Q 24.65625 65.921875 20.015625 65.03125  Q 15.375 64.15625 9.8125 62.3125  L 9.8125 71.09375  Q 15.4375 72.65625 20.34375 73.4375  Q 25.25 74.21875 29.59375 74.21875  Q 40.828125 74.21875 47.359375 69.109375  Q 53.90625 64.015625 53.90625 55.328125  Q 53.90625 49.265625 50.4375 45.09375  Q 46.96875 40.921875 40.578125 39.3125  z " id="DejaVuSans-33"/>
      </defs>
      <g transform="translate(27.777813 284.551613)scale(0.1 -0.1)">
       <use xlink:href="#DejaVuSans-2212"/>
       <use x="83.789062" xlink:href="#DejaVuSans-33"/>
      </g>
     </g>
    </g>
    <g id="ytick_2">
     <g id="line2d_11">
      <g>
       <use style="stroke:#000000;stroke-width:0.8;" x="49.52" xlink:href="#m30c82a3885" y="239.669454"/>
      </g>
     </g>
     <g id="text_12">
      <!-- &#8722;2 -->
      <g transform="translate(27.777813 243.468673)scale(0.1 -0.1)">
       <use xlink:href="#DejaVuSans-2212"/>
       <use x="83.789062" xlink:href="#DejaVuSans-32"/>
      </g>
     </g>
    </g>
    <g id="ytick_3">
     <g id="line2d_12">
      <g>
       <use style="stroke:#000000;stroke-width:0.8;" x="49.52" xlink:href="#m30c82a3885" y="198.586514"/>
      </g>
     </g>
     <g id="text_13">
      <!-- &#8722;1 -->
      <g transform="translate(27.777813 202.385733)scale(0.1 -0.1)">
       <use xlink:href="#DejaVuSans-2212"/>
       <use x="83.789062" xlink:href="#DejaVuSans-31"/>
      </g>
     </g>
    </g>
    <g id="ytick_4">
     <g id="line2d_13">
      <g>
       <use style="stroke:#000000;stroke-width:0.8;" x="49.52" xlink:href="#m30c82a3885" y="157.503574"/>
      </g>
     </g>
     <g id="text_14">
      <!-- 0 -->
      <g transform="translate(36.1575 161.302792)scale(0.1 -0.1)">
       <use xlink:href="#DejaVuSans-30"/>
      </g>
     </g>
    </g>
    <g id="ytick_5">
     <g id="line2d_14">
      <g>
       <use style="stroke:#000000;stroke-width:0.8;" x="49.52" xlink:href="#m30c82a3885" y="116.420633"/>
      </g>
     </g>
     <g id="text_15">
      <!-- 1 -->
      <g transform="translate(36.1575 120.219852)scale(0.1 -0.1)">
       <use xlink:href="#DejaVuSans-31"/>
      </g>
     </g>
    </g>
    <g id="ytick_6">
     <g id="line2d_15">
      <g>
       <use style="stroke:#000000;stroke-width:0.8;" x="49.52" xlink:href="#m30c82a3885" y="75.337693"/>
      </g>
     </g>
     <g id="text_16">
      <!-- 2 -->
      <g transform="translate(36.1575 79.136912)scale(0.1 -0.1)">
       <use xlink:href="#DejaVuSans-32"/>
      </g>
     </g>
    </g>
    <g id="ytick_7">
     <g id="line2d_16">
      <g>
       <use style="stroke:#000000;stroke-width:0.8;" x="49.52" xlink:href="#m30c82a3885" y="34.254753"/>
      </g>
     </g>
     <g id="text_17">
      <!-- 3 -->
      <g transform="translate(36.1575 38.053971)scale(0.1 -0.1)">
       <use xlink:href="#DejaVuSans-33"/>
      </g>
     </g>
    </g>
    <g id="text_18">
     <!-- Slope, at. / $\mu m$ -->
     <defs>
      <path d="M 53.515625 70.515625  L 53.515625 60.890625  Q 47.90625 63.578125 42.921875 64.890625  Q 37.9375 66.21875 33.296875 66.21875  Q 25.25 66.21875 20.875 63.09375  Q 16.5 59.96875 16.5 54.203125  Q 16.5 49.359375 19.40625 46.890625  Q 22.3125 44.4375 30.421875 42.921875  L 36.375 41.703125  Q 47.40625 39.59375 52.65625 34.296875  Q 57.90625 29 57.90625 20.125  Q 57.90625 9.515625 50.796875 4.046875  Q 43.703125 -1.421875 29.984375 -1.421875  Q 24.8125 -1.421875 18.96875 -0.25  Q 13.140625 0.921875 6.890625 3.21875  L 6.890625 13.375  Q 12.890625 10.015625 18.65625 8.296875  Q 24.421875 6.59375 29.984375 6.59375  Q 38.421875 6.59375 43.015625 9.90625  Q 47.609375 13.234375 47.609375 19.390625  Q 47.609375 24.75 44.3125 27.78125  Q 41.015625 30.8125 33.5 32.328125  L 27.484375 33.5  Q 16.453125 35.6875 11.515625 40.375  Q 6.59375 45.0625 6.59375 53.421875  Q 6.59375 63.09375 13.40625 68.65625  Q 20.21875 74.21875 32.171875 74.21875  Q 37.3125 74.21875 42.625 73.28125  Q 47.953125 72.359375 53.515625 70.515625  z " id="DejaVuSans-53"/>
      <path d="M 9.421875 75.984375  L 18.40625 75.984375  L 18.40625 0  L 9.421875 0  z " id="DejaVuSans-6c"/>
      <path d="M 30.609375 48.390625  Q 23.390625 48.390625 19.1875 42.75  Q 14.984375 37.109375 14.984375 27.296875  Q 14.984375 17.484375 19.15625 11.84375  Q 23.34375 6.203125 30.609375 6.203125  Q 37.796875 6.203125 41.984375 11.859375  Q 46.1875 17.53125 46.1875 27.296875  Q 46.1875 37.015625 41.984375 42.703125  Q 37.796875 48.390625 30.609375 48.390625  z M 30.609375 56  Q 42.328125 56 49.015625 48.375  Q 55.71875 40.765625 55.71875 27.296875  Q 55.71875 13.875 49.015625 6.21875  Q 42.328125 -1.421875 30.609375 -1.421875  Q 18.84375 -1.421875 12.171875 6.21875  Q 5.515625 13.875 5.515625 27.296875  Q 5.515625 40.765625 12.171875 48.375  Q 18.84375 56 30.609375 56  z " id="DejaVuSans-6f"/>
      <path d="M 18.109375 8.203125  L 18.109375 -20.796875  L 9.078125 -20.796875  L 9.078125 54.6875  L 18.109375 54.6875  L 18.109375 46.390625  Q 20.953125 51.265625 25.265625 53.625  Q 29.59375 56 35.59375 56  Q 45.5625 56 51.78125 48.09375  Q 58.015625 40.1875 58.015625 27.296875  Q 58.015625 14.40625 51.78125 6.484375  Q 45.5625 -1.421875 35.59375 -1.421875  Q 29.59375 -1.421875 25.265625 0.953125  Q 20.953125 3.328125 18.109375 8.203125  z M 48.6875 27.296875  Q 48.6875 37.203125 44.609375 42.84375  Q 40.53125 48.484375 33.40625 48.484375  Q 26.265625 48.484375 22.1875 42.84375  Q 18.109375 37.203125 18.109375 27.296875  Q 18.109375 17.390625 22.1875 11.75  Q 26.265625 6.109375 33.40625 6.109375  Q 40.53125 6.109375 44.609375 11.75  Q 48.6875 17.390625 48.6875 27.296875  z " id="DejaVuSans-70"/>
      <path d="M 11.71875 12.40625  L 22.015625 12.40625  L 22.015625 4  L 14.015625 -11.625  L 7.71875 -11.625  L 11.71875 4  z " id="DejaVuSans-2c"/>
      <path d="M 10.6875 12.40625  L 21 12.40625  L 21 0  L 10.6875 0  z " id="DejaVuSans-2e"/>
      <path d="M 25.390625 72.90625  L 33.6875 72.90625  L 8.296875 -9.28125  L 0 -9.28125  z " id="DejaVuSans-2f"/>
      <path d="M 89.796875 33.015625  L 83.40625 0  L 74.421875 0  L 80.71875 32.71875  Q 81.109375 34.8125 81.296875 36.328125  Q 81.5 37.84375 81.5 38.921875  Q 81.5 43.3125 79.046875 45.75  Q 76.609375 48.1875 72.21875 48.1875  Q 65.671875 48.1875 60.546875 43.28125  Q 55.421875 38.375 53.90625 30.515625  L 47.90625 0  L 38.921875 0  L 45.3125 32.71875  Q 45.703125 34.515625 45.890625 36.046875  Q 46.09375 37.59375 46.09375 38.8125  Q 46.09375 43.265625 43.65625 45.71875  Q 41.21875 48.1875 36.921875 48.1875  Q 30.28125 48.1875 25.140625 43.28125  Q 20.015625 38.375 18.5 30.515625  L 12.5 0  L 3.515625 0  L 14.203125 54.6875  L 23.1875 54.6875  L 21.484375 46.1875  Q 25.140625 50.984375 30.046875 53.484375  Q 34.96875 56 40.578125 56  Q 46.53125 56 50.359375 52.875  Q 54.203125 49.75 54.984375 44.1875  Q 59.078125 49.953125 64.46875 52.96875  Q 69.875 56 75.875 56  Q 82.90625 56 86.734375 51.953125  Q 90.578125 47.90625 90.578125 40.484375  Q 90.578125 38.875 90.375 36.9375  Q 90.1875 35.015625 89.796875 33.015625  z " id="DejaVuSans-Oblique-6d"/>
     </defs>
     <g transform="translate(21.677813 197.84)rotate(-90)scale(0.1 -0.1)">
      <use transform="translate(0 0.015625)" xlink:href="#DejaVuSans-53"/>
      <use transform="translate(63.476562 0.015625)" xlink:href="#DejaVuSans-6c"/>
      <use transform="translate(91.259766 0.015625)" xlink:href="#DejaVuSans-6f"/>
      <use transform="translate(152.441406 0.015625)" xlink:href="#DejaVuSans-70"/>
      <use transform="translate(215.917969 0.015625)" xlink:href="#DejaVuSans-65"/>
      <use transform="translate(277.441406 0.015625)" xlink:href="#DejaVuSans-2c"/>
      <use transform="translate(309.228516 0.015625)" xlink:href="#DejaVuSans-20"/>
      <use transform="translate(341.015625 0.015625)" xlink:href="#DejaVuSans-61"/>
      <use transform="translate(402.294922 0.015625)" xlink:href="#DejaVuSans-74"/>
      <use transform="translate(441.503906 0.015625)" xlink:href="#DejaVuSans-2e"/>
      <use transform="translate(473.291016 0.015625)" xlink:href="#DejaVuSans-20"/>
      <use transform="translate(505.078125 0.015625)" xlink:href="#DejaVuSans-2f"/>
      <use transform="translate(538.769531 0.015625)" xlink:href="#DejaVuSans-20"/>
      <use transform="translate(570.556641 0.015625)" xlink:href="#DejaVuSans-Oblique-3bc"/>
      <use transform="translate(634.179688 0.015625)" xlink:href="#DejaVuSans-Oblique-6d"/>
     </g>
    </g>
    <g id="text_19">
     <!-- 1e8 -->
     <defs>
      <path d="M 31.78125 34.625  Q 24.75 34.625 20.71875 30.859375  Q 16.703125 27.09375 16.703125 20.515625  Q 16.703125 13.921875 20.71875 10.15625  Q 24.75 6.390625 31.78125 6.390625  Q 38.8125 6.390625 42.859375 10.171875  Q 46.921875 13.96875 46.921875 20.515625  Q 46.921875 27.09375 42.890625 30.859375  Q 38.875 34.625 31.78125 34.625  z M 21.921875 38.8125  Q 15.578125 40.375 12.03125 44.71875  Q 8.5 49.078125 8.5 55.328125  Q 8.5 64.0625 14.71875 69.140625  Q 20.953125 74.21875 31.78125 74.21875  Q 42.671875 74.21875 48.875 69.140625  Q 55.078125 64.0625 55.078125 55.328125  Q 55.078125 49.078125 51.53125 44.71875  Q 48 40.375 41.703125 38.8125  Q 48.828125 37.15625 52.796875 32.3125  Q 56.78125 27.484375 56.78125 20.515625  Q 56.78125 9.90625 50.3125 4.234375  Q 43.84375 -1.421875 31.78125 -1.421875  Q 19.734375 -1.421875 13.25 4.234375  Q 6.78125 9.90625 6.78125 20.515625  Q 6.78125 27.484375 10.78125 32.3125  Q 14.796875 37.15625 21.921875 38.8125  z M 18.3125 54.390625  Q 18.3125 48.734375 21.84375 45.5625  Q 25.390625 42.390625 31.78125 42.390625  Q 38.140625 42.390625 41.71875 45.5625  Q 45.3125 48.734375 45.3125 54.390625  Q 45.3125 60.0625 41.71875 63.234375  Q 38.140625 66.40625 31.78125 66.40625  Q 25.390625 66.40625 21.84375 63.234375  Q 18.3125 60.0625 18.3125 54.390625  z " id="DejaVuSans-38"/>
     </defs>
     <g transform="translate(49.52 18.72)scale(0.1 -0.1)">
      <use xlink:href="#DejaVuSans-31"/>
      <use x="63.623047" xlink:href="#DejaVuSans-65"/>
      <use x="125.146484" xlink:href="#DejaVuSans-38"/>
     </g>
    </g>
   </g>
   <g id="line2d_17">
    <defs>
     <path d="M -0 3  L 3 -3  L -3 -3  z " id="m8fadebad60" style="stroke:#f13a13;stroke-linejoin:miter;"/>
    </defs>
    <g clip-path="url(#pe2ba286d35)">
     <use style="fill:#f13a13;stroke:#f13a13;stroke-linejoin:miter;" x="49.138135" xlink:href="#m8fadebad60" y="157.503546"/>
     <use style="fill:#f13a13;stroke:#f13a13;stroke-linejoin:miter;" x="54.09755" xlink:href="#m8fadebad60" y="157.503546"/>
     <use style="fill:#f13a13;stroke:#f13a13;stroke-linejoin:miter;" x="59.056964" xlink:href="#m8fadebad60" y="157.503666"/>
     <use style="fill:#f13a13;stroke:#f13a13;stroke-linejoin:miter;" x="64.016378" xlink:href="#m8fadebad60" y="157.503598"/>
     <use style="fill:#f13a13;stroke:#f13a13;stroke-linejoin:miter;" x="68.975791" xlink:href="#m8fadebad60" y="157.503506"/>
     <use style="fill:#f13a13;stroke:#f13a13;stroke-linejoin:miter;" x="73.935209" xlink:href="#m8fadebad60" y="157.503472"/>
     <use style="fill:#f13a13;stroke:#f13a13;stroke-linejoin:miter;" x="78.894623" xlink:href="#m8fadebad60" y="157.503555"/>
     <use style="fill:#f13a13;stroke:#f13a13;stroke-linejoin:miter;" x="83.854037" xlink:href="#m8fadebad60" y="157.503585"/>
     <use style="fill:#f13a13;stroke:#f13a13;stroke-linejoin:miter;" x="88.813451" xlink:href="#m8fadebad60" y="157.503614"/>
     <use style="fill:#f13a13;stroke:#f13a13;stroke-linejoin:miter;" x="93.772865" xlink:href="#m8fadebad60" y="157.503555"/>
     <use style="fill:#f13a13;stroke:#f13a13;stroke-linejoin:miter;" x="98.732279" xlink:href="#m8fadebad60" y="157.503641"/>
     <use style="fill:#f13a13;stroke:#f13a13;stroke-linejoin:miter;" x="103.691693" xlink:href="#m8fadebad60" y="157.50358"/>
     <use style="fill:#f13a13;stroke:#f13a13;stroke-linejoin:miter;" x="108.651107" xlink:href="#m8fadebad60" y="157.503499"/>
     <use style="fill:#f13a13;stroke:#f13a13;stroke-linejoin:miter;" x="113.610521" xlink:href="#m8fadebad60" y="157.503563"/>
     <use style="fill:#f13a13;stroke:#f13a13;stroke-linejoin:miter;" x="118.569935" xlink:href="#m8fadebad60" y="157.503669"/>
     <use style="fill:#f13a13;stroke:#f13a13;stroke-linejoin:miter;" x="123.529349" xlink:href="#m8fadebad60" y="157.503756"/>
     <use style="fill:#f13a13;stroke:#f13a13;stroke-linejoin:miter;" x="128.488763" xlink:href="#m8fadebad60" y="157.503501"/>
     <use style="fill:#f13a13;stroke:#f13a13;stroke-linejoin:miter;" x="133.448177" xlink:href="#m8fadebad60" y="157.503471"/>
     <use style="fill:#f13a13;stroke:#f13a13;stroke-linejoin:miter;" x="138.407591" xlink:href="#m8fadebad60" y="157.503649"/>
     <use style="fill:#f13a13;stroke:#f13a13;stroke-linejoin:miter;" x="143.367004" xlink:href="#m8fadebad60" y="157.503632"/>
     <use style="fill:#f13a13;stroke:#f13a13;stroke-linejoin:miter;" x="148.326418" xlink:href="#m8fadebad60" y="157.503573"/>
     <use style="fill:#f13a13;stroke:#f13a13;stroke-linejoin:miter;" x="153.285832" xlink:href="#m8fadebad60" y="157.503544"/>
     <use style="fill:#f13a13;stroke:#f13a13;stroke-linejoin:miter;" x="158.245246" xlink:href="#m8fadebad60" y="157.503819"/>
     <use style="fill:#f13a13;stroke:#f13a13;stroke-linejoin:miter;" x="163.20466" xlink:href="#m8fadebad60" y="157.503975"/>
     <use style="fill:#f13a13;stroke:#f13a13;stroke-linejoin:miter;" x="168.164074" xlink:href="#m8fadebad60" y="157.503943"/>
     <use style="fill:#f13a13;stroke:#f13a13;stroke-linejoin:miter;" x="173.123488" xlink:href="#m8fadebad60" y="157.504103"/>
     <use style="fill:#f13a13;stroke:#f13a13;stroke-linejoin:miter;" x="178.082902" xlink:href="#m8fadebad60" y="157.504322"/>
     <use style="fill:#f13a13;stroke:#f13a13;stroke-linejoin:miter;" x="183.042316" xlink:href="#m8fadebad60" y="157.504698"/>
     <use style="fill:#f13a13;stroke:#f13a13;stroke-linejoin:miter;" x="188.00173" xlink:href="#m8fadebad60" y="157.504912"/>
     <use style="fill:#f13a13;stroke:#f13a13;stroke-linejoin:miter;" x="192.961144" xlink:href="#m8fadebad60" y="157.505107"/>
     <use style="fill:#f13a13;stroke:#f13a13;stroke-linejoin:miter;" x="197.920558" xlink:href="#m8fadebad60" y="157.505926"/>
     <use style="fill:#f13a13;stroke:#f13a13;stroke-linejoin:miter;" x="202.879972" xlink:href="#m8fadebad60" y="157.506651"/>
     <use style="fill:#f13a13;stroke:#f13a13;stroke-linejoin:miter;" x="207.839386" xlink:href="#m8fadebad60" y="157.507346"/>
     <use style="fill:#f13a13;stroke:#f13a13;stroke-linejoin:miter;" x="212.7988" xlink:href="#m8fadebad60" y="157.508313"/>
     <use style="fill:#f13a13;stroke:#f13a13;stroke-linejoin:miter;" x="217.758214" xlink:href="#m8fadebad60" y="157.509365"/>
     <use style="fill:#f13a13;stroke:#f13a13;stroke-linejoin:miter;" x="222.717628" xlink:href="#m8fadebad60" y="157.510281"/>
     <use style="fill:#f13a13;stroke:#f13a13;stroke-linejoin:miter;" x="227.677041" xlink:href="#m8fadebad60" y="157.511002"/>
     <use style="fill:#f13a13;stroke:#f13a13;stroke-linejoin:miter;" x="232.636455" xlink:href="#m8fadebad60" y="157.511862"/>
     <use style="fill:#f13a13;stroke:#f13a13;stroke-linejoin:miter;" x="237.595869" xlink:href="#m8fadebad60" y="157.513265"/>
     <use style="fill:#f13a13;stroke:#f13a13;stroke-linejoin:miter;" x="242.555283" xlink:href="#m8fadebad60" y="157.514782"/>
     <use style="fill:#f13a13;stroke:#f13a13;stroke-linejoin:miter;" x="247.514717" xlink:href="#m8fadebad60" y="157.51632"/>
     <use style="fill:#f13a13;stroke:#f13a13;stroke-linejoin:miter;" x="252.47415" xlink:href="#m8fadebad60" y="157.51781"/>
     <use style="fill:#f13a13;stroke:#f13a13;stroke-linejoin:miter;" x="257.433584" xlink:href="#m8fadebad60" y="157.518443"/>
     <use style="fill:#f13a13;stroke:#f13a13;stroke-linejoin:miter;" x="262.393017" xlink:href="#m8fadebad60" y="157.518292"/>
     <use style="fill:#f13a13;stroke:#f13a13;stroke-linejoin:miter;" x="267.352451" xlink:href="#m8fadebad60" y="157.51692"/>
     <use style="fill:#f13a13;stroke:#f13a13;stroke-linejoin:miter;" x="272.311689" xlink:href="#m8fadebad60" y="157.514232"/>
     <use style="fill:#f13a13;stroke:#f13a13;stroke-linejoin:miter;" x="277.271122" xlink:href="#m8fadebad60" y="157.510429"/>
     <use style="fill:#f13a13;stroke:#f13a13;stroke-linejoin:miter;" x="282.230556" xlink:href="#m8fadebad60" y="157.506798"/>
     <use style="fill:#f13a13;stroke:#f13a13;stroke-linejoin:miter;" x="287.189989" xlink:href="#m8fadebad60" y="157.504898"/>
     <use style="fill:#f13a13;stroke:#f13a13;stroke-linejoin:miter;" x="292.149423" xlink:href="#m8fadebad60" y="157.504008"/>
     <use style="fill:#f13a13;stroke:#f13a13;stroke-linejoin:miter;" x="297.108856" xlink:href="#m8fadebad60" y="157.503665"/>
     <use style="fill:#f13a13;stroke:#f13a13;stroke-linejoin:miter;" x="302.06829" xlink:href="#m8fadebad60" y="157.503543"/>
     <use style="fill:#f13a13;stroke:#f13a13;stroke-linejoin:miter;" x="307.027723" xlink:href="#m8fadebad60" y="157.503552"/>
     <use style="fill:#f13a13;stroke:#f13a13;stroke-linejoin:miter;" x="311.987157" xlink:href="#m8fadebad60" y="157.503757"/>
     <use style="fill:#f13a13;stroke:#f13a13;stroke-linejoin:miter;" x="316.94659" xlink:href="#m8fadebad60" y="157.503605"/>
     <use style="fill:#f13a13;stroke:#f13a13;stroke-linejoin:miter;" x="321.905828" xlink:href="#m8fadebad60" y="157.503437"/>
     <use style="fill:#f13a13;stroke:#f13a13;stroke-linejoin:miter;" x="326.865262" xlink:href="#m8fadebad60" y="157.503666"/>
     <use style="fill:#f13a13;stroke:#f13a13;stroke-linejoin:miter;" x="331.824695" xlink:href="#m8fadebad60" y="157.503672"/>
     <use style="fill:#f13a13;stroke:#f13a13;stroke-linejoin:miter;" x="336.784129" xlink:href="#m8fadebad60" y="157.503449"/>
     <use style="fill:#f13a13;stroke:#f13a13;stroke-linejoin:miter;" x="341.743562" xlink:href="#m8fadebad60" y="157.503373"/>
     <use style="fill:#f13a13;stroke:#f13a13;stroke-linejoin:miter;" x="346.702996" xlink:href="#m8fadebad60" y="157.503507"/>
     <use style="fill:#f13a13;stroke:#f13a13;stroke-linejoin:miter;" x="351.662429" xlink:href="#m8fadebad60" y="157.503695"/>
     <use style="fill:#f13a13;stroke:#f13a13;stroke-linejoin:miter;" x="356.621862" xlink:href="#m8fadebad60" y="157.503675"/>
     <use style="fill:#f13a13;stroke:#f13a13;stroke-linejoin:miter;" x="361.581296" xlink:href="#m8fadebad60" y="157.5036"/>
     <use style="fill:#f13a13;stroke:#f13a13;stroke-linejoin:miter;" x="366.540729" xlink:href="#m8fadebad60" y="157.503473"/>
     <use style="fill:#f13a13;stroke:#f13a13;stroke-linejoin:miter;" x="371.499967" xlink:href="#m8fadebad60" y="157.503414"/>
     <use style="fill:#f13a13;stroke:#f13a13;stroke-linejoin:miter;" x="376.459401" xlink:href="#m8fadebad60" y="157.503641"/>
     <use style="fill:#f13a13;stroke:#f13a13;stroke-linejoin:miter;" x="381.418834" xlink:href="#m8fadebad60" y="157.503828"/>
     <use style="fill:#f13a13;stroke:#f13a13;stroke-linejoin:miter;" x="386.378268" xlink:href="#m8fadebad60" y="157.50349"/>
     <use style="fill:#f13a13;stroke:#f13a13;stroke-linejoin:miter;" x="391.337701" xlink:href="#m8fadebad60" y="157.503692"/>
     <use style="fill:#f13a13;stroke:#f13a13;stroke-linejoin:miter;" x="396.297135" xlink:href="#m8fadebad60" y="157.503621"/>
     <use style="fill:#f13a13;stroke:#f13a13;stroke-linejoin:miter;" x="401.256568" xlink:href="#m8fadebad60" y="157.503395"/>
     <use style="fill:#f13a13;stroke:#f13a13;stroke-linejoin:miter;" x="406.216002" xlink:href="#m8fadebad60" y="157.503579"/>
     <use style="fill:#f13a13;stroke:#f13a13;stroke-linejoin:miter;" x="411.175435" xlink:href="#m8fadebad60" y="157.503579"/>
     <use style="fill:#f13a13;stroke:#f13a13;stroke-linejoin:miter;" x="416.134869" xlink:href="#m8fadebad60" y="157.503662"/>
     <use style="fill:#f13a13;stroke:#f13a13;stroke-linejoin:miter;" x="421.094107" xlink:href="#m8fadebad60" y="157.503608"/>
     <use style="fill:#f13a13;stroke:#f13a13;stroke-linejoin:miter;" x="426.05354" xlink:href="#m8fadebad60" y="157.503439"/>
     <use style="fill:#f13a13;stroke:#f13a13;stroke-linejoin:miter;" x="431.012974" xlink:href="#m8fadebad60" y="157.503359"/>
     <use style="fill:#f13a13;stroke:#f13a13;stroke-linejoin:miter;" x="435.972407" xlink:href="#m8fadebad60" y="157.503552"/>
     <use style="fill:#f13a13;stroke:#f13a13;stroke-linejoin:miter;" x="440.931841" xlink:href="#m8fadebad60" y="157.503552"/>
    </g>
   </g>
   <g id="line2d_18">
    <defs>
     <path d="M 0 -3  L -0.673542 -0.927051  L -2.85317 -0.927051  L -1.089814 0.354102  L -1.763356 2.427051  L -0 1.145898  L 1.763356 2.427051  L 1.089814 0.354102  L 2.85317 -0.927051  L 0.673542 -0.927051  z " id="m5cd5cd36bf" style="stroke:#fd522b;stroke-linejoin:bevel;"/>
    </defs>
    <g clip-path="url(#pe2ba286d35)">
     <use style="fill:#fd522b;stroke:#fd522b;stroke-linejoin:bevel;" x="49.138135" xlink:href="#m5cd5cd36bf" y="157.503874"/>
     <use style="fill:#fd522b;stroke:#fd522b;stroke-linejoin:bevel;" x="54.09755" xlink:href="#m5cd5cd36bf" y="157.503874"/>
     <use style="fill:#fd522b;stroke:#fd522b;stroke-linejoin:bevel;" x="59.056964" xlink:href="#m5cd5cd36bf" y="157.503449"/>
     <use style="fill:#fd522b;stroke:#fd522b;stroke-linejoin:bevel;" x="64.016378" xlink:href="#m5cd5cd36bf" y="157.503388"/>
     <use style="fill:#fd522b;stroke:#fd522b;stroke-linejoin:bevel;" x="68.975791" xlink:href="#m5cd5cd36bf" y="157.503676"/>
     <use style="fill:#fd522b;stroke:#fd522b;stroke-linejoin:bevel;" x="73.935209" xlink:href="#m5cd5cd36bf" y="157.50368"/>
     <use style="fill:#fd522b;stroke:#fd522b;stroke-linejoin:bevel;" x="78.894623" xlink:href="#m5cd5cd36bf" y="157.503561"/>
     <use style="fill:#fd522b;stroke:#fd522b;stroke-linejoin:bevel;" x="83.854037" xlink:href="#m5cd5cd36bf" y="157.503499"/>
     <use style="fill:#fd522b;stroke:#fd522b;stroke-linejoin:bevel;" x="88.813451" xlink:href="#m5cd5cd36bf" y="157.503586"/>
     <use style="fill:#fd522b;stroke:#fd522b;stroke-linejoin:bevel;" x="93.772865" xlink:href="#m5cd5cd36bf" y="157.503631"/>
     <use style="fill:#fd522b;stroke:#fd522b;stroke-linejoin:bevel;" x="98.732279" xlink:href="#m5cd5cd36bf" y="157.503611"/>
     <use style="fill:#fd522b;stroke:#fd522b;stroke-linejoin:bevel;" x="103.691693" xlink:href="#m5cd5cd36bf" y="157.503457"/>
     <use style="fill:#fd522b;stroke:#fd522b;stroke-linejoin:bevel;" x="108.651107" xlink:href="#m5cd5cd36bf" y="157.503533"/>
     <use style="fill:#fd522b;stroke:#fd522b;stroke-linejoin:bevel;" x="113.610521" xlink:href="#m5cd5cd36bf" y="157.503568"/>
     <use style="fill:#fd522b;stroke:#fd522b;stroke-linejoin:bevel;" x="118.569935" xlink:href="#m5cd5cd36bf" y="157.503609"/>
     <use style="fill:#fd522b;stroke:#fd522b;stroke-linejoin:bevel;" x="123.529349" xlink:href="#m5cd5cd36bf" y="157.503688"/>
     <use style="fill:#fd522b;stroke:#fd522b;stroke-linejoin:bevel;" x="128.488763" xlink:href="#m5cd5cd36bf" y="157.503509"/>
     <use style="fill:#fd522b;stroke:#fd522b;stroke-linejoin:bevel;" x="133.448177" xlink:href="#m5cd5cd36bf" y="157.503421"/>
     <use style="fill:#fd522b;stroke:#fd522b;stroke-linejoin:bevel;" x="138.407591" xlink:href="#m5cd5cd36bf" y="157.503483"/>
     <use style="fill:#fd522b;stroke:#fd522b;stroke-linejoin:bevel;" x="143.367004" xlink:href="#m5cd5cd36bf" y="157.503597"/>
     <use style="fill:#fd522b;stroke:#fd522b;stroke-linejoin:bevel;" x="148.326418" xlink:href="#m5cd5cd36bf" y="157.503631"/>
     <use style="fill:#fd522b;stroke:#fd522b;stroke-linejoin:bevel;" x="153.285832" xlink:href="#m5cd5cd36bf" y="157.503473"/>
     <use style="fill:#fd522b;stroke:#fd522b;stroke-linejoin:bevel;" x="158.245246" xlink:href="#m5cd5cd36bf" y="157.503331"/>
     <use style="fill:#fd522b;stroke:#fd522b;stroke-linejoin:bevel;" x="163.20466" xlink:href="#m5cd5cd36bf" y="157.503399"/>
     <use style="fill:#fd522b;stroke:#fd522b;stroke-linejoin:bevel;" x="168.164074" xlink:href="#m5cd5cd36bf" y="157.503238"/>
     <use style="fill:#fd522b;stroke:#fd522b;stroke-linejoin:bevel;" x="173.123488" xlink:href="#m5cd5cd36bf" y="157.503071"/>
     <use style="fill:#fd522b;stroke:#fd522b;stroke-linejoin:bevel;" x="178.082902" xlink:href="#m5cd5cd36bf" y="157.502909"/>
     <use style="fill:#fd522b;stroke:#fd522b;stroke-linejoin:bevel;" x="183.042316" xlink:href="#m5cd5cd36bf" y="157.502639"/>
     <use style="fill:#fd522b;stroke:#fd522b;stroke-linejoin:bevel;" x="188.00173" xlink:href="#m5cd5cd36bf" y="157.502284"/>
     <use style="fill:#fd522b;stroke:#fd522b;stroke-linejoin:bevel;" x="192.961144" xlink:href="#m5cd5cd36bf" y="157.501752"/>
     <use style="fill:#fd522b;stroke:#fd522b;stroke-linejoin:bevel;" x="197.920558" xlink:href="#m5cd5cd36bf" y="157.501281"/>
     <use style="fill:#fd522b;stroke:#fd522b;stroke-linejoin:bevel;" x="202.879972" xlink:href="#m5cd5cd36bf" y="157.500946"/>
     <use style="fill:#fd522b;stroke:#fd522b;stroke-linejoin:bevel;" x="207.839386" xlink:href="#m5cd5cd36bf" y="157.500157"/>
     <use style="fill:#fd522b;stroke:#fd522b;stroke-linejoin:bevel;" x="212.7988" xlink:href="#m5cd5cd36bf" y="157.498914"/>
     <use style="fill:#fd522b;stroke:#fd522b;stroke-linejoin:bevel;" x="217.758214" xlink:href="#m5cd5cd36bf" y="157.497998"/>
     <use style="fill:#fd522b;stroke:#fd522b;stroke-linejoin:bevel;" x="222.717628" xlink:href="#m5cd5cd36bf" y="157.497316"/>
     <use style="fill:#fd522b;stroke:#fd522b;stroke-linejoin:bevel;" x="227.677041" xlink:href="#m5cd5cd36bf" y="157.496411"/>
     <use style="fill:#fd522b;stroke:#fd522b;stroke-linejoin:bevel;" x="232.636455" xlink:href="#m5cd5cd36bf" y="157.495714"/>
     <use style="fill:#fd522b;stroke:#fd522b;stroke-linejoin:bevel;" x="237.595869" xlink:href="#m5cd5cd36bf" y="157.495236"/>
     <use style="fill:#fd522b;stroke:#fd522b;stroke-linejoin:bevel;" x="242.555283" xlink:href="#m5cd5cd36bf" y="157.494548"/>
     <use style="fill:#fd522b;stroke:#fd522b;stroke-linejoin:bevel;" x="247.514717" xlink:href="#m5cd5cd36bf" y="157.493799"/>
     <use style="fill:#fd522b;stroke:#fd522b;stroke-linejoin:bevel;" x="252.47415" xlink:href="#m5cd5cd36bf" y="157.492852"/>
     <use style="fill:#fd522b;stroke:#fd522b;stroke-linejoin:bevel;" x="257.433584" xlink:href="#m5cd5cd36bf" y="157.492158"/>
     <use style="fill:#fd522b;stroke:#fd522b;stroke-linejoin:bevel;" x="262.393017" xlink:href="#m5cd5cd36bf" y="157.491581"/>
     <use style="fill:#fd522b;stroke:#fd522b;stroke-linejoin:bevel;" x="267.352451" xlink:href="#m5cd5cd36bf" y="157.492079"/>
     <use style="fill:#fd522b;stroke:#fd522b;stroke-linejoin:bevel;" x="272.311689" xlink:href="#m5cd5cd36bf" y="157.494223"/>
     <use style="fill:#fd522b;stroke:#fd522b;stroke-linejoin:bevel;" x="277.271122" xlink:href="#m5cd5cd36bf" y="157.497134"/>
     <use style="fill:#fd522b;stroke:#fd522b;stroke-linejoin:bevel;" x="282.230556" xlink:href="#m5cd5cd36bf" y="157.500017"/>
     <use style="fill:#fd522b;stroke:#fd522b;stroke-linejoin:bevel;" x="287.189989" xlink:href="#m5cd5cd36bf" y="157.501884"/>
     <use style="fill:#fd522b;stroke:#fd522b;stroke-linejoin:bevel;" x="292.149423" xlink:href="#m5cd5cd36bf" y="157.502941"/>
     <use style="fill:#fd522b;stroke:#fd522b;stroke-linejoin:bevel;" x="297.108856" xlink:href="#m5cd5cd36bf" y="157.503322"/>
     <use style="fill:#fd522b;stroke:#fd522b;stroke-linejoin:bevel;" x="302.06829" xlink:href="#m5cd5cd36bf" y="157.503237"/>
     <use style="fill:#fd522b;stroke:#fd522b;stroke-linejoin:bevel;" x="307.027723" xlink:href="#m5cd5cd36bf" y="157.503487"/>
     <use style="fill:#fd522b;stroke:#fd522b;stroke-linejoin:bevel;" x="311.987157" xlink:href="#m5cd5cd36bf" y="157.503489"/>
     <use style="fill:#fd522b;stroke:#fd522b;stroke-linejoin:bevel;" x="316.94659" xlink:href="#m5cd5cd36bf" y="157.503311"/>
     <use style="fill:#fd522b;stroke:#fd522b;stroke-linejoin:bevel;" x="321.905828" xlink:href="#m5cd5cd36bf" y="157.503498"/>
     <use style="fill:#fd522b;stroke:#fd522b;stroke-linejoin:bevel;" x="326.865262" xlink:href="#m5cd5cd36bf" y="157.503462"/>
     <use style="fill:#fd522b;stroke:#fd522b;stroke-linejoin:bevel;" x="331.824695" xlink:href="#m5cd5cd36bf" y="157.50361"/>
     <use style="fill:#fd522b;stroke:#fd522b;stroke-linejoin:bevel;" x="336.784129" xlink:href="#m5cd5cd36bf" y="157.503687"/>
     <use style="fill:#fd522b;stroke:#fd522b;stroke-linejoin:bevel;" x="341.743562" xlink:href="#m5cd5cd36bf" y="157.50353"/>
     <use style="fill:#fd522b;stroke:#fd522b;stroke-linejoin:bevel;" x="346.702996" xlink:href="#m5cd5cd36bf" y="157.503496"/>
     <use style="fill:#fd522b;stroke:#fd522b;stroke-linejoin:bevel;" x="351.662429" xlink:href="#m5cd5cd36bf" y="157.503611"/>
     <use style="fill:#fd522b;stroke:#fd522b;stroke-linejoin:bevel;" x="356.621862" xlink:href="#m5cd5cd36bf" y="157.503582"/>
     <use style="fill:#fd522b;stroke:#fd522b;stroke-linejoin:bevel;" x="361.581296" xlink:href="#m5cd5cd36bf" y="157.503545"/>
     <use style="fill:#fd522b;stroke:#fd522b;stroke-linejoin:bevel;" x="366.540729" xlink:href="#m5cd5cd36bf" y="157.503593"/>
     <use style="fill:#fd522b;stroke:#fd522b;stroke-linejoin:bevel;" x="371.499967" xlink:href="#m5cd5cd36bf" y="157.503486"/>
     <use style="fill:#fd522b;stroke:#fd522b;stroke-linejoin:bevel;" x="376.459401" xlink:href="#m5cd5cd36bf" y="157.503478"/>
     <use style="fill:#fd522b;stroke:#fd522b;stroke-linejoin:bevel;" x="381.418834" xlink:href="#m5cd5cd36bf" y="157.503529"/>
     <use style="fill:#fd522b;stroke:#fd522b;stroke-linejoin:bevel;" x="386.378268" xlink:href="#m5cd5cd36bf" y="157.503703"/>
     <use style="fill:#fd522b;stroke:#fd522b;stroke-linejoin:bevel;" x="391.337701" xlink:href="#m5cd5cd36bf" y="157.503619"/>
     <use style="fill:#fd522b;stroke:#fd522b;stroke-linejoin:bevel;" x="396.297135" xlink:href="#m5cd5cd36bf" y="157.503532"/>
     <use style="fill:#fd522b;stroke:#fd522b;stroke-linejoin:bevel;" x="401.256568" xlink:href="#m5cd5cd36bf" y="157.503584"/>
     <use style="fill:#fd522b;stroke:#fd522b;stroke-linejoin:bevel;" x="406.216002" xlink:href="#m5cd5cd36bf" y="157.503622"/>
     <use style="fill:#fd522b;stroke:#fd522b;stroke-linejoin:bevel;" x="411.175435" xlink:href="#m5cd5cd36bf" y="157.503724"/>
     <use style="fill:#fd522b;stroke:#fd522b;stroke-linejoin:bevel;" x="416.134869" xlink:href="#m5cd5cd36bf" y="157.503494"/>
     <use style="fill:#fd522b;stroke:#fd522b;stroke-linejoin:bevel;" x="421.094107" xlink:href="#m5cd5cd36bf" y="157.503477"/>
     <use style="fill:#fd522b;stroke:#fd522b;stroke-linejoin:bevel;" x="426.05354" xlink:href="#m5cd5cd36bf" y="157.503547"/>
     <use style="fill:#fd522b;stroke:#fd522b;stroke-linejoin:bevel;" x="431.012974" xlink:href="#m5cd5cd36bf" y="157.503516"/>
     <use style="fill:#fd522b;stroke:#fd522b;stroke-linejoin:bevel;" x="435.972407" xlink:href="#m5cd5cd36bf" y="157.503689"/>
     <use style="fill:#fd522b;stroke:#fd522b;stroke-linejoin:bevel;" x="440.931841" xlink:href="#m5cd5cd36bf" y="157.503689"/>
    </g>
   </g>
   <g id="line2d_19">
    <defs>
     <path d="M 0 3  C 0.795609 3 1.55874 2.683901 2.12132 2.12132  C 2.683901 1.55874 3 0.795609 3 0  C 3 -0.795609 2.683901 -1.55874 2.12132 -2.12132  C 1.55874 -2.683901 0.795609 -3 0 -3  C -0.795609 -3 -1.55874 -2.683901 -2.12132 -2.12132  C -2.683901 -1.55874 -3 -0.795609 -3 0  C -3 0.795609 -2.683901 1.55874 -2.12132 2.12132  C -1.55874 2.683901 -0.795609 3 0 3  z " id="m33e40b6629" style="stroke:#803e75;"/>
    </defs>
    <g clip-path="url(#pe2ba286d35)">
     <use style="fill:#803e75;stroke:#803e75;" x="49.138135" xlink:href="#m33e40b6629" y="157.503301"/>
     <use style="fill:#803e75;stroke:#803e75;" x="54.09755" xlink:href="#m33e40b6629" y="157.503301"/>
     <use style="fill:#803e75;stroke:#803e75;" x="59.056964" xlink:href="#m33e40b6629" y="157.503607"/>
     <use style="fill:#803e75;stroke:#803e75;" x="64.016378" xlink:href="#m33e40b6629" y="157.503735"/>
     <use style="fill:#803e75;stroke:#803e75;" x="68.975791" xlink:href="#m33e40b6629" y="157.503539"/>
     <use style="fill:#803e75;stroke:#803e75;" x="73.935209" xlink:href="#m33e40b6629" y="157.503569"/>
     <use style="fill:#803e75;stroke:#803e75;" x="78.894623" xlink:href="#m33e40b6629" y="157.503605"/>
     <use style="fill:#803e75;stroke:#803e75;" x="83.854037" xlink:href="#m33e40b6629" y="157.503637"/>
     <use style="fill:#803e75;stroke:#803e75;" x="88.813451" xlink:href="#m33e40b6629" y="157.503521"/>
     <use style="fill:#803e75;stroke:#803e75;" x="93.772865" xlink:href="#m33e40b6629" y="157.503535"/>
     <use style="fill:#803e75;stroke:#803e75;" x="98.732279" xlink:href="#m33e40b6629" y="157.503469"/>
     <use style="fill:#803e75;stroke:#803e75;" x="103.691693" xlink:href="#m33e40b6629" y="157.503684"/>
     <use style="fill:#803e75;stroke:#803e75;" x="108.651107" xlink:href="#m33e40b6629" y="157.50369"/>
     <use style="fill:#803e75;stroke:#803e75;" x="113.610521" xlink:href="#m33e40b6629" y="157.503589"/>
     <use style="fill:#803e75;stroke:#803e75;" x="118.569935" xlink:href="#m33e40b6629" y="157.503442"/>
     <use style="fill:#803e75;stroke:#803e75;" x="123.529349" xlink:href="#m33e40b6629" y="157.503276"/>
     <use style="fill:#803e75;stroke:#803e75;" x="128.488763" xlink:href="#m33e40b6629" y="157.503711"/>
     <use style="fill:#803e75;stroke:#803e75;" x="133.448177" xlink:href="#m33e40b6629" y="157.503829"/>
     <use style="fill:#803e75;stroke:#803e75;" x="138.407591" xlink:href="#m33e40b6629" y="157.503589"/>
     <use style="fill:#803e75;stroke:#803e75;" x="143.367004" xlink:href="#m33e40b6629" y="157.503491"/>
     <use style="fill:#803e75;stroke:#803e75;" x="148.326418" xlink:href="#m33e40b6629" y="157.503517"/>
     <use style="fill:#803e75;stroke:#803e75;" x="153.285832" xlink:href="#m33e40b6629" y="157.503705"/>
     <use style="fill:#803e75;stroke:#803e75;" x="158.245246" xlink:href="#m33e40b6629" y="157.503572"/>
     <use style="fill:#803e75;stroke:#803e75;" x="163.20466" xlink:href="#m33e40b6629" y="157.503347"/>
     <use style="fill:#803e75;stroke:#803e75;" x="168.164074" xlink:href="#m33e40b6629" y="157.50354"/>
     <use style="fill:#803e75;stroke:#803e75;" x="173.123488" xlink:href="#m33e40b6629" y="157.503548"/>
     <use style="fill:#803e75;stroke:#803e75;" x="178.082902" xlink:href="#m33e40b6629" y="157.503491"/>
     <use style="fill:#803e75;stroke:#803e75;" x="183.042316" xlink:href="#m33e40b6629" y="157.503384"/>
     <use style="fill:#803e75;stroke:#803e75;" x="188.00173" xlink:href="#m33e40b6629" y="157.503526"/>
     <use style="fill:#803e75;stroke:#803e75;" x="192.961144" xlink:href="#m33e40b6629" y="157.503862"/>
     <use style="fill:#803e75;stroke:#803e75;" x="197.920558" xlink:href="#m33e40b6629" y="157.503514"/>
     <use style="fill:#803e75;stroke:#803e75;" x="202.879972" xlink:href="#m33e40b6629" y="157.503123"/>
     <use style="fill:#803e75;stroke:#803e75;" x="207.839386" xlink:href="#m33e40b6629" y="157.503218"/>
     <use style="fill:#803e75;stroke:#803e75;" x="212.7988" xlink:href="#m33e40b6629" y="157.503494"/>
     <use style="fill:#803e75;stroke:#803e75;" x="217.758214" xlink:href="#m33e40b6629" y="157.503358"/>
     <use style="fill:#803e75;stroke:#803e75;" x="222.717628" xlink:href="#m33e40b6629" y="157.503124"/>
     <use style="fill:#803e75;stroke:#803e75;" x="227.677041" xlink:href="#m33e40b6629" y="157.503307"/>
     <use style="fill:#803e75;stroke:#803e75;" x="232.636455" xlink:href="#m33e40b6629" y="157.503146"/>
     <use style="fill:#803e75;stroke:#803e75;" x="237.595869" xlink:href="#m33e40b6629" y="157.50222"/>
     <use style="fill:#803e75;stroke:#803e75;" x="242.555283" xlink:href="#m33e40b6629" y="157.501391"/>
     <use style="fill:#803e75;stroke:#803e75;" x="247.514717" xlink:href="#m33e40b6629" y="157.500602"/>
     <use style="fill:#803e75;stroke:#803e75;" x="252.47415" xlink:href="#m33e40b6629" y="157.500058"/>
     <use style="fill:#803e75;stroke:#803e75;" x="257.433584" xlink:href="#m33e40b6629" y="157.500119"/>
     <use style="fill:#803e75;stroke:#803e75;" x="262.393017" xlink:href="#m33e40b6629" y="157.500848"/>
     <use style="fill:#803e75;stroke:#803e75;" x="267.352451" xlink:href="#m33e40b6629" y="157.501721"/>
     <use style="fill:#803e75;stroke:#803e75;" x="272.311689" xlink:href="#m33e40b6629" y="157.502266"/>
     <use style="fill:#803e75;stroke:#803e75;" x="277.271122" xlink:href="#m33e40b6629" y="157.503158"/>
     <use style="fill:#803e75;stroke:#803e75;" x="282.230556" xlink:href="#m33e40b6629" y="157.503906"/>
     <use style="fill:#803e75;stroke:#803e75;" x="287.189989" xlink:href="#m33e40b6629" y="157.50394"/>
     <use style="fill:#803e75;stroke:#803e75;" x="292.149423" xlink:href="#m33e40b6629" y="157.503772"/>
     <use style="fill:#803e75;stroke:#803e75;" x="297.108856" xlink:href="#m33e40b6629" y="157.503734"/>
     <use style="fill:#803e75;stroke:#803e75;" x="302.06829" xlink:href="#m33e40b6629" y="157.503941"/>
     <use style="fill:#803e75;stroke:#803e75;" x="307.027723" xlink:href="#m33e40b6629" y="157.503683"/>
     <use style="fill:#803e75;stroke:#803e75;" x="311.987157" xlink:href="#m33e40b6629" y="157.503474"/>
     <use style="fill:#803e75;stroke:#803e75;" x="316.94659" xlink:href="#m33e40b6629" y="157.503805"/>
     <use style="fill:#803e75;stroke:#803e75;" x="321.905828" xlink:href="#m33e40b6629" y="157.503787"/>
     <use style="fill:#803e75;stroke:#803e75;" x="326.865262" xlink:href="#m33e40b6629" y="157.503593"/>
     <use style="fill:#803e75;stroke:#803e75;" x="331.824695" xlink:href="#m33e40b6629" y="157.503439"/>
     <use style="fill:#803e75;stroke:#803e75;" x="336.784129" xlink:href="#m33e40b6629" y="157.503585"/>
     <use style="fill:#803e75;stroke:#803e75;" x="341.743562" xlink:href="#m33e40b6629" y="157.503818"/>
     <use style="fill:#803e75;stroke:#803e75;" x="346.702996" xlink:href="#m33e40b6629" y="157.503718"/>
     <use style="fill:#803e75;stroke:#803e75;" x="351.662429" xlink:href="#m33e40b6629" y="157.503415"/>
     <use style="fill:#803e75;stroke:#803e75;" x="356.621862" xlink:href="#m33e40b6629" y="157.503465"/>
     <use style="fill:#803e75;stroke:#803e75;" x="361.581296" xlink:href="#m33e40b6629" y="157.503576"/>
     <use style="fill:#803e75;stroke:#803e75;" x="366.540729" xlink:href="#m33e40b6629" y="157.503655"/>
     <use style="fill:#803e75;stroke:#803e75;" x="371.499967" xlink:href="#m33e40b6629" y="157.503822"/>
     <use style="fill:#803e75;stroke:#803e75;" x="376.459401" xlink:href="#m33e40b6629" y="157.503602"/>
     <use style="fill:#803e75;stroke:#803e75;" x="381.418834" xlink:href="#m33e40b6629" y="157.503365"/>
     <use style="fill:#803e75;stroke:#803e75;" x="386.378268" xlink:href="#m33e40b6629" y="157.503528"/>
     <use style="fill:#803e75;stroke:#803e75;" x="391.337701" xlink:href="#m33e40b6629" y="157.50341"/>
     <use style="fill:#803e75;stroke:#803e75;" x="396.297135" xlink:href="#m33e40b6629" y="157.503569"/>
     <use style="fill:#803e75;stroke:#803e75;" x="401.256568" xlink:href="#m33e40b6629" y="157.503741"/>
     <use style="fill:#803e75;stroke:#803e75;" x="406.216002" xlink:href="#m33e40b6629" y="157.50352"/>
     <use style="fill:#803e75;stroke:#803e75;" x="411.175435" xlink:href="#m33e40b6629" y="157.503418"/>
     <use style="fill:#803e75;stroke:#803e75;" x="416.134869" xlink:href="#m33e40b6629" y="157.503564"/>
     <use style="fill:#803e75;stroke:#803e75;" x="421.094107" xlink:href="#m33e40b6629" y="157.503636"/>
     <use style="fill:#803e75;stroke:#803e75;" x="426.05354" xlink:href="#m33e40b6629" y="157.503735"/>
     <use style="fill:#803e75;stroke:#803e75;" x="431.012974" xlink:href="#m33e40b6629" y="157.503846"/>
     <use style="fill:#803e75;stroke:#803e75;" x="435.972407" xlink:href="#m33e40b6629" y="157.503481"/>
     <use style="fill:#803e75;stroke:#803e75;" x="440.931841" xlink:href="#m33e40b6629" y="157.503481"/>
    </g>
   </g>
   <g id="line2d_20">
    <path clip-path="url(#pe2ba286d35)" d="M 49.138135 157.503574  L 239.049258 157.614577  L 240.309413 157.541889  L 241.397729 157.500431  L 242.715164 157.643113  L 242.829723 158.045534  L 243.001563 159.308076  L 243.345241 157.905055  L 243.459801 157.888093  L 243.574361 132.129498  L 243.63164 45.742542  L 243.7462 288.076364  L 243.80348 152.305526  L 243.860759 152.92637  L 244.089879 153.795182  L 244.147158 153.862934  L 244.261718 154.62437  L 244.605397 157.298843  L 244.834516 158.111611  L 244.949075 158.62722  L 245.006355 158.534593  L 245.521873 157.525507  L 245.865552 157.3766  L 246.32379 157.438236  L 247.526666 157.527995  L 251.65081 157.537005  L 273.961286 157.508341  L 421.22761 157.503574  L 440.931855 157.503574  L 440.931855 157.503574  " style="fill:none;stroke:#f13a13;stroke-linecap:square;stroke-width:2;"/>
   </g>
   <g id="line2d_21">
    <path clip-path="url(#pe2ba286d35)" d="M 49.138135 157.503574  L 242.715164 157.422112  L 242.829723 157.155692  L 243.001563 156.337144  L 243.287962 157.706689  L 243.345241 157.670066  L 243.402521 156.82994  L 243.517081 137.250594  L 243.574361 144.718972  L 243.68892 187.808846  L 243.7462 176.145286  L 243.80348 156.547942  L 243.860759 156.774023  L 244.089879 156.787391  L 244.261718 156.762963  L 244.662676 157.109057  L 244.891796 157.111107  L 245.235474 157.449306  L 246.037391 157.450403  L 250.677054 157.476956  L 342.410627 157.503563  L 440.931855 157.503574  L 440.931855 157.503574  " style="fill:none;stroke:#fd522b;stroke-linecap:square;stroke-width:2;"/>
   </g>
   <g id="line2d_22">
    <path clip-path="url(#pe2ba286d35)" d="M 49.138135 157.503574  L 242.772444 157.41215  L 243.001563 156.865501  L 243.058843 156.940898  L 243.173402 157.134201  L 243.287962 156.902473  L 243.345241 156.9356  L 243.402521 157.779582  L 243.459801 164.406384  L 243.63164 257.293901  L 243.7462 34.403636  L 243.860759 157.233915  L 245.464593 157.394678  L 248.786821 157.495799  L 263.536365 157.501603  L 440.931855 157.503574  L 440.931855 157.503574  " style="fill:none;stroke:#803e75;stroke-linecap:square;stroke-width:2;"/>
   </g>
   <g id="patch_3">
    <path d="M 49.52 300.76  L 49.52 21.72  " style="fill:none;stroke:#000000;stroke-linecap:square;stroke-linejoin:miter;stroke-width:0.8;"/>
   </g>
   <g id="patch_4">
    <path d="M 440.55 300.76  L 440.55 21.72  " style="fill:none;stroke:#000000;stroke-linecap:square;stroke-linejoin:miter;stroke-width:0.8;"/>
   </g>
   <g id="patch_5">
    <path d="M 49.52 300.76  L 440.55 300.76  " style="fill:none;stroke:#000000;stroke-linecap:square;stroke-linejoin:miter;stroke-width:0.8;"/>
   </g>
   <g id="patch_6">
    <path d="M 49.52 21.72  L 440.55 21.72  " style="fill:none;stroke:#000000;stroke-linecap:square;stroke-linejoin:miter;stroke-width:0.8;"/>
   </g>
   <g id="legend_1">
    <g id="patch_7">
     <path d="M 363.146875 117.78875  L 433.55 117.78875  Q 435.55 117.78875 435.55 115.78875  L 435.55 28.72  Q 435.55 26.72 433.55 26.72  L 363.146875 26.72  Q 361.146875 26.72 361.146875 28.72  L 361.146875 115.78875  Q 361.146875 117.78875 363.146875 117.78875  z " style="fill:#ffffff;opacity:0.8;stroke:#cccccc;stroke-linejoin:miter;"/>
    </g>
    <g id="line2d_23"/>
    <g id="line2d_24">
     <g>
      <use style="fill:#f13a13;stroke:#f13a13;stroke-linejoin:miter;" x="375.146875" xlink:href="#m8fadebad60" y="34.818437"/>
     </g>
    </g>
    <g id="text_20">
     <!-- exp-AL -->
     <defs>
      <path d="M 54.890625 54.6875  L 35.109375 28.078125  L 55.90625 0  L 45.3125 0  L 29.390625 21.484375  L 13.484375 0  L 2.875 0  L 24.125 28.609375  L 4.6875 54.6875  L 15.28125 54.6875  L 29.78125 35.203125  L 44.28125 54.6875  z " id="DejaVuSans-78"/>
      <path d="M 4.890625 31.390625  L 31.203125 31.390625  L 31.203125 23.390625  L 4.890625 23.390625  z " id="DejaVuSans-2d"/>
      <path d="M 34.1875 63.1875  L 20.796875 26.90625  L 47.609375 26.90625  z M 28.609375 72.90625  L 39.796875 72.90625  L 67.578125 0  L 57.328125 0  L 50.6875 18.703125  L 17.828125 18.703125  L 11.1875 0  L 0.78125 0  z " id="DejaVuSans-41"/>
      <path d="M 9.8125 72.90625  L 19.671875 72.90625  L 19.671875 8.296875  L 55.171875 8.296875  L 55.171875 0  L 9.8125 0  z " id="DejaVuSans-4c"/>
     </defs>
     <g transform="translate(393.146875 38.318437)scale(0.1 -0.1)">
      <use xlink:href="#DejaVuSans-65"/>
      <use x="61.507812" xlink:href="#DejaVuSans-78"/>
      <use x="120.6875" xlink:href="#DejaVuSans-70"/>
      <use x="184.164062" xlink:href="#DejaVuSans-2d"/>
      <use x="220.216797" xlink:href="#DejaVuSans-41"/>
      <use x="288.625" xlink:href="#DejaVuSans-4c"/>
     </g>
    </g>
    <g id="line2d_25"/>
    <g id="line2d_26">
     <g>
      <use style="fill:#fd522b;stroke:#fd522b;stroke-linejoin:bevel;" x="375.146875" xlink:href="#m5cd5cd36bf" y="49.496562"/>
     </g>
    </g>
    <g id="text_21">
     <!-- exp-MG -->
     <defs>
      <path d="M 9.8125 72.90625  L 24.515625 72.90625  L 43.109375 23.296875  L 61.8125 72.90625  L 76.515625 72.90625  L 76.515625 0  L 66.890625 0  L 66.890625 64.015625  L 48.09375 14.015625  L 38.1875 14.015625  L 19.390625 64.015625  L 19.390625 0  L 9.8125 0  z " id="DejaVuSans-4d"/>
      <path d="M 59.515625 10.40625  L 59.515625 29.984375  L 43.40625 29.984375  L 43.40625 38.09375  L 69.28125 38.09375  L 69.28125 6.78125  Q 63.578125 2.734375 56.6875 0.65625  Q 49.8125 -1.421875 42 -1.421875  Q 24.90625 -1.421875 15.25 8.5625  Q 5.609375 18.5625 5.609375 36.375  Q 5.609375 54.25 15.25 64.234375  Q 24.90625 74.21875 42 74.21875  Q 49.125 74.21875 55.546875 72.453125  Q 61.96875 70.703125 67.390625 67.28125  L 67.390625 56.78125  Q 61.921875 61.421875 55.765625 63.765625  Q 49.609375 66.109375 42.828125 66.109375  Q 29.4375 66.109375 22.71875 58.640625  Q 16.015625 51.171875 16.015625 36.375  Q 16.015625 21.625 22.71875 14.15625  Q 29.4375 6.6875 42.828125 6.6875  Q 48.046875 6.6875 52.140625 7.59375  Q 56.25 8.5 59.515625 10.40625  z " id="DejaVuSans-47"/>
     </defs>
     <g transform="translate(393.146875 52.996562)scale(0.1 -0.1)">
      <use xlink:href="#DejaVuSans-65"/>
      <use x="61.507812" xlink:href="#DejaVuSans-78"/>
      <use x="120.6875" xlink:href="#DejaVuSans-70"/>
      <use x="184.164062" xlink:href="#DejaVuSans-2d"/>
      <use x="220.248047" xlink:href="#DejaVuSans-4d"/>
      <use x="306.527344" xlink:href="#DejaVuSans-47"/>
     </g>
    </g>
    <g id="line2d_27"/>
    <g id="line2d_28">
     <g>
      <use style="fill:#803e75;stroke:#803e75;" x="375.146875" xlink:href="#m33e40b6629" y="64.174687"/>
     </g>
    </g>
    <g id="text_22">
     <!-- exp-ZN -->
     <defs>
      <path d="M 5.609375 72.90625  L 62.890625 72.90625  L 62.890625 65.375  L 16.796875 8.296875  L 64.015625 8.296875  L 64.015625 0  L 4.5 0  L 4.5 7.515625  L 50.59375 64.59375  L 5.609375 64.59375  z " id="DejaVuSans-5a"/>
      <path d="M 9.8125 72.90625  L 23.09375 72.90625  L 55.421875 11.921875  L 55.421875 72.90625  L 64.984375 72.90625  L 64.984375 0  L 51.703125 0  L 19.390625 60.984375  L 19.390625 0  L 9.8125 0  z " id="DejaVuSans-4e"/>
     </defs>
     <g transform="translate(393.146875 67.674687)scale(0.1 -0.1)">
      <use xlink:href="#DejaVuSans-65"/>
      <use x="61.507812" xlink:href="#DejaVuSans-78"/>
      <use x="120.6875" xlink:href="#DejaVuSans-70"/>
      <use x="184.164062" xlink:href="#DejaVuSans-2d"/>
      <use x="220.248047" xlink:href="#DejaVuSans-5a"/>
      <use x="288.753906" xlink:href="#DejaVuSans-4e"/>
     </g>
    </g>
    <g id="line2d_29">
     <path d="M 365.146875 78.852812  L 385.146875 78.852812  " style="fill:none;stroke:#f13a13;stroke-linecap:square;stroke-width:2;"/>
    </g>
    <g id="line2d_30"/>
    <g id="text_23">
     <!-- sim-AL -->
     <g transform="translate(393.146875 82.352812)scale(0.1 -0.1)">
      <use xlink:href="#DejaVuSans-73"/>
      <use x="52.099609" xlink:href="#DejaVuSans-69"/>
      <use x="79.882812" xlink:href="#DejaVuSans-6d"/>
      <use x="177.294922" xlink:href="#DejaVuSans-2d"/>
      <use x="213.347656" xlink:href="#DejaVuSans-41"/>
      <use x="281.755859" xlink:href="#DejaVuSans-4c"/>
     </g>
    </g>
    <g id="line2d_31">
     <path d="M 365.146875 93.530937  L 385.146875 93.530937  " style="fill:none;stroke:#fd522b;stroke-linecap:square;stroke-width:2;"/>
    </g>
    <g id="line2d_32"/>
    <g id="text_24">
     <!-- sim-MG -->
     <g transform="translate(393.146875 97.030937)scale(0.1 -0.1)">
      <use xlink:href="#DejaVuSans-73"/>
      <use x="52.099609" xlink:href="#DejaVuSans-69"/>
      <use x="79.882812" xlink:href="#DejaVuSans-6d"/>
      <use x="177.294922" xlink:href="#DejaVuSans-2d"/>
      <use x="213.378906" xlink:href="#DejaVuSans-4d"/>
      <use x="299.658203" xlink:href="#DejaVuSans-47"/>
     </g>
    </g>
    <g id="line2d_33">
     <path d="M 365.146875 108.209062  L 385.146875 108.209062  " style="fill:none;stroke:#803e75;stroke-linecap:square;stroke-width:2;"/>
    </g>
    <g id="line2d_34"/>
    <g id="text_25">
     <!-- sim-ZN -->
     <g transform="translate(393.146875 111.709062)scale(0.1 -0.1)">
      <use xlink:href="#DejaVuSans-73"/>
      <use x="52.099609" xlink:href="#DejaVuSans-69"/>
      <use x="79.882812" xlink:href="#DejaVuSans-6d"/>
      <use x="177.294922" xlink:href="#DejaVuSans-2d"/>
      <use x="213.378906" xlink:href="#DejaVuSans-5a"/>
      <use x="281.884766" xlink:href="#DejaVuSans-4e"/>
     </g>
    </g>
   </g>
  </g>
 </g>
 <defs>
  <clipPath id="pe2ba286d35">
   <rect height="279.04" width="391.03" x="49.52" y="21.72"/>
  </clipPath>
 </defs>
</g>
    <g transform="translate(10, 300) scale(1) ">
      <g transform="translate(0, 0) scale(3.0) "><defs id="defs831"/>
  <sodipodi:namedview xmlns:sodipodi="http://sodipodi.sourceforge.net/DTD/sodipodi-0.dtd" xmlns:inkscape="http://www.inkscape.org/namespaces/inkscape" id="base" pagecolor="#ffffff" bordercolor="#666666" borderopacity="1.0" inkscape:pageopacity="0.0" inkscape:pageshadow="2" inkscape:zoom="1.979899" inkscape:cx="-12.763683" inkscape:cy="-16.680883" inkscape:document-units="mm" inkscape:current-layer="layer1" showgrid="false" inkscape:window-width="1920" inkscape:window-height="1001" inkscape:window-x="-9" inkscape:window-y="-9" inkscape:window-maximized="1" units="pt"/>
  <metadata xmlns:rdf="http://www.w3.org/1999/02/22-rdf-syntax-ns#" xmlns:cc="http://creativecommons.org/ns#" xmlns:dc="http://purl.org/dc/elements/1.1/" id="metadata834">
    <rdf:RDF>
      <cc:Work rdf:about="">
        <dc:format>image/svg+xml</dc:format>
        <dc:type rdf:resource="http://purl.org/dc/dcmitype/StillImage"/>
        <dc:title/>
      </cc:Work>
    </rdf:RDF>
  </metadata>
  <g xmlns:inkscape="http://www.inkscape.org/namespaces/inkscape" xmlns:sodipodi="http://sodipodi.sourceforge.net/DTD/sodipodi-0.dtd" inkscape:label="Layer 1" inkscape:groupmode="layer" id="layer1" transform="translate(0,-288.81557)">
    <g id="g4761" transform="matrix(0.07377843,0,0,0.07377843,-0.76923022,275.45946)">
      <path inkscape:connector-curvature="0" id="path1959-6-7-1-6-5-4-0-3-2-6-0-3-9-6" style="font-style:normal;font-variant:normal;font-weight:bold;font-stretch:normal;font-size:120.99466705px;line-height:1.25;font-family:Aharoni;-inkscape-font-specification:'Aharoni, Bold';font-variant-ligatures:normal;font-variant-caps:normal;font-variant-numeric:normal;font-feature-settings:normal;text-align:start;letter-spacing:0px;word-spacing:0px;writing-mode:lr-tb;text-anchor:start;fill:#000000;fill-opacity:1;stroke:none;stroke-width:2.37649584" d="M 52.937412,287.55677 H 40.587702 V 265.43005 H 22.776041 v 22.12672 h -12.34982 v -53.17432 h 12.34982 v 20.5296 h 17.811661 v -20.5296 h 12.34971 z"/>
      <path inkscape:connector-curvature="0" id="path1961-2-9-7-9-3-1-6-5-1-5-8-7-8-2" style="font-style:normal;font-variant:normal;font-weight:bold;font-stretch:normal;font-size:120.99466705px;line-height:1.25;font-family:Aharoni;-inkscape-font-specification:'Aharoni, Bold';font-variant-ligatures:normal;font-variant-caps:normal;font-variant-numeric:normal;font-feature-settings:normal;text-align:start;letter-spacing:0px;word-spacing:0px;writing-mode:lr-tb;text-anchor:start;fill:#000000;fill-opacity:1;stroke:none;stroke-width:2.37649584" d="m 69.681125,237.49895 q 0,3.0385 -1.87856,5.1421 -1.84375,2.0647 -4.55721,2.0647 -2.67866,0 -4.55722,-2.1036 -1.84375,-2.1036 -1.84375,-5.1032 0,-2.9996 1.84375,-5.0642 1.87856,-2.1036 4.55722,-2.1036 2.67865,0 4.55721,2.1036 1.87856,2.0646 1.87856,5.0642 z m -0.73057,50.05782 h -11.41048 v -36.15072 h 11.41048 z"/>
      <path inkscape:connector-curvature="0" id="path1963-3-1-2-8-3-6-3-3-3-4-7-6-0-8" style="font-style:normal;font-variant:normal;font-weight:bold;font-stretch:normal;font-size:120.99466705px;line-height:1.25;font-family:Aharoni;-inkscape-font-specification:'Aharoni, Bold';font-variant-ligatures:normal;font-variant-caps:normal;font-variant-numeric:normal;font-feature-settings:normal;text-align:start;letter-spacing:0px;word-spacing:0px;writing-mode:lr-tb;text-anchor:start;fill:#000000;fill-opacity:1;stroke:none;stroke-width:2.37649584" d="m 93.369625,261.92405 h -6.50536 v 25.63272 h -11.4104 v -25.63272 h -3.75712 v -10.518 h 3.75712 v -10.8686 h 11.4104 v 10.8686 h 6.50536 z"/>
      <path id="path1967-3-3-6-2-9-6-2-5-3-0-9-8-2-1" style="font-style:normal;font-variant:normal;font-weight:bold;font-stretch:normal;font-size:120.99466705px;line-height:1.25;font-family:Aharoni;-inkscape-font-specification:'Aharoni, Bold';font-variant-ligatures:normal;font-variant-caps:normal;font-variant-numeric:normal;font-feature-settings:normal;text-align:start;letter-spacing:0px;word-spacing:0px;writing-mode:lr-tb;text-anchor:start;fill:#000000;fill-opacity:1;stroke:none;stroke-width:2.37649584" d="m 160.61447,287.55677 h -12.34971 v -53.17432 h 12.34971 z" inkscape:connector-curvature="0"/>
      <path inkscape:connector-curvature="0" id="path1969-8-0-8-5-3-5-6-6-3-9-8-6-2-0" style="font-style:normal;font-variant:normal;font-weight:bold;font-stretch:normal;font-size:120.99466705px;line-height:1.25;font-family:Aharoni;-inkscape-font-specification:'Aharoni, Bold';font-variant-ligatures:normal;font-variant-caps:normal;font-variant-numeric:normal;font-feature-settings:normal;text-align:start;letter-spacing:0px;word-spacing:0px;writing-mode:lr-tb;text-anchor:start;fill:#000000;fill-opacity:1;stroke:none;stroke-width:2.37649584" d="m 201.6896,284.86883 q -6.05314,2.68794 -11.20172,2.68794 -8.97528,0 -16.07201,-6.42764 -9.04489,-8.21959 -9.04489,-21.42558 0,-13.2448 9.04489,-21.4644 7.09673,-6.4277 16.17636,-6.4277 4.93989,0 11.09737,2.6879 v 16.5561 q -1.73941,-2.3763 -3.54836,-3.5839 -3.30489,-2.2204 -7.09679,-2.2204 -4.8007,0 -8.34907,3.2333 -4.48766,4.0903 -4.48766,11.2191 0,7.0899 4.48766,11.1803 3.54837,3.23328 8.34907,3.23328 3.7919,0 7.09679,-2.22049 1.77415,-1.16869 3.54836,-3.58389 z"/>
      <path inkscape:transform-center-y="-13.656107" inkscape:transform-center-x="-3.9758045" sodipodi:nodetypes="csssssc" inkscape:connector-curvature="0" id="rect815-3-0-9-3-5-6-0-4-03-7-3-7-5-3-2-76-3-8-8-5-3-7-8-0-1-3-7-9-2-8-1" d="m 104.61223,181.4353 c 0,0 17.68257,27.27493 22.63096,34.41579 7.92879,11.44185 16.42741,30.36094 17.92806,45.50275 1.21005,12.20999 -1.38345,26.51285 -17.32077,30.11208 -11.70405,2.64313 -26.75007,-5.41371 -30.334975,-20.50903 -3.30533,-13.91816 -2.13088,-34.61412 0.0984,-48.67354 1.22049,-7.69719 5.657305,-36.06774 6.998335,-40.84805 z" style="font-style:normal;font-weight:normal;font-size:242.08590698px;line-height:1.25;font-family:sans-serif;letter-spacing:0px;word-spacing:0px;opacity:1;fill:#00456b;fill-opacity:1;stroke:none;stroke-width:0.6720385;stroke-miterlimit:4;stroke-dasharray:none;stroke-dashoffset:0;stroke-opacity:1;paint-order:markers fill stroke"/>
      <path sodipodi:nodetypes="ccscscsccscccscc" d="m 107.52748,246.32531 6.45576,30.78617 6.82019,-1.47997 c 5.75791,-1.24946 9.70999,-3.40081 11.85576,-6.45394 2.16431,-3.05721 2.68673,-7.25521 1.56721,-12.59398 -1.11209,-5.30332 -3.26743,-8.89247 -6.46601,-10.76744 -3.18372,-1.89669 -7.65528,-2.22015 -13.4127,-0.97081 z m -8.759905,-5.09591 12.713095,-2.78742 c 8.8634,-1.94336 15.73718,-1.59097 20.62135,1.05715 4.88003,2.62843 8.10326,7.71587 9.6697,15.26232 1.57464,7.58584 0.64804,13.61405 -2.77981,18.08462 -3.42783,4.4705 -9.55303,7.67294 -18.37559,9.60735 l -12.71311,2.78742 z" style="font-style:normal;font-weight:normal;font-size:242.08590698px;line-height:1.25;font-family:sans-serif;letter-spacing:0px;word-spacing:0px;fill:#ffffff;fill-opacity:1;stroke:none;stroke-width:1.60286868" id="path1193-3-5-3-2-7-4-5-6-0-0-6-9-2-4-7-0-0" inkscape:connector-curvature="0"/>
    </g>
  </g>
</g>
    </g>
  </g>
</svg>
