<?xml version='1.0' encoding='ASCII' standalone='yes'?>
<svg xmlns:xlink="http://www.w3.org/1999/xlink" xmlns="http://www.w3.org/2000/svg" version="1.1" width="460.8px" viewBox="0 0 460.8px 345.6px" height="345.6px">
  <g>
    <g><defs>
  <style type="text/css">
*{stroke-linecap:butt;stroke-linejoin:round;}
  </style>
 </defs>
 <g id="figure_1">
  <g id="patch_1">
   <path d="M 0 345.6  L 460.8 345.6  L 460.8 0  L 0 0  z " style="fill:#ffffff;"/>
  </g>
  <g id="axes_1">
   <g id="patch_2">
    <path d="M 47.72 303.64  L 413.08 303.64  L 413.08 14.76  L 47.72 14.76  z " style="fill:#ffffff;"/>
   </g>
   <g id="matplotlib.axis_1">
    <g id="xtick_1">
     <g id="line2d_1">
      <defs>
       <path d="M 0 0  L 0 3.5  " id="m5849476ea1" style="stroke:#000000;stroke-width:0.8;"/>
      </defs>
      <g>
       <use style="stroke:#000000;stroke-width:0.8;" x="47.72" xlink:href="#m5849476ea1" y="303.64"/>
      </g>
     </g>
     <g id="text_1">
      <!-- 0 -->
      <defs>
       <path d="M 31.78125 66.40625  Q 24.171875 66.40625 20.328125 58.90625  Q 16.5 51.421875 16.5 36.375  Q 16.5 21.390625 20.328125 13.890625  Q 24.171875 6.390625 31.78125 6.390625  Q 39.453125 6.390625 43.28125 13.890625  Q 47.125 21.390625 47.125 36.375  Q 47.125 51.421875 43.28125 58.90625  Q 39.453125 66.40625 31.78125 66.40625  z M 31.78125 74.21875  Q 44.046875 74.21875 50.515625 64.515625  Q 56.984375 54.828125 56.984375 36.375  Q 56.984375 17.96875 50.515625 8.265625  Q 44.046875 -1.421875 31.78125 -1.421875  Q 19.53125 -1.421875 13.0625 8.265625  Q 6.59375 17.96875 6.59375 36.375  Q 6.59375 54.828125 13.0625 64.515625  Q 19.53125 74.21875 31.78125 74.21875  z " id="DejaVuSans-30"/>
      </defs>
      <g transform="translate(44.53875 318.238437)scale(0.1 -0.1)">
       <use xlink:href="#DejaVuSans-30"/>
      </g>
     </g>
    </g>
    <g id="xtick_2">
     <g id="line2d_2">
      <g>
       <use style="stroke:#000000;stroke-width:0.8;" x="93.39" xlink:href="#m5849476ea1" y="303.64"/>
      </g>
     </g>
     <g id="text_2">
      <!-- 25 -->
      <defs>
       <path d="M 19.1875 8.296875  L 53.609375 8.296875  L 53.609375 0  L 7.328125 0  L 7.328125 8.296875  Q 12.9375 14.109375 22.625 23.890625  Q 32.328125 33.6875 34.8125 36.53125  Q 39.546875 41.84375 41.421875 45.53125  Q 43.3125 49.21875 43.3125 52.78125  Q 43.3125 58.59375 39.234375 62.25  Q 35.15625 65.921875 28.609375 65.921875  Q 23.96875 65.921875 18.8125 64.3125  Q 13.671875 62.703125 7.8125 59.421875  L 7.8125 69.390625  Q 13.765625 71.78125 18.9375 73  Q 24.125 74.21875 28.421875 74.21875  Q 39.75 74.21875 46.484375 68.546875  Q 53.21875 62.890625 53.21875 53.421875  Q 53.21875 48.921875 51.53125 44.890625  Q 49.859375 40.875 45.40625 35.40625  Q 44.1875 33.984375 37.640625 27.21875  Q 31.109375 20.453125 19.1875 8.296875  z " id="DejaVuSans-32"/>
       <path d="M 10.796875 72.90625  L 49.515625 72.90625  L 49.515625 64.59375  L 19.828125 64.59375  L 19.828125 46.734375  Q 21.96875 47.46875 24.109375 47.828125  Q 26.265625 48.1875 28.421875 48.1875  Q 40.625 48.1875 47.75 41.5  Q 54.890625 34.8125 54.890625 23.390625  Q 54.890625 11.625 47.5625 5.09375  Q 40.234375 -1.421875 26.90625 -1.421875  Q 22.3125 -1.421875 17.546875 -0.640625  Q 12.796875 0.140625 7.71875 1.703125  L 7.71875 11.625  Q 12.109375 9.234375 16.796875 8.0625  Q 21.484375 6.890625 26.703125 6.890625  Q 35.15625 6.890625 40.078125 11.328125  Q 45.015625 15.765625 45.015625 23.390625  Q 45.015625 31 40.078125 35.4375  Q 35.15625 39.890625 26.703125 39.890625  Q 22.75 39.890625 18.8125 39.015625  Q 14.890625 38.140625 10.796875 36.28125  z " id="DejaVuSans-35"/>
      </defs>
      <g transform="translate(87.0275 318.238437)scale(0.1 -0.1)">
       <use xlink:href="#DejaVuSans-32"/>
       <use x="63.623047" xlink:href="#DejaVuSans-35"/>
      </g>
     </g>
    </g>
    <g id="xtick_3">
     <g id="line2d_3">
      <g>
       <use style="stroke:#000000;stroke-width:0.8;" x="139.06" xlink:href="#m5849476ea1" y="303.64"/>
      </g>
     </g>
     <g id="text_3">
      <!-- 50 -->
      <g transform="translate(132.6975 318.238437)scale(0.1 -0.1)">
       <use xlink:href="#DejaVuSans-35"/>
       <use x="63.623047" xlink:href="#DejaVuSans-30"/>
      </g>
     </g>
    </g>
    <g id="xtick_4">
     <g id="line2d_4">
      <g>
       <use style="stroke:#000000;stroke-width:0.8;" x="184.73" xlink:href="#m5849476ea1" y="303.64"/>
      </g>
     </g>
     <g id="text_4">
      <!-- 75 -->
      <defs>
       <path d="M 8.203125 72.90625  L 55.078125 72.90625  L 55.078125 68.703125  L 28.609375 0  L 18.3125 0  L 43.21875 64.59375  L 8.203125 64.59375  z " id="DejaVuSans-37"/>
      </defs>
      <g transform="translate(178.3675 318.238437)scale(0.1 -0.1)">
       <use xlink:href="#DejaVuSans-37"/>
       <use x="63.623047" xlink:href="#DejaVuSans-35"/>
      </g>
     </g>
    </g>
    <g id="xtick_5">
     <g id="line2d_5">
      <g>
       <use style="stroke:#000000;stroke-width:0.8;" x="230.4" xlink:href="#m5849476ea1" y="303.64"/>
      </g>
     </g>
     <g id="text_5">
      <!-- 100 -->
      <defs>
       <path d="M 12.40625 8.296875  L 28.515625 8.296875  L 28.515625 63.921875  L 10.984375 60.40625  L 10.984375 69.390625  L 28.421875 72.90625  L 38.28125 72.90625  L 38.28125 8.296875  L 54.390625 8.296875  L 54.390625 0  L 12.40625 0  z " id="DejaVuSans-31"/>
      </defs>
      <g transform="translate(220.85625 318.238437)scale(0.1 -0.1)">
       <use xlink:href="#DejaVuSans-31"/>
       <use x="63.623047" xlink:href="#DejaVuSans-30"/>
       <use x="127.246094" xlink:href="#DejaVuSans-30"/>
      </g>
     </g>
    </g>
    <g id="xtick_6">
     <g id="line2d_6">
      <g>
       <use style="stroke:#000000;stroke-width:0.8;" x="276.07" xlink:href="#m5849476ea1" y="303.64"/>
      </g>
     </g>
     <g id="text_6">
      <!-- 125 -->
      <g transform="translate(266.52625 318.238437)scale(0.1 -0.1)">
       <use xlink:href="#DejaVuSans-31"/>
       <use x="63.623047" xlink:href="#DejaVuSans-32"/>
       <use x="127.246094" xlink:href="#DejaVuSans-35"/>
      </g>
     </g>
    </g>
    <g id="xtick_7">
     <g id="line2d_7">
      <g>
       <use style="stroke:#000000;stroke-width:0.8;" x="321.74" xlink:href="#m5849476ea1" y="303.64"/>
      </g>
     </g>
     <g id="text_7">
      <!-- 150 -->
      <g transform="translate(312.19625 318.238437)scale(0.1 -0.1)">
       <use xlink:href="#DejaVuSans-31"/>
       <use x="63.623047" xlink:href="#DejaVuSans-35"/>
       <use x="127.246094" xlink:href="#DejaVuSans-30"/>
      </g>
     </g>
    </g>
    <g id="xtick_8">
     <g id="line2d_8">
      <g>
       <use style="stroke:#000000;stroke-width:0.8;" x="367.41" xlink:href="#m5849476ea1" y="303.64"/>
      </g>
     </g>
     <g id="text_8">
      <!-- 175 -->
      <g transform="translate(357.86625 318.238437)scale(0.1 -0.1)">
       <use xlink:href="#DejaVuSans-31"/>
       <use x="63.623047" xlink:href="#DejaVuSans-37"/>
       <use x="127.246094" xlink:href="#DejaVuSans-35"/>
      </g>
     </g>
    </g>
    <g id="xtick_9">
     <g id="line2d_9">
      <g>
       <use style="stroke:#000000;stroke-width:0.8;" x="413.08" xlink:href="#m5849476ea1" y="303.64"/>
      </g>
     </g>
     <g id="text_9">
      <!-- 200 -->
      <g transform="translate(403.53625 318.238437)scale(0.1 -0.1)">
       <use xlink:href="#DejaVuSans-32"/>
       <use x="63.623047" xlink:href="#DejaVuSans-30"/>
       <use x="127.246094" xlink:href="#DejaVuSans-30"/>
      </g>
     </g>
    </g>
    <g id="text_10">
     <!-- Distance (&#181;m) -->
     <defs>
      <path d="M 19.671875 64.796875  L 19.671875 8.109375  L 31.59375 8.109375  Q 46.6875 8.109375 53.6875 14.9375  Q 60.6875 21.78125 60.6875 36.53125  Q 60.6875 51.171875 53.6875 57.984375  Q 46.6875 64.796875 31.59375 64.796875  z M 9.8125 72.90625  L 30.078125 72.90625  Q 51.265625 72.90625 61.171875 64.09375  Q 71.09375 55.28125 71.09375 36.53125  Q 71.09375 17.671875 61.125 8.828125  Q 51.171875 0 30.078125 0  L 9.8125 0  z " id="DejaVuSans-44"/>
      <path d="M 9.421875 54.6875  L 18.40625 54.6875  L 18.40625 0  L 9.421875 0  z M 9.421875 75.984375  L 18.40625 75.984375  L 18.40625 64.59375  L 9.421875 64.59375  z " id="DejaVuSans-69"/>
      <path d="M 44.28125 53.078125  L 44.28125 44.578125  Q 40.484375 46.53125 36.375 47.5  Q 32.28125 48.484375 27.875 48.484375  Q 21.1875 48.484375 17.84375 46.4375  Q 14.5 44.390625 14.5 40.28125  Q 14.5 37.15625 16.890625 35.375  Q 19.28125 33.59375 26.515625 31.984375  L 29.59375 31.296875  Q 39.15625 29.25 43.1875 25.515625  Q 47.21875 21.78125 47.21875 15.09375  Q 47.21875 7.46875 41.1875 3.015625  Q 35.15625 -1.421875 24.609375 -1.421875  Q 20.21875 -1.421875 15.453125 -0.5625  Q 10.6875 0.296875 5.421875 2  L 5.421875 11.28125  Q 10.40625 8.6875 15.234375 7.390625  Q 20.0625 6.109375 24.8125 6.109375  Q 31.15625 6.109375 34.5625 8.28125  Q 37.984375 10.453125 37.984375 14.40625  Q 37.984375 18.0625 35.515625 20.015625  Q 33.0625 21.96875 24.703125 23.78125  L 21.578125 24.515625  Q 13.234375 26.265625 9.515625 29.90625  Q 5.8125 33.546875 5.8125 39.890625  Q 5.8125 47.609375 11.28125 51.796875  Q 16.75 56 26.8125 56  Q 31.78125 56 36.171875 55.265625  Q 40.578125 54.546875 44.28125 53.078125  z " id="DejaVuSans-73"/>
      <path d="M 18.3125 70.21875  L 18.3125 54.6875  L 36.8125 54.6875  L 36.8125 47.703125  L 18.3125 47.703125  L 18.3125 18.015625  Q 18.3125 11.328125 20.140625 9.421875  Q 21.96875 7.515625 27.59375 7.515625  L 36.8125 7.515625  L 36.8125 0  L 27.59375 0  Q 17.1875 0 13.234375 3.875  Q 9.28125 7.765625 9.28125 18.015625  L 9.28125 47.703125  L 2.6875 47.703125  L 2.6875 54.6875  L 9.28125 54.6875  L 9.28125 70.21875  z " id="DejaVuSans-74"/>
      <path d="M 34.28125 27.484375  Q 23.390625 27.484375 19.1875 25  Q 14.984375 22.515625 14.984375 16.5  Q 14.984375 11.71875 18.140625 8.90625  Q 21.296875 6.109375 26.703125 6.109375  Q 34.1875 6.109375 38.703125 11.40625  Q 43.21875 16.703125 43.21875 25.484375  L 43.21875 27.484375  z M 52.203125 31.203125  L 52.203125 0  L 43.21875 0  L 43.21875 8.296875  Q 40.140625 3.328125 35.546875 0.953125  Q 30.953125 -1.421875 24.3125 -1.421875  Q 15.921875 -1.421875 10.953125 3.296875  Q 6 8.015625 6 15.921875  Q 6 25.140625 12.171875 29.828125  Q 18.359375 34.515625 30.609375 34.515625  L 43.21875 34.515625  L 43.21875 35.40625  Q 43.21875 41.609375 39.140625 45  Q 35.0625 48.390625 27.6875 48.390625  Q 23 48.390625 18.546875 47.265625  Q 14.109375 46.140625 10.015625 43.890625  L 10.015625 52.203125  Q 14.9375 54.109375 19.578125 55.046875  Q 24.21875 56 28.609375 56  Q 40.484375 56 46.34375 49.84375  Q 52.203125 43.703125 52.203125 31.203125  z " id="DejaVuSans-61"/>
      <path d="M 54.890625 33.015625  L 54.890625 0  L 45.90625 0  L 45.90625 32.71875  Q 45.90625 40.484375 42.875 44.328125  Q 39.84375 48.1875 33.796875 48.1875  Q 26.515625 48.1875 22.3125 43.546875  Q 18.109375 38.921875 18.109375 30.90625  L 18.109375 0  L 9.078125 0  L 9.078125 54.6875  L 18.109375 54.6875  L 18.109375 46.1875  Q 21.34375 51.125 25.703125 53.5625  Q 30.078125 56 35.796875 56  Q 45.21875 56 50.046875 50.171875  Q 54.890625 44.34375 54.890625 33.015625  z " id="DejaVuSans-6e"/>
      <path d="M 48.78125 52.59375  L 48.78125 44.1875  Q 44.96875 46.296875 41.140625 47.34375  Q 37.3125 48.390625 33.40625 48.390625  Q 24.65625 48.390625 19.8125 42.84375  Q 14.984375 37.3125 14.984375 27.296875  Q 14.984375 17.28125 19.8125 11.734375  Q 24.65625 6.203125 33.40625 6.203125  Q 37.3125 6.203125 41.140625 7.25  Q 44.96875 8.296875 48.78125 10.40625  L 48.78125 2.09375  Q 45.015625 0.34375 40.984375 -0.53125  Q 36.96875 -1.421875 32.421875 -1.421875  Q 20.0625 -1.421875 12.78125 6.34375  Q 5.515625 14.109375 5.515625 27.296875  Q 5.515625 40.671875 12.859375 48.328125  Q 20.21875 56 33.015625 56  Q 37.15625 56 41.109375 55.140625  Q 45.0625 54.296875 48.78125 52.59375  z " id="DejaVuSans-63"/>
      <path d="M 56.203125 29.59375  L 56.203125 25.203125  L 14.890625 25.203125  Q 15.484375 15.921875 20.484375 11.0625  Q 25.484375 6.203125 34.421875 6.203125  Q 39.59375 6.203125 44.453125 7.46875  Q 49.3125 8.734375 54.109375 11.28125  L 54.109375 2.78125  Q 49.265625 0.734375 44.1875 -0.34375  Q 39.109375 -1.421875 33.890625 -1.421875  Q 20.796875 -1.421875 13.15625 6.1875  Q 5.515625 13.8125 5.515625 26.8125  Q 5.515625 40.234375 12.765625 48.109375  Q 20.015625 56 32.328125 56  Q 43.359375 56 49.78125 48.890625  Q 56.203125 41.796875 56.203125 29.59375  z M 47.21875 32.234375  Q 47.125 39.59375 43.09375 43.984375  Q 39.0625 48.390625 32.421875 48.390625  Q 24.90625 48.390625 20.390625 44.140625  Q 15.875 39.890625 15.1875 32.171875  z " id="DejaVuSans-65"/>
      <path id="DejaVuSans-20"/>
      <path d="M 31 75.875  Q 24.46875 64.65625 21.28125 53.65625  Q 18.109375 42.671875 18.109375 31.390625  Q 18.109375 20.125 21.3125 9.0625  Q 24.515625 -2 31 -13.1875  L 23.1875 -13.1875  Q 15.875 -1.703125 12.234375 9.375  Q 8.59375 20.453125 8.59375 31.390625  Q 8.59375 42.28125 12.203125 53.3125  Q 15.828125 64.359375 23.1875 75.875  z " id="DejaVuSans-28"/>
      <path d="M 8.5 -20.796875  L 8.5 54.6875  L 17.484375 54.6875  L 17.484375 20.703125  Q 17.484375 13.625 20.84375 10  Q 24.21875 6.390625 30.8125 6.390625  Q 38.03125 6.390625 41.671875 10.484375  Q 45.3125 14.59375 45.3125 22.796875  L 45.3125 54.6875  L 54.296875 54.6875  L 54.296875 12.59375  Q 54.296875 9.671875 55.140625 8.28125  Q 56 6.890625 57.8125 6.890625  Q 58.25 6.890625 59.03125 7.15625  Q 59.8125 7.421875 61.1875 8.015625  L 61.1875 0.78125  Q 59.1875 -0.34375 57.390625 -0.875  Q 55.609375 -1.421875 53.90625 -1.421875  Q 50.53125 -1.421875 48.53125 0.484375  Q 46.53125 2.390625 45.796875 6.296875  Q 43.359375 2.4375 39.8125 0.5  Q 36.28125 -1.421875 31.5 -1.421875  Q 26.515625 -1.421875 23.015625 0.484375  Q 19.53125 2.390625 17.484375 6.203125  L 17.484375 -20.796875  z " id="DejaVuSans-b5"/>
      <path d="M 52 44.1875  Q 55.375 50.25 60.0625 53.125  Q 64.75 56 71.09375 56  Q 79.640625 56 84.28125 50.015625  Q 88.921875 44.046875 88.921875 33.015625  L 88.921875 0  L 79.890625 0  L 79.890625 32.71875  Q 79.890625 40.578125 77.09375 44.375  Q 74.3125 48.1875 68.609375 48.1875  Q 61.625 48.1875 57.5625 43.546875  Q 53.515625 38.921875 53.515625 30.90625  L 53.515625 0  L 44.484375 0  L 44.484375 32.71875  Q 44.484375 40.625 41.703125 44.40625  Q 38.921875 48.1875 33.109375 48.1875  Q 26.21875 48.1875 22.15625 43.53125  Q 18.109375 38.875 18.109375 30.90625  L 18.109375 0  L 9.078125 0  L 9.078125 54.6875  L 18.109375 54.6875  L 18.109375 46.1875  Q 21.1875 51.21875 25.484375 53.609375  Q 29.78125 56 35.6875 56  Q 41.65625 56 45.828125 52.96875  Q 50 49.953125 52 44.1875  z " id="DejaVuSans-6d"/>
      <path d="M 8.015625 75.875  L 15.828125 75.875  Q 23.140625 64.359375 26.78125 53.3125  Q 30.421875 42.28125 30.421875 31.390625  Q 30.421875 20.453125 26.78125 9.375  Q 23.140625 -1.703125 15.828125 -13.1875  L 8.015625 -13.1875  Q 14.5 -2 17.703125 9.0625  Q 20.90625 20.125 20.90625 31.390625  Q 20.90625 42.671875 17.703125 53.65625  Q 14.5 64.65625 8.015625 75.875  z " id="DejaVuSans-29"/>
     </defs>
     <g transform="translate(194.995313 331.916562)scale(0.1 -0.1)">
      <use xlink:href="#DejaVuSans-44"/>
      <use x="77.001953" xlink:href="#DejaVuSans-69"/>
      <use x="104.785156" xlink:href="#DejaVuSans-73"/>
      <use x="156.884766" xlink:href="#DejaVuSans-74"/>
      <use x="196.09375" xlink:href="#DejaVuSans-61"/>
      <use x="257.373047" xlink:href="#DejaVuSans-6e"/>
      <use x="320.751953" xlink:href="#DejaVuSans-63"/>
      <use x="375.732422" xlink:href="#DejaVuSans-65"/>
      <use x="437.255859" xlink:href="#DejaVuSans-20"/>
      <use x="469.042969" xlink:href="#DejaVuSans-28"/>
      <use x="508.056641" xlink:href="#DejaVuSans-b5"/>
      <use x="571.679688" xlink:href="#DejaVuSans-6d"/>
      <use x="669.091797" xlink:href="#DejaVuSans-29"/>
     </g>
    </g>
   </g>
   <g id="matplotlib.axis_2">
    <g id="ytick_1">
     <g id="line2d_10">
      <defs>
       <path d="M 0 0  L -3.5 0  " id="m343ca72efa" style="stroke:#000000;stroke-width:0.8;"/>
      </defs>
      <g>
       <use style="stroke:#000000;stroke-width:0.8;" x="47.72" xlink:href="#m343ca72efa" y="289.994274"/>
      </g>
     </g>
     <g id="text_11">
      <!-- 0.0 -->
      <defs>
       <path d="M 10.6875 12.40625  L 21 12.40625  L 21 0  L 10.6875 0  z " id="DejaVuSans-2e"/>
      </defs>
      <g transform="translate(24.816875 293.793492)scale(0.1 -0.1)">
       <use xlink:href="#DejaVuSans-30"/>
       <use x="63.623047" xlink:href="#DejaVuSans-2e"/>
       <use x="95.410156" xlink:href="#DejaVuSans-30"/>
      </g>
     </g>
    </g>
    <g id="ytick_2">
     <g id="line2d_11">
      <g>
       <use style="stroke:#000000;stroke-width:0.8;" x="47.72" xlink:href="#m343ca72efa" y="237.712096"/>
      </g>
     </g>
     <g id="text_12">
      <!-- 0.2 -->
      <g transform="translate(24.816875 241.511315)scale(0.1 -0.1)">
       <use xlink:href="#DejaVuSans-30"/>
       <use x="63.623047" xlink:href="#DejaVuSans-2e"/>
       <use x="95.410156" xlink:href="#DejaVuSans-32"/>
      </g>
     </g>
    </g>
    <g id="ytick_3">
     <g id="line2d_12">
      <g>
       <use style="stroke:#000000;stroke-width:0.8;" x="47.72" xlink:href="#m343ca72efa" y="185.429919"/>
      </g>
     </g>
     <g id="text_13">
      <!-- 0.4 -->
      <defs>
       <path d="M 37.796875 64.3125  L 12.890625 25.390625  L 37.796875 25.390625  z M 35.203125 72.90625  L 47.609375 72.90625  L 47.609375 25.390625  L 58.015625 25.390625  L 58.015625 17.1875  L 47.609375 17.1875  L 47.609375 0  L 37.796875 0  L 37.796875 17.1875  L 4.890625 17.1875  L 4.890625 26.703125  z " id="DejaVuSans-34"/>
      </defs>
      <g transform="translate(24.816875 189.229137)scale(0.1 -0.1)">
       <use xlink:href="#DejaVuSans-30"/>
       <use x="63.623047" xlink:href="#DejaVuSans-2e"/>
       <use x="95.410156" xlink:href="#DejaVuSans-34"/>
      </g>
     </g>
    </g>
    <g id="ytick_4">
     <g id="line2d_13">
      <g>
       <use style="stroke:#000000;stroke-width:0.8;" x="47.72" xlink:href="#m343ca72efa" y="133.147741"/>
      </g>
     </g>
     <g id="text_14">
      <!-- 0.6 -->
      <defs>
       <path d="M 33.015625 40.375  Q 26.375 40.375 22.484375 35.828125  Q 18.609375 31.296875 18.609375 23.390625  Q 18.609375 15.53125 22.484375 10.953125  Q 26.375 6.390625 33.015625 6.390625  Q 39.65625 6.390625 43.53125 10.953125  Q 47.40625 15.53125 47.40625 23.390625  Q 47.40625 31.296875 43.53125 35.828125  Q 39.65625 40.375 33.015625 40.375  z M 52.59375 71.296875  L 52.59375 62.3125  Q 48.875 64.0625 45.09375 64.984375  Q 41.3125 65.921875 37.59375 65.921875  Q 27.828125 65.921875 22.671875 59.328125  Q 17.53125 52.734375 16.796875 39.40625  Q 19.671875 43.65625 24.015625 45.921875  Q 28.375 48.1875 33.59375 48.1875  Q 44.578125 48.1875 50.953125 41.515625  Q 57.328125 34.859375 57.328125 23.390625  Q 57.328125 12.15625 50.6875 5.359375  Q 44.046875 -1.421875 33.015625 -1.421875  Q 20.359375 -1.421875 13.671875 8.265625  Q 6.984375 17.96875 6.984375 36.375  Q 6.984375 53.65625 15.1875 63.9375  Q 23.390625 74.21875 37.203125 74.21875  Q 40.921875 74.21875 44.703125 73.484375  Q 48.484375 72.75 52.59375 71.296875  z " id="DejaVuSans-36"/>
      </defs>
      <g transform="translate(24.816875 136.94696)scale(0.1 -0.1)">
       <use xlink:href="#DejaVuSans-30"/>
       <use x="63.623047" xlink:href="#DejaVuSans-2e"/>
       <use x="95.410156" xlink:href="#DejaVuSans-36"/>
      </g>
     </g>
    </g>
    <g id="ytick_5">
     <g id="line2d_14">
      <g>
       <use style="stroke:#000000;stroke-width:0.8;" x="47.72" xlink:href="#m343ca72efa" y="80.865564"/>
      </g>
     </g>
     <g id="text_15">
      <!-- 0.8 -->
      <defs>
       <path d="M 31.78125 34.625  Q 24.75 34.625 20.71875 30.859375  Q 16.703125 27.09375 16.703125 20.515625  Q 16.703125 13.921875 20.71875 10.15625  Q 24.75 6.390625 31.78125 6.390625  Q 38.8125 6.390625 42.859375 10.171875  Q 46.921875 13.96875 46.921875 20.515625  Q 46.921875 27.09375 42.890625 30.859375  Q 38.875 34.625 31.78125 34.625  z M 21.921875 38.8125  Q 15.578125 40.375 12.03125 44.71875  Q 8.5 49.078125 8.5 55.328125  Q 8.5 64.0625 14.71875 69.140625  Q 20.953125 74.21875 31.78125 74.21875  Q 42.671875 74.21875 48.875 69.140625  Q 55.078125 64.0625 55.078125 55.328125  Q 55.078125 49.078125 51.53125 44.71875  Q 48 40.375 41.703125 38.8125  Q 48.828125 37.15625 52.796875 32.3125  Q 56.78125 27.484375 56.78125 20.515625  Q 56.78125 9.90625 50.3125 4.234375  Q 43.84375 -1.421875 31.78125 -1.421875  Q 19.734375 -1.421875 13.25 4.234375  Q 6.78125 9.90625 6.78125 20.515625  Q 6.78125 27.484375 10.78125 32.3125  Q 14.796875 37.15625 21.921875 38.8125  z M 18.3125 54.390625  Q 18.3125 48.734375 21.84375 45.5625  Q 25.390625 42.390625 31.78125 42.390625  Q 38.140625 42.390625 41.71875 45.5625  Q 45.3125 48.734375 45.3125 54.390625  Q 45.3125 60.0625 41.71875 63.234375  Q 38.140625 66.40625 31.78125 66.40625  Q 25.390625 66.40625 21.84375 63.234375  Q 18.3125 60.0625 18.3125 54.390625  z " id="DejaVuSans-38"/>
      </defs>
      <g transform="translate(24.816875 84.664783)scale(0.1 -0.1)">
       <use xlink:href="#DejaVuSans-30"/>
       <use x="63.623047" xlink:href="#DejaVuSans-2e"/>
       <use x="95.410156" xlink:href="#DejaVuSans-38"/>
      </g>
     </g>
    </g>
    <g id="ytick_6">
     <g id="line2d_15">
      <g>
       <use style="stroke:#000000;stroke-width:0.8;" x="47.72" xlink:href="#m343ca72efa" y="28.583387"/>
      </g>
     </g>
     <g id="text_16">
      <!-- 1.0 -->
      <g transform="translate(24.816875 32.382605)scale(0.1 -0.1)">
       <use xlink:href="#DejaVuSans-31"/>
       <use x="63.623047" xlink:href="#DejaVuSans-2e"/>
       <use x="95.410156" xlink:href="#DejaVuSans-30"/>
      </g>
     </g>
    </g>
    <g id="text_17">
     <!-- Mole Fraction (AL,MG) -->
     <defs>
      <path d="M 9.8125 72.90625  L 24.515625 72.90625  L 43.109375 23.296875  L 61.8125 72.90625  L 76.515625 72.90625  L 76.515625 0  L 66.890625 0  L 66.890625 64.015625  L 48.09375 14.015625  L 38.1875 14.015625  L 19.390625 64.015625  L 19.390625 0  L 9.8125 0  z " id="DejaVuSans-4d"/>
      <path d="M 30.609375 48.390625  Q 23.390625 48.390625 19.1875 42.75  Q 14.984375 37.109375 14.984375 27.296875  Q 14.984375 17.484375 19.15625 11.84375  Q 23.34375 6.203125 30.609375 6.203125  Q 37.796875 6.203125 41.984375 11.859375  Q 46.1875 17.53125 46.1875 27.296875  Q 46.1875 37.015625 41.984375 42.703125  Q 37.796875 48.390625 30.609375 48.390625  z M 30.609375 56  Q 42.328125 56 49.015625 48.375  Q 55.71875 40.765625 55.71875 27.296875  Q 55.71875 13.875 49.015625 6.21875  Q 42.328125 -1.421875 30.609375 -1.421875  Q 18.84375 -1.421875 12.171875 6.21875  Q 5.515625 13.875 5.515625 27.296875  Q 5.515625 40.765625 12.171875 48.375  Q 18.84375 56 30.609375 56  z " id="DejaVuSans-6f"/>
      <path d="M 9.421875 75.984375  L 18.40625 75.984375  L 18.40625 0  L 9.421875 0  z " id="DejaVuSans-6c"/>
      <path d="M 9.8125 72.90625  L 51.703125 72.90625  L 51.703125 64.59375  L 19.671875 64.59375  L 19.671875 43.109375  L 48.578125 43.109375  L 48.578125 34.8125  L 19.671875 34.8125  L 19.671875 0  L 9.8125 0  z " id="DejaVuSans-46"/>
      <path d="M 41.109375 46.296875  Q 39.59375 47.171875 37.8125 47.578125  Q 36.03125 48 33.890625 48  Q 26.265625 48 22.1875 43.046875  Q 18.109375 38.09375 18.109375 28.8125  L 18.109375 0  L 9.078125 0  L 9.078125 54.6875  L 18.109375 54.6875  L 18.109375 46.1875  Q 20.953125 51.171875 25.484375 53.578125  Q 30.03125 56 36.53125 56  Q 37.453125 56 38.578125 55.875  Q 39.703125 55.765625 41.0625 55.515625  z " id="DejaVuSans-72"/>
      <path d="M 34.1875 63.1875  L 20.796875 26.90625  L 47.609375 26.90625  z M 28.609375 72.90625  L 39.796875 72.90625  L 67.578125 0  L 57.328125 0  L 50.6875 18.703125  L 17.828125 18.703125  L 11.1875 0  L 0.78125 0  z " id="DejaVuSans-41"/>
      <path d="M 9.8125 72.90625  L 19.671875 72.90625  L 19.671875 8.296875  L 55.171875 8.296875  L 55.171875 0  L 9.8125 0  z " id="DejaVuSans-4c"/>
      <path d="M 11.71875 12.40625  L 22.015625 12.40625  L 22.015625 4  L 14.015625 -11.625  L 7.71875 -11.625  L 11.71875 4  z " id="DejaVuSans-2c"/>
      <path d="M 59.515625 10.40625  L 59.515625 29.984375  L 43.40625 29.984375  L 43.40625 38.09375  L 69.28125 38.09375  L 69.28125 6.78125  Q 63.578125 2.734375 56.6875 0.65625  Q 49.8125 -1.421875 42 -1.421875  Q 24.90625 -1.421875 15.25 8.5625  Q 5.609375 18.5625 5.609375 36.375  Q 5.609375 54.25 15.25 64.234375  Q 24.90625 74.21875 42 74.21875  Q 49.125 74.21875 55.546875 72.453125  Q 61.96875 70.703125 67.390625 67.28125  L 67.390625 56.78125  Q 61.921875 61.421875 55.765625 63.765625  Q 49.609375 66.109375 42.828125 66.109375  Q 29.4375 66.109375 22.71875 58.640625  Q 16.015625 51.171875 16.015625 36.375  Q 16.015625 21.625 22.71875 14.15625  Q 29.4375 6.6875 42.828125 6.6875  Q 48.046875 6.6875 52.140625 7.59375  Q 56.25 8.5 59.515625 10.40625  z " id="DejaVuSans-47"/>
     </defs>
     <g transform="translate(18.737187 214.41875)rotate(-90)scale(0.1 -0.1)">
      <use xlink:href="#DejaVuSans-4d"/>
      <use x="86.279297" xlink:href="#DejaVuSans-6f"/>
      <use x="147.460938" xlink:href="#DejaVuSans-6c"/>
      <use x="175.244141" xlink:href="#DejaVuSans-65"/>
      <use x="236.767578" xlink:href="#DejaVuSans-20"/>
      <use x="268.554688" xlink:href="#DejaVuSans-46"/>
      <use x="325.964844" xlink:href="#DejaVuSans-72"/>
      <use x="367.078125" xlink:href="#DejaVuSans-61"/>
      <use x="428.357422" xlink:href="#DejaVuSans-63"/>
      <use x="483.337891" xlink:href="#DejaVuSans-74"/>
      <use x="522.546875" xlink:href="#DejaVuSans-69"/>
      <use x="550.330078" xlink:href="#DejaVuSans-6f"/>
      <use x="611.511719" xlink:href="#DejaVuSans-6e"/>
      <use x="674.890625" xlink:href="#DejaVuSans-20"/>
      <use x="706.677734" xlink:href="#DejaVuSans-28"/>
      <use x="745.691406" xlink:href="#DejaVuSans-41"/>
      <use x="814.099609" xlink:href="#DejaVuSans-4c"/>
      <use x="869.8125" xlink:href="#DejaVuSans-2c"/>
      <use x="901.599609" xlink:href="#DejaVuSans-4d"/>
      <use x="987.878906" xlink:href="#DejaVuSans-47"/>
      <use x="1065.369141" xlink:href="#DejaVuSans-29"/>
     </g>
    </g>
   </g>
   <g id="line2d_16">
    <defs>
     <path d="M -0 3  L 3 -3  L -3 -3  z " id="m95fcf21288" style="stroke:#f13a13;stroke-linejoin:miter;"/>
    </defs>
    <g clip-path="url(#p14ef0f50b8)">
     <use style="fill:#f13a13;stroke:#f13a13;stroke-linejoin:miter;" x="47.363203" xlink:href="#m95fcf21288" y="28.678043"/>
     <use style="fill:#f13a13;stroke:#f13a13;stroke-linejoin:miter;" x="51.997047" xlink:href="#m95fcf21288" y="27.890909"/>
     <use style="fill:#f13a13;stroke:#f13a13;stroke-linejoin:miter;" x="56.630889" xlink:href="#m95fcf21288" y="28.667796"/>
     <use style="fill:#f13a13;stroke:#f13a13;stroke-linejoin:miter;" x="61.264732" xlink:href="#m95fcf21288" y="28.449806"/>
     <use style="fill:#f13a13;stroke:#f13a13;stroke-linejoin:miter;" x="65.898574" xlink:href="#m95fcf21288" y="28.114938"/>
     <use style="fill:#f13a13;stroke:#f13a13;stroke-linejoin:miter;" x="70.532421" xlink:href="#m95fcf21288" y="28.614625"/>
     <use style="fill:#f13a13;stroke:#f13a13;stroke-linejoin:miter;" x="75.166263" xlink:href="#m95fcf21288" y="28.498689"/>
     <use style="fill:#f13a13;stroke:#f13a13;stroke-linejoin:miter;" x="79.800106" xlink:href="#m95fcf21288" y="28.651719"/>
     <use style="fill:#f13a13;stroke:#f13a13;stroke-linejoin:miter;" x="84.433949" xlink:href="#m95fcf21288" y="28.879487"/>
     <use style="fill:#f13a13;stroke:#f13a13;stroke-linejoin:miter;" x="89.067791" xlink:href="#m95fcf21288" y="28.633238"/>
     <use style="fill:#f13a13;stroke:#f13a13;stroke-linejoin:miter;" x="93.701634" xlink:href="#m95fcf21288" y="28.466274"/>
     <use style="fill:#f13a13;stroke:#f13a13;stroke-linejoin:miter;" x="98.335476" xlink:href="#m95fcf21288" y="28.475685"/>
     <use style="fill:#f13a13;stroke:#f13a13;stroke-linejoin:miter;" x="102.969319" xlink:href="#m95fcf21288" y="28.328772"/>
     <use style="fill:#f13a13;stroke:#f13a13;stroke-linejoin:miter;" x="107.603162" xlink:href="#m95fcf21288" y="28.201204"/>
     <use style="fill:#f13a13;stroke:#f13a13;stroke-linejoin:miter;" x="112.237004" xlink:href="#m95fcf21288" y="28.301586"/>
     <use style="fill:#f13a13;stroke:#f13a13;stroke-linejoin:miter;" x="116.870847" xlink:href="#m95fcf21288" y="29.424659"/>
     <use style="fill:#f13a13;stroke:#f13a13;stroke-linejoin:miter;" x="121.504689" xlink:href="#m95fcf21288" y="28.762139"/>
     <use style="fill:#f13a13;stroke:#f13a13;stroke-linejoin:miter;" x="126.138532" xlink:href="#m95fcf21288" y="29.21702"/>
     <use style="fill:#f13a13;stroke:#f13a13;stroke-linejoin:miter;" x="130.772375" xlink:href="#m95fcf21288" y="29.142858"/>
     <use style="fill:#f13a13;stroke:#f13a13;stroke-linejoin:miter;" x="135.406217" xlink:href="#m95fcf21288" y="29.172476"/>
     <use style="fill:#f13a13;stroke:#f13a13;stroke-linejoin:miter;" x="140.04006" xlink:href="#m95fcf21288" y="29.883226"/>
     <use style="fill:#f13a13;stroke:#f13a13;stroke-linejoin:miter;" x="144.673903" xlink:href="#m95fcf21288" y="29.580277"/>
     <use style="fill:#f13a13;stroke:#f13a13;stroke-linejoin:miter;" x="149.307745" xlink:href="#m95fcf21288" y="30.758299"/>
     <use style="fill:#f13a13;stroke:#f13a13;stroke-linejoin:miter;" x="153.941588" xlink:href="#m95fcf21288" y="31.313876"/>
     <use style="fill:#f13a13;stroke:#f13a13;stroke-linejoin:miter;" x="158.57543" xlink:href="#m95fcf21288" y="32.112773"/>
     <use style="fill:#f13a13;stroke:#f13a13;stroke-linejoin:miter;" x="163.209273" xlink:href="#m95fcf21288" y="33.521595"/>
     <use style="fill:#f13a13;stroke:#f13a13;stroke-linejoin:miter;" x="167.843116" xlink:href="#m95fcf21288" y="35.562038"/>
     <use style="fill:#f13a13;stroke:#f13a13;stroke-linejoin:miter;" x="172.476958" xlink:href="#m95fcf21288" y="37.246413"/>
     <use style="fill:#f13a13;stroke:#f13a13;stroke-linejoin:miter;" x="177.110801" xlink:href="#m95fcf21288" y="39.976327"/>
     <use style="fill:#f13a13;stroke:#f13a13;stroke-linejoin:miter;" x="181.744643" xlink:href="#m95fcf21288" y="43.522522"/>
     <use style="fill:#f13a13;stroke:#f13a13;stroke-linejoin:miter;" x="186.378486" xlink:href="#m95fcf21288" y="47.075906"/>
     <use style="fill:#f13a13;stroke:#f13a13;stroke-linejoin:miter;" x="191.012329" xlink:href="#m95fcf21288" y="51.37141"/>
     <use style="fill:#f13a13;stroke:#f13a13;stroke-linejoin:miter;" x="195.646171" xlink:href="#m95fcf21288" y="57.832572"/>
     <use style="fill:#f13a13;stroke:#f13a13;stroke-linejoin:miter;" x="200.280014" xlink:href="#m95fcf21288" y="64.274129"/>
     <use style="fill:#f13a13;stroke:#f13a13;stroke-linejoin:miter;" x="204.913857" xlink:href="#m95fcf21288" y="71.498794"/>
     <use style="fill:#f13a13;stroke:#f13a13;stroke-linejoin:miter;" x="209.547699" xlink:href="#m95fcf21288" y="79.171517"/>
     <use style="fill:#f13a13;stroke:#f13a13;stroke-linejoin:miter;" x="214.181542" xlink:href="#m95fcf21288" y="88.636447"/>
     <use style="fill:#f13a13;stroke:#f13a13;stroke-linejoin:miter;" x="218.815384" xlink:href="#m95fcf21288" y="99.393427"/>
     <use style="fill:#f13a13;stroke:#f13a13;stroke-linejoin:miter;" x="223.449227" xlink:href="#m95fcf21288" y="113.356402"/>
     <use style="fill:#f13a13;stroke:#f13a13;stroke-linejoin:miter;" x="228.08307" xlink:href="#m95fcf21288" y="130.029841"/>
     <use style="fill:#f13a13;stroke:#f13a13;stroke-linejoin:miter;" x="232.71693" xlink:href="#m95fcf21288" y="148.958734"/>
     <use style="fill:#f13a13;stroke:#f13a13;stroke-linejoin:miter;" x="237.350791" xlink:href="#m95fcf21288" y="168.315322"/>
     <use style="fill:#f13a13;stroke:#f13a13;stroke-linejoin:miter;" x="241.984652" xlink:href="#m95fcf21288" y="189.159023"/>
     <use style="fill:#f13a13;stroke:#f13a13;stroke-linejoin:miter;" x="246.618513" xlink:href="#m95fcf21288" y="210.292159"/>
     <use style="fill:#f13a13;stroke:#f13a13;stroke-linejoin:miter;" x="251.252374" xlink:href="#m95fcf21288" y="231.377091"/>
     <use style="fill:#f13a13;stroke:#f13a13;stroke-linejoin:miter;" x="255.886052" xlink:href="#m95fcf21288" y="251.267322"/>
     <use style="fill:#f13a13;stroke:#f13a13;stroke-linejoin:miter;" x="260.519913" xlink:href="#m95fcf21288" y="268.451008"/>
     <use style="fill:#f13a13;stroke:#f13a13;stroke-linejoin:miter;" x="265.153774" xlink:href="#m95fcf21288" y="280.181155"/>
     <use style="fill:#f13a13;stroke:#f13a13;stroke-linejoin:miter;" x="269.787635" xlink:href="#m95fcf21288" y="286.456278"/>
     <use style="fill:#f13a13;stroke:#f13a13;stroke-linejoin:miter;" x="274.421496" xlink:href="#m95fcf21288" y="288.910802"/>
     <use style="fill:#f13a13;stroke:#f13a13;stroke-linejoin:miter;" x="279.055357" xlink:href="#m95fcf21288" y="289.840708"/>
     <use style="fill:#f13a13;stroke:#f13a13;stroke-linejoin:miter;" x="283.689217" xlink:href="#m95fcf21288" y="289.769843"/>
     <use style="fill:#f13a13;stroke:#f13a13;stroke-linejoin:miter;" x="288.323078" xlink:href="#m95fcf21288" y="289.607045"/>
     <use style="fill:#f13a13;stroke:#f13a13;stroke-linejoin:miter;" x="292.956939" xlink:href="#m95fcf21288" y="289.967036"/>
     <use style="fill:#f13a13;stroke:#f13a13;stroke-linejoin:miter;" x="297.5908" xlink:href="#m95fcf21288" y="289.651365"/>
     <use style="fill:#f13a13;stroke:#f13a13;stroke-linejoin:miter;" x="302.224478" xlink:href="#m95fcf21288" y="290.351353"/>
     <use style="fill:#f13a13;stroke:#f13a13;stroke-linejoin:miter;" x="306.858339" xlink:href="#m95fcf21288" y="290.038435"/>
     <use style="fill:#f13a13;stroke:#f13a13;stroke-linejoin:miter;" x="311.4922" xlink:href="#m95fcf21288" y="289.896656"/>
     <use style="fill:#f13a13;stroke:#f13a13;stroke-linejoin:miter;" x="316.126061" xlink:href="#m95fcf21288" y="289.856042"/>
     <use style="fill:#f13a13;stroke:#f13a13;stroke-linejoin:miter;" x="320.759922" xlink:href="#m95fcf21288" y="290.116"/>
     <use style="fill:#f13a13;stroke:#f13a13;stroke-linejoin:miter;" x="325.393783" xlink:href="#m95fcf21288" y="289.818292"/>
     <use style="fill:#f13a13;stroke:#f13a13;stroke-linejoin:miter;" x="330.027644" xlink:href="#m95fcf21288" y="289.903354"/>
     <use style="fill:#f13a13;stroke:#f13a13;stroke-linejoin:miter;" x="334.661504" xlink:href="#m95fcf21288" y="289.906732"/>
     <use style="fill:#f13a13;stroke:#f13a13;stroke-linejoin:miter;" x="339.295365" xlink:href="#m95fcf21288" y="290.238913"/>
     <use style="fill:#f13a13;stroke:#f13a13;stroke-linejoin:miter;" x="343.929226" xlink:href="#m95fcf21288" y="290.045666"/>
     <use style="fill:#f13a13;stroke:#f13a13;stroke-linejoin:miter;" x="348.562904" xlink:href="#m95fcf21288" y="289.927848"/>
     <use style="fill:#f13a13;stroke:#f13a13;stroke-linejoin:miter;" x="353.196765" xlink:href="#m95fcf21288" y="289.794905"/>
     <use style="fill:#f13a13;stroke:#f13a13;stroke-linejoin:miter;" x="357.830626" xlink:href="#m95fcf21288" y="289.708396"/>
     <use style="fill:#f13a13;stroke:#f13a13;stroke-linejoin:miter;" x="362.464487" xlink:href="#m95fcf21288" y="290.024205"/>
     <use style="fill:#f13a13;stroke:#f13a13;stroke-linejoin:miter;" x="367.098348" xlink:href="#m95fcf21288" y="289.973212"/>
     <use style="fill:#f13a13;stroke:#f13a13;stroke-linejoin:miter;" x="371.732209" xlink:href="#m95fcf21288" y="289.853523"/>
     <use style="fill:#f13a13;stroke:#f13a13;stroke-linejoin:miter;" x="376.36607" xlink:href="#m95fcf21288" y="289.607988"/>
     <use style="fill:#f13a13;stroke:#f13a13;stroke-linejoin:miter;" x="380.999931" xlink:href="#m95fcf21288" y="290.146226"/>
     <use style="fill:#f13a13;stroke:#f13a13;stroke-linejoin:miter;" x="385.633791" xlink:href="#m95fcf21288" y="289.492296"/>
     <use style="fill:#f13a13;stroke:#f13a13;stroke-linejoin:miter;" x="390.267652" xlink:href="#m95fcf21288" y="290.038655"/>
     <use style="fill:#f13a13;stroke:#f13a13;stroke-linejoin:miter;" x="394.901331" xlink:href="#m95fcf21288" y="290.381599"/>
     <use style="fill:#f13a13;stroke:#f13a13;stroke-linejoin:miter;" x="399.535191" xlink:href="#m95fcf21288" y="289.559402"/>
     <use style="fill:#f13a13;stroke:#f13a13;stroke-linejoin:miter;" x="404.169052" xlink:href="#m95fcf21288" y="289.996741"/>
     <use style="fill:#f13a13;stroke:#f13a13;stroke-linejoin:miter;" x="408.802913" xlink:href="#m95fcf21288" y="289.967063"/>
     <use style="fill:#f13a13;stroke:#f13a13;stroke-linejoin:miter;" x="413.436774" xlink:href="#m95fcf21288" y="289.904176"/>
    </g>
   </g>
   <g id="line2d_17">
    <defs>
     <path d="M 0 3  C 0.795609 3 1.55874 2.683901 2.12132 2.12132  C 2.683901 1.55874 3 0.795609 3 0  C 3 -0.795609 2.683901 -1.55874 2.12132 -2.12132  C 1.55874 -2.683901 0.795609 -3 0 -3  C -0.795609 -3 -1.55874 -2.683901 -2.12132 -2.12132  C -2.683901 -1.55874 -3 -0.795609 -3 0  C -3 0.795609 -2.683901 1.55874 -2.12132 2.12132  C -1.55874 2.683901 -0.795609 3 0 3  z " id="m1bb67e391a" style="stroke:#803e75;"/>
    </defs>
    <g clip-path="url(#p14ef0f50b8)">
     <use style="fill:#803e75;stroke:#803e75;" x="47.363203" xlink:href="#m1bb67e391a" y="289.923443"/>
     <use style="fill:#803e75;stroke:#803e75;" x="51.997047" xlink:href="#m1bb67e391a" y="290.216588"/>
     <use style="fill:#803e75;stroke:#803e75;" x="56.630889" xlink:href="#m1bb67e391a" y="289.54575"/>
     <use style="fill:#803e75;stroke:#803e75;" x="61.264732" xlink:href="#m1bb67e391a" y="290.022085"/>
     <use style="fill:#803e75;stroke:#803e75;" x="65.898574" xlink:href="#m1bb67e391a" y="290.43692"/>
     <use style="fill:#803e75;stroke:#803e75;" x="70.532421" xlink:href="#m1bb67e391a" y="289.947972"/>
     <use style="fill:#803e75;stroke:#803e75;" x="75.166263" xlink:href="#m1bb67e391a" y="290.146428"/>
     <use style="fill:#803e75;stroke:#803e75;" x="79.800106" xlink:href="#m1bb67e391a" y="289.907945"/>
     <use style="fill:#803e75;stroke:#803e75;" x="84.433949" xlink:href="#m1bb67e391a" y="290.307148"/>
     <use style="fill:#803e75;stroke:#803e75;" x="89.067791" xlink:href="#m1bb67e391a" y="290.279922"/>
     <use style="fill:#803e75;stroke:#803e75;" x="93.701634" xlink:href="#m1bb67e391a" y="290.092522"/>
     <use style="fill:#803e75;stroke:#803e75;" x="98.335476" xlink:href="#m1bb67e391a" y="290.15939"/>
     <use style="fill:#803e75;stroke:#803e75;" x="102.969319" xlink:href="#m1bb67e391a" y="289.885004"/>
     <use style="fill:#803e75;stroke:#803e75;" x="107.603162" xlink:href="#m1bb67e391a" y="290.116729"/>
     <use style="fill:#803e75;stroke:#803e75;" x="112.237004" xlink:href="#m1bb67e391a" y="289.71594"/>
     <use style="fill:#803e75;stroke:#803e75;" x="116.870847" xlink:href="#m1bb67e391a" y="289.867028"/>
     <use style="fill:#803e75;stroke:#803e75;" x="121.504689" xlink:href="#m1bb67e391a" y="289.69888"/>
     <use style="fill:#803e75;stroke:#803e75;" x="126.138532" xlink:href="#m1bb67e391a" y="290.104836"/>
     <use style="fill:#803e75;stroke:#803e75;" x="130.772375" xlink:href="#m1bb67e391a" y="290.170379"/>
     <use style="fill:#803e75;stroke:#803e75;" x="135.406217" xlink:href="#m1bb67e391a" y="290.016826"/>
     <use style="fill:#803e75;stroke:#803e75;" x="140.04006" xlink:href="#m1bb67e391a" y="289.97606"/>
     <use style="fill:#803e75;stroke:#803e75;" x="144.673903" xlink:href="#m1bb67e391a" y="290.233042"/>
     <use style="fill:#803e75;stroke:#803e75;" x="149.307745" xlink:href="#m1bb67e391a" y="290.104949"/>
     <use style="fill:#803e75;stroke:#803e75;" x="153.941588" xlink:href="#m1bb67e391a" y="290.509091"/>
     <use style="fill:#803e75;stroke:#803e75;" x="158.57543" xlink:href="#m1bb67e391a" y="289.859813"/>
     <use style="fill:#803e75;stroke:#803e75;" x="163.209273" xlink:href="#m1bb67e391a" y="290.039938"/>
     <use style="fill:#803e75;stroke:#803e75;" x="167.843116" xlink:href="#m1bb67e391a" y="289.837879"/>
     <use style="fill:#803e75;stroke:#803e75;" x="172.476958" xlink:href="#m1bb67e391a" y="289.661331"/>
     <use style="fill:#803e75;stroke:#803e75;" x="177.110801" xlink:href="#m1bb67e391a" y="290.065183"/>
     <use style="fill:#803e75;stroke:#803e75;" x="181.744643" xlink:href="#m1bb67e391a" y="289.483223"/>
     <use style="fill:#803e75;stroke:#803e75;" x="186.378486" xlink:href="#m1bb67e391a" y="289.940709"/>
     <use style="fill:#803e75;stroke:#803e75;" x="191.012329" xlink:href="#m1bb67e391a" y="290.226486"/>
     <use style="fill:#803e75;stroke:#803e75;" x="195.646171" xlink:href="#m1bb67e391a" y="289.823826"/>
     <use style="fill:#803e75;stroke:#803e75;" x="200.280014" xlink:href="#m1bb67e391a" y="289.978851"/>
     <use style="fill:#803e75;stroke:#803e75;" x="204.913857" xlink:href="#m1bb67e391a" y="290.087503"/>
     <use style="fill:#803e75;stroke:#803e75;" x="209.547699" xlink:href="#m1bb67e391a" y="289.850956"/>
     <use style="fill:#803e75;stroke:#803e75;" x="214.181542" xlink:href="#m1bb67e391a" y="289.213685"/>
     <use style="fill:#803e75;stroke:#803e75;" x="218.815384" xlink:href="#m1bb67e391a" y="287.496362"/>
     <use style="fill:#803e75;stroke:#803e75;" x="223.449227" xlink:href="#m1bb67e391a" y="283.702864"/>
     <use style="fill:#803e75;stroke:#803e75;" x="228.08307" xlink:href="#m1bb67e391a" y="279.038768"/>
     <use style="fill:#803e75;stroke:#803e75;" x="232.71693" xlink:href="#m1bb67e391a" y="274.606371"/>
     <use style="fill:#803e75;stroke:#803e75;" x="237.350791" xlink:href="#m1bb67e391a" y="270.669882"/>
     <use style="fill:#803e75;stroke:#803e75;" x="241.984652" xlink:href="#m1bb67e391a" y="266.887593"/>
     <use style="fill:#803e75;stroke:#803e75;" x="246.618513" xlink:href="#m1bb67e391a" y="263.013794"/>
     <use style="fill:#803e75;stroke:#803e75;" x="251.252374" xlink:href="#m1bb67e391a" y="258.947496"/>
     <use style="fill:#803e75;stroke:#803e75;" x="255.886052" xlink:href="#m1bb67e391a" y="255.287508"/>
     <use style="fill:#803e75;stroke:#803e75;" x="260.519913" xlink:href="#m1bb67e391a" y="254.049362"/>
     <use style="fill:#803e75;stroke:#803e75;" x="265.153774" xlink:href="#m1bb67e391a" y="253.401429"/>
     <use style="fill:#803e75;stroke:#803e75;" x="269.787635" xlink:href="#m1bb67e391a" y="253.009051"/>
     <use style="fill:#803e75;stroke:#803e75;" x="274.421496" xlink:href="#m1bb67e391a" y="253.898737"/>
     <use style="fill:#803e75;stroke:#803e75;" x="279.055357" xlink:href="#m1bb67e391a" y="255.006178"/>
     <use style="fill:#803e75;stroke:#803e75;" x="283.689217" xlink:href="#m1bb67e391a" y="255.219881"/>
     <use style="fill:#803e75;stroke:#803e75;" x="288.323078" xlink:href="#m1bb67e391a" y="256.040189"/>
     <use style="fill:#803e75;stroke:#803e75;" x="292.956939" xlink:href="#m1bb67e391a" y="255.939258"/>
     <use style="fill:#803e75;stroke:#803e75;" x="297.5908" xlink:href="#m1bb67e391a" y="256.308788"/>
     <use style="fill:#803e75;stroke:#803e75;" x="302.224478" xlink:href="#m1bb67e391a" y="256.990861"/>
     <use style="fill:#803e75;stroke:#803e75;" x="306.858339" xlink:href="#m1bb67e391a" y="256.875318"/>
     <use style="fill:#803e75;stroke:#803e75;" x="311.4922" xlink:href="#m1bb67e391a" y="257.473112"/>
     <use style="fill:#803e75;stroke:#803e75;" x="316.126061" xlink:href="#m1bb67e391a" y="256.98132"/>
     <use style="fill:#803e75;stroke:#803e75;" x="320.759922" xlink:href="#m1bb67e391a" y="257.346668"/>
     <use style="fill:#803e75;stroke:#803e75;" x="325.393783" xlink:href="#m1bb67e391a" y="257.330094"/>
     <use style="fill:#803e75;stroke:#803e75;" x="330.027644" xlink:href="#m1bb67e391a" y="257.376312"/>
     <use style="fill:#803e75;stroke:#803e75;" x="334.661504" xlink:href="#m1bb67e391a" y="256.856758"/>
     <use style="fill:#803e75;stroke:#803e75;" x="339.295365" xlink:href="#m1bb67e391a" y="257.230523"/>
     <use style="fill:#803e75;stroke:#803e75;" x="343.929226" xlink:href="#m1bb67e391a" y="257.653224"/>
     <use style="fill:#803e75;stroke:#803e75;" x="348.562904" xlink:href="#m1bb67e391a" y="256.703597"/>
     <use style="fill:#803e75;stroke:#803e75;" x="353.196765" xlink:href="#m1bb67e391a" y="257.422268"/>
     <use style="fill:#803e75;stroke:#803e75;" x="357.830626" xlink:href="#m1bb67e391a" y="257.36562"/>
     <use style="fill:#803e75;stroke:#803e75;" x="362.464487" xlink:href="#m1bb67e391a" y="257.314619"/>
     <use style="fill:#803e75;stroke:#803e75;" x="367.098348" xlink:href="#m1bb67e391a" y="257.437482"/>
     <use style="fill:#803e75;stroke:#803e75;" x="371.732209" xlink:href="#m1bb67e391a" y="256.773498"/>
     <use style="fill:#803e75;stroke:#803e75;" x="376.36607" xlink:href="#m1bb67e391a" y="257.331114"/>
     <use style="fill:#803e75;stroke:#803e75;" x="380.999931" xlink:href="#m1bb67e391a" y="257.641121"/>
     <use style="fill:#803e75;stroke:#803e75;" x="385.633791" xlink:href="#m1bb67e391a" y="257.676359"/>
     <use style="fill:#803e75;stroke:#803e75;" x="390.267652" xlink:href="#m1bb67e391a" y="257.461558"/>
     <use style="fill:#803e75;stroke:#803e75;" x="394.901331" xlink:href="#m1bb67e391a" y="257.040713"/>
     <use style="fill:#803e75;stroke:#803e75;" x="399.535191" xlink:href="#m1bb67e391a" y="257.075585"/>
     <use style="fill:#803e75;stroke:#803e75;" x="404.169052" xlink:href="#m1bb67e391a" y="257.056293"/>
     <use style="fill:#803e75;stroke:#803e75;" x="408.802913" xlink:href="#m1bb67e391a" y="257.063978"/>
     <use style="fill:#803e75;stroke:#803e75;" x="413.436774" xlink:href="#m1bb67e391a" y="257.624809"/>
    </g>
   </g>
   <g id="line2d_18">
    <path clip-path="url(#p14ef0f50b8)" d="M 47.363203 28.583457  L 115.011889 28.69093  L 128.284732 28.9334  L 136.847857 29.29526  L 143.698357 29.802249  L 149.264388 30.432304  L 153.974107 31.17613  L 158.255669 32.068223  L 162.216114 33.11893  L 165.855442 34.312316  L 169.280692 35.667208  L 172.491864 37.169391  L 175.703036 38.922582  L 178.70013 40.808212  L 181.697223 42.955543  L 184.694317 45.383929  L 187.691411 48.111034  L 190.688504 51.152309  L 193.685598 54.520596  L 196.736211 58.295325  L 199.840344 62.503506  L 202.944477 67.090731  L 206.048609 72.071235  L 209.152742 77.47796  L 212.042797 82.962451  L 214.611734 88.30613  L 216.966593 93.717912  L 219.214414 99.462329  L 221.462234 105.85258  L 223.843853 113.339628  L 226.41279 122.174922  L 229.302845 132.927286  L 232.567536 145.952088  L 236.153345 161.193916  L 239.979991 178.445028  L 244.154515 198.32431  L 250.576858 230.224742  L 254.323225 248.235225  L 256.785124 259.032772  L 258.818866 266.985001  L 260.531491 272.835303  L 262.030038 277.226449  L 263.421545 280.643171  L 264.706014 283.213545  L 265.829924 285.012163  L 266.900315 286.361109  L 267.970705 287.396235  L 269.041096 288.167444  L 270.325565 288.818432  L 271.824112 289.304099  L 273.750815 289.653453  L 276.319752 289.864279  L 280.815393 289.971134  L 296.229017 289.994226  L 413.436788 289.994274  L 413.436788 289.994274  " style="fill:none;stroke:#f13a13;stroke-linecap:square;stroke-width:2;"/>
   </g>
   <g id="line2d_19">
    <path clip-path="url(#p14ef0f50b8)" d="M 47.363203 289.994273  L 203.372633 289.88424  L 209.045703 289.665262  L 212.256875 289.337692  L 214.611734 288.887593  L 216.538437 288.306249  L 218.358101 287.522697  L 220.070726 286.547992  L 221.970669 285.203616  L 224.272009 283.280898  L 228.125415 279.713854  L 233.905525 274.433577  L 245.010827 264.489411  L 252.182444 257.844665  L 254.430264 256.113849  L 256.356967 254.900876  L 258.176631 254.015266  L 259.996295 253.383974  L 261.815959 252.990257  L 263.742663 252.801236  L 265.829924 252.813362  L 268.61294 253.075875  L 273.322658 253.797149  L 281.243549 254.974182  L 287.87997 255.716735  L 295.158627 256.297691  L 303.400634 256.729462  L 313.676384 257.038257  L 328.233696 257.230249  L 354.351227 257.309745  L 413.436788 257.317901  L 413.436788 257.317901  " style="fill:none;stroke:#803e75;stroke-linecap:square;stroke-width:2;"/>
   </g>
   <g id="patch_3">
    <path d="M 47.72 303.64  L 47.72 14.76  " style="fill:none;stroke:#000000;stroke-linecap:square;stroke-linejoin:miter;stroke-width:0.8;"/>
   </g>
   <g id="patch_4">
    <path d="M 413.08 303.64  L 413.08 14.76  " style="fill:none;stroke:#000000;stroke-linecap:square;stroke-linejoin:miter;stroke-width:0.8;"/>
   </g>
   <g id="patch_5">
    <path d="M 47.72 303.64  L 413.08 303.64  " style="fill:none;stroke:#000000;stroke-linecap:square;stroke-linejoin:miter;stroke-width:0.8;"/>
   </g>
   <g id="patch_6">
    <path d="M 47.72 14.76  L 413.08 14.76  " style="fill:none;stroke:#000000;stroke-linecap:square;stroke-linejoin:miter;stroke-width:0.8;"/>
   </g>
  </g>
  <g id="axes_2">
   <g id="matplotlib.axis_3">
    <g id="ytick_7">
     <g id="line2d_20">
      <defs>
       <path d="M 0 0  L 3.5 0  " id="mb0f22cac2b" style="stroke:#000000;stroke-width:0.8;"/>
      </defs>
      <g>
       <use style="stroke:#000000;stroke-width:0.8;" x="413.08" xlink:href="#mb0f22cac2b" y="303.64"/>
      </g>
     </g>
     <g id="text_18">
      <!-- 0.0 -->
      <g transform="translate(420.08 307.439219)scale(0.1 -0.1)">
       <use xlink:href="#DejaVuSans-30"/>
       <use x="63.623047" xlink:href="#DejaVuSans-2e"/>
       <use x="95.410156" xlink:href="#DejaVuSans-30"/>
      </g>
     </g>
    </g>
    <g id="ytick_8">
     <g id="line2d_21">
      <g>
       <use style="stroke:#000000;stroke-width:0.8;" x="413.08" xlink:href="#mb0f22cac2b" y="245.864"/>
      </g>
     </g>
     <g id="text_19">
      <!-- 0.2 -->
      <g transform="translate(420.08 249.663219)scale(0.1 -0.1)">
       <use xlink:href="#DejaVuSans-30"/>
       <use x="63.623047" xlink:href="#DejaVuSans-2e"/>
       <use x="95.410156" xlink:href="#DejaVuSans-32"/>
      </g>
     </g>
    </g>
    <g id="ytick_9">
     <g id="line2d_22">
      <g>
       <use style="stroke:#000000;stroke-width:0.8;" x="413.08" xlink:href="#mb0f22cac2b" y="188.088"/>
      </g>
     </g>
     <g id="text_20">
      <!-- 0.4 -->
      <g transform="translate(420.08 191.887219)scale(0.1 -0.1)">
       <use xlink:href="#DejaVuSans-30"/>
       <use x="63.623047" xlink:href="#DejaVuSans-2e"/>
       <use x="95.410156" xlink:href="#DejaVuSans-34"/>
      </g>
     </g>
    </g>
    <g id="ytick_10">
     <g id="line2d_23">
      <g>
       <use style="stroke:#000000;stroke-width:0.8;" x="413.08" xlink:href="#mb0f22cac2b" y="130.312"/>
      </g>
     </g>
     <g id="text_21">
      <!-- 0.6 -->
      <g transform="translate(420.08 134.111219)scale(0.1 -0.1)">
       <use xlink:href="#DejaVuSans-30"/>
       <use x="63.623047" xlink:href="#DejaVuSans-2e"/>
       <use x="95.410156" xlink:href="#DejaVuSans-36"/>
      </g>
     </g>
    </g>
    <g id="ytick_11">
     <g id="line2d_24">
      <g>
       <use style="stroke:#000000;stroke-width:0.8;" x="413.08" xlink:href="#mb0f22cac2b" y="72.536"/>
      </g>
     </g>
     <g id="text_22">
      <!-- 0.8 -->
      <g transform="translate(420.08 76.335219)scale(0.1 -0.1)">
       <use xlink:href="#DejaVuSans-30"/>
       <use x="63.623047" xlink:href="#DejaVuSans-2e"/>
       <use x="95.410156" xlink:href="#DejaVuSans-38"/>
      </g>
     </g>
    </g>
    <g id="ytick_12">
     <g id="line2d_25">
      <g>
       <use style="stroke:#000000;stroke-width:0.8;" x="413.08" xlink:href="#mb0f22cac2b" y="14.76"/>
      </g>
     </g>
     <g id="text_23">
      <!-- 1.0 -->
      <g transform="translate(420.08 18.559219)scale(0.1 -0.1)">
       <use xlink:href="#DejaVuSans-31"/>
       <use x="63.623047" xlink:href="#DejaVuSans-2e"/>
       <use x="95.410156" xlink:href="#DejaVuSans-30"/>
      </g>
     </g>
    </g>
    <g id="text_24">
     <!-- Mole Fraction (ZN) -->
     <defs>
      <path d="M 5.609375 72.90625  L 62.890625 72.90625  L 62.890625 65.375  L 16.796875 8.296875  L 64.015625 8.296875  L 64.015625 0  L 4.5 0  L 4.5 7.515625  L 50.59375 64.59375  L 5.609375 64.59375  z " id="DejaVuSans-5a"/>
      <path d="M 9.8125 72.90625  L 23.09375 72.90625  L 55.421875 11.921875  L 55.421875 72.90625  L 64.984375 72.90625  L 64.984375 0  L 51.703125 0  L 19.390625 60.984375  L 19.390625 0  L 9.8125 0  z " id="DejaVuSans-4e"/>
     </defs>
     <g transform="translate(447.581563 205.600781)rotate(-90)scale(0.1 -0.1)">
      <use xlink:href="#DejaVuSans-4d"/>
      <use x="86.279297" xlink:href="#DejaVuSans-6f"/>
      <use x="147.460938" xlink:href="#DejaVuSans-6c"/>
      <use x="175.244141" xlink:href="#DejaVuSans-65"/>
      <use x="236.767578" xlink:href="#DejaVuSans-20"/>
      <use x="268.554688" xlink:href="#DejaVuSans-46"/>
      <use x="325.964844" xlink:href="#DejaVuSans-72"/>
      <use x="367.078125" xlink:href="#DejaVuSans-61"/>
      <use x="428.357422" xlink:href="#DejaVuSans-63"/>
      <use x="483.337891" xlink:href="#DejaVuSans-74"/>
      <use x="522.546875" xlink:href="#DejaVuSans-69"/>
      <use x="550.330078" xlink:href="#DejaVuSans-6f"/>
      <use x="611.511719" xlink:href="#DejaVuSans-6e"/>
      <use x="674.890625" xlink:href="#DejaVuSans-20"/>
      <use x="706.677734" xlink:href="#DejaVuSans-28"/>
      <use x="745.691406" xlink:href="#DejaVuSans-5a"/>
      <use x="814.197266" xlink:href="#DejaVuSans-4e"/>
      <use x="889.001953" xlink:href="#DejaVuSans-29"/>
     </g>
    </g>
   </g>
   <g id="line2d_26">
    <defs>
     <path d="M 0 -3  L -0.673542 -0.927051  L -2.85317 -0.927051  L -1.089814 0.354102  L -1.763356 2.427051  L -0 1.145898  L 1.763356 2.427051  L 1.089814 0.354102  L 2.85317 -0.927051  L 0.673542 -0.927051  z " id="mdc67df2740" style="stroke:#fd522b;stroke-linejoin:bevel;"/>
    </defs>
    <g clip-path="url(#p14ef0f50b8)">
     <use style="fill:#fd522b;stroke:#fd522b;stroke-linejoin:bevel;" x="47.363203" xlink:href="#mdc67df2740" y="303.613676"/>
     <use style="fill:#fd522b;stroke:#fd522b;stroke-linejoin:bevel;" x="51.997047" xlink:href="#mdc67df2740" y="304.159428"/>
     <use style="fill:#fd522b;stroke:#fd522b;stroke-linejoin:bevel;" x="56.630889" xlink:href="#mdc67df2740" y="304.042378"/>
     <use style="fill:#fd522b;stroke:#fd522b;stroke-linejoin:bevel;" x="61.264732" xlink:href="#mdc67df2740" y="303.756786"/>
     <use style="fill:#fd522b;stroke:#fd522b;stroke-linejoin:bevel;" x="65.898574" xlink:href="#mdc67df2740" y="303.668582"/>
     <use style="fill:#fd522b;stroke:#fd522b;stroke-linejoin:bevel;" x="70.532421" xlink:href="#mdc67df2740" y="303.65666"/>
     <use style="fill:#fd522b;stroke:#fd522b;stroke-linejoin:bevel;" x="75.166263" xlink:href="#mdc67df2740" y="303.565475"/>
     <use style="fill:#fd522b;stroke:#fd522b;stroke-linejoin:bevel;" x="79.800106" xlink:href="#mdc67df2740" y="303.659894"/>
     <use style="fill:#fd522b;stroke:#fd522b;stroke-linejoin:bevel;" x="84.433949" xlink:href="#mdc67df2740" y="302.967024"/>
     <use style="fill:#fd522b;stroke:#fd522b;stroke-linejoin:bevel;" x="89.067791" xlink:href="#mdc67df2740" y="303.269257"/>
     <use style="fill:#fd522b;stroke:#fd522b;stroke-linejoin:bevel;" x="93.701634" xlink:href="#mdc67df2740" y="303.660907"/>
     <use style="fill:#fd522b;stroke:#fd522b;stroke-linejoin:bevel;" x="98.335476" xlink:href="#mdc67df2740" y="303.576502"/>
     <use style="fill:#fd522b;stroke:#fd522b;stroke-linejoin:bevel;" x="102.969319" xlink:href="#mdc67df2740" y="304.042203"/>
     <use style="fill:#fd522b;stroke:#fd522b;stroke-linejoin:bevel;" x="107.603162" xlink:href="#mdc67df2740" y="303.926983"/>
     <use style="fill:#fd522b;stroke:#fd522b;stroke-linejoin:bevel;" x="112.237004" xlink:href="#mdc67df2740" y="304.258858"/>
     <use style="fill:#fd522b;stroke:#fd522b;stroke-linejoin:bevel;" x="116.870847" xlink:href="#mdc67df2740" y="302.850948"/>
     <use style="fill:#fd522b;stroke:#fd522b;stroke-linejoin:bevel;" x="121.504689" xlink:href="#mdc67df2740" y="303.768894"/>
     <use style="fill:#fd522b;stroke:#fd522b;stroke-linejoin:bevel;" x="126.138532" xlink:href="#mdc67df2740" y="302.81761"/>
     <use style="fill:#fd522b;stroke:#fd522b;stroke-linejoin:bevel;" x="130.772375" xlink:href="#mdc67df2740" y="302.827135"/>
     <use style="fill:#fd522b;stroke:#fd522b;stroke-linejoin:bevel;" x="135.406217" xlink:href="#mdc67df2740" y="302.964073"/>
     <use style="fill:#fd522b;stroke:#fd522b;stroke-linejoin:bevel;" x="140.04006" xlink:href="#mdc67df2740" y="302.223714"/>
     <use style="fill:#fd522b;stroke:#fd522b;stroke-linejoin:bevel;" x="144.673903" xlink:href="#mdc67df2740" y="302.274492"/>
     <use style="fill:#fd522b;stroke:#fd522b;stroke-linejoin:bevel;" x="149.307745" xlink:href="#mdc67df2740" y="301.114244"/>
     <use style="fill:#fd522b;stroke:#fd522b;stroke-linejoin:bevel;" x="153.941588" xlink:href="#mdc67df2740" y="300.053676"/>
     <use style="fill:#fd522b;stroke:#fd522b;stroke-linejoin:bevel;" x="158.57543" xlink:href="#mdc67df2740" y="299.888344"/>
     <use style="fill:#fd522b;stroke:#fd522b;stroke-linejoin:bevel;" x="163.209273" xlink:href="#mdc67df2740" y="298.132433"/>
     <use style="fill:#fd522b;stroke:#fd522b;stroke-linejoin:bevel;" x="167.843116" xlink:href="#mdc67df2740" y="296.100859"/>
     <use style="fill:#fd522b;stroke:#fd522b;stroke-linejoin:bevel;" x="172.476958" xlink:href="#mdc67df2740" y="294.43459"/>
     <use style="fill:#fd522b;stroke:#fd522b;stroke-linejoin:bevel;" x="177.110801" xlink:href="#mdc67df2740" y="290.971532"/>
     <use style="fill:#fd522b;stroke:#fd522b;stroke-linejoin:bevel;" x="181.744643" xlink:href="#mdc67df2740" y="287.695814"/>
     <use style="fill:#fd522b;stroke:#fd522b;stroke-linejoin:bevel;" x="186.378486" xlink:href="#mdc67df2740" y="283.263474"/>
     <use style="fill:#fd522b;stroke:#fd522b;stroke-linejoin:bevel;" x="191.012329" xlink:href="#mdc67df2740" y="278.200791"/>
     <use style="fill:#fd522b;stroke:#fd522b;stroke-linejoin:bevel;" x="195.646171" xlink:href="#mdc67df2740" y="271.505682"/>
     <use style="fill:#fd522b;stroke:#fd522b;stroke-linejoin:bevel;" x="200.280014" xlink:href="#mdc67df2740" y="264.215911"/>
     <use style="fill:#fd522b;stroke:#fd522b;stroke-linejoin:bevel;" x="204.913857" xlink:href="#mdc67df2740" y="256.112018"/>
     <use style="fill:#fd522b;stroke:#fd522b;stroke-linejoin:bevel;" x="209.547699" xlink:href="#mdc67df2740" y="247.894451"/>
     <use style="fill:#fd522b;stroke:#fd522b;stroke-linejoin:bevel;" x="214.181542" xlink:href="#mdc67df2740" y="238.139175"/>
     <use style="fill:#fd522b;stroke:#fd522b;stroke-linejoin:bevel;" x="218.815384" xlink:href="#mdc67df2740" y="228.149618"/>
     <use style="fill:#fd522b;stroke:#fd522b;stroke-linejoin:bevel;" x="223.449227" xlink:href="#mdc67df2740" y="216.911522"/>
     <use style="fill:#fd522b;stroke:#fd522b;stroke-linejoin:bevel;" x="228.08307" xlink:href="#mdc67df2740" y="203.640259"/>
     <use style="fill:#fd522b;stroke:#fd522b;stroke-linejoin:bevel;" x="232.71693" xlink:href="#mdc67df2740" y="187.620448"/>
     <use style="fill:#fd522b;stroke:#fd522b;stroke-linejoin:bevel;" x="237.350791" xlink:href="#mdc67df2740" y="170.580023"/>
     <use style="fill:#fd522b;stroke:#fd522b;stroke-linejoin:bevel;" x="241.984652" xlink:href="#mdc67df2740" y="151.725779"/>
     <use style="fill:#fd522b;stroke:#fd522b;stroke-linejoin:bevel;" x="246.618513" xlink:href="#mdc67df2740" y="132.652824"/>
     <use style="fill:#fd522b;stroke:#fd522b;stroke-linejoin:bevel;" x="251.252374" xlink:href="#mdc67df2740" y="113.845869"/>
     <use style="fill:#fd522b;stroke:#fd522b;stroke-linejoin:bevel;" x="255.886052" xlink:href="#mdc67df2740" y="95.910147"/>
     <use style="fill:#fd522b;stroke:#fd522b;stroke-linejoin:bevel;" x="260.519913" xlink:href="#mdc67df2740" y="78.289045"/>
     <use style="fill:#fd522b;stroke:#fd522b;stroke-linejoin:bevel;" x="265.153774" xlink:href="#mdc67df2740" y="66.042295"/>
     <use style="fill:#fd522b;stroke:#fd522b;stroke-linejoin:bevel;" x="269.787635" xlink:href="#mdc67df2740" y="59.541398"/>
     <use style="fill:#fd522b;stroke:#fd522b;stroke-linejoin:bevel;" x="274.421496" xlink:href="#mdc67df2740" y="55.845814"/>
     <use style="fill:#fd522b;stroke:#fd522b;stroke-linejoin:bevel;" x="279.055357" xlink:href="#mdc67df2740" y="53.594341"/>
     <use style="fill:#fd522b;stroke:#fd522b;stroke-linejoin:bevel;" x="283.689217" xlink:href="#mdc67df2740" y="53.436497"/>
     <use style="fill:#fd522b;stroke:#fd522b;stroke-linejoin:bevel;" x="288.323078" xlink:href="#mdc67df2740" y="52.709906"/>
     <use style="fill:#fd522b;stroke:#fd522b;stroke-linejoin:bevel;" x="292.956939" xlink:href="#mdc67df2740" y="52.423626"/>
     <use style="fill:#fd522b;stroke:#fd522b;stroke-linejoin:bevel;" x="297.5908" xlink:href="#mdc67df2740" y="52.364116"/>
     <use style="fill:#fd522b;stroke:#fd522b;stroke-linejoin:bevel;" x="302.224478" xlink:href="#mdc67df2740" y="50.836837"/>
     <use style="fill:#fd522b;stroke:#fd522b;stroke-linejoin:bevel;" x="306.858339" xlink:href="#mdc67df2740" y="51.310311"/>
     <use style="fill:#fd522b;stroke:#fd522b;stroke-linejoin:bevel;" x="311.4922" xlink:href="#mdc67df2740" y="50.806389"/>
     <use style="fill:#fd522b;stroke:#fd522b;stroke-linejoin:bevel;" x="316.126061" xlink:href="#mdc67df2740" y="51.394722"/>
     <use style="fill:#fd522b;stroke:#fd522b;stroke-linejoin:bevel;" x="320.759922" xlink:href="#mdc67df2740" y="50.703692"/>
     <use style="fill:#fd522b;stroke:#fd522b;stroke-linejoin:bevel;" x="325.393783" xlink:href="#mdc67df2740" y="51.051012"/>
     <use style="fill:#fd522b;stroke:#fd522b;stroke-linejoin:bevel;" x="330.027644" xlink:href="#mdc67df2740" y="50.905937"/>
     <use style="fill:#fd522b;stroke:#fd522b;stroke-linejoin:bevel;" x="334.661504" xlink:href="#mdc67df2740" y="51.476359"/>
     <use style="fill:#fd522b;stroke:#fd522b;stroke-linejoin:bevel;" x="339.295365" xlink:href="#mdc67df2740" y="50.69621"/>
     <use style="fill:#fd522b;stroke:#fd522b;stroke-linejoin:bevel;" x="343.929226" xlink:href="#mdc67df2740" y="50.44266"/>
     <use style="fill:#fd522b;stroke:#fd522b;stroke-linejoin:bevel;" x="348.562904" xlink:href="#mdc67df2740" y="51.622272"/>
     <use style="fill:#fd522b;stroke:#fd522b;stroke-linejoin:bevel;" x="353.196765" xlink:href="#mdc67df2740" y="50.975008"/>
     <use style="fill:#fd522b;stroke:#fd522b;stroke-linejoin:bevel;" x="357.830626" xlink:href="#mdc67df2740" y="51.133199"/>
     <use style="fill:#fd522b;stroke:#fd522b;stroke-linejoin:bevel;" x="362.464487" xlink:href="#mdc67df2740" y="50.840563"/>
     <use style="fill:#fd522b;stroke:#fd522b;stroke-linejoin:bevel;" x="367.098348" xlink:href="#mdc67df2740" y="50.76115"/>
     <use style="fill:#fd522b;stroke:#fd522b;stroke-linejoin:bevel;" x="371.732209" xlink:href="#mdc67df2740" y="51.627183"/>
     <use style="fill:#fd522b;stroke:#fd522b;stroke-linejoin:bevel;" x="376.36607" xlink:href="#mdc67df2740" y="51.28229"/>
     <use style="fill:#fd522b;stroke:#fd522b;stroke-linejoin:bevel;" x="380.999931" xlink:href="#mdc67df2740" y="50.344932"/>
     <use style="fill:#fd522b;stroke:#fd522b;stroke-linejoin:bevel;" x="385.633791" xlink:href="#mdc67df2740" y="51.028595"/>
     <use style="fill:#fd522b;stroke:#fd522b;stroke-linejoin:bevel;" x="390.267652" xlink:href="#mdc67df2740" y="50.662209"/>
     <use style="fill:#fd522b;stroke:#fd522b;stroke-linejoin:bevel;" x="394.901331" xlink:href="#mdc67df2740" y="50.748295"/>
     <use style="fill:#fd522b;stroke:#fd522b;stroke-linejoin:bevel;" x="399.535191" xlink:href="#mdc67df2740" y="51.618373"/>
     <use style="fill:#fd522b;stroke:#fd522b;stroke-linejoin:bevel;" x="404.169052" xlink:href="#mdc67df2740" y="51.156396"/>
     <use style="fill:#fd522b;stroke:#fd522b;stroke-linejoin:bevel;" x="408.802913" xlink:href="#mdc67df2740" y="51.18069"/>
     <use style="fill:#fd522b;stroke:#fd522b;stroke-linejoin:bevel;" x="413.436774" xlink:href="#mdc67df2740" y="50.630432"/>
    </g>
   </g>
   <g id="line2d_27">
    <path clip-path="url(#p14ef0f50b8)" d="M 47.363203 303.639922  L 114.155576 303.530273  L 127.000264 303.293651  L 135.563388 302.931195  L 142.413888 302.420174  L 147.979919 301.781761  L 152.689638 301.024674  L 156.9712 300.113005  L 160.931646 299.035207  L 164.570974 297.806708  L 167.996224 296.407315  L 171.207395 294.850906  L 174.204489 293.159159  L 177.201583 291.212713  L 180.198676 288.988669  L 182.981692 286.655759  L 185.764707 284.048343  L 188.547723 281.151898  L 191.544817 277.695359  L 194.54191 273.877512  L 197.592524 269.612497  L 200.696656 264.876834  L 203.907828 259.559579  L 207.226039 253.625603  L 210.651289 247.043219  L 214.183578 239.778228  L 217.715867 232.014221  L 220.927039 224.441861  L 223.790333 217.123565  L 226.41279 209.797257  L 228.981728 201.942506  L 231.657704 193.019402  L 234.547759 182.583855  L 237.81245 169.932688  L 241.585577 154.388441  L 246.081218 134.893014  L 256.678085 88.441284  L 259.032944 79.451295  L 260.852608 73.309303  L 262.458194 68.619787  L 263.849702 65.184222  L 265.13417 62.55884  L 266.25808 60.684712  L 267.542549 58.987334  L 268.827018 57.695581  L 270.111487 56.725296  L 271.610033 55.891121  L 273.322658 55.201987  L 275.677518 54.526703  L 278.888689 53.866391  L 283.598408 53.148874  L 289.592595 52.46699  L 296.657173 51.893323  L 304.685103 51.464609  L 314.960853 51.150355  L 329.090009 50.960147  L 354.779383 50.878656  L 413.436788 50.870013  L 413.436788 50.870013  " style="fill:none;stroke:#fd522b;stroke-linecap:square;stroke-width:2;"/>
   </g>
   <g id="patch_7">
    <path d="M 47.72 303.64  L 47.72 14.76  " style="fill:none;stroke:#000000;stroke-linecap:square;stroke-linejoin:miter;stroke-width:0.8;"/>
   </g>
   <g id="patch_8">
    <path d="M 413.08 303.64  L 413.08 14.76  " style="fill:none;stroke:#000000;stroke-linecap:square;stroke-linejoin:miter;stroke-width:0.8;"/>
   </g>
   <g id="patch_9">
    <path d="M 47.72 303.64  L 413.08 303.64  " style="fill:none;stroke:#000000;stroke-linecap:square;stroke-linejoin:miter;stroke-width:0.8;"/>
   </g>
   <g id="patch_10">
    <path d="M 47.72 14.76  L 413.08 14.76  " style="fill:none;stroke:#000000;stroke-linecap:square;stroke-linejoin:miter;stroke-width:0.8;"/>
   </g>
  </g>
 </g>
 <defs>
  <clipPath id="p14ef0f50b8">
   <rect height="288.88" width="365.36" x="47.72" y="14.76"/>
  </clipPath>
 </defs>
</g>
    <g transform="translate(10, 300) scale(1) ">
      <g transform="translate(0, 0) scale(3.0) "><defs id="defs831"/>
  <sodipodi:namedview xmlns:sodipodi="http://sodipodi.sourceforge.net/DTD/sodipodi-0.dtd" xmlns:inkscape="http://www.inkscape.org/namespaces/inkscape" id="base" pagecolor="#ffffff" bordercolor="#666666" borderopacity="1.0" inkscape:pageopacity="0.0" inkscape:pageshadow="2" inkscape:zoom="1.979899" inkscape:cx="-12.763683" inkscape:cy="-16.680883" inkscape:document-units="mm" inkscape:current-layer="layer1" showgrid="false" inkscape:window-width="1920" inkscape:window-height="1001" inkscape:window-x="-9" inkscape:window-y="-9" inkscape:window-maximized="1" units="pt"/>
  <metadata xmlns:rdf="http://www.w3.org/1999/02/22-rdf-syntax-ns#" xmlns:cc="http://creativecommons.org/ns#" xmlns:dc="http://purl.org/dc/elements/1.1/" id="metadata834">
    <rdf:RDF>
      <cc:Work rdf:about="">
        <dc:format>image/svg+xml</dc:format>
        <dc:type rdf:resource="http://purl.org/dc/dcmitype/StillImage"/>
        <dc:title/>
      </cc:Work>
    </rdf:RDF>
  </metadata>
  <g xmlns:inkscape="http://www.inkscape.org/namespaces/inkscape" xmlns:sodipodi="http://sodipodi.sourceforge.net/DTD/sodipodi-0.dtd" inkscape:label="Layer 1" inkscape:groupmode="layer" id="layer1" transform="translate(0,-288.81557)">
    <g id="g4761" transform="matrix(0.07377843,0,0,0.07377843,-0.76923022,275.45946)">
      <path inkscape:connector-curvature="0" id="path1959-6-7-1-6-5-4-0-3-2-6-0-3-9-6" style="font-style:normal;font-variant:normal;font-weight:bold;font-stretch:normal;font-size:120.99466705px;line-height:1.25;font-family:Aharoni;-inkscape-font-specification:'Aharoni, Bold';font-variant-ligatures:normal;font-variant-caps:normal;font-variant-numeric:normal;font-feature-settings:normal;text-align:start;letter-spacing:0px;word-spacing:0px;writing-mode:lr-tb;text-anchor:start;fill:#000000;fill-opacity:1;stroke:none;stroke-width:2.37649584" d="M 52.937412,287.55677 H 40.587702 V 265.43005 H 22.776041 v 22.12672 h -12.34982 v -53.17432 h 12.34982 v 20.5296 h 17.811661 v -20.5296 h 12.34971 z"/>
      <path inkscape:connector-curvature="0" id="path1961-2-9-7-9-3-1-6-5-1-5-8-7-8-2" style="font-style:normal;font-variant:normal;font-weight:bold;font-stretch:normal;font-size:120.99466705px;line-height:1.25;font-family:Aharoni;-inkscape-font-specification:'Aharoni, Bold';font-variant-ligatures:normal;font-variant-caps:normal;font-variant-numeric:normal;font-feature-settings:normal;text-align:start;letter-spacing:0px;word-spacing:0px;writing-mode:lr-tb;text-anchor:start;fill:#000000;fill-opacity:1;stroke:none;stroke-width:2.37649584" d="m 69.681125,237.49895 q 0,3.0385 -1.87856,5.1421 -1.84375,2.0647 -4.55721,2.0647 -2.67866,0 -4.55722,-2.1036 -1.84375,-2.1036 -1.84375,-5.1032 0,-2.9996 1.84375,-5.0642 1.87856,-2.1036 4.55722,-2.1036 2.67865,0 4.55721,2.1036 1.87856,2.0646 1.87856,5.0642 z m -0.73057,50.05782 h -11.41048 v -36.15072 h 11.41048 z"/>
      <path inkscape:connector-curvature="0" id="path1963-3-1-2-8-3-6-3-3-3-4-7-6-0-8" style="font-style:normal;font-variant:normal;font-weight:bold;font-stretch:normal;font-size:120.99466705px;line-height:1.25;font-family:Aharoni;-inkscape-font-specification:'Aharoni, Bold';font-variant-ligatures:normal;font-variant-caps:normal;font-variant-numeric:normal;font-feature-settings:normal;text-align:start;letter-spacing:0px;word-spacing:0px;writing-mode:lr-tb;text-anchor:start;fill:#000000;fill-opacity:1;stroke:none;stroke-width:2.37649584" d="m 93.369625,261.92405 h -6.50536 v 25.63272 h -11.4104 v -25.63272 h -3.75712 v -10.518 h 3.75712 v -10.8686 h 11.4104 v 10.8686 h 6.50536 z"/>
      <path id="path1967-3-3-6-2-9-6-2-5-3-0-9-8-2-1" style="font-style:normal;font-variant:normal;font-weight:bold;font-stretch:normal;font-size:120.99466705px;line-height:1.25;font-family:Aharoni;-inkscape-font-specification:'Aharoni, Bold';font-variant-ligatures:normal;font-variant-caps:normal;font-variant-numeric:normal;font-feature-settings:normal;text-align:start;letter-spacing:0px;word-spacing:0px;writing-mode:lr-tb;text-anchor:start;fill:#000000;fill-opacity:1;stroke:none;stroke-width:2.37649584" d="m 160.61447,287.55677 h -12.34971 v -53.17432 h 12.34971 z" inkscape:connector-curvature="0"/>
      <path inkscape:connector-curvature="0" id="path1969-8-0-8-5-3-5-6-6-3-9-8-6-2-0" style="font-style:normal;font-variant:normal;font-weight:bold;font-stretch:normal;font-size:120.99466705px;line-height:1.25;font-family:Aharoni;-inkscape-font-specification:'Aharoni, Bold';font-variant-ligatures:normal;font-variant-caps:normal;font-variant-numeric:normal;font-feature-settings:normal;text-align:start;letter-spacing:0px;word-spacing:0px;writing-mode:lr-tb;text-anchor:start;fill:#000000;fill-opacity:1;stroke:none;stroke-width:2.37649584" d="m 201.6896,284.86883 q -6.05314,2.68794 -11.20172,2.68794 -8.97528,0 -16.07201,-6.42764 -9.04489,-8.21959 -9.04489,-21.42558 0,-13.2448 9.04489,-21.4644 7.09673,-6.4277 16.17636,-6.4277 4.93989,0 11.09737,2.6879 v 16.5561 q -1.73941,-2.3763 -3.54836,-3.5839 -3.30489,-2.2204 -7.09679,-2.2204 -4.8007,0 -8.34907,3.2333 -4.48766,4.0903 -4.48766,11.2191 0,7.0899 4.48766,11.1803 3.54837,3.23328 8.34907,3.23328 3.7919,0 7.09679,-2.22049 1.77415,-1.16869 3.54836,-3.58389 z"/>
      <path inkscape:transform-center-y="-13.656107" inkscape:transform-center-x="-3.9758045" sodipodi:nodetypes="csssssc" inkscape:connector-curvature="0" id="rect815-3-0-9-3-5-6-0-4-03-7-3-7-5-3-2-76-3-8-8-5-3-7-8-0-1-3-7-9-2-8-1" d="m 104.61223,181.4353 c 0,0 17.68257,27.27493 22.63096,34.41579 7.92879,11.44185 16.42741,30.36094 17.92806,45.50275 1.21005,12.20999 -1.38345,26.51285 -17.32077,30.11208 -11.70405,2.64313 -26.75007,-5.41371 -30.334975,-20.50903 -3.30533,-13.91816 -2.13088,-34.61412 0.0984,-48.67354 1.22049,-7.69719 5.657305,-36.06774 6.998335,-40.84805 z" style="font-style:normal;font-weight:normal;font-size:242.08590698px;line-height:1.25;font-family:sans-serif;letter-spacing:0px;word-spacing:0px;opacity:1;fill:#00456b;fill-opacity:1;stroke:none;stroke-width:0.6720385;stroke-miterlimit:4;stroke-dasharray:none;stroke-dashoffset:0;stroke-opacity:1;paint-order:markers fill stroke"/>
      <path sodipodi:nodetypes="ccscscsccscccscc" d="m 107.52748,246.32531 6.45576,30.78617 6.82019,-1.47997 c 5.75791,-1.24946 9.70999,-3.40081 11.85576,-6.45394 2.16431,-3.05721 2.68673,-7.25521 1.56721,-12.59398 -1.11209,-5.30332 -3.26743,-8.89247 -6.46601,-10.76744 -3.18372,-1.89669 -7.65528,-2.22015 -13.4127,-0.97081 z m -8.759905,-5.09591 12.713095,-2.78742 c 8.8634,-1.94336 15.73718,-1.59097 20.62135,1.05715 4.88003,2.62843 8.10326,7.71587 9.6697,15.26232 1.57464,7.58584 0.64804,13.61405 -2.77981,18.08462 -3.42783,4.4705 -9.55303,7.67294 -18.37559,9.60735 l -12.71311,2.78742 z" style="font-style:normal;font-weight:normal;font-size:242.08590698px;line-height:1.25;font-family:sans-serif;letter-spacing:0px;word-spacing:0px;fill:#ffffff;fill-opacity:1;stroke:none;stroke-width:1.60286868" id="path1193-3-5-3-2-7-4-5-6-0-0-6-9-2-4-7-0-0" inkscape:connector-curvature="0"/>
    </g>
  </g>
</g>
    </g>
  </g>
</svg>
