<?xml version='1.0' encoding='ASCII' standalone='yes'?>
<svg xmlns:xlink="http://www.w3.org/1999/xlink" xmlns="http://www.w3.org/2000/svg" version="1.1" width="460.8px" viewBox="0 0 460.8px 345.6px" height="345.6px">
  <g>
    <g><defs>
  <style type="text/css">
*{stroke-linecap:butt;stroke-linejoin:round;}
  </style>
 </defs>
 <g id="figure_1">
  <g id="patch_1">
   <path d="M 0 345.6  L 460.8 345.6  L 460.8 0  L 0 0  z " style="fill:#ffffff;"/>
  </g>
  <g id="axes_1">
   <g id="patch_2">
    <path d="M 74.72 300.76  L 440.55 300.76  L 440.55 13.32  L 74.72 13.32  z " style="fill:#ffffff;"/>
   </g>
   <g id="matplotlib.axis_1">
    <g id="xtick_1">
     <g id="line2d_1">
      <defs>
       <path d="M 0 0  L 0 3.5  " id="md5eb22e11c" style="stroke:#000000;stroke-width:0.8;"/>
      </defs>
      <g>
       <use style="stroke:#000000;stroke-width:0.8;" x="74.72" xlink:href="#md5eb22e11c" y="300.76"/>
      </g>
     </g>
     <g id="text_1">
      <!-- 0 -->
      <defs>
       <path d="M 31.78125 66.40625  Q 24.171875 66.40625 20.328125 58.90625  Q 16.5 51.421875 16.5 36.375  Q 16.5 21.390625 20.328125 13.890625  Q 24.171875 6.390625 31.78125 6.390625  Q 39.453125 6.390625 43.28125 13.890625  Q 47.125 21.390625 47.125 36.375  Q 47.125 51.421875 43.28125 58.90625  Q 39.453125 66.40625 31.78125 66.40625  z M 31.78125 74.21875  Q 44.046875 74.21875 50.515625 64.515625  Q 56.984375 54.828125 56.984375 36.375  Q 56.984375 17.96875 50.515625 8.265625  Q 44.046875 -1.421875 31.78125 -1.421875  Q 19.53125 -1.421875 13.0625 8.265625  Q 6.59375 17.96875 6.59375 36.375  Q 6.59375 54.828125 13.0625 64.515625  Q 19.53125 74.21875 31.78125 74.21875  z " id="DejaVuSans-30"/>
      </defs>
      <g transform="translate(71.53875 315.358437)scale(0.1 -0.1)">
       <use xlink:href="#DejaVuSans-30"/>
      </g>
     </g>
    </g>
    <g id="xtick_2">
     <g id="line2d_2">
      <g>
       <use style="stroke:#000000;stroke-width:0.8;" x="120.44875" xlink:href="#md5eb22e11c" y="300.76"/>
      </g>
     </g>
     <g id="text_2">
      <!-- 25 -->
      <defs>
       <path d="M 19.1875 8.296875  L 53.609375 8.296875  L 53.609375 0  L 7.328125 0  L 7.328125 8.296875  Q 12.9375 14.109375 22.625 23.890625  Q 32.328125 33.6875 34.8125 36.53125  Q 39.546875 41.84375 41.421875 45.53125  Q 43.3125 49.21875 43.3125 52.78125  Q 43.3125 58.59375 39.234375 62.25  Q 35.15625 65.921875 28.609375 65.921875  Q 23.96875 65.921875 18.8125 64.3125  Q 13.671875 62.703125 7.8125 59.421875  L 7.8125 69.390625  Q 13.765625 71.78125 18.9375 73  Q 24.125 74.21875 28.421875 74.21875  Q 39.75 74.21875 46.484375 68.546875  Q 53.21875 62.890625 53.21875 53.421875  Q 53.21875 48.921875 51.53125 44.890625  Q 49.859375 40.875 45.40625 35.40625  Q 44.1875 33.984375 37.640625 27.21875  Q 31.109375 20.453125 19.1875 8.296875  z " id="DejaVuSans-32"/>
       <path d="M 10.796875 72.90625  L 49.515625 72.90625  L 49.515625 64.59375  L 19.828125 64.59375  L 19.828125 46.734375  Q 21.96875 47.46875 24.109375 47.828125  Q 26.265625 48.1875 28.421875 48.1875  Q 40.625 48.1875 47.75 41.5  Q 54.890625 34.8125 54.890625 23.390625  Q 54.890625 11.625 47.5625 5.09375  Q 40.234375 -1.421875 26.90625 -1.421875  Q 22.3125 -1.421875 17.546875 -0.640625  Q 12.796875 0.140625 7.71875 1.703125  L 7.71875 11.625  Q 12.109375 9.234375 16.796875 8.0625  Q 21.484375 6.890625 26.703125 6.890625  Q 35.15625 6.890625 40.078125 11.328125  Q 45.015625 15.765625 45.015625 23.390625  Q 45.015625 31 40.078125 35.4375  Q 35.15625 39.890625 26.703125 39.890625  Q 22.75 39.890625 18.8125 39.015625  Q 14.890625 38.140625 10.796875 36.28125  z " id="DejaVuSans-35"/>
      </defs>
      <g transform="translate(114.08625 315.358437)scale(0.1 -0.1)">
       <use xlink:href="#DejaVuSans-32"/>
       <use x="63.623047" xlink:href="#DejaVuSans-35"/>
      </g>
     </g>
    </g>
    <g id="xtick_3">
     <g id="line2d_3">
      <g>
       <use style="stroke:#000000;stroke-width:0.8;" x="166.1775" xlink:href="#md5eb22e11c" y="300.76"/>
      </g>
     </g>
     <g id="text_3">
      <!-- 50 -->
      <g transform="translate(159.815 315.358437)scale(0.1 -0.1)">
       <use xlink:href="#DejaVuSans-35"/>
       <use x="63.623047" xlink:href="#DejaVuSans-30"/>
      </g>
     </g>
    </g>
    <g id="xtick_4">
     <g id="line2d_4">
      <g>
       <use style="stroke:#000000;stroke-width:0.8;" x="211.90625" xlink:href="#md5eb22e11c" y="300.76"/>
      </g>
     </g>
     <g id="text_4">
      <!-- 75 -->
      <defs>
       <path d="M 8.203125 72.90625  L 55.078125 72.90625  L 55.078125 68.703125  L 28.609375 0  L 18.3125 0  L 43.21875 64.59375  L 8.203125 64.59375  z " id="DejaVuSans-37"/>
      </defs>
      <g transform="translate(205.54375 315.358437)scale(0.1 -0.1)">
       <use xlink:href="#DejaVuSans-37"/>
       <use x="63.623047" xlink:href="#DejaVuSans-35"/>
      </g>
     </g>
    </g>
    <g id="xtick_5">
     <g id="line2d_5">
      <g>
       <use style="stroke:#000000;stroke-width:0.8;" x="257.635" xlink:href="#md5eb22e11c" y="300.76"/>
      </g>
     </g>
     <g id="text_5">
      <!-- 100 -->
      <defs>
       <path d="M 12.40625 8.296875  L 28.515625 8.296875  L 28.515625 63.921875  L 10.984375 60.40625  L 10.984375 69.390625  L 28.421875 72.90625  L 38.28125 72.90625  L 38.28125 8.296875  L 54.390625 8.296875  L 54.390625 0  L 12.40625 0  z " id="DejaVuSans-31"/>
      </defs>
      <g transform="translate(248.09125 315.358437)scale(0.1 -0.1)">
       <use xlink:href="#DejaVuSans-31"/>
       <use x="63.623047" xlink:href="#DejaVuSans-30"/>
       <use x="127.246094" xlink:href="#DejaVuSans-30"/>
      </g>
     </g>
    </g>
    <g id="xtick_6">
     <g id="line2d_6">
      <g>
       <use style="stroke:#000000;stroke-width:0.8;" x="303.36375" xlink:href="#md5eb22e11c" y="300.76"/>
      </g>
     </g>
     <g id="text_6">
      <!-- 125 -->
      <g transform="translate(293.82 315.358437)scale(0.1 -0.1)">
       <use xlink:href="#DejaVuSans-31"/>
       <use x="63.623047" xlink:href="#DejaVuSans-32"/>
       <use x="127.246094" xlink:href="#DejaVuSans-35"/>
      </g>
     </g>
    </g>
    <g id="xtick_7">
     <g id="line2d_7">
      <g>
       <use style="stroke:#000000;stroke-width:0.8;" x="349.0925" xlink:href="#md5eb22e11c" y="300.76"/>
      </g>
     </g>
     <g id="text_7">
      <!-- 150 -->
      <g transform="translate(339.54875 315.358437)scale(0.1 -0.1)">
       <use xlink:href="#DejaVuSans-31"/>
       <use x="63.623047" xlink:href="#DejaVuSans-35"/>
       <use x="127.246094" xlink:href="#DejaVuSans-30"/>
      </g>
     </g>
    </g>
    <g id="xtick_8">
     <g id="line2d_8">
      <g>
       <use style="stroke:#000000;stroke-width:0.8;" x="394.82125" xlink:href="#md5eb22e11c" y="300.76"/>
      </g>
     </g>
     <g id="text_8">
      <!-- 175 -->
      <g transform="translate(385.2775 315.358437)scale(0.1 -0.1)">
       <use xlink:href="#DejaVuSans-31"/>
       <use x="63.623047" xlink:href="#DejaVuSans-37"/>
       <use x="127.246094" xlink:href="#DejaVuSans-35"/>
      </g>
     </g>
    </g>
    <g id="xtick_9">
     <g id="line2d_9">
      <g>
       <use style="stroke:#000000;stroke-width:0.8;" x="440.55" xlink:href="#md5eb22e11c" y="300.76"/>
      </g>
     </g>
     <g id="text_9">
      <!-- 200 -->
      <g transform="translate(431.00625 315.358437)scale(0.1 -0.1)">
       <use xlink:href="#DejaVuSans-32"/>
       <use x="63.623047" xlink:href="#DejaVuSans-30"/>
       <use x="127.246094" xlink:href="#DejaVuSans-30"/>
      </g>
     </g>
    </g>
    <g id="text_10">
     <!-- Distance ($\mu$m) -->
     <defs>
      <path d="M 19.671875 64.796875  L 19.671875 8.109375  L 31.59375 8.109375  Q 46.6875 8.109375 53.6875 14.9375  Q 60.6875 21.78125 60.6875 36.53125  Q 60.6875 51.171875 53.6875 57.984375  Q 46.6875 64.796875 31.59375 64.796875  z M 9.8125 72.90625  L 30.078125 72.90625  Q 51.265625 72.90625 61.171875 64.09375  Q 71.09375 55.28125 71.09375 36.53125  Q 71.09375 17.671875 61.125 8.828125  Q 51.171875 0 30.078125 0  L 9.8125 0  z " id="DejaVuSans-44"/>
      <path d="M 9.421875 54.6875  L 18.40625 54.6875  L 18.40625 0  L 9.421875 0  z M 9.421875 75.984375  L 18.40625 75.984375  L 18.40625 64.59375  L 9.421875 64.59375  z " id="DejaVuSans-69"/>
      <path d="M 44.28125 53.078125  L 44.28125 44.578125  Q 40.484375 46.53125 36.375 47.5  Q 32.28125 48.484375 27.875 48.484375  Q 21.1875 48.484375 17.84375 46.4375  Q 14.5 44.390625 14.5 40.28125  Q 14.5 37.15625 16.890625 35.375  Q 19.28125 33.59375 26.515625 31.984375  L 29.59375 31.296875  Q 39.15625 29.25 43.1875 25.515625  Q 47.21875 21.78125 47.21875 15.09375  Q 47.21875 7.46875 41.1875 3.015625  Q 35.15625 -1.421875 24.609375 -1.421875  Q 20.21875 -1.421875 15.453125 -0.5625  Q 10.6875 0.296875 5.421875 2  L 5.421875 11.28125  Q 10.40625 8.6875 15.234375 7.390625  Q 20.0625 6.109375 24.8125 6.109375  Q 31.15625 6.109375 34.5625 8.28125  Q 37.984375 10.453125 37.984375 14.40625  Q 37.984375 18.0625 35.515625 20.015625  Q 33.0625 21.96875 24.703125 23.78125  L 21.578125 24.515625  Q 13.234375 26.265625 9.515625 29.90625  Q 5.8125 33.546875 5.8125 39.890625  Q 5.8125 47.609375 11.28125 51.796875  Q 16.75 56 26.8125 56  Q 31.78125 56 36.171875 55.265625  Q 40.578125 54.546875 44.28125 53.078125  z " id="DejaVuSans-73"/>
      <path d="M 18.3125 70.21875  L 18.3125 54.6875  L 36.8125 54.6875  L 36.8125 47.703125  L 18.3125 47.703125  L 18.3125 18.015625  Q 18.3125 11.328125 20.140625 9.421875  Q 21.96875 7.515625 27.59375 7.515625  L 36.8125 7.515625  L 36.8125 0  L 27.59375 0  Q 17.1875 0 13.234375 3.875  Q 9.28125 7.765625 9.28125 18.015625  L 9.28125 47.703125  L 2.6875 47.703125  L 2.6875 54.6875  L 9.28125 54.6875  L 9.28125 70.21875  z " id="DejaVuSans-74"/>
      <path d="M 34.28125 27.484375  Q 23.390625 27.484375 19.1875 25  Q 14.984375 22.515625 14.984375 16.5  Q 14.984375 11.71875 18.140625 8.90625  Q 21.296875 6.109375 26.703125 6.109375  Q 34.1875 6.109375 38.703125 11.40625  Q 43.21875 16.703125 43.21875 25.484375  L 43.21875 27.484375  z M 52.203125 31.203125  L 52.203125 0  L 43.21875 0  L 43.21875 8.296875  Q 40.140625 3.328125 35.546875 0.953125  Q 30.953125 -1.421875 24.3125 -1.421875  Q 15.921875 -1.421875 10.953125 3.296875  Q 6 8.015625 6 15.921875  Q 6 25.140625 12.171875 29.828125  Q 18.359375 34.515625 30.609375 34.515625  L 43.21875 34.515625  L 43.21875 35.40625  Q 43.21875 41.609375 39.140625 45  Q 35.0625 48.390625 27.6875 48.390625  Q 23 48.390625 18.546875 47.265625  Q 14.109375 46.140625 10.015625 43.890625  L 10.015625 52.203125  Q 14.9375 54.109375 19.578125 55.046875  Q 24.21875 56 28.609375 56  Q 40.484375 56 46.34375 49.84375  Q 52.203125 43.703125 52.203125 31.203125  z " id="DejaVuSans-61"/>
      <path d="M 54.890625 33.015625  L 54.890625 0  L 45.90625 0  L 45.90625 32.71875  Q 45.90625 40.484375 42.875 44.328125  Q 39.84375 48.1875 33.796875 48.1875  Q 26.515625 48.1875 22.3125 43.546875  Q 18.109375 38.921875 18.109375 30.90625  L 18.109375 0  L 9.078125 0  L 9.078125 54.6875  L 18.109375 54.6875  L 18.109375 46.1875  Q 21.34375 51.125 25.703125 53.5625  Q 30.078125 56 35.796875 56  Q 45.21875 56 50.046875 50.171875  Q 54.890625 44.34375 54.890625 33.015625  z " id="DejaVuSans-6e"/>
      <path d="M 48.78125 52.59375  L 48.78125 44.1875  Q 44.96875 46.296875 41.140625 47.34375  Q 37.3125 48.390625 33.40625 48.390625  Q 24.65625 48.390625 19.8125 42.84375  Q 14.984375 37.3125 14.984375 27.296875  Q 14.984375 17.28125 19.8125 11.734375  Q 24.65625 6.203125 33.40625 6.203125  Q 37.3125 6.203125 41.140625 7.25  Q 44.96875 8.296875 48.78125 10.40625  L 48.78125 2.09375  Q 45.015625 0.34375 40.984375 -0.53125  Q 36.96875 -1.421875 32.421875 -1.421875  Q 20.0625 -1.421875 12.78125 6.34375  Q 5.515625 14.109375 5.515625 27.296875  Q 5.515625 40.671875 12.859375 48.328125  Q 20.21875 56 33.015625 56  Q 37.15625 56 41.109375 55.140625  Q 45.0625 54.296875 48.78125 52.59375  z " id="DejaVuSans-63"/>
      <path d="M 56.203125 29.59375  L 56.203125 25.203125  L 14.890625 25.203125  Q 15.484375 15.921875 20.484375 11.0625  Q 25.484375 6.203125 34.421875 6.203125  Q 39.59375 6.203125 44.453125 7.46875  Q 49.3125 8.734375 54.109375 11.28125  L 54.109375 2.78125  Q 49.265625 0.734375 44.1875 -0.34375  Q 39.109375 -1.421875 33.890625 -1.421875  Q 20.796875 -1.421875 13.15625 6.1875  Q 5.515625 13.8125 5.515625 26.8125  Q 5.515625 40.234375 12.765625 48.109375  Q 20.015625 56 32.328125 56  Q 43.359375 56 49.78125 48.890625  Q 56.203125 41.796875 56.203125 29.59375  z M 47.21875 32.234375  Q 47.125 39.59375 43.09375 43.984375  Q 39.0625 48.390625 32.421875 48.390625  Q 24.90625 48.390625 20.390625 44.140625  Q 15.875 39.890625 15.1875 32.171875  z " id="DejaVuSans-65"/>
      <path id="DejaVuSans-20"/>
      <path d="M 31 75.875  Q 24.46875 64.65625 21.28125 53.65625  Q 18.109375 42.671875 18.109375 31.390625  Q 18.109375 20.125 21.3125 9.0625  Q 24.515625 -2 31 -13.1875  L 23.1875 -13.1875  Q 15.875 -1.703125 12.234375 9.375  Q 8.59375 20.453125 8.59375 31.390625  Q 8.59375 42.28125 12.203125 53.3125  Q 15.828125 64.359375 23.1875 75.875  z " id="DejaVuSans-28"/>
      <path d="M -1.3125 -20.796875  L 13.375 54.6875  L 22.40625 54.6875  L 15.765625 20.65625  Q 15.578125 19.625 15.421875 18.359375  Q 15.28125 17.09375 15.28125 15.828125  Q 15.28125 11.28125 18.140625 8.828125  Q 21 6.390625 26.3125 6.390625  Q 33.546875 6.390625 37.984375 10.484375  Q 42.4375 14.59375 44 22.796875  L 50.203125 54.6875  L 59.1875 54.6875  L 51.03125 12.640625  Q 50.828125 11.71875 50.75 11.03125  Q 50.6875 10.359375 50.6875 9.8125  Q 50.6875 8.296875 51.296875 7.59375  Q 51.90625 6.890625 53.21875 6.890625  Q 53.71875 6.890625 54.5625 7.125  Q 55.421875 7.375 56.984375 8.015625  L 55.609375 0.78125  Q 53.46875 -0.296875 51.515625 -0.859375  Q 49.5625 -1.421875 47.703125 -1.421875  Q 44.484375 -1.421875 42.65625 0.625  Q 40.828125 2.6875 40.828125 6.296875  Q 38.09375 2.390625 34.296875 0.484375  Q 30.515625 -1.421875 25.390625 -1.421875  Q 20.84375 -1.421875 17.453125 0.671875  Q 14.0625 2.78125 12.984375 6.203125  L 7.71875 -20.796875  z " id="DejaVuSans-Oblique-3bc"/>
      <path d="M 52 44.1875  Q 55.375 50.25 60.0625 53.125  Q 64.75 56 71.09375 56  Q 79.640625 56 84.28125 50.015625  Q 88.921875 44.046875 88.921875 33.015625  L 88.921875 0  L 79.890625 0  L 79.890625 32.71875  Q 79.890625 40.578125 77.09375 44.375  Q 74.3125 48.1875 68.609375 48.1875  Q 61.625 48.1875 57.5625 43.546875  Q 53.515625 38.921875 53.515625 30.90625  L 53.515625 0  L 44.484375 0  L 44.484375 32.71875  Q 44.484375 40.625 41.703125 44.40625  Q 38.921875 48.1875 33.109375 48.1875  Q 26.21875 48.1875 22.15625 43.53125  Q 18.109375 38.875 18.109375 30.90625  L 18.109375 0  L 9.078125 0  L 9.078125 54.6875  L 18.109375 54.6875  L 18.109375 46.1875  Q 21.1875 51.21875 25.484375 53.609375  Q 29.78125 56 35.6875 56  Q 41.65625 56 45.828125 52.96875  Q 50 49.953125 52 44.1875  z " id="DejaVuSans-6d"/>
      <path d="M 8.015625 75.875  L 15.828125 75.875  Q 23.140625 64.359375 26.78125 53.3125  Q 30.421875 42.28125 30.421875 31.390625  Q 30.421875 20.453125 26.78125 9.375  Q 23.140625 -1.703125 15.828125 -13.1875  L 8.015625 -13.1875  Q 14.5 -2 17.703125 9.0625  Q 20.90625 20.125 20.90625 31.390625  Q 20.90625 42.671875 17.703125 53.65625  Q 14.5 64.65625 8.015625 75.875  z " id="DejaVuSans-29"/>
     </defs>
     <g transform="translate(222.185 329.038125)scale(0.1 -0.1)">
      <use transform="translate(0 0.015625)" xlink:href="#DejaVuSans-44"/>
      <use transform="translate(77.001953 0.015625)" xlink:href="#DejaVuSans-69"/>
      <use transform="translate(104.785156 0.015625)" xlink:href="#DejaVuSans-73"/>
      <use transform="translate(156.884766 0.015625)" xlink:href="#DejaVuSans-74"/>
      <use transform="translate(196.09375 0.015625)" xlink:href="#DejaVuSans-61"/>
      <use transform="translate(257.373047 0.015625)" xlink:href="#DejaVuSans-6e"/>
      <use transform="translate(320.751953 0.015625)" xlink:href="#DejaVuSans-63"/>
      <use transform="translate(375.732422 0.015625)" xlink:href="#DejaVuSans-65"/>
      <use transform="translate(437.255859 0.015625)" xlink:href="#DejaVuSans-20"/>
      <use transform="translate(469.042969 0.015625)" xlink:href="#DejaVuSans-28"/>
      <use transform="translate(508.056641 0.015625)" xlink:href="#DejaVuSans-Oblique-3bc"/>
      <use transform="translate(571.679688 0.015625)" xlink:href="#DejaVuSans-6d"/>
      <use transform="translate(669.091797 0.015625)" xlink:href="#DejaVuSans-29"/>
     </g>
    </g>
   </g>
   <g id="matplotlib.axis_2">
    <g id="ytick_1">
     <g id="line2d_10">
      <defs>
       <path d="M 0 0  L -3.5 0  " id="m0489c78320" style="stroke:#000000;stroke-width:0.8;"/>
      </defs>
      <g>
       <use style="stroke:#000000;stroke-width:0.8;" x="74.72" xlink:href="#m0489c78320" y="274.010254"/>
      </g>
     </g>
     <g id="text_11">
      <!-- &#8722;60000 -->
      <defs>
       <path d="M 10.59375 35.5  L 73.1875 35.5  L 73.1875 27.203125  L 10.59375 27.203125  z " id="DejaVuSans-2212"/>
       <path d="M 33.015625 40.375  Q 26.375 40.375 22.484375 35.828125  Q 18.609375 31.296875 18.609375 23.390625  Q 18.609375 15.53125 22.484375 10.953125  Q 26.375 6.390625 33.015625 6.390625  Q 39.65625 6.390625 43.53125 10.953125  Q 47.40625 15.53125 47.40625 23.390625  Q 47.40625 31.296875 43.53125 35.828125  Q 39.65625 40.375 33.015625 40.375  z M 52.59375 71.296875  L 52.59375 62.3125  Q 48.875 64.0625 45.09375 64.984375  Q 41.3125 65.921875 37.59375 65.921875  Q 27.828125 65.921875 22.671875 59.328125  Q 17.53125 52.734375 16.796875 39.40625  Q 19.671875 43.65625 24.015625 45.921875  Q 28.375 48.1875 33.59375 48.1875  Q 44.578125 48.1875 50.953125 41.515625  Q 57.328125 34.859375 57.328125 23.390625  Q 57.328125 12.15625 50.6875 5.359375  Q 44.046875 -1.421875 33.015625 -1.421875  Q 20.359375 -1.421875 13.671875 8.265625  Q 6.984375 17.96875 6.984375 36.375  Q 6.984375 53.65625 15.1875 63.9375  Q 23.390625 74.21875 37.203125 74.21875  Q 40.921875 74.21875 44.703125 73.484375  Q 48.484375 72.75 52.59375 71.296875  z " id="DejaVuSans-36"/>
      </defs>
      <g transform="translate(27.527813 277.809473)scale(0.1 -0.1)">
       <use xlink:href="#DejaVuSans-2212"/>
       <use x="83.789062" xlink:href="#DejaVuSans-36"/>
       <use x="147.412109" xlink:href="#DejaVuSans-30"/>
       <use x="211.035156" xlink:href="#DejaVuSans-30"/>
       <use x="274.658203" xlink:href="#DejaVuSans-30"/>
       <use x="338.28125" xlink:href="#DejaVuSans-30"/>
      </g>
     </g>
    </g>
    <g id="ytick_2">
     <g id="line2d_11">
      <g>
       <use style="stroke:#000000;stroke-width:0.8;" x="74.72" xlink:href="#m0489c78320" y="221.665986"/>
      </g>
     </g>
     <g id="text_12">
      <!-- &#8722;40000 -->
      <defs>
       <path d="M 37.796875 64.3125  L 12.890625 25.390625  L 37.796875 25.390625  z M 35.203125 72.90625  L 47.609375 72.90625  L 47.609375 25.390625  L 58.015625 25.390625  L 58.015625 17.1875  L 47.609375 17.1875  L 47.609375 0  L 37.796875 0  L 37.796875 17.1875  L 4.890625 17.1875  L 4.890625 26.703125  z " id="DejaVuSans-34"/>
      </defs>
      <g transform="translate(27.527813 225.465205)scale(0.1 -0.1)">
       <use xlink:href="#DejaVuSans-2212"/>
       <use x="83.789062" xlink:href="#DejaVuSans-34"/>
       <use x="147.412109" xlink:href="#DejaVuSans-30"/>
       <use x="211.035156" xlink:href="#DejaVuSans-30"/>
       <use x="274.658203" xlink:href="#DejaVuSans-30"/>
       <use x="338.28125" xlink:href="#DejaVuSans-30"/>
      </g>
     </g>
    </g>
    <g id="ytick_3">
     <g id="line2d_12">
      <g>
       <use style="stroke:#000000;stroke-width:0.8;" x="74.72" xlink:href="#m0489c78320" y="169.321717"/>
      </g>
     </g>
     <g id="text_13">
      <!-- &#8722;20000 -->
      <g transform="translate(27.527813 173.120936)scale(0.1 -0.1)">
       <use xlink:href="#DejaVuSans-2212"/>
       <use x="83.789062" xlink:href="#DejaVuSans-32"/>
       <use x="147.412109" xlink:href="#DejaVuSans-30"/>
       <use x="211.035156" xlink:href="#DejaVuSans-30"/>
       <use x="274.658203" xlink:href="#DejaVuSans-30"/>
       <use x="338.28125" xlink:href="#DejaVuSans-30"/>
      </g>
     </g>
    </g>
    <g id="ytick_4">
     <g id="line2d_13">
      <g>
       <use style="stroke:#000000;stroke-width:0.8;" x="74.72" xlink:href="#m0489c78320" y="116.977449"/>
      </g>
     </g>
     <g id="text_14">
      <!-- 0 -->
      <g transform="translate(61.3575 120.776667)scale(0.1 -0.1)">
       <use xlink:href="#DejaVuSans-30"/>
      </g>
     </g>
    </g>
    <g id="ytick_5">
     <g id="line2d_14">
      <g>
       <use style="stroke:#000000;stroke-width:0.8;" x="74.72" xlink:href="#m0489c78320" y="64.63318"/>
      </g>
     </g>
     <g id="text_15">
      <!-- 20000 -->
      <g transform="translate(35.9075 68.432399)scale(0.1 -0.1)">
       <use xlink:href="#DejaVuSans-32"/>
       <use x="63.623047" xlink:href="#DejaVuSans-30"/>
       <use x="127.246094" xlink:href="#DejaVuSans-30"/>
       <use x="190.869141" xlink:href="#DejaVuSans-30"/>
       <use x="254.492188" xlink:href="#DejaVuSans-30"/>
      </g>
     </g>
    </g>
    <g id="text_16">
     <!-- Slope, at. / $\mu m$ -->
     <defs>
      <path d="M 53.515625 70.515625  L 53.515625 60.890625  Q 47.90625 63.578125 42.921875 64.890625  Q 37.9375 66.21875 33.296875 66.21875  Q 25.25 66.21875 20.875 63.09375  Q 16.5 59.96875 16.5 54.203125  Q 16.5 49.359375 19.40625 46.890625  Q 22.3125 44.4375 30.421875 42.921875  L 36.375 41.703125  Q 47.40625 39.59375 52.65625 34.296875  Q 57.90625 29 57.90625 20.125  Q 57.90625 9.515625 50.796875 4.046875  Q 43.703125 -1.421875 29.984375 -1.421875  Q 24.8125 -1.421875 18.96875 -0.25  Q 13.140625 0.921875 6.890625 3.21875  L 6.890625 13.375  Q 12.890625 10.015625 18.65625 8.296875  Q 24.421875 6.59375 29.984375 6.59375  Q 38.421875 6.59375 43.015625 9.90625  Q 47.609375 13.234375 47.609375 19.390625  Q 47.609375 24.75 44.3125 27.78125  Q 41.015625 30.8125 33.5 32.328125  L 27.484375 33.5  Q 16.453125 35.6875 11.515625 40.375  Q 6.59375 45.0625 6.59375 53.421875  Q 6.59375 63.09375 13.40625 68.65625  Q 20.21875 74.21875 32.171875 74.21875  Q 37.3125 74.21875 42.625 73.28125  Q 47.953125 72.359375 53.515625 70.515625  z " id="DejaVuSans-53"/>
      <path d="M 9.421875 75.984375  L 18.40625 75.984375  L 18.40625 0  L 9.421875 0  z " id="DejaVuSans-6c"/>
      <path d="M 30.609375 48.390625  Q 23.390625 48.390625 19.1875 42.75  Q 14.984375 37.109375 14.984375 27.296875  Q 14.984375 17.484375 19.15625 11.84375  Q 23.34375 6.203125 30.609375 6.203125  Q 37.796875 6.203125 41.984375 11.859375  Q 46.1875 17.53125 46.1875 27.296875  Q 46.1875 37.015625 41.984375 42.703125  Q 37.796875 48.390625 30.609375 48.390625  z M 30.609375 56  Q 42.328125 56 49.015625 48.375  Q 55.71875 40.765625 55.71875 27.296875  Q 55.71875 13.875 49.015625 6.21875  Q 42.328125 -1.421875 30.609375 -1.421875  Q 18.84375 -1.421875 12.171875 6.21875  Q 5.515625 13.875 5.515625 27.296875  Q 5.515625 40.765625 12.171875 48.375  Q 18.84375 56 30.609375 56  z " id="DejaVuSans-6f"/>
      <path d="M 18.109375 8.203125  L 18.109375 -20.796875  L 9.078125 -20.796875  L 9.078125 54.6875  L 18.109375 54.6875  L 18.109375 46.390625  Q 20.953125 51.265625 25.265625 53.625  Q 29.59375 56 35.59375 56  Q 45.5625 56 51.78125 48.09375  Q 58.015625 40.1875 58.015625 27.296875  Q 58.015625 14.40625 51.78125 6.484375  Q 45.5625 -1.421875 35.59375 -1.421875  Q 29.59375 -1.421875 25.265625 0.953125  Q 20.953125 3.328125 18.109375 8.203125  z M 48.6875 27.296875  Q 48.6875 37.203125 44.609375 42.84375  Q 40.53125 48.484375 33.40625 48.484375  Q 26.265625 48.484375 22.1875 42.84375  Q 18.109375 37.203125 18.109375 27.296875  Q 18.109375 17.390625 22.1875 11.75  Q 26.265625 6.109375 33.40625 6.109375  Q 40.53125 6.109375 44.609375 11.75  Q 48.6875 17.390625 48.6875 27.296875  z " id="DejaVuSans-70"/>
      <path d="M 11.71875 12.40625  L 22.015625 12.40625  L 22.015625 4  L 14.015625 -11.625  L 7.71875 -11.625  L 11.71875 4  z " id="DejaVuSans-2c"/>
      <path d="M 10.6875 12.40625  L 21 12.40625  L 21 0  L 10.6875 0  z " id="DejaVuSans-2e"/>
      <path d="M 25.390625 72.90625  L 33.6875 72.90625  L 8.296875 -9.28125  L 0 -9.28125  z " id="DejaVuSans-2f"/>
      <path d="M 89.796875 33.015625  L 83.40625 0  L 74.421875 0  L 80.71875 32.71875  Q 81.109375 34.8125 81.296875 36.328125  Q 81.5 37.84375 81.5 38.921875  Q 81.5 43.3125 79.046875 45.75  Q 76.609375 48.1875 72.21875 48.1875  Q 65.671875 48.1875 60.546875 43.28125  Q 55.421875 38.375 53.90625 30.515625  L 47.90625 0  L 38.921875 0  L 45.3125 32.71875  Q 45.703125 34.515625 45.890625 36.046875  Q 46.09375 37.59375 46.09375 38.8125  Q 46.09375 43.265625 43.65625 45.71875  Q 41.21875 48.1875 36.921875 48.1875  Q 30.28125 48.1875 25.140625 43.28125  Q 20.015625 38.375 18.5 30.515625  L 12.5 0  L 3.515625 0  L 14.203125 54.6875  L 23.1875 54.6875  L 21.484375 46.1875  Q 25.140625 50.984375 30.046875 53.484375  Q 34.96875 56 40.578125 56  Q 46.53125 56 50.359375 52.875  Q 54.203125 49.75 54.984375 44.1875  Q 59.078125 49.953125 64.46875 52.96875  Q 69.875 56 75.875 56  Q 82.90625 56 86.734375 51.953125  Q 90.578125 47.90625 90.578125 40.484375  Q 90.578125 38.875 90.375 36.9375  Q 90.1875 35.015625 89.796875 33.015625  z " id="DejaVuSans-Oblique-6d"/>
     </defs>
     <g transform="translate(21.427813 193.64)rotate(-90)scale(0.1 -0.1)">
      <use transform="translate(0 0.015625)" xlink:href="#DejaVuSans-53"/>
      <use transform="translate(63.476562 0.015625)" xlink:href="#DejaVuSans-6c"/>
      <use transform="translate(91.259766 0.015625)" xlink:href="#DejaVuSans-6f"/>
      <use transform="translate(152.441406 0.015625)" xlink:href="#DejaVuSans-70"/>
      <use transform="translate(215.917969 0.015625)" xlink:href="#DejaVuSans-65"/>
      <use transform="translate(277.441406 0.015625)" xlink:href="#DejaVuSans-2c"/>
      <use transform="translate(309.228516 0.015625)" xlink:href="#DejaVuSans-20"/>
      <use transform="translate(341.015625 0.015625)" xlink:href="#DejaVuSans-61"/>
      <use transform="translate(402.294922 0.015625)" xlink:href="#DejaVuSans-74"/>
      <use transform="translate(441.503906 0.015625)" xlink:href="#DejaVuSans-2e"/>
      <use transform="translate(473.291016 0.015625)" xlink:href="#DejaVuSans-20"/>
      <use transform="translate(505.078125 0.015625)" xlink:href="#DejaVuSans-2f"/>
      <use transform="translate(538.769531 0.015625)" xlink:href="#DejaVuSans-20"/>
      <use transform="translate(570.556641 0.015625)" xlink:href="#DejaVuSans-Oblique-3bc"/>
      <use transform="translate(634.179688 0.015625)" xlink:href="#DejaVuSans-Oblique-6d"/>
     </g>
    </g>
   </g>
   <g id="line2d_15">
    <defs>
     <path d="M -0 3  L 3 -3  L -3 -3  z " id="ma1a09d8843" style="stroke:#f13a13;stroke-linejoin:miter;"/>
    </defs>
    <g clip-path="url(#p62f0b8cef7)">
     <use style="fill:#f13a13;stroke:#f13a13;stroke-linejoin:miter;" x="74.362744" xlink:href="#ma1a09d8843" y="116.4029"/>
     <use style="fill:#f13a13;stroke:#f13a13;stroke-linejoin:miter;" x="79.002549" xlink:href="#ma1a09d8843" y="116.4029"/>
     <use style="fill:#f13a13;stroke:#f13a13;stroke-linejoin:miter;" x="83.642352" xlink:href="#ma1a09d8843" y="115.003233"/>
     <use style="fill:#f13a13;stroke:#f13a13;stroke-linejoin:miter;" x="88.282156" xlink:href="#ma1a09d8843" y="117.82021"/>
     <use style="fill:#f13a13;stroke:#f13a13;stroke-linejoin:miter;" x="92.921959" xlink:href="#ma1a09d8843" y="117.845695"/>
     <use style="fill:#f13a13;stroke:#f13a13;stroke-linejoin:miter;" x="97.561767" xlink:href="#ma1a09d8843" y="116.132624"/>
     <use style="fill:#f13a13;stroke:#f13a13;stroke-linejoin:miter;" x="102.20157" xlink:href="#ma1a09d8843" y="117.415957"/>
     <use style="fill:#f13a13;stroke:#f13a13;stroke-linejoin:miter;" x="106.841374" xlink:href="#ma1a09d8843" y="117.043999"/>
     <use style="fill:#f13a13;stroke:#f13a13;stroke-linejoin:miter;" x="111.481178" xlink:href="#ma1a09d8843" y="116.820618"/>
     <use style="fill:#f13a13;stroke:#f13a13;stroke-linejoin:miter;" x="116.120981" xlink:href="#ma1a09d8843" y="117.315771"/>
     <use style="fill:#f13a13;stroke:#f13a13;stroke-linejoin:miter;" x="120.760785" xlink:href="#ma1a09d8843" y="117.68453"/>
     <use style="fill:#f13a13;stroke:#f13a13;stroke-linejoin:miter;" x="125.400588" xlink:href="#ma1a09d8843" y="116.0799"/>
     <use style="fill:#f13a13;stroke:#f13a13;stroke-linejoin:miter;" x="130.040392" xlink:href="#ma1a09d8843" y="116.00623"/>
     <use style="fill:#f13a13;stroke:#f13a13;stroke-linejoin:miter;" x="134.680195" xlink:href="#ma1a09d8843" y="117.567113"/>
     <use style="fill:#f13a13;stroke:#f13a13;stroke-linejoin:miter;" x="139.319999" xlink:href="#ma1a09d8843" y="117.695209"/>
     <use style="fill:#f13a13;stroke:#f13a13;stroke-linejoin:miter;" x="143.959803" xlink:href="#ma1a09d8843" y="117.46863"/>
     <use style="fill:#f13a13;stroke:#f13a13;stroke-linejoin:miter;" x="148.599606" xlink:href="#ma1a09d8843" y="116.801426"/>
     <use style="fill:#f13a13;stroke:#f13a13;stroke-linejoin:miter;" x="153.23941" xlink:href="#ma1a09d8843" y="117.637687"/>
     <use style="fill:#f13a13;stroke:#f13a13;stroke-linejoin:miter;" x="157.879213" xlink:href="#ma1a09d8843" y="117.725441"/>
     <use style="fill:#f13a13;stroke:#f13a13;stroke-linejoin:miter;" x="162.519017" xlink:href="#ma1a09d8843" y="117.494579"/>
     <use style="fill:#f13a13;stroke:#f13a13;stroke-linejoin:miter;" x="167.158821" xlink:href="#ma1a09d8843" y="117.92669"/>
     <use style="fill:#f13a13;stroke:#f13a13;stroke-linejoin:miter;" x="171.798624" xlink:href="#ma1a09d8843" y="117.791681"/>
     <use style="fill:#f13a13;stroke:#f13a13;stroke-linejoin:miter;" x="176.438428" xlink:href="#ma1a09d8843" y="118.084502"/>
     <use style="fill:#f13a13;stroke:#f13a13;stroke-linejoin:miter;" x="181.078231" xlink:href="#ma1a09d8843" y="117.657343"/>
     <use style="fill:#f13a13;stroke:#f13a13;stroke-linejoin:miter;" x="185.718035" xlink:href="#ma1a09d8843" y="118.720648"/>
     <use style="fill:#f13a13;stroke:#f13a13;stroke-linejoin:miter;" x="190.357839" xlink:href="#ma1a09d8843" y="119.672933"/>
     <use style="fill:#f13a13;stroke:#f13a13;stroke-linejoin:miter;" x="194.997642" xlink:href="#ma1a09d8843" y="120.397813"/>
     <use style="fill:#f13a13;stroke:#f13a13;stroke-linejoin:miter;" x="199.637446" xlink:href="#ma1a09d8843" y="122.294697"/>
     <use style="fill:#f13a13;stroke:#f13a13;stroke-linejoin:miter;" x="204.277249" xlink:href="#ma1a09d8843" y="122.554964"/>
     <use style="fill:#f13a13;stroke:#f13a13;stroke-linejoin:miter;" x="208.917053" xlink:href="#ma1a09d8843" y="122.657317"/>
     <use style="fill:#f13a13;stroke:#f13a13;stroke-linejoin:miter;" x="213.556857" xlink:href="#ma1a09d8843" y="126.079642"/>
     <use style="fill:#f13a13;stroke:#f13a13;stroke-linejoin:miter;" x="218.19666" xlink:href="#ma1a09d8843" y="129.284209"/>
     <use style="fill:#f13a13;stroke:#f13a13;stroke-linejoin:miter;" x="222.836464" xlink:href="#ma1a09d8843" y="131.276791"/>
     <use style="fill:#f13a13;stroke:#f13a13;stroke-linejoin:miter;" x="227.476267" xlink:href="#ma1a09d8843" y="135.521138"/>
     <use style="fill:#f13a13;stroke:#f13a13;stroke-linejoin:miter;" x="232.116071" xlink:href="#ma1a09d8843" y="141.563885"/>
     <use style="fill:#f13a13;stroke:#f13a13;stroke-linejoin:miter;" x="236.755875" xlink:href="#ma1a09d8843" y="150.031583"/>
     <use style="fill:#f13a13;stroke:#f13a13;stroke-linejoin:miter;" x="241.395678" xlink:href="#ma1a09d8843" y="164.090984"/>
     <use style="fill:#f13a13;stroke:#f13a13;stroke-linejoin:miter;" x="246.035482" xlink:href="#ma1a09d8843" y="179.557068"/>
     <use style="fill:#f13a13;stroke:#f13a13;stroke-linejoin:miter;" x="250.675285" xlink:href="#ma1a09d8843" y="190.858561"/>
     <use style="fill:#f13a13;stroke:#f13a13;stroke-linejoin:miter;" x="255.315089" xlink:href="#ma1a09d8843" y="206.929454"/>
     <use style="fill:#f13a13;stroke:#f13a13;stroke-linejoin:miter;" x="259.954911" xlink:href="#ma1a09d8843" y="224.800585"/>
     <use style="fill:#f13a13;stroke:#f13a13;stroke-linejoin:miter;" x="264.594733" xlink:href="#ma1a09d8843" y="241.857716"/>
     <use style="fill:#f13a13;stroke:#f13a13;stroke-linejoin:miter;" x="269.234555" xlink:href="#ma1a09d8843" y="256.695746"/>
     <use style="fill:#f13a13;stroke:#f13a13;stroke-linejoin:miter;" x="273.874377" xlink:href="#ma1a09d8843" y="246.379802"/>
     <use style="fill:#f13a13;stroke:#f13a13;stroke-linejoin:miter;" x="278.514199" xlink:href="#ma1a09d8843" y="200.277353"/>
     <use style="fill:#f13a13;stroke:#f13a13;stroke-linejoin:miter;" x="283.153837" xlink:href="#ma1a09d8843" y="144.478256"/>
     <use style="fill:#f13a13;stroke:#f13a13;stroke-linejoin:miter;" x="287.793659" xlink:href="#ma1a09d8843" y="119.451117"/>
     <use style="fill:#f13a13;stroke:#f13a13;stroke-linejoin:miter;" x="292.433481" xlink:href="#ma1a09d8843" y="117.734591"/>
     <use style="fill:#f13a13;stroke:#f13a13;stroke-linejoin:miter;" x="297.073303" xlink:href="#ma1a09d8843" y="117.115342"/>
     <use style="fill:#f13a13;stroke:#f13a13;stroke-linejoin:miter;" x="301.713125" xlink:href="#ma1a09d8843" y="117.215137"/>
     <use style="fill:#f13a13;stroke:#f13a13;stroke-linejoin:miter;" x="306.352947" xlink:href="#ma1a09d8843" y="115.571871"/>
     <use style="fill:#f13a13;stroke:#f13a13;stroke-linejoin:miter;" x="310.992769" xlink:href="#ma1a09d8843" y="118.056338"/>
     <use style="fill:#f13a13;stroke:#f13a13;stroke-linejoin:miter;" x="315.632591" xlink:href="#ma1a09d8843" y="118.83951"/>
     <use style="fill:#f13a13;stroke:#f13a13;stroke-linejoin:miter;" x="320.272413" xlink:href="#ma1a09d8843" y="115.50547"/>
     <use style="fill:#f13a13;stroke:#f13a13;stroke-linejoin:miter;" x="324.912234" xlink:href="#ma1a09d8843" y="115.921473"/>
     <use style="fill:#f13a13;stroke:#f13a13;stroke-linejoin:miter;" x="329.551873" xlink:href="#ma1a09d8843" y="117.811362"/>
     <use style="fill:#f13a13;stroke:#f13a13;stroke-linejoin:miter;" x="334.191695" xlink:href="#ma1a09d8843" y="117.125763"/>
     <use style="fill:#f13a13;stroke:#f13a13;stroke-linejoin:miter;" x="338.831517" xlink:href="#ma1a09d8843" y="116.19007"/>
     <use style="fill:#f13a13;stroke:#f13a13;stroke-linejoin:miter;" x="343.471339" xlink:href="#ma1a09d8843" y="118.392348"/>
     <use style="fill:#f13a13;stroke:#f13a13;stroke-linejoin:miter;" x="348.111161" xlink:href="#ma1a09d8843" y="117.428272"/>
     <use style="fill:#f13a13;stroke:#f13a13;stroke-linejoin:miter;" x="352.750983" xlink:href="#ma1a09d8843" y="116.379687"/>
     <use style="fill:#f13a13;stroke:#f13a13;stroke-linejoin:miter;" x="357.390805" xlink:href="#ma1a09d8843" y="115.677671"/>
     <use style="fill:#f13a13;stroke:#f13a13;stroke-linejoin:miter;" x="362.030627" xlink:href="#ma1a09d8843" y="115.974546"/>
     <use style="fill:#f13a13;stroke:#f13a13;stroke-linejoin:miter;" x="366.670449" xlink:href="#ma1a09d8843" y="119.118408"/>
     <use style="fill:#f13a13;stroke:#f13a13;stroke-linejoin:miter;" x="371.31027" xlink:href="#ma1a09d8843" y="116.70121"/>
     <use style="fill:#f13a13;stroke:#f13a13;stroke-linejoin:miter;" x="375.949909" xlink:href="#ma1a09d8843" y="115.850935"/>
     <use style="fill:#f13a13;stroke:#f13a13;stroke-linejoin:miter;" x="380.589731" xlink:href="#ma1a09d8843" y="117.947396"/>
     <use style="fill:#f13a13;stroke:#f13a13;stroke-linejoin:miter;" x="385.229553" xlink:href="#ma1a09d8843" y="116.636442"/>
     <use style="fill:#f13a13;stroke:#f13a13;stroke-linejoin:miter;" x="389.869375" xlink:href="#ma1a09d8843" y="117.57659"/>
     <use style="fill:#f13a13;stroke:#f13a13;stroke-linejoin:miter;" x="394.509197" xlink:href="#ma1a09d8843" y="117.921488"/>
     <use style="fill:#f13a13;stroke:#f13a13;stroke-linejoin:miter;" x="399.149019" xlink:href="#ma1a09d8843" y="116.746354"/>
     <use style="fill:#f13a13;stroke:#f13a13;stroke-linejoin:miter;" x="403.788841" xlink:href="#ma1a09d8843" y="116.030518"/>
     <use style="fill:#f13a13;stroke:#f13a13;stroke-linejoin:miter;" x="408.428663" xlink:href="#ma1a09d8843" y="115.947194"/>
     <use style="fill:#f13a13;stroke:#f13a13;stroke-linejoin:miter;" x="413.068485" xlink:href="#ma1a09d8843" y="118.121545"/>
     <use style="fill:#f13a13;stroke:#f13a13;stroke-linejoin:miter;" x="417.708306" xlink:href="#ma1a09d8843" y="116.521347"/>
     <use style="fill:#f13a13;stroke:#f13a13;stroke-linejoin:miter;" x="422.347945" xlink:href="#ma1a09d8843" y="116.478758"/>
     <use style="fill:#f13a13;stroke:#f13a13;stroke-linejoin:miter;" x="426.987767" xlink:href="#ma1a09d8843" y="117.966619"/>
     <use style="fill:#f13a13;stroke:#f13a13;stroke-linejoin:miter;" x="431.627589" xlink:href="#ma1a09d8843" y="116.646852"/>
     <use style="fill:#f13a13;stroke:#f13a13;stroke-linejoin:miter;" x="436.267411" xlink:href="#ma1a09d8843" y="116.399955"/>
     <use style="fill:#f13a13;stroke:#f13a13;stroke-linejoin:miter;" x="440.907233" xlink:href="#ma1a09d8843" y="116.399955"/>
    </g>
   </g>
   <g id="line2d_16">
    <defs>
     <path d="M 0 -3  L -0.673542 -0.927051  L -2.85317 -0.927051  L -1.089814 0.354102  L -1.763356 2.427051  L -0 1.145898  L 1.763356 2.427051  L 1.089814 0.354102  L 2.85317 -0.927051  L 0.673542 -0.927051  z " id="m3e3e52bd5a" style="stroke:#fd522b;stroke-linejoin:bevel;"/>
    </defs>
    <g clip-path="url(#p62f0b8cef7)">
     <use style="fill:#fd522b;stroke:#fd522b;stroke-linejoin:bevel;" x="74.362744" xlink:href="#m3e3e52bd5a" y="116.709788"/>
     <use style="fill:#fd522b;stroke:#fd522b;stroke-linejoin:bevel;" x="79.002549" xlink:href="#m3e3e52bd5a" y="116.709788"/>
     <use style="fill:#fd522b;stroke:#fd522b;stroke-linejoin:bevel;" x="83.642352" xlink:href="#m3e3e52bd5a" y="117.401051"/>
     <use style="fill:#fd522b;stroke:#fd522b;stroke-linejoin:bevel;" x="88.282156" xlink:href="#m3e3e52bd5a" y="116.462534"/>
     <use style="fill:#fd522b;stroke:#fd522b;stroke-linejoin:bevel;" x="92.921959" xlink:href="#m3e3e52bd5a" y="116.031151"/>
     <use style="fill:#fd522b;stroke:#fd522b;stroke-linejoin:bevel;" x="97.561767" xlink:href="#m3e3e52bd5a" y="117.020648"/>
     <use style="fill:#fd522b;stroke:#fd522b;stroke-linejoin:bevel;" x="102.20157" xlink:href="#m3e3e52bd5a" y="115.821915"/>
     <use style="fill:#fd522b;stroke:#fd522b;stroke-linejoin:bevel;" x="106.841374" xlink:href="#m3e3e52bd5a" y="116.786863"/>
     <use style="fill:#fd522b;stroke:#fd522b;stroke-linejoin:bevel;" x="111.481178" xlink:href="#m3e3e52bd5a" y="117.745614"/>
     <use style="fill:#fd522b;stroke:#fd522b;stroke-linejoin:bevel;" x="116.120981" xlink:href="#m3e3e52bd5a" y="117.941957"/>
     <use style="fill:#fd522b;stroke:#fd522b;stroke-linejoin:bevel;" x="120.760785" xlink:href="#m3e3e52bd5a" y="117.229954"/>
     <use style="fill:#fd522b;stroke:#fd522b;stroke-linejoin:bevel;" x="125.400588" xlink:href="#m3e3e52bd5a" y="116.819506"/>
     <use style="fill:#fd522b;stroke:#fd522b;stroke-linejoin:bevel;" x="130.040392" xlink:href="#m3e3e52bd5a" y="117.13967"/>
     <use style="fill:#fd522b;stroke:#fd522b;stroke-linejoin:bevel;" x="134.680195" xlink:href="#m3e3e52bd5a" y="116.328577"/>
     <use style="fill:#fd522b;stroke:#fd522b;stroke-linejoin:bevel;" x="139.319999" xlink:href="#m3e3e52bd5a" y="117.305543"/>
     <use style="fill:#fd522b;stroke:#fd522b;stroke-linejoin:bevel;" x="143.959803" xlink:href="#m3e3e52bd5a" y="116.837686"/>
     <use style="fill:#fd522b;stroke:#fd522b;stroke-linejoin:bevel;" x="148.599606" xlink:href="#m3e3e52bd5a" y="116.218294"/>
     <use style="fill:#fd522b;stroke:#fd522b;stroke-linejoin:bevel;" x="153.23941" xlink:href="#m3e3e52bd5a" y="117.460701"/>
     <use style="fill:#fd522b;stroke:#fd522b;stroke-linejoin:bevel;" x="157.879213" xlink:href="#m3e3e52bd5a" y="116.616348"/>
     <use style="fill:#fd522b;stroke:#fd522b;stroke-linejoin:bevel;" x="162.519017" xlink:href="#m3e3e52bd5a" y="115.49861"/>
     <use style="fill:#fd522b;stroke:#fd522b;stroke-linejoin:bevel;" x="167.158821" xlink:href="#m3e3e52bd5a" y="116.238536"/>
     <use style="fill:#fd522b;stroke:#fd522b;stroke-linejoin:bevel;" x="171.798624" xlink:href="#m3e3e52bd5a" y="116.778956"/>
     <use style="fill:#fd522b;stroke:#fd522b;stroke-linejoin:bevel;" x="176.438428" xlink:href="#m3e3e52bd5a" y="115.220145"/>
     <use style="fill:#fd522b;stroke:#fd522b;stroke-linejoin:bevel;" x="181.078231" xlink:href="#m3e3e52bd5a" y="116.182904"/>
     <use style="fill:#fd522b;stroke:#fd522b;stroke-linejoin:bevel;" x="185.718035" xlink:href="#m3e3e52bd5a" y="118.025506"/>
     <use style="fill:#fd522b;stroke:#fd522b;stroke-linejoin:bevel;" x="190.357839" xlink:href="#m3e3e52bd5a" y="113.677286"/>
     <use style="fill:#fd522b;stroke:#fd522b;stroke-linejoin:bevel;" x="194.997642" xlink:href="#m3e3e52bd5a" y="112.023994"/>
     <use style="fill:#fd522b;stroke:#fd522b;stroke-linejoin:bevel;" x="199.637446" xlink:href="#m3e3e52bd5a" y="113.407991"/>
     <use style="fill:#fd522b;stroke:#fd522b;stroke-linejoin:bevel;" x="204.277249" xlink:href="#m3e3e52bd5a" y="112.411179"/>
     <use style="fill:#fd522b;stroke:#fd522b;stroke-linejoin:bevel;" x="208.917053" xlink:href="#m3e3e52bd5a" y="110.527126"/>
     <use style="fill:#fd522b;stroke:#fd522b;stroke-linejoin:bevel;" x="213.556857" xlink:href="#m3e3e52bd5a" y="109.101788"/>
     <use style="fill:#fd522b;stroke:#fd522b;stroke-linejoin:bevel;" x="218.19666" xlink:href="#m3e3e52bd5a" y="108.542407"/>
     <use style="fill:#fd522b;stroke:#fd522b;stroke-linejoin:bevel;" x="222.836464" xlink:href="#m3e3e52bd5a" y="105.453431"/>
     <use style="fill:#fd522b;stroke:#fd522b;stroke-linejoin:bevel;" x="227.476267" xlink:href="#m3e3e52bd5a" y="103.154523"/>
     <use style="fill:#fd522b;stroke:#fd522b;stroke-linejoin:bevel;" x="232.116071" xlink:href="#m3e3e52bd5a" y="99.853525"/>
     <use style="fill:#fd522b;stroke:#fd522b;stroke-linejoin:bevel;" x="236.755875" xlink:href="#m3e3e52bd5a" y="96.60536"/>
     <use style="fill:#fd522b;stroke:#fd522b;stroke-linejoin:bevel;" x="241.395678" xlink:href="#m3e3e52bd5a" y="90.728627"/>
     <use style="fill:#fd522b;stroke:#fd522b;stroke-linejoin:bevel;" x="246.035482" xlink:href="#m3e3e52bd5a" y="82.545418"/>
     <use style="fill:#fd522b;stroke:#fd522b;stroke-linejoin:bevel;" x="250.675285" xlink:href="#m3e3e52bd5a" y="73.721703"/>
     <use style="fill:#fd522b;stroke:#fd522b;stroke-linejoin:bevel;" x="255.315089" xlink:href="#m3e3e52bd5a" y="63.991463"/>
     <use style="fill:#fd522b;stroke:#fd522b;stroke-linejoin:bevel;" x="259.954911" xlink:href="#m3e3e52bd5a" y="54.350975"/>
     <use style="fill:#fd522b;stroke:#fd522b;stroke-linejoin:bevel;" x="264.594733" xlink:href="#m3e3e52bd5a" y="43.65415"/>
     <use style="fill:#fd522b;stroke:#fd522b;stroke-linejoin:bevel;" x="269.234555" xlink:href="#m3e3e52bd5a" y="37.804988"/>
     <use style="fill:#fd522b;stroke:#fd522b;stroke-linejoin:bevel;" x="273.874377" xlink:href="#m3e3e52bd5a" y="42.606584"/>
     <use style="fill:#fd522b;stroke:#fd522b;stroke-linejoin:bevel;" x="278.514199" xlink:href="#m3e3e52bd5a" y="65.141755"/>
     <use style="fill:#fd522b;stroke:#fd522b;stroke-linejoin:bevel;" x="283.153837" xlink:href="#m3e3e52bd5a" y="95.71978"/>
     <use style="fill:#fd522b;stroke:#fd522b;stroke-linejoin:bevel;" x="287.793659" xlink:href="#m3e3e52bd5a" y="112.707117"/>
     <use style="fill:#fd522b;stroke:#fd522b;stroke-linejoin:bevel;" x="292.433481" xlink:href="#m3e3e52bd5a" y="114.643304"/>
     <use style="fill:#fd522b;stroke:#fd522b;stroke-linejoin:bevel;" x="297.073303" xlink:href="#m3e3e52bd5a" y="114.332171"/>
     <use style="fill:#fd522b;stroke:#fd522b;stroke-linejoin:bevel;" x="301.713125" xlink:href="#m3e3e52bd5a" y="115.630563"/>
     <use style="fill:#fd522b;stroke:#fd522b;stroke-linejoin:bevel;" x="306.352947" xlink:href="#m3e3e52bd5a" y="116.003809"/>
     <use style="fill:#fd522b;stroke:#fd522b;stroke-linejoin:bevel;" x="310.992769" xlink:href="#m3e3e52bd5a" y="115.004169"/>
     <use style="fill:#fd522b;stroke:#fd522b;stroke-linejoin:bevel;" x="315.632591" xlink:href="#m3e3e52bd5a" y="115.563755"/>
     <use style="fill:#fd522b;stroke:#fd522b;stroke-linejoin:bevel;" x="320.272413" xlink:href="#m3e3e52bd5a" y="115.459803"/>
     <use style="fill:#fd522b;stroke:#fd522b;stroke-linejoin:bevel;" x="324.912234" xlink:href="#m3e3e52bd5a" y="115.509197"/>
     <use style="fill:#fd522b;stroke:#fd522b;stroke-linejoin:bevel;" x="329.551873" xlink:href="#m3e3e52bd5a" y="116.570919"/>
     <use style="fill:#fd522b;stroke:#fd522b;stroke-linejoin:bevel;" x="334.191695" xlink:href="#m3e3e52bd5a" y="116.608175"/>
     <use style="fill:#fd522b;stroke:#fd522b;stroke-linejoin:bevel;" x="338.831517" xlink:href="#m3e3e52bd5a" y="116.052097"/>
     <use style="fill:#fd522b;stroke:#fd522b;stroke-linejoin:bevel;" x="343.471339" xlink:href="#m3e3e52bd5a" y="117.67488"/>
     <use style="fill:#fd522b;stroke:#fd522b;stroke-linejoin:bevel;" x="348.111161" xlink:href="#m3e3e52bd5a" y="118.742154"/>
     <use style="fill:#fd522b;stroke:#fd522b;stroke-linejoin:bevel;" x="352.750983" xlink:href="#m3e3e52bd5a" y="116.125869"/>
     <use style="fill:#fd522b;stroke:#fd522b;stroke-linejoin:bevel;" x="357.390805" xlink:href="#m3e3e52bd5a" y="116.613282"/>
     <use style="fill:#fd522b;stroke:#fd522b;stroke-linejoin:bevel;" x="362.030627" xlink:href="#m3e3e52bd5a" y="117.30509"/>
     <use style="fill:#fd522b;stroke:#fd522b;stroke-linejoin:bevel;" x="366.670449" xlink:href="#m3e3e52bd5a" y="116.297093"/>
     <use style="fill:#fd522b;stroke:#fd522b;stroke-linejoin:bevel;" x="371.31027" xlink:href="#m3e3e52bd5a" y="117.282604"/>
     <use style="fill:#fd522b;stroke:#fd522b;stroke-linejoin:bevel;" x="375.949909" xlink:href="#m3e3e52bd5a" y="117.015522"/>
     <use style="fill:#fd522b;stroke:#fd522b;stroke-linejoin:bevel;" x="380.589731" xlink:href="#m3e3e52bd5a" y="116.80478"/>
     <use style="fill:#fd522b;stroke:#fd522b;stroke-linejoin:bevel;" x="385.229553" xlink:href="#m3e3e52bd5a" y="116.965428"/>
     <use style="fill:#fd522b;stroke:#fd522b;stroke-linejoin:bevel;" x="389.869375" xlink:href="#m3e3e52bd5a" y="116.097805"/>
     <use style="fill:#fd522b;stroke:#fd522b;stroke-linejoin:bevel;" x="394.509197" xlink:href="#m3e3e52bd5a" y="116.109051"/>
     <use style="fill:#fd522b;stroke:#fd522b;stroke-linejoin:bevel;" x="399.149019" xlink:href="#m3e3e52bd5a" y="117.668174"/>
     <use style="fill:#fd522b;stroke:#fd522b;stroke-linejoin:bevel;" x="403.788841" xlink:href="#m3e3e52bd5a" y="118.215636"/>
     <use style="fill:#fd522b;stroke:#fd522b;stroke-linejoin:bevel;" x="408.428663" xlink:href="#m3e3e52bd5a" y="116.629687"/>
     <use style="fill:#fd522b;stroke:#fd522b;stroke-linejoin:bevel;" x="413.068485" xlink:href="#m3e3e52bd5a" y="116.97198"/>
     <use style="fill:#fd522b;stroke:#fd522b;stroke-linejoin:bevel;" x="417.708306" xlink:href="#m3e3e52bd5a" y="117.015471"/>
     <use style="fill:#fd522b;stroke:#fd522b;stroke-linejoin:bevel;" x="422.347945" xlink:href="#m3e3e52bd5a" y="116.370286"/>
     <use style="fill:#fd522b;stroke:#fd522b;stroke-linejoin:bevel;" x="426.987767" xlink:href="#m3e3e52bd5a" y="116.611889"/>
     <use style="fill:#fd522b;stroke:#fd522b;stroke-linejoin:bevel;" x="431.627589" xlink:href="#m3e3e52bd5a" y="116.814273"/>
     <use style="fill:#fd522b;stroke:#fd522b;stroke-linejoin:bevel;" x="436.267411" xlink:href="#m3e3e52bd5a" y="117.222393"/>
     <use style="fill:#fd522b;stroke:#fd522b;stroke-linejoin:bevel;" x="440.907233" xlink:href="#m3e3e52bd5a" y="117.222393"/>
    </g>
   </g>
   <g id="line2d_17">
    <defs>
     <path d="M 0 3  C 0.795609 3 1.55874 2.683901 2.12132 2.12132  C 2.683901 1.55874 3 0.795609 3 0  C 3 -0.795609 2.683901 -1.55874 2.12132 -2.12132  C 1.55874 -2.683901 0.795609 -3 0 -3  C -0.795609 -3 -1.55874 -2.683901 -2.12132 -2.12132  C -2.683901 -1.55874 -3 -0.795609 -3 0  C -3 0.795609 -2.683901 1.55874 -2.12132 2.12132  C -1.55874 2.683901 -0.795609 3 0 3  z " id="md15d1ed4fc" style="stroke:#803e75;"/>
    </defs>
    <g clip-path="url(#p62f0b8cef7)">
     <use style="fill:#803e75;stroke:#803e75;" x="74.362744" xlink:href="#md15d1ed4fc" y="117.819397"/>
     <use style="fill:#803e75;stroke:#803e75;" x="79.002549" xlink:href="#md15d1ed4fc" y="117.819397"/>
     <use style="fill:#803e75;stroke:#803e75;" x="83.642352" xlink:href="#md15d1ed4fc" y="118.528053"/>
     <use style="fill:#803e75;stroke:#803e75;" x="88.282156" xlink:href="#md15d1ed4fc" y="116.64984"/>
     <use style="fill:#803e75;stroke:#803e75;" x="92.921959" xlink:href="#md15d1ed4fc" y="117.055744"/>
     <use style="fill:#803e75;stroke:#803e75;" x="97.561767" xlink:href="#md15d1ed4fc" y="117.77917"/>
     <use style="fill:#803e75;stroke:#803e75;" x="102.20157" xlink:href="#md15d1ed4fc" y="117.694057"/>
     <use style="fill:#803e75;stroke:#803e75;" x="106.841374" xlink:href="#md15d1ed4fc" y="117.101486"/>
     <use style="fill:#803e75;stroke:#803e75;" x="111.481178" xlink:href="#md15d1ed4fc" y="116.36644"/>
     <use style="fill:#803e75;stroke:#803e75;" x="116.120981" xlink:href="#md15d1ed4fc" y="115.674552"/>
     <use style="fill:#803e75;stroke:#803e75;" x="120.760785" xlink:href="#md15d1ed4fc" y="116.017716"/>
     <use style="fill:#803e75;stroke:#803e75;" x="125.400588" xlink:href="#md15d1ed4fc" y="118.032719"/>
     <use style="fill:#803e75;stroke:#803e75;" x="130.040392" xlink:href="#md15d1ed4fc" y="117.786504"/>
     <use style="fill:#803e75;stroke:#803e75;" x="134.680195" xlink:href="#md15d1ed4fc" y="117.037019"/>
     <use style="fill:#803e75;stroke:#803e75;" x="139.319999" xlink:href="#md15d1ed4fc" y="115.931563"/>
     <use style="fill:#803e75;stroke:#803e75;" x="143.959803" xlink:href="#md15d1ed4fc" y="116.625891"/>
     <use style="fill:#803e75;stroke:#803e75;" x="148.599606" xlink:href="#md15d1ed4fc" y="117.912606"/>
     <use style="fill:#803e75;stroke:#803e75;" x="153.23941" xlink:href="#md15d1ed4fc" y="115.833918"/>
     <use style="fill:#803e75;stroke:#803e75;" x="157.879213" xlink:href="#md15d1ed4fc" y="116.59056"/>
     <use style="fill:#803e75;stroke:#803e75;" x="162.519017" xlink:href="#md15d1ed4fc" y="117.939185"/>
     <use style="fill:#803e75;stroke:#803e75;" x="167.158821" xlink:href="#md15d1ed4fc" y="116.767155"/>
     <use style="fill:#803e75;stroke:#803e75;" x="171.798624" xlink:href="#md15d1ed4fc" y="116.361717"/>
     <use style="fill:#803e75;stroke:#803e75;" x="176.438428" xlink:href="#md15d1ed4fc" y="117.627664"/>
     <use style="fill:#803e75;stroke:#803e75;" x="181.078231" xlink:href="#md15d1ed4fc" y="117.092093"/>
     <use style="fill:#803e75;stroke:#803e75;" x="185.718035" xlink:href="#md15d1ed4fc" y="114.186195"/>
     <use style="fill:#803e75;stroke:#803e75;" x="190.357839" xlink:href="#md15d1ed4fc" y="117.58214"/>
     <use style="fill:#803e75;stroke:#803e75;" x="194.997642" xlink:href="#md15d1ed4fc" y="118.510559"/>
     <use style="fill:#803e75;stroke:#803e75;" x="199.637446" xlink:href="#md15d1ed4fc" y="115.229651"/>
     <use style="fill:#803e75;stroke:#803e75;" x="204.277249" xlink:href="#md15d1ed4fc" y="115.96621"/>
     <use style="fill:#803e75;stroke:#803e75;" x="208.917053" xlink:href="#md15d1ed4fc" y="117.747882"/>
     <use style="fill:#803e75;stroke:#803e75;" x="213.556857" xlink:href="#md15d1ed4fc" y="115.75089"/>
     <use style="fill:#803e75;stroke:#803e75;" x="218.19666" xlink:href="#md15d1ed4fc" y="113.105729"/>
     <use style="fill:#803e75;stroke:#803e75;" x="222.836464" xlink:href="#md15d1ed4fc" y="114.20212"/>
     <use style="fill:#803e75;stroke:#803e75;" x="227.476267" xlink:href="#md15d1ed4fc" y="112.256672"/>
     <use style="fill:#803e75;stroke:#803e75;" x="232.116071" xlink:href="#md15d1ed4fc" y="109.514925"/>
     <use style="fill:#803e75;stroke:#803e75;" x="236.755875" xlink:href="#md15d1ed4fc" y="104.295418"/>
     <use style="fill:#803e75;stroke:#803e75;" x="241.395678" xlink:href="#md15d1ed4fc" y="96.112755"/>
     <use style="fill:#803e75;stroke:#803e75;" x="246.035482" xlink:href="#md15d1ed4fc" y="88.829881"/>
     <use style="fill:#803e75;stroke:#803e75;" x="250.675285" xlink:href="#md15d1ed4fc" y="86.352082"/>
     <use style="fill:#803e75;stroke:#803e75;" x="255.315089" xlink:href="#md15d1ed4fc" y="80.011413"/>
     <use style="fill:#803e75;stroke:#803e75;" x="259.954911" xlink:href="#md15d1ed4fc" y="71.780785"/>
     <use style="fill:#803e75;stroke:#803e75;" x="264.594733" xlink:href="#md15d1ed4fc" y="65.42048"/>
     <use style="fill:#803e75;stroke:#803e75;" x="269.234555" xlink:href="#md15d1ed4fc" y="56.431612"/>
     <use style="fill:#803e75;stroke:#803e75;" x="273.874377" xlink:href="#md15d1ed4fc" y="61.94596"/>
     <use style="fill:#803e75;stroke:#803e75;" x="278.514199" xlink:href="#md15d1ed4fc" y="85.513261"/>
     <use style="fill:#803e75;stroke:#803e75;" x="283.153837" xlink:href="#md15d1ed4fc" y="110.734282"/>
     <use style="fill:#803e75;stroke:#803e75;" x="287.793659" xlink:href="#md15d1ed4fc" y="118.774087"/>
     <use style="fill:#803e75;stroke:#803e75;" x="292.433481" xlink:href="#md15d1ed4fc" y="118.554525"/>
     <use style="fill:#803e75;stroke:#803e75;" x="297.073303" xlink:href="#md15d1ed4fc" y="119.484829"/>
     <use style="fill:#803e75;stroke:#803e75;" x="301.713125" xlink:href="#md15d1ed4fc" y="118.086612"/>
     <use style="fill:#803e75;stroke:#803e75;" x="306.352947" xlink:href="#md15d1ed4fc" y="119.35663"/>
     <use style="fill:#803e75;stroke:#803e75;" x="310.992769" xlink:href="#md15d1ed4fc" y="117.871847"/>
     <use style="fill:#803e75;stroke:#803e75;" x="315.632591" xlink:href="#md15d1ed4fc" y="116.529089"/>
     <use style="fill:#803e75;stroke:#803e75;" x="320.272413" xlink:href="#md15d1ed4fc" y="119.967032"/>
     <use style="fill:#803e75;stroke:#803e75;" x="324.912234" xlink:href="#md15d1ed4fc" y="119.501697"/>
     <use style="fill:#803e75;stroke:#803e75;" x="329.551873" xlink:href="#md15d1ed4fc" y="116.550077"/>
     <use style="fill:#803e75;stroke:#803e75;" x="334.191695" xlink:href="#md15d1ed4fc" y="117.198404"/>
     <use style="fill:#803e75;stroke:#803e75;" x="338.831517" xlink:href="#md15d1ed4fc" y="118.690204"/>
     <use style="fill:#803e75;stroke:#803e75;" x="343.471339" xlink:href="#md15d1ed4fc" y="114.865137"/>
     <use style="fill:#803e75;stroke:#803e75;" x="348.111161" xlink:href="#md15d1ed4fc" y="114.761907"/>
     <use style="fill:#803e75;stroke:#803e75;" x="352.750983" xlink:href="#md15d1ed4fc" y="118.42679"/>
     <use style="fill:#803e75;stroke:#803e75;" x="357.390805" xlink:href="#md15d1ed4fc" y="118.6414"/>
     <use style="fill:#803e75;stroke:#803e75;" x="362.030627" xlink:href="#md15d1ed4fc" y="117.652697"/>
     <use style="fill:#803e75;stroke:#803e75;" x="366.670449" xlink:href="#md15d1ed4fc" y="115.516861"/>
     <use style="fill:#803e75;stroke:#803e75;" x="371.31027" xlink:href="#md15d1ed4fc" y="116.948558"/>
     <use style="fill:#803e75;stroke:#803e75;" x="375.949909" xlink:href="#md15d1ed4fc" y="118.065895"/>
     <use style="fill:#803e75;stroke:#803e75;" x="380.589731" xlink:href="#md15d1ed4fc" y="116.180141"/>
     <use style="fill:#803e75;stroke:#803e75;" x="385.229553" xlink:href="#md15d1ed4fc" y="117.330421"/>
     <use style="fill:#803e75;stroke:#803e75;" x="389.869375" xlink:href="#md15d1ed4fc" y="117.25799"/>
     <use style="fill:#803e75;stroke:#803e75;" x="394.509197" xlink:href="#md15d1ed4fc" y="116.901819"/>
     <use style="fill:#803e75;stroke:#803e75;" x="399.149019" xlink:href="#md15d1ed4fc" y="116.517842"/>
     <use style="fill:#803e75;stroke:#803e75;" x="403.788841" xlink:href="#md15d1ed4fc" y="116.686229"/>
     <use style="fill:#803e75;stroke:#803e75;" x="408.428663" xlink:href="#md15d1ed4fc" y="118.355443"/>
     <use style="fill:#803e75;stroke:#803e75;" x="413.068485" xlink:href="#md15d1ed4fc" y="115.838828"/>
     <use style="fill:#803e75;stroke:#803e75;" x="417.708306" xlink:href="#md15d1ed4fc" y="117.395483"/>
     <use style="fill:#803e75;stroke:#803e75;" x="422.347945" xlink:href="#md15d1ed4fc" y="118.083229"/>
     <use style="fill:#803e75;stroke:#803e75;" x="426.987767" xlink:href="#md15d1ed4fc" y="116.353892"/>
     <use style="fill:#803e75;stroke:#803e75;" x="431.627589" xlink:href="#md15d1ed4fc" y="117.471259"/>
     <use style="fill:#803e75;stroke:#803e75;" x="436.267411" xlink:href="#md15d1ed4fc" y="117.30994"/>
     <use style="fill:#803e75;stroke:#803e75;" x="440.907233" xlink:href="#md15d1ed4fc" y="117.30994"/>
    </g>
   </g>
   <g id="line2d_18">
    <path clip-path="url(#p62f0b8cef7)" d="M 74.362744 116.977531  L 144.241988 117.085121  L 158.818027 117.328895  L 168.678289 117.704049  L 176.395015 118.206068  L 183.254327 118.874822  L 189.363402 119.700881  L 194.72224 120.64461  L 199.866724 121.777475  L 204.582502 123.041645  L 209.083925 124.483207  L 213.156642 126.025329  L 216.800652 127.647318  L 220.015954 129.330009  L 222.748962 131.011668  L 225.10685 132.714073  L 227.250385 134.530817  L 229.179567 136.45081  L 231.001572 138.578792  L 232.7164 140.926217  L 234.431228 143.674499  L 236.038879 146.671413  L 237.753707 150.362995  L 239.575712 154.86345  L 241.61207 160.546369  L 244.184313 168.448998  L 257.072317 209.720157  L 258.840734 216.588363  L 260.394797 223.511115  L 261.895271 231.249994  L 263.342158 239.93019  L 264.842632 250.360926  L 266.691431 264.967941  L 268.620613 279.957868  L 269.37085 284.381803  L 269.906734 286.54771  L 270.335441 287.502822  L 270.656971 287.694545  L 270.871325 287.551962  L 271.192855 286.912888  L 271.621562 285.246228  L 272.157446 281.86562  L 272.800506 276.059696  L 273.65792 265.964804  L 275.158395 244.900694  L 278.159344 202.848225  L 279.552642 182.267348  L 280.302879 168.118904  L 281.160293 147.308318  L 282.017707 127.751818  L 282.446414 122.200823  L 282.875121 119.303091  L 283.303828 117.967021  L 283.732535 117.389382  L 284.268419 117.11322  L 285.125833 117.000088  L 288.233959 116.97748  L 440.907247 116.977449  L 440.907247 116.977449  " style="fill:none;stroke:#f13a13;stroke-linecap:square;stroke-width:2;"/>
   </g>
   <g id="line2d_19">
    <path clip-path="url(#p62f0b8cef7)" d="M 74.362744 116.977371  L 145.099403 116.866348  L 159.675441 116.617034  L 169.535703 116.23614  L 177.252429 115.73024  L 184.111741 115.062166  L 190.220816 114.245869  L 195.794008 113.284782  L 201.152845 112.141412  L 206.511683 110.765736  L 211.656167 109.215341  L 216.800652 107.428992  L 221.516429 105.564569  L 225.857087 103.616218  L 229.501097 101.748727  L 232.609223 99.917908  L 235.288642 98.09209  L 237.646531 96.228699  L 239.790066 94.264774  L 241.826424 92.102942  L 243.755606 89.736602  L 245.684787 87.015356  L 247.613969 83.90939  L 249.73071 80.05616  L 252.088598 75.26873  L 254.928782 68.968856  L 258.465615 60.561168  L 261.412976 53.012727  L 263.663688 46.635076  L 265.753635 40.013394  L 269.156497 29.019268  L 269.906734 27.373474  L 270.442618 26.642456  L 270.871325 26.395049  L 271.192855 26.43269  L 271.514385 26.675591  L 271.943092 27.330844  L 272.478976 28.682927  L 273.122036 31.037752  L 273.979451 35.204676  L 275.265572 42.848308  L 277.94499 60.49525  L 279.231112 70.187399  L 279.981349 77.392377  L 280.731586 86.904252  L 282.124884 106.179973  L 282.553591 109.105022  L 282.982298 110.603002  L 283.411005 111.308566  L 283.946889 111.692942  L 284.697126 111.909934  L 287.055015 112.233432  L 305.971712 114.479812  L 315.403266 115.34654  L 324.620467 115.970176  L 334.587906 116.41966  L 346.591702 116.72776  L 362.882569 116.905334  L 393.749474 116.972993  L 440.907247 116.977422  L 440.907247 116.977422  " style="fill:none;stroke:#fd522b;stroke-linecap:square;stroke-width:2;"/>
   </g>
   <g id="line2d_20">
    <path clip-path="url(#p62f0b8cef7)" d="M 74.362744 116.977445  L 188.077281 116.867228  L 203.296381 116.638994  L 211.22746 116.315568  L 216.371945 115.902647  L 220.230308 115.383239  L 223.284845 114.755637  L 225.857087 113.999132  L 228.000623 113.142306  L 229.929804 112.135228  L 231.644632 111.001333  L 233.35946 109.592838  L 234.967112 107.980599  L 236.574763 106.05374  L 238.289591 103.637715  L 240.218773 100.507931  L 242.898192 95.680515  L 246.220671 89.769349  L 248.042676 86.968952  L 249.73071 84.771275  L 251.499126 82.844501  L 254.124957 80.372799  L 256.214903 78.28155  L 257.608201 76.572138  L 258.840734 74.709493  L 260.019678 72.518594  L 261.198622 69.834229  L 262.377567 66.568418  L 263.610099 62.452868  L 264.896221 57.357018  L 266.477078 50.141245  L 268.513436 40.872627  L 269.263673 38.346577  L 269.799557 37.168784  L 270.228264 36.713601  L 270.549794 36.69838  L 270.871325 36.985336  L 271.192855 37.586769  L 271.621562 38.882508  L 272.157446 41.265203  L 272.907683 45.834078  L 273.979451 54.040214  L 277.087576 78.765839  L 280.517233 103.656607  L 282.232061 119.269528  L 282.660768 120.855943  L 283.089475 121.599091  L 283.518182 121.899727  L 284.161242 122.00918  L 285.447363 121.915154  L 297.397572 120.440229  L 308.329601 119.237235  L 317.546801 118.443757  L 326.978356 117.858962  L 337.160148 117.450896  L 350.021358 117.172417  L 368.45576 117.022857  L 409.611634 116.978325  L 440.907247 116.977475  L 440.907247 116.977475  " style="fill:none;stroke:#803e75;stroke-linecap:square;stroke-width:2;"/>
   </g>
   <g id="patch_3">
    <path d="M 74.72 300.76  L 74.72 13.32  " style="fill:none;stroke:#000000;stroke-linecap:square;stroke-linejoin:miter;stroke-width:0.8;"/>
   </g>
   <g id="patch_4">
    <path d="M 440.55 300.76  L 440.55 13.32  " style="fill:none;stroke:#000000;stroke-linecap:square;stroke-linejoin:miter;stroke-width:0.8;"/>
   </g>
   <g id="patch_5">
    <path d="M 74.72 300.76  L 440.55 300.76  " style="fill:none;stroke:#000000;stroke-linecap:square;stroke-linejoin:miter;stroke-width:0.8;"/>
   </g>
   <g id="patch_6">
    <path d="M 74.72 13.32  L 440.55 13.32  " style="fill:none;stroke:#000000;stroke-linecap:square;stroke-linejoin:miter;stroke-width:0.8;"/>
   </g>
   <g id="legend_1">
    <g id="patch_7">
     <path d="M 363.146875 109.38875  L 433.55 109.38875  Q 435.55 109.38875 435.55 107.38875  L 435.55 20.32  Q 435.55 18.32 433.55 18.32  L 363.146875 18.32  Q 361.146875 18.32 361.146875 20.32  L 361.146875 107.38875  Q 361.146875 109.38875 363.146875 109.38875  z " style="fill:#ffffff;opacity:0.8;stroke:#cccccc;stroke-linejoin:miter;"/>
    </g>
    <g id="line2d_21"/>
    <g id="line2d_22">
     <g>
      <use style="fill:#f13a13;stroke:#f13a13;stroke-linejoin:miter;" x="375.146875" xlink:href="#ma1a09d8843" y="26.418437"/>
     </g>
    </g>
    <g id="text_17">
     <!-- exp-AL -->
     <defs>
      <path d="M 54.890625 54.6875  L 35.109375 28.078125  L 55.90625 0  L 45.3125 0  L 29.390625 21.484375  L 13.484375 0  L 2.875 0  L 24.125 28.609375  L 4.6875 54.6875  L 15.28125 54.6875  L 29.78125 35.203125  L 44.28125 54.6875  z " id="DejaVuSans-78"/>
      <path d="M 4.890625 31.390625  L 31.203125 31.390625  L 31.203125 23.390625  L 4.890625 23.390625  z " id="DejaVuSans-2d"/>
      <path d="M 34.1875 63.1875  L 20.796875 26.90625  L 47.609375 26.90625  z M 28.609375 72.90625  L 39.796875 72.90625  L 67.578125 0  L 57.328125 0  L 50.6875 18.703125  L 17.828125 18.703125  L 11.1875 0  L 0.78125 0  z " id="DejaVuSans-41"/>
      <path d="M 9.8125 72.90625  L 19.671875 72.90625  L 19.671875 8.296875  L 55.171875 8.296875  L 55.171875 0  L 9.8125 0  z " id="DejaVuSans-4c"/>
     </defs>
     <g transform="translate(393.146875 29.918437)scale(0.1 -0.1)">
      <use xlink:href="#DejaVuSans-65"/>
      <use x="61.507812" xlink:href="#DejaVuSans-78"/>
      <use x="120.6875" xlink:href="#DejaVuSans-70"/>
      <use x="184.164062" xlink:href="#DejaVuSans-2d"/>
      <use x="220.216797" xlink:href="#DejaVuSans-41"/>
      <use x="288.625" xlink:href="#DejaVuSans-4c"/>
     </g>
    </g>
    <g id="line2d_23"/>
    <g id="line2d_24">
     <g>
      <use style="fill:#fd522b;stroke:#fd522b;stroke-linejoin:bevel;" x="375.146875" xlink:href="#m3e3e52bd5a" y="41.096563"/>
     </g>
    </g>
    <g id="text_18">
     <!-- exp-MG -->
     <defs>
      <path d="M 9.8125 72.90625  L 24.515625 72.90625  L 43.109375 23.296875  L 61.8125 72.90625  L 76.515625 72.90625  L 76.515625 0  L 66.890625 0  L 66.890625 64.015625  L 48.09375 14.015625  L 38.1875 14.015625  L 19.390625 64.015625  L 19.390625 0  L 9.8125 0  z " id="DejaVuSans-4d"/>
      <path d="M 59.515625 10.40625  L 59.515625 29.984375  L 43.40625 29.984375  L 43.40625 38.09375  L 69.28125 38.09375  L 69.28125 6.78125  Q 63.578125 2.734375 56.6875 0.65625  Q 49.8125 -1.421875 42 -1.421875  Q 24.90625 -1.421875 15.25 8.5625  Q 5.609375 18.5625 5.609375 36.375  Q 5.609375 54.25 15.25 64.234375  Q 24.90625 74.21875 42 74.21875  Q 49.125 74.21875 55.546875 72.453125  Q 61.96875 70.703125 67.390625 67.28125  L 67.390625 56.78125  Q 61.921875 61.421875 55.765625 63.765625  Q 49.609375 66.109375 42.828125 66.109375  Q 29.4375 66.109375 22.71875 58.640625  Q 16.015625 51.171875 16.015625 36.375  Q 16.015625 21.625 22.71875 14.15625  Q 29.4375 6.6875 42.828125 6.6875  Q 48.046875 6.6875 52.140625 7.59375  Q 56.25 8.5 59.515625 10.40625  z " id="DejaVuSans-47"/>
     </defs>
     <g transform="translate(393.146875 44.596563)scale(0.1 -0.1)">
      <use xlink:href="#DejaVuSans-65"/>
      <use x="61.507812" xlink:href="#DejaVuSans-78"/>
      <use x="120.6875" xlink:href="#DejaVuSans-70"/>
      <use x="184.164062" xlink:href="#DejaVuSans-2d"/>
      <use x="220.248047" xlink:href="#DejaVuSans-4d"/>
      <use x="306.527344" xlink:href="#DejaVuSans-47"/>
     </g>
    </g>
    <g id="line2d_25"/>
    <g id="line2d_26">
     <g>
      <use style="fill:#803e75;stroke:#803e75;" x="375.146875" xlink:href="#md15d1ed4fc" y="55.774687"/>
     </g>
    </g>
    <g id="text_19">
     <!-- exp-ZN -->
     <defs>
      <path d="M 5.609375 72.90625  L 62.890625 72.90625  L 62.890625 65.375  L 16.796875 8.296875  L 64.015625 8.296875  L 64.015625 0  L 4.5 0  L 4.5 7.515625  L 50.59375 64.59375  L 5.609375 64.59375  z " id="DejaVuSans-5a"/>
      <path d="M 9.8125 72.90625  L 23.09375 72.90625  L 55.421875 11.921875  L 55.421875 72.90625  L 64.984375 72.90625  L 64.984375 0  L 51.703125 0  L 19.390625 60.984375  L 19.390625 0  L 9.8125 0  z " id="DejaVuSans-4e"/>
     </defs>
     <g transform="translate(393.146875 59.274687)scale(0.1 -0.1)">
      <use xlink:href="#DejaVuSans-65"/>
      <use x="61.507812" xlink:href="#DejaVuSans-78"/>
      <use x="120.6875" xlink:href="#DejaVuSans-70"/>
      <use x="184.164062" xlink:href="#DejaVuSans-2d"/>
      <use x="220.248047" xlink:href="#DejaVuSans-5a"/>
      <use x="288.753906" xlink:href="#DejaVuSans-4e"/>
     </g>
    </g>
    <g id="line2d_27">
     <path d="M 365.146875 70.452812  L 385.146875 70.452812  " style="fill:none;stroke:#f13a13;stroke-linecap:square;stroke-width:2;"/>
    </g>
    <g id="line2d_28"/>
    <g id="text_20">
     <!-- sim-AL -->
     <g transform="translate(393.146875 73.952812)scale(0.1 -0.1)">
      <use xlink:href="#DejaVuSans-73"/>
      <use x="52.099609" xlink:href="#DejaVuSans-69"/>
      <use x="79.882812" xlink:href="#DejaVuSans-6d"/>
      <use x="177.294922" xlink:href="#DejaVuSans-2d"/>
      <use x="213.347656" xlink:href="#DejaVuSans-41"/>
      <use x="281.755859" xlink:href="#DejaVuSans-4c"/>
     </g>
    </g>
    <g id="line2d_29">
     <path d="M 365.146875 85.130938  L 385.146875 85.130938  " style="fill:none;stroke:#fd522b;stroke-linecap:square;stroke-width:2;"/>
    </g>
    <g id="line2d_30"/>
    <g id="text_21">
     <!-- sim-MG -->
     <g transform="translate(393.146875 88.630938)scale(0.1 -0.1)">
      <use xlink:href="#DejaVuSans-73"/>
      <use x="52.099609" xlink:href="#DejaVuSans-69"/>
      <use x="79.882812" xlink:href="#DejaVuSans-6d"/>
      <use x="177.294922" xlink:href="#DejaVuSans-2d"/>
      <use x="213.378906" xlink:href="#DejaVuSans-4d"/>
      <use x="299.658203" xlink:href="#DejaVuSans-47"/>
     </g>
    </g>
    <g id="line2d_31">
     <path d="M 365.146875 99.809062  L 385.146875 99.809062  " style="fill:none;stroke:#803e75;stroke-linecap:square;stroke-width:2;"/>
    </g>
    <g id="line2d_32"/>
    <g id="text_22">
     <!-- sim-ZN -->
     <g transform="translate(393.146875 103.309062)scale(0.1 -0.1)">
      <use xlink:href="#DejaVuSans-73"/>
      <use x="52.099609" xlink:href="#DejaVuSans-69"/>
      <use x="79.882812" xlink:href="#DejaVuSans-6d"/>
      <use x="177.294922" xlink:href="#DejaVuSans-2d"/>
      <use x="213.378906" xlink:href="#DejaVuSans-5a"/>
      <use x="281.884766" xlink:href="#DejaVuSans-4e"/>
     </g>
    </g>
   </g>
  </g>
 </g>
 <defs>
  <clipPath id="p62f0b8cef7">
   <rect height="287.44" width="365.83" x="74.72" y="13.32"/>
  </clipPath>
 </defs>
</g>
    <g transform="translate(10, 300) scale(1) ">
      <g transform="translate(0, 0) scale(3.0) "><defs id="defs831"/>
  <sodipodi:namedview xmlns:sodipodi="http://sodipodi.sourceforge.net/DTD/sodipodi-0.dtd" xmlns:inkscape="http://www.inkscape.org/namespaces/inkscape" id="base" pagecolor="#ffffff" bordercolor="#666666" borderopacity="1.0" inkscape:pageopacity="0.0" inkscape:pageshadow="2" inkscape:zoom="1.979899" inkscape:cx="-12.763683" inkscape:cy="-16.680883" inkscape:document-units="mm" inkscape:current-layer="layer1" showgrid="false" inkscape:window-width="1920" inkscape:window-height="1001" inkscape:window-x="-9" inkscape:window-y="-9" inkscape:window-maximized="1" units="pt"/>
  <metadata xmlns:rdf="http://www.w3.org/1999/02/22-rdf-syntax-ns#" xmlns:cc="http://creativecommons.org/ns#" xmlns:dc="http://purl.org/dc/elements/1.1/" id="metadata834">
    <rdf:RDF>
      <cc:Work rdf:about="">
        <dc:format>image/svg+xml</dc:format>
        <dc:type rdf:resource="http://purl.org/dc/dcmitype/StillImage"/>
        <dc:title/>
      </cc:Work>
    </rdf:RDF>
  </metadata>
  <g xmlns:inkscape="http://www.inkscape.org/namespaces/inkscape" xmlns:sodipodi="http://sodipodi.sourceforge.net/DTD/sodipodi-0.dtd" inkscape:label="Layer 1" inkscape:groupmode="layer" id="layer1" transform="translate(0,-288.81557)">
    <g id="g4761" transform="matrix(0.07377843,0,0,0.07377843,-0.76923022,275.45946)">
      <path inkscape:connector-curvature="0" id="path1959-6-7-1-6-5-4-0-3-2-6-0-3-9-6" style="font-style:normal;font-variant:normal;font-weight:bold;font-stretch:normal;font-size:120.99466705px;line-height:1.25;font-family:Aharoni;-inkscape-font-specification:'Aharoni, Bold';font-variant-ligatures:normal;font-variant-caps:normal;font-variant-numeric:normal;font-feature-settings:normal;text-align:start;letter-spacing:0px;word-spacing:0px;writing-mode:lr-tb;text-anchor:start;fill:#000000;fill-opacity:1;stroke:none;stroke-width:2.37649584" d="M 52.937412,287.55677 H 40.587702 V 265.43005 H 22.776041 v 22.12672 h -12.34982 v -53.17432 h 12.34982 v 20.5296 h 17.811661 v -20.5296 h 12.34971 z"/>
      <path inkscape:connector-curvature="0" id="path1961-2-9-7-9-3-1-6-5-1-5-8-7-8-2" style="font-style:normal;font-variant:normal;font-weight:bold;font-stretch:normal;font-size:120.99466705px;line-height:1.25;font-family:Aharoni;-inkscape-font-specification:'Aharoni, Bold';font-variant-ligatures:normal;font-variant-caps:normal;font-variant-numeric:normal;font-feature-settings:normal;text-align:start;letter-spacing:0px;word-spacing:0px;writing-mode:lr-tb;text-anchor:start;fill:#000000;fill-opacity:1;stroke:none;stroke-width:2.37649584" d="m 69.681125,237.49895 q 0,3.0385 -1.87856,5.1421 -1.84375,2.0647 -4.55721,2.0647 -2.67866,0 -4.55722,-2.1036 -1.84375,-2.1036 -1.84375,-5.1032 0,-2.9996 1.84375,-5.0642 1.87856,-2.1036 4.55722,-2.1036 2.67865,0 4.55721,2.1036 1.87856,2.0646 1.87856,5.0642 z m -0.73057,50.05782 h -11.41048 v -36.15072 h 11.41048 z"/>
      <path inkscape:connector-curvature="0" id="path1963-3-1-2-8-3-6-3-3-3-4-7-6-0-8" style="font-style:normal;font-variant:normal;font-weight:bold;font-stretch:normal;font-size:120.99466705px;line-height:1.25;font-family:Aharoni;-inkscape-font-specification:'Aharoni, Bold';font-variant-ligatures:normal;font-variant-caps:normal;font-variant-numeric:normal;font-feature-settings:normal;text-align:start;letter-spacing:0px;word-spacing:0px;writing-mode:lr-tb;text-anchor:start;fill:#000000;fill-opacity:1;stroke:none;stroke-width:2.37649584" d="m 93.369625,261.92405 h -6.50536 v 25.63272 h -11.4104 v -25.63272 h -3.75712 v -10.518 h 3.75712 v -10.8686 h 11.4104 v 10.8686 h 6.50536 z"/>
      <path id="path1967-3-3-6-2-9-6-2-5-3-0-9-8-2-1" style="font-style:normal;font-variant:normal;font-weight:bold;font-stretch:normal;font-size:120.99466705px;line-height:1.25;font-family:Aharoni;-inkscape-font-specification:'Aharoni, Bold';font-variant-ligatures:normal;font-variant-caps:normal;font-variant-numeric:normal;font-feature-settings:normal;text-align:start;letter-spacing:0px;word-spacing:0px;writing-mode:lr-tb;text-anchor:start;fill:#000000;fill-opacity:1;stroke:none;stroke-width:2.37649584" d="m 160.61447,287.55677 h -12.34971 v -53.17432 h 12.34971 z" inkscape:connector-curvature="0"/>
      <path inkscape:connector-curvature="0" id="path1969-8-0-8-5-3-5-6-6-3-9-8-6-2-0" style="font-style:normal;font-variant:normal;font-weight:bold;font-stretch:normal;font-size:120.99466705px;line-height:1.25;font-family:Aharoni;-inkscape-font-specification:'Aharoni, Bold';font-variant-ligatures:normal;font-variant-caps:normal;font-variant-numeric:normal;font-feature-settings:normal;text-align:start;letter-spacing:0px;word-spacing:0px;writing-mode:lr-tb;text-anchor:start;fill:#000000;fill-opacity:1;stroke:none;stroke-width:2.37649584" d="m 201.6896,284.86883 q -6.05314,2.68794 -11.20172,2.68794 -8.97528,0 -16.07201,-6.42764 -9.04489,-8.21959 -9.04489,-21.42558 0,-13.2448 9.04489,-21.4644 7.09673,-6.4277 16.17636,-6.4277 4.93989,0 11.09737,2.6879 v 16.5561 q -1.73941,-2.3763 -3.54836,-3.5839 -3.30489,-2.2204 -7.09679,-2.2204 -4.8007,0 -8.34907,3.2333 -4.48766,4.0903 -4.48766,11.2191 0,7.0899 4.48766,11.1803 3.54837,3.23328 8.34907,3.23328 3.7919,0 7.09679,-2.22049 1.77415,-1.16869 3.54836,-3.58389 z"/>
      <path inkscape:transform-center-y="-13.656107" inkscape:transform-center-x="-3.9758045" sodipodi:nodetypes="csssssc" inkscape:connector-curvature="0" id="rect815-3-0-9-3-5-6-0-4-03-7-3-7-5-3-2-76-3-8-8-5-3-7-8-0-1-3-7-9-2-8-1" d="m 104.61223,181.4353 c 0,0 17.68257,27.27493 22.63096,34.41579 7.92879,11.44185 16.42741,30.36094 17.92806,45.50275 1.21005,12.20999 -1.38345,26.51285 -17.32077,30.11208 -11.70405,2.64313 -26.75007,-5.41371 -30.334975,-20.50903 -3.30533,-13.91816 -2.13088,-34.61412 0.0984,-48.67354 1.22049,-7.69719 5.657305,-36.06774 6.998335,-40.84805 z" style="font-style:normal;font-weight:normal;font-size:242.08590698px;line-height:1.25;font-family:sans-serif;letter-spacing:0px;word-spacing:0px;opacity:1;fill:#00456b;fill-opacity:1;stroke:none;stroke-width:0.6720385;stroke-miterlimit:4;stroke-dasharray:none;stroke-dashoffset:0;stroke-opacity:1;paint-order:markers fill stroke"/>
      <path sodipodi:nodetypes="ccscscsccscccscc" d="m 107.52748,246.32531 6.45576,30.78617 6.82019,-1.47997 c 5.75791,-1.24946 9.70999,-3.40081 11.85576,-6.45394 2.16431,-3.05721 2.68673,-7.25521 1.56721,-12.59398 -1.11209,-5.30332 -3.26743,-8.89247 -6.46601,-10.76744 -3.18372,-1.89669 -7.65528,-2.22015 -13.4127,-0.97081 z m -8.759905,-5.09591 12.713095,-2.78742 c 8.8634,-1.94336 15.73718,-1.59097 20.62135,1.05715 4.88003,2.62843 8.10326,7.71587 9.6697,15.26232 1.57464,7.58584 0.64804,13.61405 -2.77981,18.08462 -3.42783,4.4705 -9.55303,7.67294 -18.37559,9.60735 l -12.71311,2.78742 z" style="font-style:normal;font-weight:normal;font-size:242.08590698px;line-height:1.25;font-family:sans-serif;letter-spacing:0px;word-spacing:0px;fill:#ffffff;fill-opacity:1;stroke:none;stroke-width:1.60286868" id="path1193-3-5-3-2-7-4-5-6-0-0-6-9-2-4-7-0-0" inkscape:connector-curvature="0"/>
    </g>
  </g>
</g>
    </g>
  </g>
</svg>
