<?xml version='1.0' encoding='ASCII' standalone='yes'?>
<svg xmlns:xlink="http://www.w3.org/1999/xlink" xmlns="http://www.w3.org/2000/svg" version="1.1" width="460.8px" viewBox="0 0 460.8px 345.6px" height="345.6px">
  <g>
    <g><defs>
  <style type="text/css">
*{stroke-linecap:butt;stroke-linejoin:round;}
  </style>
 </defs>
 <g id="figure_1">
  <g id="patch_1">
   <path d="M 0 345.6  L 460.8 345.6  L 460.8 0  L 0 0  z " style="fill:#ffffff;"/>
  </g>
  <g id="axes_1">
   <g id="patch_2">
    <path d="M 47.72 303.64  L 413.08 303.64  L 413.08 14.76  L 47.72 14.76  z " style="fill:#ffffff;"/>
   </g>
   <g id="matplotlib.axis_1">
    <g id="xtick_1">
     <g id="line2d_1">
      <defs>
       <path d="M 0 0  L 0 3.5  " id="m9bd90e6f37" style="stroke:#000000;stroke-width:0.8;"/>
      </defs>
      <g>
       <use style="stroke:#000000;stroke-width:0.8;" x="47.72" xlink:href="#m9bd90e6f37" y="303.64"/>
      </g>
     </g>
     <g id="text_1">
      <!-- 0 -->
      <defs>
       <path d="M 31.78125 66.40625  Q 24.171875 66.40625 20.328125 58.90625  Q 16.5 51.421875 16.5 36.375  Q 16.5 21.390625 20.328125 13.890625  Q 24.171875 6.390625 31.78125 6.390625  Q 39.453125 6.390625 43.28125 13.890625  Q 47.125 21.390625 47.125 36.375  Q 47.125 51.421875 43.28125 58.90625  Q 39.453125 66.40625 31.78125 66.40625  z M 31.78125 74.21875  Q 44.046875 74.21875 50.515625 64.515625  Q 56.984375 54.828125 56.984375 36.375  Q 56.984375 17.96875 50.515625 8.265625  Q 44.046875 -1.421875 31.78125 -1.421875  Q 19.53125 -1.421875 13.0625 8.265625  Q 6.59375 17.96875 6.59375 36.375  Q 6.59375 54.828125 13.0625 64.515625  Q 19.53125 74.21875 31.78125 74.21875  z " id="DejaVuSans-30"/>
      </defs>
      <g transform="translate(44.53875 318.238437)scale(0.1 -0.1)">
       <use xlink:href="#DejaVuSans-30"/>
      </g>
     </g>
    </g>
    <g id="xtick_2">
     <g id="line2d_2">
      <g>
       <use style="stroke:#000000;stroke-width:0.8;" x="93.39" xlink:href="#m9bd90e6f37" y="303.64"/>
      </g>
     </g>
     <g id="text_2">
      <!-- 25 -->
      <defs>
       <path d="M 19.1875 8.296875  L 53.609375 8.296875  L 53.609375 0  L 7.328125 0  L 7.328125 8.296875  Q 12.9375 14.109375 22.625 23.890625  Q 32.328125 33.6875 34.8125 36.53125  Q 39.546875 41.84375 41.421875 45.53125  Q 43.3125 49.21875 43.3125 52.78125  Q 43.3125 58.59375 39.234375 62.25  Q 35.15625 65.921875 28.609375 65.921875  Q 23.96875 65.921875 18.8125 64.3125  Q 13.671875 62.703125 7.8125 59.421875  L 7.8125 69.390625  Q 13.765625 71.78125 18.9375 73  Q 24.125 74.21875 28.421875 74.21875  Q 39.75 74.21875 46.484375 68.546875  Q 53.21875 62.890625 53.21875 53.421875  Q 53.21875 48.921875 51.53125 44.890625  Q 49.859375 40.875 45.40625 35.40625  Q 44.1875 33.984375 37.640625 27.21875  Q 31.109375 20.453125 19.1875 8.296875  z " id="DejaVuSans-32"/>
       <path d="M 10.796875 72.90625  L 49.515625 72.90625  L 49.515625 64.59375  L 19.828125 64.59375  L 19.828125 46.734375  Q 21.96875 47.46875 24.109375 47.828125  Q 26.265625 48.1875 28.421875 48.1875  Q 40.625 48.1875 47.75 41.5  Q 54.890625 34.8125 54.890625 23.390625  Q 54.890625 11.625 47.5625 5.09375  Q 40.234375 -1.421875 26.90625 -1.421875  Q 22.3125 -1.421875 17.546875 -0.640625  Q 12.796875 0.140625 7.71875 1.703125  L 7.71875 11.625  Q 12.109375 9.234375 16.796875 8.0625  Q 21.484375 6.890625 26.703125 6.890625  Q 35.15625 6.890625 40.078125 11.328125  Q 45.015625 15.765625 45.015625 23.390625  Q 45.015625 31 40.078125 35.4375  Q 35.15625 39.890625 26.703125 39.890625  Q 22.75 39.890625 18.8125 39.015625  Q 14.890625 38.140625 10.796875 36.28125  z " id="DejaVuSans-35"/>
      </defs>
      <g transform="translate(87.0275 318.238437)scale(0.1 -0.1)">
       <use xlink:href="#DejaVuSans-32"/>
       <use x="63.623047" xlink:href="#DejaVuSans-35"/>
      </g>
     </g>
    </g>
    <g id="xtick_3">
     <g id="line2d_3">
      <g>
       <use style="stroke:#000000;stroke-width:0.8;" x="139.06" xlink:href="#m9bd90e6f37" y="303.64"/>
      </g>
     </g>
     <g id="text_3">
      <!-- 50 -->
      <g transform="translate(132.6975 318.238437)scale(0.1 -0.1)">
       <use xlink:href="#DejaVuSans-35"/>
       <use x="63.623047" xlink:href="#DejaVuSans-30"/>
      </g>
     </g>
    </g>
    <g id="xtick_4">
     <g id="line2d_4">
      <g>
       <use style="stroke:#000000;stroke-width:0.8;" x="184.73" xlink:href="#m9bd90e6f37" y="303.64"/>
      </g>
     </g>
     <g id="text_4">
      <!-- 75 -->
      <defs>
       <path d="M 8.203125 72.90625  L 55.078125 72.90625  L 55.078125 68.703125  L 28.609375 0  L 18.3125 0  L 43.21875 64.59375  L 8.203125 64.59375  z " id="DejaVuSans-37"/>
      </defs>
      <g transform="translate(178.3675 318.238437)scale(0.1 -0.1)">
       <use xlink:href="#DejaVuSans-37"/>
       <use x="63.623047" xlink:href="#DejaVuSans-35"/>
      </g>
     </g>
    </g>
    <g id="xtick_5">
     <g id="line2d_5">
      <g>
       <use style="stroke:#000000;stroke-width:0.8;" x="230.4" xlink:href="#m9bd90e6f37" y="303.64"/>
      </g>
     </g>
     <g id="text_5">
      <!-- 100 -->
      <defs>
       <path d="M 12.40625 8.296875  L 28.515625 8.296875  L 28.515625 63.921875  L 10.984375 60.40625  L 10.984375 69.390625  L 28.421875 72.90625  L 38.28125 72.90625  L 38.28125 8.296875  L 54.390625 8.296875  L 54.390625 0  L 12.40625 0  z " id="DejaVuSans-31"/>
      </defs>
      <g transform="translate(220.85625 318.238437)scale(0.1 -0.1)">
       <use xlink:href="#DejaVuSans-31"/>
       <use x="63.623047" xlink:href="#DejaVuSans-30"/>
       <use x="127.246094" xlink:href="#DejaVuSans-30"/>
      </g>
     </g>
    </g>
    <g id="xtick_6">
     <g id="line2d_6">
      <g>
       <use style="stroke:#000000;stroke-width:0.8;" x="276.07" xlink:href="#m9bd90e6f37" y="303.64"/>
      </g>
     </g>
     <g id="text_6">
      <!-- 125 -->
      <g transform="translate(266.52625 318.238437)scale(0.1 -0.1)">
       <use xlink:href="#DejaVuSans-31"/>
       <use x="63.623047" xlink:href="#DejaVuSans-32"/>
       <use x="127.246094" xlink:href="#DejaVuSans-35"/>
      </g>
     </g>
    </g>
    <g id="xtick_7">
     <g id="line2d_7">
      <g>
       <use style="stroke:#000000;stroke-width:0.8;" x="321.74" xlink:href="#m9bd90e6f37" y="303.64"/>
      </g>
     </g>
     <g id="text_7">
      <!-- 150 -->
      <g transform="translate(312.19625 318.238437)scale(0.1 -0.1)">
       <use xlink:href="#DejaVuSans-31"/>
       <use x="63.623047" xlink:href="#DejaVuSans-35"/>
       <use x="127.246094" xlink:href="#DejaVuSans-30"/>
      </g>
     </g>
    </g>
    <g id="xtick_8">
     <g id="line2d_8">
      <g>
       <use style="stroke:#000000;stroke-width:0.8;" x="367.41" xlink:href="#m9bd90e6f37" y="303.64"/>
      </g>
     </g>
     <g id="text_8">
      <!-- 175 -->
      <g transform="translate(357.86625 318.238437)scale(0.1 -0.1)">
       <use xlink:href="#DejaVuSans-31"/>
       <use x="63.623047" xlink:href="#DejaVuSans-37"/>
       <use x="127.246094" xlink:href="#DejaVuSans-35"/>
      </g>
     </g>
    </g>
    <g id="xtick_9">
     <g id="line2d_9">
      <g>
       <use style="stroke:#000000;stroke-width:0.8;" x="413.08" xlink:href="#m9bd90e6f37" y="303.64"/>
      </g>
     </g>
     <g id="text_9">
      <!-- 200 -->
      <g transform="translate(403.53625 318.238437)scale(0.1 -0.1)">
       <use xlink:href="#DejaVuSans-32"/>
       <use x="63.623047" xlink:href="#DejaVuSans-30"/>
       <use x="127.246094" xlink:href="#DejaVuSans-30"/>
      </g>
     </g>
    </g>
    <g id="text_10">
     <!-- Distance (&#181;m) -->
     <defs>
      <path d="M 19.671875 64.796875  L 19.671875 8.109375  L 31.59375 8.109375  Q 46.6875 8.109375 53.6875 14.9375  Q 60.6875 21.78125 60.6875 36.53125  Q 60.6875 51.171875 53.6875 57.984375  Q 46.6875 64.796875 31.59375 64.796875  z M 9.8125 72.90625  L 30.078125 72.90625  Q 51.265625 72.90625 61.171875 64.09375  Q 71.09375 55.28125 71.09375 36.53125  Q 71.09375 17.671875 61.125 8.828125  Q 51.171875 0 30.078125 0  L 9.8125 0  z " id="DejaVuSans-44"/>
      <path d="M 9.421875 54.6875  L 18.40625 54.6875  L 18.40625 0  L 9.421875 0  z M 9.421875 75.984375  L 18.40625 75.984375  L 18.40625 64.59375  L 9.421875 64.59375  z " id="DejaVuSans-69"/>
      <path d="M 44.28125 53.078125  L 44.28125 44.578125  Q 40.484375 46.53125 36.375 47.5  Q 32.28125 48.484375 27.875 48.484375  Q 21.1875 48.484375 17.84375 46.4375  Q 14.5 44.390625 14.5 40.28125  Q 14.5 37.15625 16.890625 35.375  Q 19.28125 33.59375 26.515625 31.984375  L 29.59375 31.296875  Q 39.15625 29.25 43.1875 25.515625  Q 47.21875 21.78125 47.21875 15.09375  Q 47.21875 7.46875 41.1875 3.015625  Q 35.15625 -1.421875 24.609375 -1.421875  Q 20.21875 -1.421875 15.453125 -0.5625  Q 10.6875 0.296875 5.421875 2  L 5.421875 11.28125  Q 10.40625 8.6875 15.234375 7.390625  Q 20.0625 6.109375 24.8125 6.109375  Q 31.15625 6.109375 34.5625 8.28125  Q 37.984375 10.453125 37.984375 14.40625  Q 37.984375 18.0625 35.515625 20.015625  Q 33.0625 21.96875 24.703125 23.78125  L 21.578125 24.515625  Q 13.234375 26.265625 9.515625 29.90625  Q 5.8125 33.546875 5.8125 39.890625  Q 5.8125 47.609375 11.28125 51.796875  Q 16.75 56 26.8125 56  Q 31.78125 56 36.171875 55.265625  Q 40.578125 54.546875 44.28125 53.078125  z " id="DejaVuSans-73"/>
      <path d="M 18.3125 70.21875  L 18.3125 54.6875  L 36.8125 54.6875  L 36.8125 47.703125  L 18.3125 47.703125  L 18.3125 18.015625  Q 18.3125 11.328125 20.140625 9.421875  Q 21.96875 7.515625 27.59375 7.515625  L 36.8125 7.515625  L 36.8125 0  L 27.59375 0  Q 17.1875 0 13.234375 3.875  Q 9.28125 7.765625 9.28125 18.015625  L 9.28125 47.703125  L 2.6875 47.703125  L 2.6875 54.6875  L 9.28125 54.6875  L 9.28125 70.21875  z " id="DejaVuSans-74"/>
      <path d="M 34.28125 27.484375  Q 23.390625 27.484375 19.1875 25  Q 14.984375 22.515625 14.984375 16.5  Q 14.984375 11.71875 18.140625 8.90625  Q 21.296875 6.109375 26.703125 6.109375  Q 34.1875 6.109375 38.703125 11.40625  Q 43.21875 16.703125 43.21875 25.484375  L 43.21875 27.484375  z M 52.203125 31.203125  L 52.203125 0  L 43.21875 0  L 43.21875 8.296875  Q 40.140625 3.328125 35.546875 0.953125  Q 30.953125 -1.421875 24.3125 -1.421875  Q 15.921875 -1.421875 10.953125 3.296875  Q 6 8.015625 6 15.921875  Q 6 25.140625 12.171875 29.828125  Q 18.359375 34.515625 30.609375 34.515625  L 43.21875 34.515625  L 43.21875 35.40625  Q 43.21875 41.609375 39.140625 45  Q 35.0625 48.390625 27.6875 48.390625  Q 23 48.390625 18.546875 47.265625  Q 14.109375 46.140625 10.015625 43.890625  L 10.015625 52.203125  Q 14.9375 54.109375 19.578125 55.046875  Q 24.21875 56 28.609375 56  Q 40.484375 56 46.34375 49.84375  Q 52.203125 43.703125 52.203125 31.203125  z " id="DejaVuSans-61"/>
      <path d="M 54.890625 33.015625  L 54.890625 0  L 45.90625 0  L 45.90625 32.71875  Q 45.90625 40.484375 42.875 44.328125  Q 39.84375 48.1875 33.796875 48.1875  Q 26.515625 48.1875 22.3125 43.546875  Q 18.109375 38.921875 18.109375 30.90625  L 18.109375 0  L 9.078125 0  L 9.078125 54.6875  L 18.109375 54.6875  L 18.109375 46.1875  Q 21.34375 51.125 25.703125 53.5625  Q 30.078125 56 35.796875 56  Q 45.21875 56 50.046875 50.171875  Q 54.890625 44.34375 54.890625 33.015625  z " id="DejaVuSans-6e"/>
      <path d="M 48.78125 52.59375  L 48.78125 44.1875  Q 44.96875 46.296875 41.140625 47.34375  Q 37.3125 48.390625 33.40625 48.390625  Q 24.65625 48.390625 19.8125 42.84375  Q 14.984375 37.3125 14.984375 27.296875  Q 14.984375 17.28125 19.8125 11.734375  Q 24.65625 6.203125 33.40625 6.203125  Q 37.3125 6.203125 41.140625 7.25  Q 44.96875 8.296875 48.78125 10.40625  L 48.78125 2.09375  Q 45.015625 0.34375 40.984375 -0.53125  Q 36.96875 -1.421875 32.421875 -1.421875  Q 20.0625 -1.421875 12.78125 6.34375  Q 5.515625 14.109375 5.515625 27.296875  Q 5.515625 40.671875 12.859375 48.328125  Q 20.21875 56 33.015625 56  Q 37.15625 56 41.109375 55.140625  Q 45.0625 54.296875 48.78125 52.59375  z " id="DejaVuSans-63"/>
      <path d="M 56.203125 29.59375  L 56.203125 25.203125  L 14.890625 25.203125  Q 15.484375 15.921875 20.484375 11.0625  Q 25.484375 6.203125 34.421875 6.203125  Q 39.59375 6.203125 44.453125 7.46875  Q 49.3125 8.734375 54.109375 11.28125  L 54.109375 2.78125  Q 49.265625 0.734375 44.1875 -0.34375  Q 39.109375 -1.421875 33.890625 -1.421875  Q 20.796875 -1.421875 13.15625 6.1875  Q 5.515625 13.8125 5.515625 26.8125  Q 5.515625 40.234375 12.765625 48.109375  Q 20.015625 56 32.328125 56  Q 43.359375 56 49.78125 48.890625  Q 56.203125 41.796875 56.203125 29.59375  z M 47.21875 32.234375  Q 47.125 39.59375 43.09375 43.984375  Q 39.0625 48.390625 32.421875 48.390625  Q 24.90625 48.390625 20.390625 44.140625  Q 15.875 39.890625 15.1875 32.171875  z " id="DejaVuSans-65"/>
      <path id="DejaVuSans-20"/>
      <path d="M 31 75.875  Q 24.46875 64.65625 21.28125 53.65625  Q 18.109375 42.671875 18.109375 31.390625  Q 18.109375 20.125 21.3125 9.0625  Q 24.515625 -2 31 -13.1875  L 23.1875 -13.1875  Q 15.875 -1.703125 12.234375 9.375  Q 8.59375 20.453125 8.59375 31.390625  Q 8.59375 42.28125 12.203125 53.3125  Q 15.828125 64.359375 23.1875 75.875  z " id="DejaVuSans-28"/>
      <path d="M 8.5 -20.796875  L 8.5 54.6875  L 17.484375 54.6875  L 17.484375 20.703125  Q 17.484375 13.625 20.84375 10  Q 24.21875 6.390625 30.8125 6.390625  Q 38.03125 6.390625 41.671875 10.484375  Q 45.3125 14.59375 45.3125 22.796875  L 45.3125 54.6875  L 54.296875 54.6875  L 54.296875 12.59375  Q 54.296875 9.671875 55.140625 8.28125  Q 56 6.890625 57.8125 6.890625  Q 58.25 6.890625 59.03125 7.15625  Q 59.8125 7.421875 61.1875 8.015625  L 61.1875 0.78125  Q 59.1875 -0.34375 57.390625 -0.875  Q 55.609375 -1.421875 53.90625 -1.421875  Q 50.53125 -1.421875 48.53125 0.484375  Q 46.53125 2.390625 45.796875 6.296875  Q 43.359375 2.4375 39.8125 0.5  Q 36.28125 -1.421875 31.5 -1.421875  Q 26.515625 -1.421875 23.015625 0.484375  Q 19.53125 2.390625 17.484375 6.203125  L 17.484375 -20.796875  z " id="DejaVuSans-b5"/>
      <path d="M 52 44.1875  Q 55.375 50.25 60.0625 53.125  Q 64.75 56 71.09375 56  Q 79.640625 56 84.28125 50.015625  Q 88.921875 44.046875 88.921875 33.015625  L 88.921875 0  L 79.890625 0  L 79.890625 32.71875  Q 79.890625 40.578125 77.09375 44.375  Q 74.3125 48.1875 68.609375 48.1875  Q 61.625 48.1875 57.5625 43.546875  Q 53.515625 38.921875 53.515625 30.90625  L 53.515625 0  L 44.484375 0  L 44.484375 32.71875  Q 44.484375 40.625 41.703125 44.40625  Q 38.921875 48.1875 33.109375 48.1875  Q 26.21875 48.1875 22.15625 43.53125  Q 18.109375 38.875 18.109375 30.90625  L 18.109375 0  L 9.078125 0  L 9.078125 54.6875  L 18.109375 54.6875  L 18.109375 46.1875  Q 21.1875 51.21875 25.484375 53.609375  Q 29.78125 56 35.6875 56  Q 41.65625 56 45.828125 52.96875  Q 50 49.953125 52 44.1875  z " id="DejaVuSans-6d"/>
      <path d="M 8.015625 75.875  L 15.828125 75.875  Q 23.140625 64.359375 26.78125 53.3125  Q 30.421875 42.28125 30.421875 31.390625  Q 30.421875 20.453125 26.78125 9.375  Q 23.140625 -1.703125 15.828125 -13.1875  L 8.015625 -13.1875  Q 14.5 -2 17.703125 9.0625  Q 20.90625 20.125 20.90625 31.390625  Q 20.90625 42.671875 17.703125 53.65625  Q 14.5 64.65625 8.015625 75.875  z " id="DejaVuSans-29"/>
     </defs>
     <g transform="translate(194.995313 331.916562)scale(0.1 -0.1)">
      <use xlink:href="#DejaVuSans-44"/>
      <use x="77.001953" xlink:href="#DejaVuSans-69"/>
      <use x="104.785156" xlink:href="#DejaVuSans-73"/>
      <use x="156.884766" xlink:href="#DejaVuSans-74"/>
      <use x="196.09375" xlink:href="#DejaVuSans-61"/>
      <use x="257.373047" xlink:href="#DejaVuSans-6e"/>
      <use x="320.751953" xlink:href="#DejaVuSans-63"/>
      <use x="375.732422" xlink:href="#DejaVuSans-65"/>
      <use x="437.255859" xlink:href="#DejaVuSans-20"/>
      <use x="469.042969" xlink:href="#DejaVuSans-28"/>
      <use x="508.056641" xlink:href="#DejaVuSans-b5"/>
      <use x="571.679688" xlink:href="#DejaVuSans-6d"/>
      <use x="669.091797" xlink:href="#DejaVuSans-29"/>
     </g>
    </g>
   </g>
   <g id="matplotlib.axis_2">
    <g id="ytick_1">
     <g id="line2d_10">
      <defs>
       <path d="M 0 0  L -3.5 0  " id="m9623494683" style="stroke:#000000;stroke-width:0.8;"/>
      </defs>
      <g>
       <use style="stroke:#000000;stroke-width:0.8;" x="47.72" xlink:href="#m9623494683" y="289.865561"/>
      </g>
     </g>
     <g id="text_11">
      <!-- 0.0 -->
      <defs>
       <path d="M 10.6875 12.40625  L 21 12.40625  L 21 0  L 10.6875 0  z " id="DejaVuSans-2e"/>
      </defs>
      <g transform="translate(24.816875 293.66478)scale(0.1 -0.1)">
       <use xlink:href="#DejaVuSans-30"/>
       <use x="63.623047" xlink:href="#DejaVuSans-2e"/>
       <use x="95.410156" xlink:href="#DejaVuSans-30"/>
      </g>
     </g>
    </g>
    <g id="ytick_2">
     <g id="line2d_11">
      <g>
       <use style="stroke:#000000;stroke-width:0.8;" x="47.72" xlink:href="#m9623494683" y="237.559186"/>
      </g>
     </g>
     <g id="text_12">
      <!-- 0.2 -->
      <g transform="translate(24.816875 241.358404)scale(0.1 -0.1)">
       <use xlink:href="#DejaVuSans-30"/>
       <use x="63.623047" xlink:href="#DejaVuSans-2e"/>
       <use x="95.410156" xlink:href="#DejaVuSans-32"/>
      </g>
     </g>
    </g>
    <g id="ytick_3">
     <g id="line2d_12">
      <g>
       <use style="stroke:#000000;stroke-width:0.8;" x="47.72" xlink:href="#m9623494683" y="185.25281"/>
      </g>
     </g>
     <g id="text_13">
      <!-- 0.4 -->
      <defs>
       <path d="M 37.796875 64.3125  L 12.890625 25.390625  L 37.796875 25.390625  z M 35.203125 72.90625  L 47.609375 72.90625  L 47.609375 25.390625  L 58.015625 25.390625  L 58.015625 17.1875  L 47.609375 17.1875  L 47.609375 0  L 37.796875 0  L 37.796875 17.1875  L 4.890625 17.1875  L 4.890625 26.703125  z " id="DejaVuSans-34"/>
      </defs>
      <g transform="translate(24.816875 189.052029)scale(0.1 -0.1)">
       <use xlink:href="#DejaVuSans-30"/>
       <use x="63.623047" xlink:href="#DejaVuSans-2e"/>
       <use x="95.410156" xlink:href="#DejaVuSans-34"/>
      </g>
     </g>
    </g>
    <g id="ytick_4">
     <g id="line2d_13">
      <g>
       <use style="stroke:#000000;stroke-width:0.8;" x="47.72" xlink:href="#m9623494683" y="132.946434"/>
      </g>
     </g>
     <g id="text_14">
      <!-- 0.6 -->
      <defs>
       <path d="M 33.015625 40.375  Q 26.375 40.375 22.484375 35.828125  Q 18.609375 31.296875 18.609375 23.390625  Q 18.609375 15.53125 22.484375 10.953125  Q 26.375 6.390625 33.015625 6.390625  Q 39.65625 6.390625 43.53125 10.953125  Q 47.40625 15.53125 47.40625 23.390625  Q 47.40625 31.296875 43.53125 35.828125  Q 39.65625 40.375 33.015625 40.375  z M 52.59375 71.296875  L 52.59375 62.3125  Q 48.875 64.0625 45.09375 64.984375  Q 41.3125 65.921875 37.59375 65.921875  Q 27.828125 65.921875 22.671875 59.328125  Q 17.53125 52.734375 16.796875 39.40625  Q 19.671875 43.65625 24.015625 45.921875  Q 28.375 48.1875 33.59375 48.1875  Q 44.578125 48.1875 50.953125 41.515625  Q 57.328125 34.859375 57.328125 23.390625  Q 57.328125 12.15625 50.6875 5.359375  Q 44.046875 -1.421875 33.015625 -1.421875  Q 20.359375 -1.421875 13.671875 8.265625  Q 6.984375 17.96875 6.984375 36.375  Q 6.984375 53.65625 15.1875 63.9375  Q 23.390625 74.21875 37.203125 74.21875  Q 40.921875 74.21875 44.703125 73.484375  Q 48.484375 72.75 52.59375 71.296875  z " id="DejaVuSans-36"/>
      </defs>
      <g transform="translate(24.816875 136.745653)scale(0.1 -0.1)">
       <use xlink:href="#DejaVuSans-30"/>
       <use x="63.623047" xlink:href="#DejaVuSans-2e"/>
       <use x="95.410156" xlink:href="#DejaVuSans-36"/>
      </g>
     </g>
    </g>
    <g id="ytick_5">
     <g id="line2d_14">
      <g>
       <use style="stroke:#000000;stroke-width:0.8;" x="47.72" xlink:href="#m9623494683" y="80.640058"/>
      </g>
     </g>
     <g id="text_15">
      <!-- 0.8 -->
      <defs>
       <path d="M 31.78125 34.625  Q 24.75 34.625 20.71875 30.859375  Q 16.703125 27.09375 16.703125 20.515625  Q 16.703125 13.921875 20.71875 10.15625  Q 24.75 6.390625 31.78125 6.390625  Q 38.8125 6.390625 42.859375 10.171875  Q 46.921875 13.96875 46.921875 20.515625  Q 46.921875 27.09375 42.890625 30.859375  Q 38.875 34.625 31.78125 34.625  z M 21.921875 38.8125  Q 15.578125 40.375 12.03125 44.71875  Q 8.5 49.078125 8.5 55.328125  Q 8.5 64.0625 14.71875 69.140625  Q 20.953125 74.21875 31.78125 74.21875  Q 42.671875 74.21875 48.875 69.140625  Q 55.078125 64.0625 55.078125 55.328125  Q 55.078125 49.078125 51.53125 44.71875  Q 48 40.375 41.703125 38.8125  Q 48.828125 37.15625 52.796875 32.3125  Q 56.78125 27.484375 56.78125 20.515625  Q 56.78125 9.90625 50.3125 4.234375  Q 43.84375 -1.421875 31.78125 -1.421875  Q 19.734375 -1.421875 13.25 4.234375  Q 6.78125 9.90625 6.78125 20.515625  Q 6.78125 27.484375 10.78125 32.3125  Q 14.796875 37.15625 21.921875 38.8125  z M 18.3125 54.390625  Q 18.3125 48.734375 21.84375 45.5625  Q 25.390625 42.390625 31.78125 42.390625  Q 38.140625 42.390625 41.71875 45.5625  Q 45.3125 48.734375 45.3125 54.390625  Q 45.3125 60.0625 41.71875 63.234375  Q 38.140625 66.40625 31.78125 66.40625  Q 25.390625 66.40625 21.84375 63.234375  Q 18.3125 60.0625 18.3125 54.390625  z " id="DejaVuSans-38"/>
      </defs>
      <g transform="translate(24.816875 84.439277)scale(0.1 -0.1)">
       <use xlink:href="#DejaVuSans-30"/>
       <use x="63.623047" xlink:href="#DejaVuSans-2e"/>
       <use x="95.410156" xlink:href="#DejaVuSans-38"/>
      </g>
     </g>
    </g>
    <g id="ytick_6">
     <g id="line2d_15">
      <g>
       <use style="stroke:#000000;stroke-width:0.8;" x="47.72" xlink:href="#m9623494683" y="28.333683"/>
      </g>
     </g>
     <g id="text_16">
      <!-- 1.0 -->
      <g transform="translate(24.816875 32.132901)scale(0.1 -0.1)">
       <use xlink:href="#DejaVuSans-31"/>
       <use x="63.623047" xlink:href="#DejaVuSans-2e"/>
       <use x="95.410156" xlink:href="#DejaVuSans-30"/>
      </g>
     </g>
    </g>
    <g id="text_17">
     <!-- Mole Fraction (AL,MG) -->
     <defs>
      <path d="M 9.8125 72.90625  L 24.515625 72.90625  L 43.109375 23.296875  L 61.8125 72.90625  L 76.515625 72.90625  L 76.515625 0  L 66.890625 0  L 66.890625 64.015625  L 48.09375 14.015625  L 38.1875 14.015625  L 19.390625 64.015625  L 19.390625 0  L 9.8125 0  z " id="DejaVuSans-4d"/>
      <path d="M 30.609375 48.390625  Q 23.390625 48.390625 19.1875 42.75  Q 14.984375 37.109375 14.984375 27.296875  Q 14.984375 17.484375 19.15625 11.84375  Q 23.34375 6.203125 30.609375 6.203125  Q 37.796875 6.203125 41.984375 11.859375  Q 46.1875 17.53125 46.1875 27.296875  Q 46.1875 37.015625 41.984375 42.703125  Q 37.796875 48.390625 30.609375 48.390625  z M 30.609375 56  Q 42.328125 56 49.015625 48.375  Q 55.71875 40.765625 55.71875 27.296875  Q 55.71875 13.875 49.015625 6.21875  Q 42.328125 -1.421875 30.609375 -1.421875  Q 18.84375 -1.421875 12.171875 6.21875  Q 5.515625 13.875 5.515625 27.296875  Q 5.515625 40.765625 12.171875 48.375  Q 18.84375 56 30.609375 56  z " id="DejaVuSans-6f"/>
      <path d="M 9.421875 75.984375  L 18.40625 75.984375  L 18.40625 0  L 9.421875 0  z " id="DejaVuSans-6c"/>
      <path d="M 9.8125 72.90625  L 51.703125 72.90625  L 51.703125 64.59375  L 19.671875 64.59375  L 19.671875 43.109375  L 48.578125 43.109375  L 48.578125 34.8125  L 19.671875 34.8125  L 19.671875 0  L 9.8125 0  z " id="DejaVuSans-46"/>
      <path d="M 41.109375 46.296875  Q 39.59375 47.171875 37.8125 47.578125  Q 36.03125 48 33.890625 48  Q 26.265625 48 22.1875 43.046875  Q 18.109375 38.09375 18.109375 28.8125  L 18.109375 0  L 9.078125 0  L 9.078125 54.6875  L 18.109375 54.6875  L 18.109375 46.1875  Q 20.953125 51.171875 25.484375 53.578125  Q 30.03125 56 36.53125 56  Q 37.453125 56 38.578125 55.875  Q 39.703125 55.765625 41.0625 55.515625  z " id="DejaVuSans-72"/>
      <path d="M 34.1875 63.1875  L 20.796875 26.90625  L 47.609375 26.90625  z M 28.609375 72.90625  L 39.796875 72.90625  L 67.578125 0  L 57.328125 0  L 50.6875 18.703125  L 17.828125 18.703125  L 11.1875 0  L 0.78125 0  z " id="DejaVuSans-41"/>
      <path d="M 9.8125 72.90625  L 19.671875 72.90625  L 19.671875 8.296875  L 55.171875 8.296875  L 55.171875 0  L 9.8125 0  z " id="DejaVuSans-4c"/>
      <path d="M 11.71875 12.40625  L 22.015625 12.40625  L 22.015625 4  L 14.015625 -11.625  L 7.71875 -11.625  L 11.71875 4  z " id="DejaVuSans-2c"/>
      <path d="M 59.515625 10.40625  L 59.515625 29.984375  L 43.40625 29.984375  L 43.40625 38.09375  L 69.28125 38.09375  L 69.28125 6.78125  Q 63.578125 2.734375 56.6875 0.65625  Q 49.8125 -1.421875 42 -1.421875  Q 24.90625 -1.421875 15.25 8.5625  Q 5.609375 18.5625 5.609375 36.375  Q 5.609375 54.25 15.25 64.234375  Q 24.90625 74.21875 42 74.21875  Q 49.125 74.21875 55.546875 72.453125  Q 61.96875 70.703125 67.390625 67.28125  L 67.390625 56.78125  Q 61.921875 61.421875 55.765625 63.765625  Q 49.609375 66.109375 42.828125 66.109375  Q 29.4375 66.109375 22.71875 58.640625  Q 16.015625 51.171875 16.015625 36.375  Q 16.015625 21.625 22.71875 14.15625  Q 29.4375 6.6875 42.828125 6.6875  Q 48.046875 6.6875 52.140625 7.59375  Q 56.25 8.5 59.515625 10.40625  z " id="DejaVuSans-47"/>
     </defs>
     <g transform="translate(18.737187 214.41875)rotate(-90)scale(0.1 -0.1)">
      <use xlink:href="#DejaVuSans-4d"/>
      <use x="86.279297" xlink:href="#DejaVuSans-6f"/>
      <use x="147.460938" xlink:href="#DejaVuSans-6c"/>
      <use x="175.244141" xlink:href="#DejaVuSans-65"/>
      <use x="236.767578" xlink:href="#DejaVuSans-20"/>
      <use x="268.554688" xlink:href="#DejaVuSans-46"/>
      <use x="325.964844" xlink:href="#DejaVuSans-72"/>
      <use x="367.078125" xlink:href="#DejaVuSans-61"/>
      <use x="428.357422" xlink:href="#DejaVuSans-63"/>
      <use x="483.337891" xlink:href="#DejaVuSans-74"/>
      <use x="522.546875" xlink:href="#DejaVuSans-69"/>
      <use x="550.330078" xlink:href="#DejaVuSans-6f"/>
      <use x="611.511719" xlink:href="#DejaVuSans-6e"/>
      <use x="674.890625" xlink:href="#DejaVuSans-20"/>
      <use x="706.677734" xlink:href="#DejaVuSans-28"/>
      <use x="745.691406" xlink:href="#DejaVuSans-41"/>
      <use x="814.099609" xlink:href="#DejaVuSans-4c"/>
      <use x="869.8125" xlink:href="#DejaVuSans-2c"/>
      <use x="901.599609" xlink:href="#DejaVuSans-4d"/>
      <use x="987.878906" xlink:href="#DejaVuSans-47"/>
      <use x="1065.369141" xlink:href="#DejaVuSans-29"/>
     </g>
    </g>
   </g>
   <g id="line2d_16">
    <defs>
     <path d="M -0 3  L 3 -3  L -3 -3  z " id="m56f4fefbb4" style="stroke:#f13a13;stroke-linejoin:miter;"/>
    </defs>
    <g clip-path="url(#p9cb0c3f3a7)">
     <use style="fill:#f13a13;stroke:#f13a13;stroke-linejoin:miter;" x="47.363203" xlink:href="#m56f4fefbb4" y="28.540293"/>
     <use style="fill:#f13a13;stroke:#f13a13;stroke-linejoin:miter;" x="51.997047" xlink:href="#m56f4fefbb4" y="28.326098"/>
     <use style="fill:#f13a13;stroke:#f13a13;stroke-linejoin:miter;" x="56.630889" xlink:href="#m56f4fefbb4" y="27.937462"/>
     <use style="fill:#f13a13;stroke:#f13a13;stroke-linejoin:miter;" x="61.264732" xlink:href="#m56f4fefbb4" y="28.21887"/>
     <use style="fill:#f13a13;stroke:#f13a13;stroke-linejoin:miter;" x="65.898574" xlink:href="#m56f4fefbb4" y="28.175194"/>
     <use style="fill:#f13a13;stroke:#f13a13;stroke-linejoin:miter;" x="70.532421" xlink:href="#m56f4fefbb4" y="28.37932"/>
     <use style="fill:#f13a13;stroke:#f13a13;stroke-linejoin:miter;" x="75.166263" xlink:href="#m56f4fefbb4" y="27.977215"/>
     <use style="fill:#f13a13;stroke:#f13a13;stroke-linejoin:miter;" x="79.800106" xlink:href="#m56f4fefbb4" y="28.28373"/>
     <use style="fill:#f13a13;stroke:#f13a13;stroke-linejoin:miter;" x="84.433949" xlink:href="#m56f4fefbb4" y="28.16421"/>
     <use style="fill:#f13a13;stroke:#f13a13;stroke-linejoin:miter;" x="89.067791" xlink:href="#m56f4fefbb4" y="28.473236"/>
     <use style="fill:#f13a13;stroke:#f13a13;stroke-linejoin:miter;" x="93.701634" xlink:href="#m56f4fefbb4" y="28.342104"/>
     <use style="fill:#f13a13;stroke:#f13a13;stroke-linejoin:miter;" x="98.335476" xlink:href="#m56f4fefbb4" y="28.519998"/>
     <use style="fill:#f13a13;stroke:#f13a13;stroke-linejoin:miter;" x="102.969319" xlink:href="#m56f4fefbb4" y="28.277192"/>
     <use style="fill:#f13a13;stroke:#f13a13;stroke-linejoin:miter;" x="107.603162" xlink:href="#m56f4fefbb4" y="28.00206"/>
     <use style="fill:#f13a13;stroke:#f13a13;stroke-linejoin:miter;" x="112.237004" xlink:href="#m56f4fefbb4" y="28.723888"/>
     <use style="fill:#f13a13;stroke:#f13a13;stroke-linejoin:miter;" x="116.870847" xlink:href="#m56f4fefbb4" y="28.552689"/>
     <use style="fill:#f13a13;stroke:#f13a13;stroke-linejoin:miter;" x="121.504689" xlink:href="#m56f4fefbb4" y="27.890909"/>
     <use style="fill:#f13a13;stroke:#f13a13;stroke-linejoin:miter;" x="126.138532" xlink:href="#m56f4fefbb4" y="28.589461"/>
     <use style="fill:#f13a13;stroke:#f13a13;stroke-linejoin:miter;" x="130.772375" xlink:href="#m56f4fefbb4" y="28.600785"/>
     <use style="fill:#f13a13;stroke:#f13a13;stroke-linejoin:miter;" x="135.406217" xlink:href="#m56f4fefbb4" y="28.173887"/>
     <use style="fill:#f13a13;stroke:#f13a13;stroke-linejoin:miter;" x="140.04006" xlink:href="#m56f4fefbb4" y="28.657459"/>
     <use style="fill:#f13a13;stroke:#f13a13;stroke-linejoin:miter;" x="144.673903" xlink:href="#m56f4fefbb4" y="29.102037"/>
     <use style="fill:#f13a13;stroke:#f13a13;stroke-linejoin:miter;" x="149.307745" xlink:href="#m56f4fefbb4" y="29.107425"/>
     <use style="fill:#f13a13;stroke:#f13a13;stroke-linejoin:miter;" x="153.941588" xlink:href="#m56f4fefbb4" y="29.315866"/>
     <use style="fill:#f13a13;stroke:#f13a13;stroke-linejoin:miter;" x="158.57543" xlink:href="#m56f4fefbb4" y="29.640453"/>
     <use style="fill:#f13a13;stroke:#f13a13;stroke-linejoin:miter;" x="163.209273" xlink:href="#m56f4fefbb4" y="30.495191"/>
     <use style="fill:#f13a13;stroke:#f13a13;stroke-linejoin:miter;" x="167.843116" xlink:href="#m56f4fefbb4" y="31.238256"/>
     <use style="fill:#f13a13;stroke:#f13a13;stroke-linejoin:miter;" x="172.476958" xlink:href="#m56f4fefbb4" y="32.144176"/>
     <use style="fill:#f13a13;stroke:#f13a13;stroke-linejoin:miter;" x="177.110801" xlink:href="#m56f4fefbb4" y="33.187557"/>
     <use style="fill:#f13a13;stroke:#f13a13;stroke-linejoin:miter;" x="181.744643" xlink:href="#m56f4fefbb4" y="34.86429"/>
     <use style="fill:#f13a13;stroke:#f13a13;stroke-linejoin:miter;" x="186.378486" xlink:href="#m56f4fefbb4" y="37.380907"/>
     <use style="fill:#f13a13;stroke:#f13a13;stroke-linejoin:miter;" x="191.012329" xlink:href="#m56f4fefbb4" y="39.295974"/>
     <use style="fill:#f13a13;stroke:#f13a13;stroke-linejoin:miter;" x="195.646171" xlink:href="#m56f4fefbb4" y="42.925331"/>
     <use style="fill:#f13a13;stroke:#f13a13;stroke-linejoin:miter;" x="200.280014" xlink:href="#m56f4fefbb4" y="47.097156"/>
     <use style="fill:#f13a13;stroke:#f13a13;stroke-linejoin:miter;" x="204.913857" xlink:href="#m56f4fefbb4" y="52.171346"/>
     <use style="fill:#f13a13;stroke:#f13a13;stroke-linejoin:miter;" x="209.547699" xlink:href="#m56f4fefbb4" y="59.849085"/>
     <use style="fill:#f13a13;stroke:#f13a13;stroke-linejoin:miter;" x="214.181542" xlink:href="#m56f4fefbb4" y="69.293812"/>
     <use style="fill:#f13a13;stroke:#f13a13;stroke-linejoin:miter;" x="218.815384" xlink:href="#m56f4fefbb4" y="83.213689"/>
     <use style="fill:#f13a13;stroke:#f13a13;stroke-linejoin:miter;" x="223.449227" xlink:href="#m56f4fefbb4" y="100.725707"/>
     <use style="fill:#f13a13;stroke:#f13a13;stroke-linejoin:miter;" x="228.08307" xlink:href="#m56f4fefbb4" y="122.047459"/>
     <use style="fill:#f13a13;stroke:#f13a13;stroke-linejoin:miter;" x="232.71693" xlink:href="#m56f4fefbb4" y="146.30951"/>
     <use style="fill:#f13a13;stroke:#f13a13;stroke-linejoin:miter;" x="237.350791" xlink:href="#m56f4fefbb4" y="175.27461"/>
     <use style="fill:#f13a13;stroke:#f13a13;stroke-linejoin:miter;" x="241.984652" xlink:href="#m56f4fefbb4" y="209.93169"/>
     <use style="fill:#f13a13;stroke:#f13a13;stroke-linejoin:miter;" x="246.618513" xlink:href="#m56f4fefbb4" y="246.677861"/>
     <use style="fill:#f13a13;stroke:#f13a13;stroke-linejoin:miter;" x="251.252374" xlink:href="#m56f4fefbb4" y="274.987389"/>
     <use style="fill:#f13a13;stroke:#f13a13;stroke-linejoin:miter;" x="255.886052" xlink:href="#m56f4fefbb4" y="289.213671"/>
     <use style="fill:#f13a13;stroke:#f13a13;stroke-linejoin:miter;" x="260.519913" xlink:href="#m56f4fefbb4" y="289.60432"/>
     <use style="fill:#f13a13;stroke:#f13a13;stroke-linejoin:miter;" x="265.153774" xlink:href="#m56f4fefbb4" y="289.277283"/>
     <use style="fill:#f13a13;stroke:#f13a13;stroke-linejoin:miter;" x="269.787635" xlink:href="#m56f4fefbb4" y="289.397984"/>
     <use style="fill:#f13a13;stroke:#f13a13;stroke-linejoin:miter;" x="274.421496" xlink:href="#m56f4fefbb4" y="289.692828"/>
     <use style="fill:#f13a13;stroke:#f13a13;stroke-linejoin:miter;" x="279.055357" xlink:href="#m56f4fefbb4" y="289.74372"/>
     <use style="fill:#f13a13;stroke:#f13a13;stroke-linejoin:miter;" x="283.689217" xlink:href="#m56f4fefbb4" y="289.473276"/>
     <use style="fill:#f13a13;stroke:#f13a13;stroke-linejoin:miter;" x="288.323078" xlink:href="#m56f4fefbb4" y="290.199004"/>
     <use style="fill:#f13a13;stroke:#f13a13;stroke-linejoin:miter;" x="292.956939" xlink:href="#m56f4fefbb4" y="289.914686"/>
     <use style="fill:#f13a13;stroke:#f13a13;stroke-linejoin:miter;" x="297.5908" xlink:href="#m56f4fefbb4" y="289.873091"/>
     <use style="fill:#f13a13;stroke:#f13a13;stroke-linejoin:miter;" x="302.224478" xlink:href="#m56f4fefbb4" y="289.420027"/>
     <use style="fill:#f13a13;stroke:#f13a13;stroke-linejoin:miter;" x="306.858339" xlink:href="#m56f4fefbb4" y="289.724142"/>
     <use style="fill:#f13a13;stroke:#f13a13;stroke-linejoin:miter;" x="311.4922" xlink:href="#m56f4fefbb4" y="289.907878"/>
     <use style="fill:#f13a13;stroke:#f13a13;stroke-linejoin:miter;" x="316.126061" xlink:href="#m56f4fefbb4" y="290.11147"/>
     <use style="fill:#f13a13;stroke:#f13a13;stroke-linejoin:miter;" x="320.759922" xlink:href="#m56f4fefbb4" y="290.509091"/>
     <use style="fill:#f13a13;stroke:#f13a13;stroke-linejoin:miter;" x="325.393783" xlink:href="#m56f4fefbb4" y="289.921916"/>
     <use style="fill:#f13a13;stroke:#f13a13;stroke-linejoin:miter;" x="330.027644" xlink:href="#m56f4fefbb4" y="290.008893"/>
     <use style="fill:#f13a13;stroke:#f13a13;stroke-linejoin:miter;" x="334.661504" xlink:href="#m56f4fefbb4" y="290.322503"/>
     <use style="fill:#f13a13;stroke:#f13a13;stroke-linejoin:miter;" x="339.295365" xlink:href="#m56f4fefbb4" y="289.950076"/>
     <use style="fill:#f13a13;stroke:#f13a13;stroke-linejoin:miter;" x="343.929226" xlink:href="#m56f4fefbb4" y="289.808263"/>
     <use style="fill:#f13a13;stroke:#f13a13;stroke-linejoin:miter;" x="348.562904" xlink:href="#m56f4fefbb4" y="289.639786"/>
     <use style="fill:#f13a13;stroke:#f13a13;stroke-linejoin:miter;" x="353.196765" xlink:href="#m56f4fefbb4" y="289.879557"/>
     <use style="fill:#f13a13;stroke:#f13a13;stroke-linejoin:miter;" x="357.830626" xlink:href="#m56f4fefbb4" y="289.437303"/>
     <use style="fill:#f13a13;stroke:#f13a13;stroke-linejoin:miter;" x="362.464487" xlink:href="#m56f4fefbb4" y="289.564792"/>
     <use style="fill:#f13a13;stroke:#f13a13;stroke-linejoin:miter;" x="367.098348" xlink:href="#m56f4fefbb4" y="289.754506"/>
     <use style="fill:#f13a13;stroke:#f13a13;stroke-linejoin:miter;" x="371.732209" xlink:href="#m56f4fefbb4" y="290.320608"/>
     <use style="fill:#f13a13;stroke:#f13a13;stroke-linejoin:miter;" x="376.36607" xlink:href="#m56f4fefbb4" y="289.919435"/>
     <use style="fill:#f13a13;stroke:#f13a13;stroke-linejoin:miter;" x="380.999931" xlink:href="#m56f4fefbb4" y="290.028737"/>
     <use style="fill:#f13a13;stroke:#f13a13;stroke-linejoin:miter;" x="385.633791" xlink:href="#m56f4fefbb4" y="289.503024"/>
     <use style="fill:#f13a13;stroke:#f13a13;stroke-linejoin:miter;" x="390.267652" xlink:href="#m56f4fefbb4" y="290.10836"/>
     <use style="fill:#f13a13;stroke:#f13a13;stroke-linejoin:miter;" x="394.901331" xlink:href="#m56f4fefbb4" y="289.571774"/>
     <use style="fill:#f13a13;stroke:#f13a13;stroke-linejoin:miter;" x="399.535191" xlink:href="#m56f4fefbb4" y="289.978906"/>
     <use style="fill:#f13a13;stroke:#f13a13;stroke-linejoin:miter;" x="404.169052" xlink:href="#m56f4fefbb4" y="289.954534"/>
     <use style="fill:#f13a13;stroke:#f13a13;stroke-linejoin:miter;" x="408.802913" xlink:href="#m56f4fefbb4" y="289.926399"/>
     <use style="fill:#f13a13;stroke:#f13a13;stroke-linejoin:miter;" x="413.436774" xlink:href="#m56f4fefbb4" y="290.074041"/>
    </g>
   </g>
   <g id="line2d_17">
    <defs>
     <path d="M 0 3  C 0.795609 3 1.55874 2.683901 2.12132 2.12132  C 2.683901 1.55874 3 0.795609 3 0  C 3 -0.795609 2.683901 -1.55874 2.12132 -2.12132  C 1.55874 -2.683901 0.795609 -3 0 -3  C -0.795609 -3 -1.55874 -2.683901 -2.12132 -2.12132  C -2.683901 -1.55874 -3 -0.795609 -3 0  C -3 0.795609 -2.683901 1.55874 -2.12132 2.12132  C -1.55874 2.683901 -0.795609 3 0 3  z " id="m52dc235130" style="stroke:#803e75;"/>
    </defs>
    <g clip-path="url(#p9cb0c3f3a7)">
     <use style="fill:#803e75;stroke:#803e75;" x="47.363203" xlink:href="#m52dc235130" y="289.934658"/>
     <use style="fill:#803e75;stroke:#803e75;" x="51.997047" xlink:href="#m52dc235130" y="289.748097"/>
     <use style="fill:#803e75;stroke:#803e75;" x="56.630889" xlink:href="#m52dc235130" y="290.015537"/>
     <use style="fill:#803e75;stroke:#803e75;" x="61.264732" xlink:href="#m52dc235130" y="290.028998"/>
     <use style="fill:#803e75;stroke:#803e75;" x="65.898574" xlink:href="#m52dc235130" y="290.030617"/>
     <use style="fill:#803e75;stroke:#803e75;" x="70.532421" xlink:href="#m52dc235130" y="289.79803"/>
     <use style="fill:#803e75;stroke:#803e75;" x="75.166263" xlink:href="#m52dc235130" y="289.635114"/>
     <use style="fill:#803e75;stroke:#803e75;" x="79.800106" xlink:href="#m52dc235130" y="289.62108"/>
     <use style="fill:#803e75;stroke:#803e75;" x="84.433949" xlink:href="#m52dc235130" y="290.129582"/>
     <use style="fill:#803e75;stroke:#803e75;" x="89.067791" xlink:href="#m52dc235130" y="290.302893"/>
     <use style="fill:#803e75;stroke:#803e75;" x="93.701634" xlink:href="#m52dc235130" y="290.120505"/>
     <use style="fill:#803e75;stroke:#803e75;" x="98.335476" xlink:href="#m52dc235130" y="289.850352"/>
     <use style="fill:#803e75;stroke:#803e75;" x="102.969319" xlink:href="#m52dc235130" y="290.031159"/>
     <use style="fill:#803e75;stroke:#803e75;" x="107.603162" xlink:href="#m52dc235130" y="289.832967"/>
     <use style="fill:#803e75;stroke:#803e75;" x="112.237004" xlink:href="#m52dc235130" y="290.057083"/>
     <use style="fill:#803e75;stroke:#803e75;" x="116.870847" xlink:href="#m52dc235130" y="290.451332"/>
     <use style="fill:#803e75;stroke:#803e75;" x="121.504689" xlink:href="#m52dc235130" y="289.92159"/>
     <use style="fill:#803e75;stroke:#803e75;" x="126.138532" xlink:href="#m52dc235130" y="289.695104"/>
     <use style="fill:#803e75;stroke:#803e75;" x="130.772375" xlink:href="#m52dc235130" y="289.629464"/>
     <use style="fill:#803e75;stroke:#803e75;" x="135.406217" xlink:href="#m52dc235130" y="289.825928"/>
     <use style="fill:#803e75;stroke:#803e75;" x="140.04006" xlink:href="#m52dc235130" y="290.085496"/>
     <use style="fill:#803e75;stroke:#803e75;" x="144.673903" xlink:href="#m52dc235130" y="290.289982"/>
     <use style="fill:#803e75;stroke:#803e75;" x="149.307745" xlink:href="#m52dc235130" y="289.976687"/>
     <use style="fill:#803e75;stroke:#803e75;" x="153.941588" xlink:href="#m52dc235130" y="289.567818"/>
     <use style="fill:#803e75;stroke:#803e75;" x="158.57543" xlink:href="#m52dc235130" y="290.085152"/>
     <use style="fill:#803e75;stroke:#803e75;" x="163.209273" xlink:href="#m52dc235130" y="289.543815"/>
     <use style="fill:#803e75;stroke:#803e75;" x="167.843116" xlink:href="#m52dc235130" y="289.530273"/>
     <use style="fill:#803e75;stroke:#803e75;" x="172.476958" xlink:href="#m52dc235130" y="289.473058"/>
     <use style="fill:#803e75;stroke:#803e75;" x="177.110801" xlink:href="#m52dc235130" y="289.641537"/>
     <use style="fill:#803e75;stroke:#803e75;" x="181.744643" xlink:href="#m52dc235130" y="289.422867"/>
     <use style="fill:#803e75;stroke:#803e75;" x="186.378486" xlink:href="#m52dc235130" y="288.901187"/>
     <use style="fill:#803e75;stroke:#803e75;" x="191.012329" xlink:href="#m52dc235130" y="288.253517"/>
     <use style="fill:#803e75;stroke:#803e75;" x="195.646171" xlink:href="#m52dc235130" y="287.754027"/>
     <use style="fill:#803e75;stroke:#803e75;" x="200.280014" xlink:href="#m52dc235130" y="286.923529"/>
     <use style="fill:#803e75;stroke:#803e75;" x="204.913857" xlink:href="#m52dc235130" y="284.758825"/>
     <use style="fill:#803e75;stroke:#803e75;" x="209.547699" xlink:href="#m52dc235130" y="282.052299"/>
     <use style="fill:#803e75;stroke:#803e75;" x="214.181542" xlink:href="#m52dc235130" y="277.895171"/>
     <use style="fill:#803e75;stroke:#803e75;" x="218.815384" xlink:href="#m52dc235130" y="272.181333"/>
     <use style="fill:#803e75;stroke:#803e75;" x="223.449227" xlink:href="#m52dc235130" y="264.439388"/>
     <use style="fill:#803e75;stroke:#803e75;" x="228.08307" xlink:href="#m52dc235130" y="255.649947"/>
     <use style="fill:#803e75;stroke:#803e75;" x="232.71693" xlink:href="#m52dc235130" y="245.790457"/>
     <use style="fill:#803e75;stroke:#803e75;" x="237.350791" xlink:href="#m52dc235130" y="234.178886"/>
     <use style="fill:#803e75;stroke:#803e75;" x="241.984652" xlink:href="#m52dc235130" y="219.242539"/>
     <use style="fill:#803e75;stroke:#803e75;" x="246.618513" xlink:href="#m52dc235130" y="202.883772"/>
     <use style="fill:#803e75;stroke:#803e75;" x="251.252374" xlink:href="#m52dc235130" y="191.999025"/>
     <use style="fill:#803e75;stroke:#803e75;" x="255.886052" xlink:href="#m52dc235130" y="186.988806"/>
     <use style="fill:#803e75;stroke:#803e75;" x="260.519913" xlink:href="#m52dc235130" y="187.348177"/>
     <use style="fill:#803e75;stroke:#803e75;" x="265.153774" xlink:href="#m52dc235130" y="188.427075"/>
     <use style="fill:#803e75;stroke:#803e75;" x="269.787635" xlink:href="#m52dc235130" y="188.559436"/>
     <use style="fill:#803e75;stroke:#803e75;" x="274.421496" xlink:href="#m52dc235130" y="189.034901"/>
     <use style="fill:#803e75;stroke:#803e75;" x="279.055357" xlink:href="#m52dc235130" y="190.21169"/>
     <use style="fill:#803e75;stroke:#803e75;" x="283.689217" xlink:href="#m52dc235130" y="190.334348"/>
     <use style="fill:#803e75;stroke:#803e75;" x="288.323078" xlink:href="#m52dc235130" y="190.336388"/>
     <use style="fill:#803e75;stroke:#803e75;" x="292.956939" xlink:href="#m52dc235130" y="191.146875"/>
     <use style="fill:#803e75;stroke:#803e75;" x="297.5908" xlink:href="#m52dc235130" y="190.764908"/>
     <use style="fill:#803e75;stroke:#803e75;" x="302.224478" xlink:href="#m52dc235130" y="191.418319"/>
     <use style="fill:#803e75;stroke:#803e75;" x="306.858339" xlink:href="#m52dc235130" y="191.571865"/>
     <use style="fill:#803e75;stroke:#803e75;" x="311.4922" xlink:href="#m52dc235130" y="191.542207"/>
     <use style="fill:#803e75;stroke:#803e75;" x="316.126061" xlink:href="#m52dc235130" y="191.594539"/>
     <use style="fill:#803e75;stroke:#803e75;" x="320.759922" xlink:href="#m52dc235130" y="191.476615"/>
     <use style="fill:#803e75;stroke:#803e75;" x="325.393783" xlink:href="#m52dc235130" y="191.65477"/>
     <use style="fill:#803e75;stroke:#803e75;" x="330.027644" xlink:href="#m52dc235130" y="191.86852"/>
     <use style="fill:#803e75;stroke:#803e75;" x="334.661504" xlink:href="#m52dc235130" y="191.388008"/>
     <use style="fill:#803e75;stroke:#803e75;" x="339.295365" xlink:href="#m52dc235130" y="192.332635"/>
     <use style="fill:#803e75;stroke:#803e75;" x="343.929226" xlink:href="#m52dc235130" y="191.859393"/>
     <use style="fill:#803e75;stroke:#803e75;" x="348.562904" xlink:href="#m52dc235130" y="191.697845"/>
     <use style="fill:#803e75;stroke:#803e75;" x="353.196765" xlink:href="#m52dc235130" y="191.460609"/>
     <use style="fill:#803e75;stroke:#803e75;" x="357.830626" xlink:href="#m52dc235130" y="192.370531"/>
     <use style="fill:#803e75;stroke:#803e75;" x="362.464487" xlink:href="#m52dc235130" y="191.7711"/>
     <use style="fill:#803e75;stroke:#803e75;" x="367.098348" xlink:href="#m52dc235130" y="191.73765"/>
     <use style="fill:#803e75;stroke:#803e75;" x="371.732209" xlink:href="#m52dc235130" y="191.818045"/>
     <use style="fill:#803e75;stroke:#803e75;" x="376.36607" xlink:href="#m52dc235130" y="191.357252"/>
     <use style="fill:#803e75;stroke:#803e75;" x="380.999931" xlink:href="#m52dc235130" y="191.581541"/>
     <use style="fill:#803e75;stroke:#803e75;" x="385.633791" xlink:href="#m52dc235130" y="191.964659"/>
     <use style="fill:#803e75;stroke:#803e75;" x="390.267652" xlink:href="#m52dc235130" y="192.024236"/>
     <use style="fill:#803e75;stroke:#803e75;" x="394.901331" xlink:href="#m52dc235130" y="191.815325"/>
     <use style="fill:#803e75;stroke:#803e75;" x="399.535191" xlink:href="#m52dc235130" y="191.734799"/>
     <use style="fill:#803e75;stroke:#803e75;" x="404.169052" xlink:href="#m52dc235130" y="192.128404"/>
     <use style="fill:#803e75;stroke:#803e75;" x="408.802913" xlink:href="#m52dc235130" y="192.107299"/>
     <use style="fill:#803e75;stroke:#803e75;" x="413.436774" xlink:href="#m52dc235130" y="191.854842"/>
    </g>
   </g>
   <g id="line2d_18">
    <path clip-path="url(#p9cb0c3f3a7)" d="M 47.363203 28.333711  L 125.715795 28.44486  L 139.844951 28.691794  L 149.264388 29.069029  L 156.543044 29.57458  L 162.644271 30.217206  L 167.782145 30.972086  L 172.491864 31.888371  L 176.559348 32.896808  L 180.412754 34.080645  L 183.838004 35.358606  L 187.049176 36.78794  L 190.04627 38.362343  L 192.829285 40.070969  L 195.558781 42.020814  L 198.02068 44.055672  L 200.375539 46.292662  L 202.623359 48.741171  L 204.764141 51.408303  L 206.797883 54.297137  L 208.831625 57.588889  L 210.758328 61.1357  L 212.685031 65.156713  L 214.611734 69.707878  L 216.538437 74.839646  L 218.46514 80.591738  L 220.498882 87.364353  L 222.666423 95.38972  L 224.914244 104.597398  L 227.215583 114.971164  L 229.570443 126.627434  L 231.871782 139.146148  L 234.119603 152.631244  L 236.260384 166.867447  L 238.294126 181.898499  L 240.408147 199.249122  L 243.191163 224.197454  L 245.86714 247.605634  L 247.472725 259.763829  L 248.971272 269.402295  L 250.36278 276.871418  L 251.54021 282.090404  L 252.6106 285.86841  L 253.359874 287.824249  L 254.002108 288.934847  L 254.537303 289.456111  L 255.179538 289.73444  L 256.142889 289.845032  L 259.675178 289.865544  L 413.436788 289.865561  L 413.436788 289.865561  " style="fill:none;stroke:#f13a13;stroke-linecap:square;stroke-width:2;"/>
   </g>
   <g id="line2d_19">
    <path clip-path="url(#p9cb0c3f3a7)" d="M 47.363203 289.865556  L 147.979919 289.754552  L 164.356895 289.506895  L 174.846723 289.135575  L 182.339458 288.659784  L 188.119567 288.082292  L 192.829285 287.395337  L 196.736211 286.605007  L 200.054422 285.711023  L 202.944477 284.706478  L 205.513414 283.583661  L 207.868273 282.315626  L 210.116094 280.846047  L 212.256875 279.169333  L 214.290617 277.29212  L 216.324359 275.112785  L 218.46514 272.478205  L 220.71296 269.338476  L 223.148099 265.52886  L 225.717037 261.085344  L 228.393013 256.009406  L 230.96195 250.664588  L 233.31681 245.256562  L 235.457591 239.785015  L 237.437814 234.118778  L 239.337757 228.029516  L 241.478538 220.397684  L 246.081218 203.626934  L 247.579764 199.180486  L 248.971272 195.73535  L 250.255741 193.117903  L 251.433171 191.170393  L 252.503561 189.792744  L 253.359874 189.017094  L 254.109147 188.634608  L 254.858421 188.514237  L 256.142889 188.594624  L 270.325565 190.063961  L 279.316846 190.698999  L 289.164439 191.168069  L 300.938736 191.497197  L 316.673478 191.696794  L 344.075477 191.781843  L 413.436788 191.791102  L 413.436788 191.791102  " style="fill:none;stroke:#803e75;stroke-linecap:square;stroke-width:2;"/>
   </g>
   <g id="patch_3">
    <path d="M 47.72 303.64  L 47.72 14.76  " style="fill:none;stroke:#000000;stroke-linecap:square;stroke-linejoin:miter;stroke-width:0.8;"/>
   </g>
   <g id="patch_4">
    <path d="M 413.08 303.64  L 413.08 14.76  " style="fill:none;stroke:#000000;stroke-linecap:square;stroke-linejoin:miter;stroke-width:0.8;"/>
   </g>
   <g id="patch_5">
    <path d="M 47.72 303.64  L 413.08 303.64  " style="fill:none;stroke:#000000;stroke-linecap:square;stroke-linejoin:miter;stroke-width:0.8;"/>
   </g>
   <g id="patch_6">
    <path d="M 47.72 14.76  L 413.08 14.76  " style="fill:none;stroke:#000000;stroke-linecap:square;stroke-linejoin:miter;stroke-width:0.8;"/>
   </g>
  </g>
  <g id="axes_2">
   <g id="matplotlib.axis_3">
    <g id="ytick_7">
     <g id="line2d_20">
      <defs>
       <path d="M 0 0  L 3.5 0  " id="ma3dab570cb" style="stroke:#000000;stroke-width:0.8;"/>
      </defs>
      <g>
       <use style="stroke:#000000;stroke-width:0.8;" x="413.08" xlink:href="#ma3dab570cb" y="303.64"/>
      </g>
     </g>
     <g id="text_18">
      <!-- 0.0 -->
      <g transform="translate(420.08 307.439219)scale(0.1 -0.1)">
       <use xlink:href="#DejaVuSans-30"/>
       <use x="63.623047" xlink:href="#DejaVuSans-2e"/>
       <use x="95.410156" xlink:href="#DejaVuSans-30"/>
      </g>
     </g>
    </g>
    <g id="ytick_8">
     <g id="line2d_21">
      <g>
       <use style="stroke:#000000;stroke-width:0.8;" x="413.08" xlink:href="#ma3dab570cb" y="245.864"/>
      </g>
     </g>
     <g id="text_19">
      <!-- 0.2 -->
      <g transform="translate(420.08 249.663219)scale(0.1 -0.1)">
       <use xlink:href="#DejaVuSans-30"/>
       <use x="63.623047" xlink:href="#DejaVuSans-2e"/>
       <use x="95.410156" xlink:href="#DejaVuSans-32"/>
      </g>
     </g>
    </g>
    <g id="ytick_9">
     <g id="line2d_22">
      <g>
       <use style="stroke:#000000;stroke-width:0.8;" x="413.08" xlink:href="#ma3dab570cb" y="188.088"/>
      </g>
     </g>
     <g id="text_20">
      <!-- 0.4 -->
      <g transform="translate(420.08 191.887219)scale(0.1 -0.1)">
       <use xlink:href="#DejaVuSans-30"/>
       <use x="63.623047" xlink:href="#DejaVuSans-2e"/>
       <use x="95.410156" xlink:href="#DejaVuSans-34"/>
      </g>
     </g>
    </g>
    <g id="ytick_10">
     <g id="line2d_23">
      <g>
       <use style="stroke:#000000;stroke-width:0.8;" x="413.08" xlink:href="#ma3dab570cb" y="130.312"/>
      </g>
     </g>
     <g id="text_21">
      <!-- 0.6 -->
      <g transform="translate(420.08 134.111219)scale(0.1 -0.1)">
       <use xlink:href="#DejaVuSans-30"/>
       <use x="63.623047" xlink:href="#DejaVuSans-2e"/>
       <use x="95.410156" xlink:href="#DejaVuSans-36"/>
      </g>
     </g>
    </g>
    <g id="ytick_11">
     <g id="line2d_24">
      <g>
       <use style="stroke:#000000;stroke-width:0.8;" x="413.08" xlink:href="#ma3dab570cb" y="72.536"/>
      </g>
     </g>
     <g id="text_22">
      <!-- 0.8 -->
      <g transform="translate(420.08 76.335219)scale(0.1 -0.1)">
       <use xlink:href="#DejaVuSans-30"/>
       <use x="63.623047" xlink:href="#DejaVuSans-2e"/>
       <use x="95.410156" xlink:href="#DejaVuSans-38"/>
      </g>
     </g>
    </g>
    <g id="ytick_12">
     <g id="line2d_25">
      <g>
       <use style="stroke:#000000;stroke-width:0.8;" x="413.08" xlink:href="#ma3dab570cb" y="14.76"/>
      </g>
     </g>
     <g id="text_23">
      <!-- 1.0 -->
      <g transform="translate(420.08 18.559219)scale(0.1 -0.1)">
       <use xlink:href="#DejaVuSans-31"/>
       <use x="63.623047" xlink:href="#DejaVuSans-2e"/>
       <use x="95.410156" xlink:href="#DejaVuSans-30"/>
      </g>
     </g>
    </g>
    <g id="text_24">
     <!-- Mole Fraction (ZN) -->
     <defs>
      <path d="M 5.609375 72.90625  L 62.890625 72.90625  L 62.890625 65.375  L 16.796875 8.296875  L 64.015625 8.296875  L 64.015625 0  L 4.5 0  L 4.5 7.515625  L 50.59375 64.59375  L 5.609375 64.59375  z " id="DejaVuSans-5a"/>
      <path d="M 9.8125 72.90625  L 23.09375 72.90625  L 55.421875 11.921875  L 55.421875 72.90625  L 64.984375 72.90625  L 64.984375 0  L 51.703125 0  L 19.390625 60.984375  L 19.390625 0  L 9.8125 0  z " id="DejaVuSans-4e"/>
     </defs>
     <g transform="translate(447.581563 205.600781)rotate(-90)scale(0.1 -0.1)">
      <use xlink:href="#DejaVuSans-4d"/>
      <use x="86.279297" xlink:href="#DejaVuSans-6f"/>
      <use x="147.460938" xlink:href="#DejaVuSans-6c"/>
      <use x="175.244141" xlink:href="#DejaVuSans-65"/>
      <use x="236.767578" xlink:href="#DejaVuSans-20"/>
      <use x="268.554688" xlink:href="#DejaVuSans-46"/>
      <use x="325.964844" xlink:href="#DejaVuSans-72"/>
      <use x="367.078125" xlink:href="#DejaVuSans-61"/>
      <use x="428.357422" xlink:href="#DejaVuSans-63"/>
      <use x="483.337891" xlink:href="#DejaVuSans-74"/>
      <use x="522.546875" xlink:href="#DejaVuSans-69"/>
      <use x="550.330078" xlink:href="#DejaVuSans-6f"/>
      <use x="611.511719" xlink:href="#DejaVuSans-6e"/>
      <use x="674.890625" xlink:href="#DejaVuSans-20"/>
      <use x="706.677734" xlink:href="#DejaVuSans-28"/>
      <use x="745.691406" xlink:href="#DejaVuSans-5a"/>
      <use x="814.197266" xlink:href="#DejaVuSans-4e"/>
      <use x="889.001953" xlink:href="#DejaVuSans-29"/>
     </g>
    </g>
   </g>
   <g id="line2d_26">
    <defs>
     <path d="M 0 -3  L -0.673542 -0.927051  L -2.85317 -0.927051  L -1.089814 0.354102  L -1.763356 2.427051  L -0 1.145898  L 1.763356 2.427051  L 1.089814 0.354102  L 2.85317 -0.927051  L 0.673542 -0.927051  z " id="m0ad8d098a1" style="stroke:#fd522b;stroke-linejoin:bevel;"/>
    </defs>
    <g clip-path="url(#p9cb0c3f3a7)">
     <use style="fill:#fd522b;stroke:#fd522b;stroke-linejoin:bevel;" x="47.363203" xlink:href="#m0ad8d098a1" y="303.335467"/>
     <use style="fill:#fd522b;stroke:#fd522b;stroke-linejoin:bevel;" x="51.997047" xlink:href="#m0ad8d098a1" y="303.778062"/>
     <use style="fill:#fd522b;stroke:#fd522b;stroke-linejoin:bevel;" x="56.630889" xlink:href="#m0ad8d098a1" y="303.911878"/>
     <use style="fill:#fd522b;stroke:#fd522b;stroke-linejoin:bevel;" x="61.264732" xlink:href="#m0ad8d098a1" y="303.586334"/>
     <use style="fill:#fd522b;stroke:#fd522b;stroke-linejoin:bevel;" x="65.898574" xlink:href="#m0ad8d098a1" y="303.632808"/>
     <use style="fill:#fd522b;stroke:#fd522b;stroke-linejoin:bevel;" x="70.532421" xlink:href="#m0ad8d098a1" y="303.664182"/>
     <use style="fill:#fd522b;stroke:#fd522b;stroke-linejoin:bevel;" x="75.166263" xlink:href="#m0ad8d098a1" y="304.28834"/>
     <use style="fill:#fd522b;stroke:#fd522b;stroke-linejoin:bevel;" x="79.800106" xlink:href="#m0ad8d098a1" y="303.965247"/>
     <use style="fill:#fd522b;stroke:#fd522b;stroke-linejoin:bevel;" x="84.433949" xlink:href="#m0ad8d098a1" y="303.535639"/>
     <use style="fill:#fd522b;stroke:#fd522b;stroke-linejoin:bevel;" x="89.067791" xlink:href="#m0ad8d098a1" y="303.002776"/>
     <use style="fill:#fd522b;stroke:#fd522b;stroke-linejoin:bevel;" x="93.701634" xlink:href="#m0ad8d098a1" y="303.349085"/>
     <use style="fill:#fd522b;stroke:#fd522b;stroke-linejoin:bevel;" x="98.335476" xlink:href="#m0ad8d098a1" y="303.451009"/>
     <use style="fill:#fd522b;stroke:#fd522b;stroke-linejoin:bevel;" x="102.969319" xlink:href="#m0ad8d098a1" y="303.519371"/>
     <use style="fill:#fd522b;stroke:#fd522b;stroke-linejoin:bevel;" x="107.603162" xlink:href="#m0ad8d098a1" y="304.042186"/>
     <use style="fill:#fd522b;stroke:#fd522b;stroke-linejoin:bevel;" x="112.237004" xlink:href="#m0ad8d098a1" y="302.997447"/>
     <use style="fill:#fd522b;stroke:#fd522b;stroke-linejoin:bevel;" x="116.870847" xlink:href="#m0ad8d098a1" y="302.751071"/>
     <use style="fill:#fd522b;stroke:#fd522b;stroke-linejoin:bevel;" x="121.504689" xlink:href="#m0ad8d098a1" y="304.067272"/>
     <use style="fill:#fd522b;stroke:#fd522b;stroke-linejoin:bevel;" x="126.138532" xlink:href="#m0ad8d098a1" y="303.54576"/>
     <use style="fill:#fd522b;stroke:#fd522b;stroke-linejoin:bevel;" x="130.772375" xlink:href="#m0ad8d098a1" y="303.605752"/>
     <use style="fill:#fd522b;stroke:#fd522b;stroke-linejoin:bevel;" x="135.406217" xlink:href="#m0ad8d098a1" y="303.860402"/>
     <use style="fill:#fd522b;stroke:#fd522b;stroke-linejoin:bevel;" x="140.04006" xlink:href="#m0ad8d098a1" y="303.039426"/>
     <use style="fill:#fd522b;stroke:#fd522b;stroke-linejoin:bevel;" x="144.673903" xlink:href="#m0ad8d098a1" y="302.322491"/>
     <use style="fill:#fd522b;stroke:#fd522b;stroke-linejoin:bevel;" x="149.307745" xlink:href="#m0ad8d098a1" y="302.66259"/>
     <use style="fill:#fd522b;stroke:#fd522b;stroke-linejoin:bevel;" x="153.941588" xlink:href="#m0ad8d098a1" y="302.883994"/>
     <use style="fill:#fd522b;stroke:#fd522b;stroke-linejoin:bevel;" x="158.57543" xlink:href="#m0ad8d098a1" y="301.954025"/>
     <use style="fill:#fd522b;stroke:#fd522b;stroke-linejoin:bevel;" x="163.209273" xlink:href="#m0ad8d098a1" y="301.607853"/>
     <use style="fill:#fd522b;stroke:#fd522b;stroke-linejoin:bevel;" x="167.843116" xlink:href="#m0ad8d098a1" y="300.802052"/>
     <use style="fill:#fd522b;stroke:#fd522b;stroke-linejoin:bevel;" x="172.476958" xlink:href="#m0ad8d098a1" y="299.864598"/>
     <use style="fill:#fd522b;stroke:#fd522b;stroke-linejoin:bevel;" x="177.110801" xlink:href="#m0ad8d098a1" y="298.526015"/>
     <use style="fill:#fd522b;stroke:#fd522b;stroke-linejoin:bevel;" x="181.744643" xlink:href="#m0ad8d098a1" y="296.915477"/>
     <use style="fill:#fd522b;stroke:#fd522b;stroke-linejoin:bevel;" x="186.378486" xlink:href="#m0ad8d098a1" y="294.711944"/>
     <use style="fill:#fd522b;stroke:#fd522b;stroke-linejoin:bevel;" x="191.012329" xlink:href="#m0ad8d098a1" y="293.312011"/>
     <use style="fill:#fd522b;stroke:#fd522b;stroke-linejoin:bevel;" x="195.646171" xlink:href="#m0ad8d098a1" y="289.854846"/>
     <use style="fill:#fd522b;stroke:#fd522b;stroke-linejoin:bevel;" x="200.280014" xlink:href="#m0ad8d098a1" y="286.164132"/>
     <use style="fill:#fd522b;stroke:#fd522b;stroke-linejoin:bevel;" x="204.913857" xlink:href="#m0ad8d098a1" y="282.950394"/>
     <use style="fill:#fd522b;stroke:#fd522b;stroke-linejoin:bevel;" x="209.547699" xlink:href="#m0ad8d098a1" y="277.459354"/>
     <use style="fill:#fd522b;stroke:#fd522b;stroke-linejoin:bevel;" x="214.181542" xlink:href="#m0ad8d098a1" y="271.618836"/>
     <use style="fill:#fd522b;stroke:#fd522b;stroke-linejoin:bevel;" x="218.815384" xlink:href="#m0ad8d098a1" y="262.554706"/>
     <use style="fill:#fd522b;stroke:#fd522b;stroke-linejoin:bevel;" x="223.449227" xlink:href="#m0ad8d098a1" y="251.762987"/>
     <use style="fill:#fd522b;stroke:#fd522b;stroke-linejoin:bevel;" x="228.08307" xlink:href="#m0ad8d098a1" y="237.920176"/>
     <use style="fill:#fd522b;stroke:#fd522b;stroke-linejoin:bevel;" x="232.71693" xlink:href="#m0ad8d098a1" y="222.011554"/>
     <use style="fill:#fd522b;stroke:#fd522b;stroke-linejoin:bevel;" x="237.350791" xlink:href="#m0ad8d098a1" y="202.843384"/>
     <use style="fill:#fd522b;stroke:#fd522b;stroke-linejoin:bevel;" x="241.984652" xlink:href="#m0ad8d098a1" y="181.060474"/>
     <use style="fill:#fd522b;stroke:#fd522b;stroke-linejoin:bevel;" x="246.618513" xlink:href="#m0ad8d098a1" y="158.54118"/>
     <use style="fill:#fd522b;stroke:#fd522b;stroke-linejoin:bevel;" x="251.252374" xlink:href="#m0ad8d098a1" y="139.294319"/>
     <use style="fill:#fd522b;stroke:#fd522b;stroke-linejoin:bevel;" x="255.886052" xlink:href="#m0ad8d098a1" y="129.114535"/>
     <use style="fill:#fd522b;stroke:#fd522b;stroke-linejoin:bevel;" x="260.519913" xlink:href="#m0ad8d098a1" y="128.286085"/>
     <use style="fill:#fd522b;stroke:#fd522b;stroke-linejoin:bevel;" x="265.153774" xlink:href="#m0ad8d098a1" y="127.455583"/>
     <use style="fill:#fd522b;stroke:#fd522b;stroke-linejoin:bevel;" x="269.787635" xlink:href="#m0ad8d098a1" y="127.176063"/>
     <use style="fill:#fd522b;stroke:#fd522b;stroke-linejoin:bevel;" x="274.421496" xlink:href="#m0ad8d098a1" y="126.325225"/>
     <use style="fill:#fd522b;stroke:#fd522b;stroke-linejoin:bevel;" x="279.055357" xlink:href="#m0ad8d098a1" y="124.969164"/>
     <use style="fill:#fd522b;stroke:#fd522b;stroke-linejoin:bevel;" x="283.689217" xlink:href="#m0ad8d098a1" y="125.13241"/>
     <use style="fill:#fd522b;stroke:#fd522b;stroke-linejoin:bevel;" x="288.323078" xlink:href="#m0ad8d098a1" y="124.328515"/>
     <use style="fill:#fd522b;stroke:#fd522b;stroke-linejoin:bevel;" x="292.956939" xlink:href="#m0ad8d098a1" y="123.747318"/>
     <use style="fill:#fd522b;stroke:#fd522b;stroke-linejoin:bevel;" x="297.5908" xlink:href="#m0ad8d098a1" y="124.215188"/>
     <use style="fill:#fd522b;stroke:#fd522b;stroke-linejoin:bevel;" x="302.224478" xlink:href="#m0ad8d098a1" y="123.993877"/>
     <use style="fill:#fd522b;stroke:#fd522b;stroke-linejoin:bevel;" x="306.858339" xlink:href="#m0ad8d098a1" y="123.488394"/>
     <use style="fill:#fd522b;stroke:#fd522b;stroke-linejoin:bevel;" x="311.4922" xlink:href="#m0ad8d098a1" y="123.318186"/>
     <use style="fill:#fd522b;stroke:#fd522b;stroke-linejoin:bevel;" x="316.126061" xlink:href="#m0ad8d098a1" y="123.035488"/>
     <use style="fill:#fd522b;stroke:#fd522b;stroke-linejoin:bevel;" x="320.759922" xlink:href="#m0ad8d098a1" y="122.72656"/>
     <use style="fill:#fd522b;stroke:#fd522b;stroke-linejoin:bevel;" x="325.393783" xlink:href="#m0ad8d098a1" y="123.17834"/>
     <use style="fill:#fd522b;stroke:#fd522b;stroke-linejoin:bevel;" x="330.027644" xlink:href="#m0ad8d098a1" y="122.846185"/>
     <use style="fill:#fd522b;stroke:#fd522b;stroke-linejoin:bevel;" x="334.661504" xlink:href="#m0ad8d098a1" y="123.030548"/>
     <use style="fill:#fd522b;stroke:#fd522b;stroke-linejoin:bevel;" x="339.295365" xlink:href="#m0ad8d098a1" y="122.398508"/>
     <use style="fill:#fd522b;stroke:#fd522b;stroke-linejoin:bevel;" x="343.929226" xlink:href="#m0ad8d098a1" y="123.077867"/>
     <use style="fill:#fd522b;stroke:#fd522b;stroke-linejoin:bevel;" x="348.562904" xlink:href="#m0ad8d098a1" y="123.442405"/>
     <use style="fill:#fd522b;stroke:#fd522b;stroke-linejoin:bevel;" x="353.196765" xlink:href="#m0ad8d098a1" y="123.439603"/>
     <use style="fill:#fd522b;stroke:#fd522b;stroke-linejoin:bevel;" x="357.830626" xlink:href="#m0ad8d098a1" y="122.923027"/>
     <use style="fill:#fd522b;stroke:#fd522b;stroke-linejoin:bevel;" x="362.464487" xlink:href="#m0ad8d098a1" y="123.44434"/>
     <use style="fill:#fd522b;stroke:#fd522b;stroke-linejoin:bevel;" x="367.098348" xlink:href="#m0ad8d098a1" y="123.271706"/>
     <use style="fill:#fd522b;stroke:#fd522b;stroke-linejoin:bevel;" x="371.732209" xlink:href="#m0ad8d098a1" y="122.557623"/>
     <use style="fill:#fd522b;stroke:#fd522b;stroke-linejoin:bevel;" x="376.36607" xlink:href="#m0ad8d098a1" y="123.509714"/>
     <use style="fill:#fd522b;stroke:#fd522b;stroke-linejoin:bevel;" x="380.999931" xlink:href="#m0ad8d098a1" y="123.141247"/>
     <use style="fill:#fd522b;stroke:#fd522b;stroke-linejoin:bevel;" x="385.633791" xlink:href="#m0ad8d098a1" y="123.298745"/>
     <use style="fill:#fd522b;stroke:#fd522b;stroke-linejoin:bevel;" x="390.267652" xlink:href="#m0ad8d098a1" y="122.564325"/>
     <use style="fill:#fd522b;stroke:#fd522b;stroke-linejoin:bevel;" x="394.901331" xlink:href="#m0ad8d098a1" y="123.387778"/>
     <use style="fill:#fd522b;stroke:#fd522b;stroke-linejoin:bevel;" x="399.535191" xlink:href="#m0ad8d098a1" y="123.026995"/>
     <use style="fill:#fd522b;stroke:#fd522b;stroke-linejoin:bevel;" x="404.169052" xlink:href="#m0ad8d098a1" y="122.619154"/>
     <use style="fill:#fd522b;stroke:#fd522b;stroke-linejoin:bevel;" x="408.802913" xlink:href="#m0ad8d098a1" y="122.673522"/>
     <use style="fill:#fd522b;stroke:#fd522b;stroke-linejoin:bevel;" x="413.436774" xlink:href="#m0ad8d098a1" y="122.789305"/>
    </g>
   </g>
   <g id="line2d_27">
    <path clip-path="url(#p9cb0c3f3a7)" d="M 47.363203 303.639974  L 126.572107 303.529869  L 140.701263 303.287092  L 150.120701 302.918711  L 157.399357 302.428622  L 163.714661 301.784841  L 169.066614 301.022121  L 173.776333 300.138749  L 178.057895 299.122795  L 182.125379 297.931311  L 185.764707 296.643806  L 189.189957 295.208084  L 192.401129 293.632623  L 195.558781 291.831395  L 198.448836 289.927615  L 201.231852 287.824791  L 203.800789 285.609163  L 206.262687 283.196228  L 208.617547 280.578217  L 210.865367 277.750148  L 213.113187 274.550614  L 215.253968 271.109268  L 217.39475 267.235755  L 219.535531 262.885757  L 221.676312 258.020041  L 223.897373 252.391031  L 226.145193 246.058843  L 228.393013 239.053107  L 230.694353 231.137402  L 232.995693 222.401653  L 235.243513 212.977421  L 237.437814 202.797619  L 239.551835 191.955291  L 242.013733 178.089444  L 246.295296 153.672305  L 248.007921 145.410128  L 249.506468 139.254623  L 250.897975 134.448505  L 252.075405 131.103445  L 253.038757 128.967783  L 253.78803 127.803867  L 254.430264 127.202049  L 255.179538 126.853238  L 256.464006 126.592607  L 261.815959 125.896927  L 269.897408 125.037333  L 278.460533 124.352947  L 287.665892 123.842533  L 298.583876 123.469898  L 312.391915 123.234035  L 333.799727 123.115646  L 396.310538 123.090043  L 413.436788 123.090006  L 413.436788 123.090006  " style="fill:none;stroke:#fd522b;stroke-linecap:square;stroke-width:2;"/>
   </g>
   <g id="patch_7">
    <path d="M 47.72 303.64  L 47.72 14.76  " style="fill:none;stroke:#000000;stroke-linecap:square;stroke-linejoin:miter;stroke-width:0.8;"/>
   </g>
   <g id="patch_8">
    <path d="M 413.08 303.64  L 413.08 14.76  " style="fill:none;stroke:#000000;stroke-linecap:square;stroke-linejoin:miter;stroke-width:0.8;"/>
   </g>
   <g id="patch_9">
    <path d="M 47.72 303.64  L 413.08 303.64  " style="fill:none;stroke:#000000;stroke-linecap:square;stroke-linejoin:miter;stroke-width:0.8;"/>
   </g>
   <g id="patch_10">
    <path d="M 47.72 14.76  L 413.08 14.76  " style="fill:none;stroke:#000000;stroke-linecap:square;stroke-linejoin:miter;stroke-width:0.8;"/>
   </g>
  </g>
 </g>
 <defs>
  <clipPath id="p9cb0c3f3a7">
   <rect height="288.88" width="365.36" x="47.72" y="14.76"/>
  </clipPath>
 </defs>
</g>
    <g transform="translate(10, 300) scale(1) ">
      <g transform="translate(0, 0) scale(3.0) "><defs id="defs831"/>
  <sodipodi:namedview xmlns:sodipodi="http://sodipodi.sourceforge.net/DTD/sodipodi-0.dtd" xmlns:inkscape="http://www.inkscape.org/namespaces/inkscape" id="base" pagecolor="#ffffff" bordercolor="#666666" borderopacity="1.0" inkscape:pageopacity="0.0" inkscape:pageshadow="2" inkscape:zoom="1.979899" inkscape:cx="-12.763683" inkscape:cy="-16.680883" inkscape:document-units="mm" inkscape:current-layer="layer1" showgrid="false" inkscape:window-width="1920" inkscape:window-height="1001" inkscape:window-x="-9" inkscape:window-y="-9" inkscape:window-maximized="1" units="pt"/>
  <metadata xmlns:rdf="http://www.w3.org/1999/02/22-rdf-syntax-ns#" xmlns:cc="http://creativecommons.org/ns#" xmlns:dc="http://purl.org/dc/elements/1.1/" id="metadata834">
    <rdf:RDF>
      <cc:Work rdf:about="">
        <dc:format>image/svg+xml</dc:format>
        <dc:type rdf:resource="http://purl.org/dc/dcmitype/StillImage"/>
        <dc:title/>
      </cc:Work>
    </rdf:RDF>
  </metadata>
  <g xmlns:inkscape="http://www.inkscape.org/namespaces/inkscape" xmlns:sodipodi="http://sodipodi.sourceforge.net/DTD/sodipodi-0.dtd" inkscape:label="Layer 1" inkscape:groupmode="layer" id="layer1" transform="translate(0,-288.81557)">
    <g id="g4761" transform="matrix(0.07377843,0,0,0.07377843,-0.76923022,275.45946)">
      <path inkscape:connector-curvature="0" id="path1959-6-7-1-6-5-4-0-3-2-6-0-3-9-6" style="font-style:normal;font-variant:normal;font-weight:bold;font-stretch:normal;font-size:120.99466705px;line-height:1.25;font-family:Aharoni;-inkscape-font-specification:'Aharoni, Bold';font-variant-ligatures:normal;font-variant-caps:normal;font-variant-numeric:normal;font-feature-settings:normal;text-align:start;letter-spacing:0px;word-spacing:0px;writing-mode:lr-tb;text-anchor:start;fill:#000000;fill-opacity:1;stroke:none;stroke-width:2.37649584" d="M 52.937412,287.55677 H 40.587702 V 265.43005 H 22.776041 v 22.12672 h -12.34982 v -53.17432 h 12.34982 v 20.5296 h 17.811661 v -20.5296 h 12.34971 z"/>
      <path inkscape:connector-curvature="0" id="path1961-2-9-7-9-3-1-6-5-1-5-8-7-8-2" style="font-style:normal;font-variant:normal;font-weight:bold;font-stretch:normal;font-size:120.99466705px;line-height:1.25;font-family:Aharoni;-inkscape-font-specification:'Aharoni, Bold';font-variant-ligatures:normal;font-variant-caps:normal;font-variant-numeric:normal;font-feature-settings:normal;text-align:start;letter-spacing:0px;word-spacing:0px;writing-mode:lr-tb;text-anchor:start;fill:#000000;fill-opacity:1;stroke:none;stroke-width:2.37649584" d="m 69.681125,237.49895 q 0,3.0385 -1.87856,5.1421 -1.84375,2.0647 -4.55721,2.0647 -2.67866,0 -4.55722,-2.1036 -1.84375,-2.1036 -1.84375,-5.1032 0,-2.9996 1.84375,-5.0642 1.87856,-2.1036 4.55722,-2.1036 2.67865,0 4.55721,2.1036 1.87856,2.0646 1.87856,5.0642 z m -0.73057,50.05782 h -11.41048 v -36.15072 h 11.41048 z"/>
      <path inkscape:connector-curvature="0" id="path1963-3-1-2-8-3-6-3-3-3-4-7-6-0-8" style="font-style:normal;font-variant:normal;font-weight:bold;font-stretch:normal;font-size:120.99466705px;line-height:1.25;font-family:Aharoni;-inkscape-font-specification:'Aharoni, Bold';font-variant-ligatures:normal;font-variant-caps:normal;font-variant-numeric:normal;font-feature-settings:normal;text-align:start;letter-spacing:0px;word-spacing:0px;writing-mode:lr-tb;text-anchor:start;fill:#000000;fill-opacity:1;stroke:none;stroke-width:2.37649584" d="m 93.369625,261.92405 h -6.50536 v 25.63272 h -11.4104 v -25.63272 h -3.75712 v -10.518 h 3.75712 v -10.8686 h 11.4104 v 10.8686 h 6.50536 z"/>
      <path id="path1967-3-3-6-2-9-6-2-5-3-0-9-8-2-1" style="font-style:normal;font-variant:normal;font-weight:bold;font-stretch:normal;font-size:120.99466705px;line-height:1.25;font-family:Aharoni;-inkscape-font-specification:'Aharoni, Bold';font-variant-ligatures:normal;font-variant-caps:normal;font-variant-numeric:normal;font-feature-settings:normal;text-align:start;letter-spacing:0px;word-spacing:0px;writing-mode:lr-tb;text-anchor:start;fill:#000000;fill-opacity:1;stroke:none;stroke-width:2.37649584" d="m 160.61447,287.55677 h -12.34971 v -53.17432 h 12.34971 z" inkscape:connector-curvature="0"/>
      <path inkscape:connector-curvature="0" id="path1969-8-0-8-5-3-5-6-6-3-9-8-6-2-0" style="font-style:normal;font-variant:normal;font-weight:bold;font-stretch:normal;font-size:120.99466705px;line-height:1.25;font-family:Aharoni;-inkscape-font-specification:'Aharoni, Bold';font-variant-ligatures:normal;font-variant-caps:normal;font-variant-numeric:normal;font-feature-settings:normal;text-align:start;letter-spacing:0px;word-spacing:0px;writing-mode:lr-tb;text-anchor:start;fill:#000000;fill-opacity:1;stroke:none;stroke-width:2.37649584" d="m 201.6896,284.86883 q -6.05314,2.68794 -11.20172,2.68794 -8.97528,0 -16.07201,-6.42764 -9.04489,-8.21959 -9.04489,-21.42558 0,-13.2448 9.04489,-21.4644 7.09673,-6.4277 16.17636,-6.4277 4.93989,0 11.09737,2.6879 v 16.5561 q -1.73941,-2.3763 -3.54836,-3.5839 -3.30489,-2.2204 -7.09679,-2.2204 -4.8007,0 -8.34907,3.2333 -4.48766,4.0903 -4.48766,11.2191 0,7.0899 4.48766,11.1803 3.54837,3.23328 8.34907,3.23328 3.7919,0 7.09679,-2.22049 1.77415,-1.16869 3.54836,-3.58389 z"/>
      <path inkscape:transform-center-y="-13.656107" inkscape:transform-center-x="-3.9758045" sodipodi:nodetypes="csssssc" inkscape:connector-curvature="0" id="rect815-3-0-9-3-5-6-0-4-03-7-3-7-5-3-2-76-3-8-8-5-3-7-8-0-1-3-7-9-2-8-1" d="m 104.61223,181.4353 c 0,0 17.68257,27.27493 22.63096,34.41579 7.92879,11.44185 16.42741,30.36094 17.92806,45.50275 1.21005,12.20999 -1.38345,26.51285 -17.32077,30.11208 -11.70405,2.64313 -26.75007,-5.41371 -30.334975,-20.50903 -3.30533,-13.91816 -2.13088,-34.61412 0.0984,-48.67354 1.22049,-7.69719 5.657305,-36.06774 6.998335,-40.84805 z" style="font-style:normal;font-weight:normal;font-size:242.08590698px;line-height:1.25;font-family:sans-serif;letter-spacing:0px;word-spacing:0px;opacity:1;fill:#00456b;fill-opacity:1;stroke:none;stroke-width:0.6720385;stroke-miterlimit:4;stroke-dasharray:none;stroke-dashoffset:0;stroke-opacity:1;paint-order:markers fill stroke"/>
      <path sodipodi:nodetypes="ccscscsccscccscc" d="m 107.52748,246.32531 6.45576,30.78617 6.82019,-1.47997 c 5.75791,-1.24946 9.70999,-3.40081 11.85576,-6.45394 2.16431,-3.05721 2.68673,-7.25521 1.56721,-12.59398 -1.11209,-5.30332 -3.26743,-8.89247 -6.46601,-10.76744 -3.18372,-1.89669 -7.65528,-2.22015 -13.4127,-0.97081 z m -8.759905,-5.09591 12.713095,-2.78742 c 8.8634,-1.94336 15.73718,-1.59097 20.62135,1.05715 4.88003,2.62843 8.10326,7.71587 9.6697,15.26232 1.57464,7.58584 0.64804,13.61405 -2.77981,18.08462 -3.42783,4.4705 -9.55303,7.67294 -18.37559,9.60735 l -12.71311,2.78742 z" style="font-style:normal;font-weight:normal;font-size:242.08590698px;line-height:1.25;font-family:sans-serif;letter-spacing:0px;word-spacing:0px;fill:#ffffff;fill-opacity:1;stroke:none;stroke-width:1.60286868" id="path1193-3-5-3-2-7-4-5-6-0-0-6-9-2-4-7-0-0" inkscape:connector-curvature="0"/>
    </g>
  </g>
</g>
    </g>
  </g>
</svg>
