<?xml version='1.0' encoding='ASCII' standalone='yes'?>
<svg xmlns:xlink="http://www.w3.org/1999/xlink" xmlns="http://www.w3.org/2000/svg" version="1.1" width="460.8px" viewBox="0 0 460.8px 345.6px" height="345.6px">
  <g>
    <g><defs>
  <style type="text/css">
*{stroke-linecap:butt;stroke-linejoin:round;}
  </style>
 </defs>
 <g id="figure_1">
  <g id="patch_1">
   <path d="M 0 345.6  L 460.8 345.6  L 460.8 0  L 0 0  z " style="fill:#ffffff;"/>
  </g>
  <g id="axes_1">
   <g id="patch_2">
    <path d="M 56.09 303.64  L 413.08 303.64  L 413.08 14.76  L 56.09 14.76  z " style="fill:#ffffff;"/>
   </g>
   <g id="matplotlib.axis_1">
    <g id="xtick_1">
     <g id="line2d_1">
      <defs>
       <path d="M 0 0  L 0 3.5  " id="m96044e2887" style="stroke:#000000;stroke-width:0.8;"/>
      </defs>
      <g>
       <use style="stroke:#000000;stroke-width:0.8;" x="56.09" xlink:href="#m96044e2887" y="303.64"/>
      </g>
     </g>
     <g id="text_1">
      <!-- 0 -->
      <defs>
       <path d="M 31.78125 66.40625  Q 24.171875 66.40625 20.328125 58.90625  Q 16.5 51.421875 16.5 36.375  Q 16.5 21.390625 20.328125 13.890625  Q 24.171875 6.390625 31.78125 6.390625  Q 39.453125 6.390625 43.28125 13.890625  Q 47.125 21.390625 47.125 36.375  Q 47.125 51.421875 43.28125 58.90625  Q 39.453125 66.40625 31.78125 66.40625  z M 31.78125 74.21875  Q 44.046875 74.21875 50.515625 64.515625  Q 56.984375 54.828125 56.984375 36.375  Q 56.984375 17.96875 50.515625 8.265625  Q 44.046875 -1.421875 31.78125 -1.421875  Q 19.53125 -1.421875 13.0625 8.265625  Q 6.59375 17.96875 6.59375 36.375  Q 6.59375 54.828125 13.0625 64.515625  Q 19.53125 74.21875 31.78125 74.21875  z " id="DejaVuSans-30"/>
      </defs>
      <g transform="translate(52.90875 318.238437)scale(0.1 -0.1)">
       <use xlink:href="#DejaVuSans-30"/>
      </g>
     </g>
    </g>
    <g id="xtick_2">
     <g id="line2d_2">
      <g>
       <use style="stroke:#000000;stroke-width:0.8;" x="100.71375" xlink:href="#m96044e2887" y="303.64"/>
      </g>
     </g>
     <g id="text_2">
      <!-- 25 -->
      <defs>
       <path d="M 19.1875 8.296875  L 53.609375 8.296875  L 53.609375 0  L 7.328125 0  L 7.328125 8.296875  Q 12.9375 14.109375 22.625 23.890625  Q 32.328125 33.6875 34.8125 36.53125  Q 39.546875 41.84375 41.421875 45.53125  Q 43.3125 49.21875 43.3125 52.78125  Q 43.3125 58.59375 39.234375 62.25  Q 35.15625 65.921875 28.609375 65.921875  Q 23.96875 65.921875 18.8125 64.3125  Q 13.671875 62.703125 7.8125 59.421875  L 7.8125 69.390625  Q 13.765625 71.78125 18.9375 73  Q 24.125 74.21875 28.421875 74.21875  Q 39.75 74.21875 46.484375 68.546875  Q 53.21875 62.890625 53.21875 53.421875  Q 53.21875 48.921875 51.53125 44.890625  Q 49.859375 40.875 45.40625 35.40625  Q 44.1875 33.984375 37.640625 27.21875  Q 31.109375 20.453125 19.1875 8.296875  z " id="DejaVuSans-32"/>
       <path d="M 10.796875 72.90625  L 49.515625 72.90625  L 49.515625 64.59375  L 19.828125 64.59375  L 19.828125 46.734375  Q 21.96875 47.46875 24.109375 47.828125  Q 26.265625 48.1875 28.421875 48.1875  Q 40.625 48.1875 47.75 41.5  Q 54.890625 34.8125 54.890625 23.390625  Q 54.890625 11.625 47.5625 5.09375  Q 40.234375 -1.421875 26.90625 -1.421875  Q 22.3125 -1.421875 17.546875 -0.640625  Q 12.796875 0.140625 7.71875 1.703125  L 7.71875 11.625  Q 12.109375 9.234375 16.796875 8.0625  Q 21.484375 6.890625 26.703125 6.890625  Q 35.15625 6.890625 40.078125 11.328125  Q 45.015625 15.765625 45.015625 23.390625  Q 45.015625 31 40.078125 35.4375  Q 35.15625 39.890625 26.703125 39.890625  Q 22.75 39.890625 18.8125 39.015625  Q 14.890625 38.140625 10.796875 36.28125  z " id="DejaVuSans-35"/>
      </defs>
      <g transform="translate(94.35125 318.238437)scale(0.1 -0.1)">
       <use xlink:href="#DejaVuSans-32"/>
       <use x="63.623047" xlink:href="#DejaVuSans-35"/>
      </g>
     </g>
    </g>
    <g id="xtick_3">
     <g id="line2d_3">
      <g>
       <use style="stroke:#000000;stroke-width:0.8;" x="145.3375" xlink:href="#m96044e2887" y="303.64"/>
      </g>
     </g>
     <g id="text_3">
      <!-- 50 -->
      <g transform="translate(138.975 318.238437)scale(0.1 -0.1)">
       <use xlink:href="#DejaVuSans-35"/>
       <use x="63.623047" xlink:href="#DejaVuSans-30"/>
      </g>
     </g>
    </g>
    <g id="xtick_4">
     <g id="line2d_4">
      <g>
       <use style="stroke:#000000;stroke-width:0.8;" x="189.96125" xlink:href="#m96044e2887" y="303.64"/>
      </g>
     </g>
     <g id="text_4">
      <!-- 75 -->
      <defs>
       <path d="M 8.203125 72.90625  L 55.078125 72.90625  L 55.078125 68.703125  L 28.609375 0  L 18.3125 0  L 43.21875 64.59375  L 8.203125 64.59375  z " id="DejaVuSans-37"/>
      </defs>
      <g transform="translate(183.59875 318.238437)scale(0.1 -0.1)">
       <use xlink:href="#DejaVuSans-37"/>
       <use x="63.623047" xlink:href="#DejaVuSans-35"/>
      </g>
     </g>
    </g>
    <g id="xtick_5">
     <g id="line2d_5">
      <g>
       <use style="stroke:#000000;stroke-width:0.8;" x="234.585" xlink:href="#m96044e2887" y="303.64"/>
      </g>
     </g>
     <g id="text_5">
      <!-- 100 -->
      <defs>
       <path d="M 12.40625 8.296875  L 28.515625 8.296875  L 28.515625 63.921875  L 10.984375 60.40625  L 10.984375 69.390625  L 28.421875 72.90625  L 38.28125 72.90625  L 38.28125 8.296875  L 54.390625 8.296875  L 54.390625 0  L 12.40625 0  z " id="DejaVuSans-31"/>
      </defs>
      <g transform="translate(225.04125 318.238437)scale(0.1 -0.1)">
       <use xlink:href="#DejaVuSans-31"/>
       <use x="63.623047" xlink:href="#DejaVuSans-30"/>
       <use x="127.246094" xlink:href="#DejaVuSans-30"/>
      </g>
     </g>
    </g>
    <g id="xtick_6">
     <g id="line2d_6">
      <g>
       <use style="stroke:#000000;stroke-width:0.8;" x="279.20875" xlink:href="#m96044e2887" y="303.64"/>
      </g>
     </g>
     <g id="text_6">
      <!-- 125 -->
      <g transform="translate(269.665 318.238437)scale(0.1 -0.1)">
       <use xlink:href="#DejaVuSans-31"/>
       <use x="63.623047" xlink:href="#DejaVuSans-32"/>
       <use x="127.246094" xlink:href="#DejaVuSans-35"/>
      </g>
     </g>
    </g>
    <g id="xtick_7">
     <g id="line2d_7">
      <g>
       <use style="stroke:#000000;stroke-width:0.8;" x="323.8325" xlink:href="#m96044e2887" y="303.64"/>
      </g>
     </g>
     <g id="text_7">
      <!-- 150 -->
      <g transform="translate(314.28875 318.238437)scale(0.1 -0.1)">
       <use xlink:href="#DejaVuSans-31"/>
       <use x="63.623047" xlink:href="#DejaVuSans-35"/>
       <use x="127.246094" xlink:href="#DejaVuSans-30"/>
      </g>
     </g>
    </g>
    <g id="xtick_8">
     <g id="line2d_8">
      <g>
       <use style="stroke:#000000;stroke-width:0.8;" x="368.45625" xlink:href="#m96044e2887" y="303.64"/>
      </g>
     </g>
     <g id="text_8">
      <!-- 175 -->
      <g transform="translate(358.9125 318.238437)scale(0.1 -0.1)">
       <use xlink:href="#DejaVuSans-31"/>
       <use x="63.623047" xlink:href="#DejaVuSans-37"/>
       <use x="127.246094" xlink:href="#DejaVuSans-35"/>
      </g>
     </g>
    </g>
    <g id="xtick_9">
     <g id="line2d_9">
      <g>
       <use style="stroke:#000000;stroke-width:0.8;" x="413.08" xlink:href="#m96044e2887" y="303.64"/>
      </g>
     </g>
     <g id="text_9">
      <!-- 200 -->
      <g transform="translate(403.53625 318.238437)scale(0.1 -0.1)">
       <use xlink:href="#DejaVuSans-32"/>
       <use x="63.623047" xlink:href="#DejaVuSans-30"/>
       <use x="127.246094" xlink:href="#DejaVuSans-30"/>
      </g>
     </g>
    </g>
    <g id="text_10">
     <!-- Distance (&#181;m) -->
     <defs>
      <path d="M 19.671875 64.796875  L 19.671875 8.109375  L 31.59375 8.109375  Q 46.6875 8.109375 53.6875 14.9375  Q 60.6875 21.78125 60.6875 36.53125  Q 60.6875 51.171875 53.6875 57.984375  Q 46.6875 64.796875 31.59375 64.796875  z M 9.8125 72.90625  L 30.078125 72.90625  Q 51.265625 72.90625 61.171875 64.09375  Q 71.09375 55.28125 71.09375 36.53125  Q 71.09375 17.671875 61.125 8.828125  Q 51.171875 0 30.078125 0  L 9.8125 0  z " id="DejaVuSans-44"/>
      <path d="M 9.421875 54.6875  L 18.40625 54.6875  L 18.40625 0  L 9.421875 0  z M 9.421875 75.984375  L 18.40625 75.984375  L 18.40625 64.59375  L 9.421875 64.59375  z " id="DejaVuSans-69"/>
      <path d="M 44.28125 53.078125  L 44.28125 44.578125  Q 40.484375 46.53125 36.375 47.5  Q 32.28125 48.484375 27.875 48.484375  Q 21.1875 48.484375 17.84375 46.4375  Q 14.5 44.390625 14.5 40.28125  Q 14.5 37.15625 16.890625 35.375  Q 19.28125 33.59375 26.515625 31.984375  L 29.59375 31.296875  Q 39.15625 29.25 43.1875 25.515625  Q 47.21875 21.78125 47.21875 15.09375  Q 47.21875 7.46875 41.1875 3.015625  Q 35.15625 -1.421875 24.609375 -1.421875  Q 20.21875 -1.421875 15.453125 -0.5625  Q 10.6875 0.296875 5.421875 2  L 5.421875 11.28125  Q 10.40625 8.6875 15.234375 7.390625  Q 20.0625 6.109375 24.8125 6.109375  Q 31.15625 6.109375 34.5625 8.28125  Q 37.984375 10.453125 37.984375 14.40625  Q 37.984375 18.0625 35.515625 20.015625  Q 33.0625 21.96875 24.703125 23.78125  L 21.578125 24.515625  Q 13.234375 26.265625 9.515625 29.90625  Q 5.8125 33.546875 5.8125 39.890625  Q 5.8125 47.609375 11.28125 51.796875  Q 16.75 56 26.8125 56  Q 31.78125 56 36.171875 55.265625  Q 40.578125 54.546875 44.28125 53.078125  z " id="DejaVuSans-73"/>
      <path d="M 18.3125 70.21875  L 18.3125 54.6875  L 36.8125 54.6875  L 36.8125 47.703125  L 18.3125 47.703125  L 18.3125 18.015625  Q 18.3125 11.328125 20.140625 9.421875  Q 21.96875 7.515625 27.59375 7.515625  L 36.8125 7.515625  L 36.8125 0  L 27.59375 0  Q 17.1875 0 13.234375 3.875  Q 9.28125 7.765625 9.28125 18.015625  L 9.28125 47.703125  L 2.6875 47.703125  L 2.6875 54.6875  L 9.28125 54.6875  L 9.28125 70.21875  z " id="DejaVuSans-74"/>
      <path d="M 34.28125 27.484375  Q 23.390625 27.484375 19.1875 25  Q 14.984375 22.515625 14.984375 16.5  Q 14.984375 11.71875 18.140625 8.90625  Q 21.296875 6.109375 26.703125 6.109375  Q 34.1875 6.109375 38.703125 11.40625  Q 43.21875 16.703125 43.21875 25.484375  L 43.21875 27.484375  z M 52.203125 31.203125  L 52.203125 0  L 43.21875 0  L 43.21875 8.296875  Q 40.140625 3.328125 35.546875 0.953125  Q 30.953125 -1.421875 24.3125 -1.421875  Q 15.921875 -1.421875 10.953125 3.296875  Q 6 8.015625 6 15.921875  Q 6 25.140625 12.171875 29.828125  Q 18.359375 34.515625 30.609375 34.515625  L 43.21875 34.515625  L 43.21875 35.40625  Q 43.21875 41.609375 39.140625 45  Q 35.0625 48.390625 27.6875 48.390625  Q 23 48.390625 18.546875 47.265625  Q 14.109375 46.140625 10.015625 43.890625  L 10.015625 52.203125  Q 14.9375 54.109375 19.578125 55.046875  Q 24.21875 56 28.609375 56  Q 40.484375 56 46.34375 49.84375  Q 52.203125 43.703125 52.203125 31.203125  z " id="DejaVuSans-61"/>
      <path d="M 54.890625 33.015625  L 54.890625 0  L 45.90625 0  L 45.90625 32.71875  Q 45.90625 40.484375 42.875 44.328125  Q 39.84375 48.1875 33.796875 48.1875  Q 26.515625 48.1875 22.3125 43.546875  Q 18.109375 38.921875 18.109375 30.90625  L 18.109375 0  L 9.078125 0  L 9.078125 54.6875  L 18.109375 54.6875  L 18.109375 46.1875  Q 21.34375 51.125 25.703125 53.5625  Q 30.078125 56 35.796875 56  Q 45.21875 56 50.046875 50.171875  Q 54.890625 44.34375 54.890625 33.015625  z " id="DejaVuSans-6e"/>
      <path d="M 48.78125 52.59375  L 48.78125 44.1875  Q 44.96875 46.296875 41.140625 47.34375  Q 37.3125 48.390625 33.40625 48.390625  Q 24.65625 48.390625 19.8125 42.84375  Q 14.984375 37.3125 14.984375 27.296875  Q 14.984375 17.28125 19.8125 11.734375  Q 24.65625 6.203125 33.40625 6.203125  Q 37.3125 6.203125 41.140625 7.25  Q 44.96875 8.296875 48.78125 10.40625  L 48.78125 2.09375  Q 45.015625 0.34375 40.984375 -0.53125  Q 36.96875 -1.421875 32.421875 -1.421875  Q 20.0625 -1.421875 12.78125 6.34375  Q 5.515625 14.109375 5.515625 27.296875  Q 5.515625 40.671875 12.859375 48.328125  Q 20.21875 56 33.015625 56  Q 37.15625 56 41.109375 55.140625  Q 45.0625 54.296875 48.78125 52.59375  z " id="DejaVuSans-63"/>
      <path d="M 56.203125 29.59375  L 56.203125 25.203125  L 14.890625 25.203125  Q 15.484375 15.921875 20.484375 11.0625  Q 25.484375 6.203125 34.421875 6.203125  Q 39.59375 6.203125 44.453125 7.46875  Q 49.3125 8.734375 54.109375 11.28125  L 54.109375 2.78125  Q 49.265625 0.734375 44.1875 -0.34375  Q 39.109375 -1.421875 33.890625 -1.421875  Q 20.796875 -1.421875 13.15625 6.1875  Q 5.515625 13.8125 5.515625 26.8125  Q 5.515625 40.234375 12.765625 48.109375  Q 20.015625 56 32.328125 56  Q 43.359375 56 49.78125 48.890625  Q 56.203125 41.796875 56.203125 29.59375  z M 47.21875 32.234375  Q 47.125 39.59375 43.09375 43.984375  Q 39.0625 48.390625 32.421875 48.390625  Q 24.90625 48.390625 20.390625 44.140625  Q 15.875 39.890625 15.1875 32.171875  z " id="DejaVuSans-65"/>
      <path id="DejaVuSans-20"/>
      <path d="M 31 75.875  Q 24.46875 64.65625 21.28125 53.65625  Q 18.109375 42.671875 18.109375 31.390625  Q 18.109375 20.125 21.3125 9.0625  Q 24.515625 -2 31 -13.1875  L 23.1875 -13.1875  Q 15.875 -1.703125 12.234375 9.375  Q 8.59375 20.453125 8.59375 31.390625  Q 8.59375 42.28125 12.203125 53.3125  Q 15.828125 64.359375 23.1875 75.875  z " id="DejaVuSans-28"/>
      <path d="M 8.5 -20.796875  L 8.5 54.6875  L 17.484375 54.6875  L 17.484375 20.703125  Q 17.484375 13.625 20.84375 10  Q 24.21875 6.390625 30.8125 6.390625  Q 38.03125 6.390625 41.671875 10.484375  Q 45.3125 14.59375 45.3125 22.796875  L 45.3125 54.6875  L 54.296875 54.6875  L 54.296875 12.59375  Q 54.296875 9.671875 55.140625 8.28125  Q 56 6.890625 57.8125 6.890625  Q 58.25 6.890625 59.03125 7.15625  Q 59.8125 7.421875 61.1875 8.015625  L 61.1875 0.78125  Q 59.1875 -0.34375 57.390625 -0.875  Q 55.609375 -1.421875 53.90625 -1.421875  Q 50.53125 -1.421875 48.53125 0.484375  Q 46.53125 2.390625 45.796875 6.296875  Q 43.359375 2.4375 39.8125 0.5  Q 36.28125 -1.421875 31.5 -1.421875  Q 26.515625 -1.421875 23.015625 0.484375  Q 19.53125 2.390625 17.484375 6.203125  L 17.484375 -20.796875  z " id="DejaVuSans-b5"/>
      <path d="M 52 44.1875  Q 55.375 50.25 60.0625 53.125  Q 64.75 56 71.09375 56  Q 79.640625 56 84.28125 50.015625  Q 88.921875 44.046875 88.921875 33.015625  L 88.921875 0  L 79.890625 0  L 79.890625 32.71875  Q 79.890625 40.578125 77.09375 44.375  Q 74.3125 48.1875 68.609375 48.1875  Q 61.625 48.1875 57.5625 43.546875  Q 53.515625 38.921875 53.515625 30.90625  L 53.515625 0  L 44.484375 0  L 44.484375 32.71875  Q 44.484375 40.625 41.703125 44.40625  Q 38.921875 48.1875 33.109375 48.1875  Q 26.21875 48.1875 22.15625 43.53125  Q 18.109375 38.875 18.109375 30.90625  L 18.109375 0  L 9.078125 0  L 9.078125 54.6875  L 18.109375 54.6875  L 18.109375 46.1875  Q 21.1875 51.21875 25.484375 53.609375  Q 29.78125 56 35.6875 56  Q 41.65625 56 45.828125 52.96875  Q 50 49.953125 52 44.1875  z " id="DejaVuSans-6d"/>
      <path d="M 8.015625 75.875  L 15.828125 75.875  Q 23.140625 64.359375 26.78125 53.3125  Q 30.421875 42.28125 30.421875 31.390625  Q 30.421875 20.453125 26.78125 9.375  Q 23.140625 -1.703125 15.828125 -13.1875  L 8.015625 -13.1875  Q 14.5 -2 17.703125 9.0625  Q 20.90625 20.125 20.90625 31.390625  Q 20.90625 42.671875 17.703125 53.65625  Q 14.5 64.65625 8.015625 75.875  z " id="DejaVuSans-29"/>
     </defs>
     <g transform="translate(199.180313 331.916562)scale(0.1 -0.1)">
      <use xlink:href="#DejaVuSans-44"/>
      <use x="77.001953" xlink:href="#DejaVuSans-69"/>
      <use x="104.785156" xlink:href="#DejaVuSans-73"/>
      <use x="156.884766" xlink:href="#DejaVuSans-74"/>
      <use x="196.09375" xlink:href="#DejaVuSans-61"/>
      <use x="257.373047" xlink:href="#DejaVuSans-6e"/>
      <use x="320.751953" xlink:href="#DejaVuSans-63"/>
      <use x="375.732422" xlink:href="#DejaVuSans-65"/>
      <use x="437.255859" xlink:href="#DejaVuSans-20"/>
      <use x="469.042969" xlink:href="#DejaVuSans-28"/>
      <use x="508.056641" xlink:href="#DejaVuSans-b5"/>
      <use x="571.679688" xlink:href="#DejaVuSans-6d"/>
      <use x="669.091797" xlink:href="#DejaVuSans-29"/>
     </g>
    </g>
   </g>
   <g id="matplotlib.axis_2">
    <g id="ytick_1">
     <g id="line2d_10">
      <defs>
       <path d="M 0 0  L -3.5 0  " id="mb26bbc7d3e" style="stroke:#000000;stroke-width:0.8;"/>
      </defs>
      <g>
       <use style="stroke:#000000;stroke-width:0.8;" x="56.09" xlink:href="#mb26bbc7d3e" y="295.166134"/>
      </g>
     </g>
     <g id="text_11">
      <!-- &#8722;2.5 -->
      <defs>
       <path d="M 10.59375 35.5  L 73.1875 35.5  L 73.1875 27.203125  L 10.59375 27.203125  z " id="DejaVuSans-2212"/>
       <path d="M 10.6875 12.40625  L 21 12.40625  L 21 0  L 10.6875 0  z " id="DejaVuSans-2e"/>
      </defs>
      <g transform="translate(24.807188 298.965352)scale(0.1 -0.1)">
       <use xlink:href="#DejaVuSans-2212"/>
       <use x="83.789062" xlink:href="#DejaVuSans-32"/>
       <use x="147.412109" xlink:href="#DejaVuSans-2e"/>
       <use x="179.199219" xlink:href="#DejaVuSans-35"/>
      </g>
     </g>
    </g>
    <g id="ytick_2">
     <g id="line2d_11">
      <g>
       <use style="stroke:#000000;stroke-width:0.8;" x="56.09" xlink:href="#mb26bbc7d3e" y="260.657273"/>
      </g>
     </g>
     <g id="text_12">
      <!-- 0.0 -->
      <g transform="translate(33.186875 264.456491)scale(0.1 -0.1)">
       <use xlink:href="#DejaVuSans-30"/>
       <use x="63.623047" xlink:href="#DejaVuSans-2e"/>
       <use x="95.410156" xlink:href="#DejaVuSans-30"/>
      </g>
     </g>
    </g>
    <g id="ytick_3">
     <g id="line2d_12">
      <g>
       <use style="stroke:#000000;stroke-width:0.8;" x="56.09" xlink:href="#mb26bbc7d3e" y="226.148412"/>
      </g>
     </g>
     <g id="text_13">
      <!-- 2.5 -->
      <g transform="translate(33.186875 229.94763)scale(0.1 -0.1)">
       <use xlink:href="#DejaVuSans-32"/>
       <use x="63.623047" xlink:href="#DejaVuSans-2e"/>
       <use x="95.410156" xlink:href="#DejaVuSans-35"/>
      </g>
     </g>
    </g>
    <g id="ytick_4">
     <g id="line2d_13">
      <g>
       <use style="stroke:#000000;stroke-width:0.8;" x="56.09" xlink:href="#mb26bbc7d3e" y="191.63955"/>
      </g>
     </g>
     <g id="text_14">
      <!-- 5.0 -->
      <g transform="translate(33.186875 195.438769)scale(0.1 -0.1)">
       <use xlink:href="#DejaVuSans-35"/>
       <use x="63.623047" xlink:href="#DejaVuSans-2e"/>
       <use x="95.410156" xlink:href="#DejaVuSans-30"/>
      </g>
     </g>
    </g>
    <g id="ytick_5">
     <g id="line2d_14">
      <g>
       <use style="stroke:#000000;stroke-width:0.8;" x="56.09" xlink:href="#mb26bbc7d3e" y="157.130689"/>
      </g>
     </g>
     <g id="text_15">
      <!-- 7.5 -->
      <g transform="translate(33.186875 160.929908)scale(0.1 -0.1)">
       <use xlink:href="#DejaVuSans-37"/>
       <use x="63.623047" xlink:href="#DejaVuSans-2e"/>
       <use x="95.410156" xlink:href="#DejaVuSans-35"/>
      </g>
     </g>
    </g>
    <g id="ytick_6">
     <g id="line2d_15">
      <g>
       <use style="stroke:#000000;stroke-width:0.8;" x="56.09" xlink:href="#mb26bbc7d3e" y="122.621828"/>
      </g>
     </g>
     <g id="text_16">
      <!-- 10.0 -->
      <g transform="translate(26.824375 126.421047)scale(0.1 -0.1)">
       <use xlink:href="#DejaVuSans-31"/>
       <use x="63.623047" xlink:href="#DejaVuSans-30"/>
       <use x="127.246094" xlink:href="#DejaVuSans-2e"/>
       <use x="159.033203" xlink:href="#DejaVuSans-30"/>
      </g>
     </g>
    </g>
    <g id="ytick_7">
     <g id="line2d_16">
      <g>
       <use style="stroke:#000000;stroke-width:0.8;" x="56.09" xlink:href="#mb26bbc7d3e" y="88.112967"/>
      </g>
     </g>
     <g id="text_17">
      <!-- 12.5 -->
      <g transform="translate(26.824375 91.912186)scale(0.1 -0.1)">
       <use xlink:href="#DejaVuSans-31"/>
       <use x="63.623047" xlink:href="#DejaVuSans-32"/>
       <use x="127.246094" xlink:href="#DejaVuSans-2e"/>
       <use x="159.033203" xlink:href="#DejaVuSans-35"/>
      </g>
     </g>
    </g>
    <g id="ytick_8">
     <g id="line2d_17">
      <g>
       <use style="stroke:#000000;stroke-width:0.8;" x="56.09" xlink:href="#mb26bbc7d3e" y="53.604106"/>
      </g>
     </g>
     <g id="text_18">
      <!-- 15.0 -->
      <g transform="translate(26.824375 57.403325)scale(0.1 -0.1)">
       <use xlink:href="#DejaVuSans-31"/>
       <use x="63.623047" xlink:href="#DejaVuSans-35"/>
       <use x="127.246094" xlink:href="#DejaVuSans-2e"/>
       <use x="159.033203" xlink:href="#DejaVuSans-30"/>
      </g>
     </g>
    </g>
    <g id="ytick_9">
     <g id="line2d_18">
      <g>
       <use style="stroke:#000000;stroke-width:0.8;" x="56.09" xlink:href="#mb26bbc7d3e" y="19.095245"/>
      </g>
     </g>
     <g id="text_19">
      <!-- 17.5 -->
      <g transform="translate(26.824375 22.894464)scale(0.1 -0.1)">
       <use xlink:href="#DejaVuSans-31"/>
       <use x="63.623047" xlink:href="#DejaVuSans-37"/>
       <use x="127.246094" xlink:href="#DejaVuSans-2e"/>
       <use x="159.033203" xlink:href="#DejaVuSans-35"/>
      </g>
     </g>
    </g>
    <g id="text_20">
     <!-- Mole Fraction (AL,MG) -->
     <defs>
      <path d="M 9.8125 72.90625  L 24.515625 72.90625  L 43.109375 23.296875  L 61.8125 72.90625  L 76.515625 72.90625  L 76.515625 0  L 66.890625 0  L 66.890625 64.015625  L 48.09375 14.015625  L 38.1875 14.015625  L 19.390625 64.015625  L 19.390625 0  L 9.8125 0  z " id="DejaVuSans-4d"/>
      <path d="M 30.609375 48.390625  Q 23.390625 48.390625 19.1875 42.75  Q 14.984375 37.109375 14.984375 27.296875  Q 14.984375 17.484375 19.15625 11.84375  Q 23.34375 6.203125 30.609375 6.203125  Q 37.796875 6.203125 41.984375 11.859375  Q 46.1875 17.53125 46.1875 27.296875  Q 46.1875 37.015625 41.984375 42.703125  Q 37.796875 48.390625 30.609375 48.390625  z M 30.609375 56  Q 42.328125 56 49.015625 48.375  Q 55.71875 40.765625 55.71875 27.296875  Q 55.71875 13.875 49.015625 6.21875  Q 42.328125 -1.421875 30.609375 -1.421875  Q 18.84375 -1.421875 12.171875 6.21875  Q 5.515625 13.875 5.515625 27.296875  Q 5.515625 40.765625 12.171875 48.375  Q 18.84375 56 30.609375 56  z " id="DejaVuSans-6f"/>
      <path d="M 9.421875 75.984375  L 18.40625 75.984375  L 18.40625 0  L 9.421875 0  z " id="DejaVuSans-6c"/>
      <path d="M 9.8125 72.90625  L 51.703125 72.90625  L 51.703125 64.59375  L 19.671875 64.59375  L 19.671875 43.109375  L 48.578125 43.109375  L 48.578125 34.8125  L 19.671875 34.8125  L 19.671875 0  L 9.8125 0  z " id="DejaVuSans-46"/>
      <path d="M 41.109375 46.296875  Q 39.59375 47.171875 37.8125 47.578125  Q 36.03125 48 33.890625 48  Q 26.265625 48 22.1875 43.046875  Q 18.109375 38.09375 18.109375 28.8125  L 18.109375 0  L 9.078125 0  L 9.078125 54.6875  L 18.109375 54.6875  L 18.109375 46.1875  Q 20.953125 51.171875 25.484375 53.578125  Q 30.03125 56 36.53125 56  Q 37.453125 56 38.578125 55.875  Q 39.703125 55.765625 41.0625 55.515625  z " id="DejaVuSans-72"/>
      <path d="M 34.1875 63.1875  L 20.796875 26.90625  L 47.609375 26.90625  z M 28.609375 72.90625  L 39.796875 72.90625  L 67.578125 0  L 57.328125 0  L 50.6875 18.703125  L 17.828125 18.703125  L 11.1875 0  L 0.78125 0  z " id="DejaVuSans-41"/>
      <path d="M 9.8125 72.90625  L 19.671875 72.90625  L 19.671875 8.296875  L 55.171875 8.296875  L 55.171875 0  L 9.8125 0  z " id="DejaVuSans-4c"/>
      <path d="M 11.71875 12.40625  L 22.015625 12.40625  L 22.015625 4  L 14.015625 -11.625  L 7.71875 -11.625  L 11.71875 4  z " id="DejaVuSans-2c"/>
      <path d="M 59.515625 10.40625  L 59.515625 29.984375  L 43.40625 29.984375  L 43.40625 38.09375  L 69.28125 38.09375  L 69.28125 6.78125  Q 63.578125 2.734375 56.6875 0.65625  Q 49.8125 -1.421875 42 -1.421875  Q 24.90625 -1.421875 15.25 8.5625  Q 5.609375 18.5625 5.609375 36.375  Q 5.609375 54.25 15.25 64.234375  Q 24.90625 74.21875 42 74.21875  Q 49.125 74.21875 55.546875 72.453125  Q 61.96875 70.703125 67.390625 67.28125  L 67.390625 56.78125  Q 61.921875 61.421875 55.765625 63.765625  Q 49.609375 66.109375 42.828125 66.109375  Q 29.4375 66.109375 22.71875 58.640625  Q 16.015625 51.171875 16.015625 36.375  Q 16.015625 21.625 22.71875 14.15625  Q 29.4375 6.6875 42.828125 6.6875  Q 48.046875 6.6875 52.140625 7.59375  Q 56.25 8.5 59.515625 10.40625  z " id="DejaVuSans-47"/>
     </defs>
     <g transform="translate(18.7275 214.41875)rotate(-90)scale(0.1 -0.1)">
      <use xlink:href="#DejaVuSans-4d"/>
      <use x="86.279297" xlink:href="#DejaVuSans-6f"/>
      <use x="147.460938" xlink:href="#DejaVuSans-6c"/>
      <use x="175.244141" xlink:href="#DejaVuSans-65"/>
      <use x="236.767578" xlink:href="#DejaVuSans-20"/>
      <use x="268.554688" xlink:href="#DejaVuSans-46"/>
      <use x="325.964844" xlink:href="#DejaVuSans-72"/>
      <use x="367.078125" xlink:href="#DejaVuSans-61"/>
      <use x="428.357422" xlink:href="#DejaVuSans-63"/>
      <use x="483.337891" xlink:href="#DejaVuSans-74"/>
      <use x="522.546875" xlink:href="#DejaVuSans-69"/>
      <use x="550.330078" xlink:href="#DejaVuSans-6f"/>
      <use x="611.511719" xlink:href="#DejaVuSans-6e"/>
      <use x="674.890625" xlink:href="#DejaVuSans-20"/>
      <use x="706.677734" xlink:href="#DejaVuSans-28"/>
      <use x="745.691406" xlink:href="#DejaVuSans-41"/>
      <use x="814.099609" xlink:href="#DejaVuSans-4c"/>
      <use x="869.8125" xlink:href="#DejaVuSans-2c"/>
      <use x="901.599609" xlink:href="#DejaVuSans-4d"/>
      <use x="987.878906" xlink:href="#DejaVuSans-47"/>
      <use x="1065.369141" xlink:href="#DejaVuSans-29"/>
     </g>
    </g>
   </g>
   <g id="line2d_19">
    <defs>
     <path d="M -0 3  L 3 -3  L -3 -3  z " id="m55bcce33fd" style="stroke:#f13a13;stroke-linejoin:miter;"/>
    </defs>
    <g clip-path="url(#pef1c40e534)">
     <use style="fill:#f13a13;stroke:#f13a13;stroke-linejoin:miter;" x="55.741377" xlink:href="#m55bcce33fd" y="246.864982"/>
     <use style="fill:#f13a13;stroke:#f13a13;stroke-linejoin:miter;" x="60.269064" xlink:href="#m55bcce33fd" y="246.839994"/>
     <use style="fill:#f13a13;stroke:#f13a13;stroke-linejoin:miter;" x="64.79675" xlink:href="#m55bcce33fd" y="246.860293"/>
     <use style="fill:#f13a13;stroke:#f13a13;stroke-linejoin:miter;" x="69.324437" xlink:href="#m55bcce33fd" y="246.85573"/>
     <use style="fill:#f13a13;stroke:#f13a13;stroke-linejoin:miter;" x="73.852123" xlink:href="#m55bcce33fd" y="246.864455"/>
     <use style="fill:#f13a13;stroke:#f13a13;stroke-linejoin:miter;" x="78.379813" xlink:href="#m55bcce33fd" y="246.844231"/>
     <use style="fill:#f13a13;stroke:#f13a13;stroke-linejoin:miter;" x="82.907499" xlink:href="#m55bcce33fd" y="246.847158"/>
     <use style="fill:#f13a13;stroke:#f13a13;stroke-linejoin:miter;" x="87.435186" xlink:href="#m55bcce33fd" y="246.841015"/>
     <use style="fill:#f13a13;stroke:#f13a13;stroke-linejoin:miter;" x="91.962872" xlink:href="#m55bcce33fd" y="246.849063"/>
     <use style="fill:#f13a13;stroke:#f13a13;stroke-linejoin:miter;" x="96.490558" xlink:href="#m55bcce33fd" y="246.847889"/>
     <use style="fill:#f13a13;stroke:#f13a13;stroke-linejoin:miter;" x="101.018245" xlink:href="#m55bcce33fd" y="246.845888"/>
     <use style="fill:#f13a13;stroke:#f13a13;stroke-linejoin:miter;" x="105.545931" xlink:href="#m55bcce33fd" y="246.85928"/>
     <use style="fill:#f13a13;stroke:#f13a13;stroke-linejoin:miter;" x="110.073617" xlink:href="#m55bcce33fd" y="246.847047"/>
     <use style="fill:#f13a13;stroke:#f13a13;stroke-linejoin:miter;" x="114.601304" xlink:href="#m55bcce33fd" y="246.846467"/>
     <use style="fill:#f13a13;stroke:#f13a13;stroke-linejoin:miter;" x="119.12899" xlink:href="#m55bcce33fd" y="246.84528"/>
     <use style="fill:#f13a13;stroke:#f13a13;stroke-linejoin:miter;" x="123.656676" xlink:href="#m55bcce33fd" y="246.86278"/>
     <use style="fill:#f13a13;stroke:#f13a13;stroke-linejoin:miter;" x="128.184363" xlink:href="#m55bcce33fd" y="246.876417"/>
     <use style="fill:#f13a13;stroke:#f13a13;stroke-linejoin:miter;" x="132.712049" xlink:href="#m55bcce33fd" y="246.850415"/>
     <use style="fill:#f13a13;stroke:#f13a13;stroke-linejoin:miter;" x="137.239735" xlink:href="#m55bcce33fd" y="246.85891"/>
     <use style="fill:#f13a13;stroke:#f13a13;stroke-linejoin:miter;" x="141.767422" xlink:href="#m55bcce33fd" y="246.86325"/>
     <use style="fill:#f13a13;stroke:#f13a13;stroke-linejoin:miter;" x="146.295108" xlink:href="#m55bcce33fd" y="246.86889"/>
     <use style="fill:#f13a13;stroke:#f13a13;stroke-linejoin:miter;" x="150.822794" xlink:href="#m55bcce33fd" y="246.863115"/>
     <use style="fill:#f13a13;stroke:#f13a13;stroke-linejoin:miter;" x="155.35048" xlink:href="#m55bcce33fd" y="246.863751"/>
     <use style="fill:#f13a13;stroke:#f13a13;stroke-linejoin:miter;" x="159.878167" xlink:href="#m55bcce33fd" y="246.904867"/>
     <use style="fill:#f13a13;stroke:#f13a13;stroke-linejoin:miter;" x="164.405853" xlink:href="#m55bcce33fd" y="246.932161"/>
     <use style="fill:#f13a13;stroke:#f13a13;stroke-linejoin:miter;" x="168.933539" xlink:href="#m55bcce33fd" y="246.967861"/>
     <use style="fill:#f13a13;stroke:#f13a13;stroke-linejoin:miter;" x="173.461226" xlink:href="#m55bcce33fd" y="247.022326"/>
     <use style="fill:#f13a13;stroke:#f13a13;stroke-linejoin:miter;" x="177.988912" xlink:href="#m55bcce33fd" y="247.095361"/>
     <use style="fill:#f13a13;stroke:#f13a13;stroke-linejoin:miter;" x="182.516598" xlink:href="#m55bcce33fd" y="247.213933"/>
     <use style="fill:#f13a13;stroke:#f13a13;stroke-linejoin:miter;" x="187.044285" xlink:href="#m55bcce33fd" y="247.323454"/>
     <use style="fill:#f13a13;stroke:#f13a13;stroke-linejoin:miter;" x="191.571971" xlink:href="#m55bcce33fd" y="247.475324"/>
     <use style="fill:#f13a13;stroke:#f13a13;stroke-linejoin:miter;" x="196.099657" xlink:href="#m55bcce33fd" y="247.724429"/>
     <use style="fill:#f13a13;stroke:#f13a13;stroke-linejoin:miter;" x="200.627344" xlink:href="#m55bcce33fd" y="247.999894"/>
     <use style="fill:#f13a13;stroke:#f13a13;stroke-linejoin:miter;" x="205.15503" xlink:href="#m55bcce33fd" y="248.367421"/>
     <use style="fill:#f13a13;stroke:#f13a13;stroke-linejoin:miter;" x="209.682716" xlink:href="#m55bcce33fd" y="248.807733"/>
     <use style="fill:#f13a13;stroke:#f13a13;stroke-linejoin:miter;" x="214.210403" xlink:href="#m55bcce33fd" y="249.354526"/>
     <use style="fill:#f13a13;stroke:#f13a13;stroke-linejoin:miter;" x="218.738089" xlink:href="#m55bcce33fd" y="249.95107"/>
     <use style="fill:#f13a13;stroke:#f13a13;stroke-linejoin:miter;" x="223.265775" xlink:href="#m55bcce33fd" y="250.620791"/>
     <use style="fill:#f13a13;stroke:#f13a13;stroke-linejoin:miter;" x="227.793462" xlink:href="#m55bcce33fd" y="251.363831"/>
     <use style="fill:#f13a13;stroke:#f13a13;stroke-linejoin:miter;" x="232.321148" xlink:href="#m55bcce33fd" y="252.272696"/>
     <use style="fill:#f13a13;stroke:#f13a13;stroke-linejoin:miter;" x="236.848852" xlink:href="#m55bcce33fd" y="253.274288"/>
     <use style="fill:#f13a13;stroke:#f13a13;stroke-linejoin:miter;" x="241.376556" xlink:href="#m55bcce33fd" y="254.445374"/>
     <use style="fill:#f13a13;stroke:#f13a13;stroke-linejoin:miter;" x="245.90426" xlink:href="#m55bcce33fd" y="255.701026"/>
     <use style="fill:#f13a13;stroke:#f13a13;stroke-linejoin:miter;" x="250.431965" xlink:href="#m55bcce33fd" y="256.979986"/>
     <use style="fill:#f13a13;stroke:#f13a13;stroke-linejoin:miter;" x="254.959669" xlink:href="#m55bcce33fd" y="258.209888"/>
     <use style="fill:#f13a13;stroke:#f13a13;stroke-linejoin:miter;" x="259.487194" xlink:href="#m55bcce33fd" y="259.254957"/>
     <use style="fill:#f13a13;stroke:#f13a13;stroke-linejoin:miter;" x="264.014899" xlink:href="#m55bcce33fd" y="260.026618"/>
     <use style="fill:#f13a13;stroke:#f13a13;stroke-linejoin:miter;" x="268.542603" xlink:href="#m55bcce33fd" y="260.423564"/>
     <use style="fill:#f13a13;stroke:#f13a13;stroke-linejoin:miter;" x="273.070307" xlink:href="#m55bcce33fd" y="260.576254"/>
     <use style="fill:#f13a13;stroke:#f13a13;stroke-linejoin:miter;" x="277.598011" xlink:href="#m55bcce33fd" y="260.649272"/>
     <use style="fill:#f13a13;stroke:#f13a13;stroke-linejoin:miter;" x="282.125715" xlink:href="#m55bcce33fd" y="260.650291"/>
     <use style="fill:#f13a13;stroke:#f13a13;stroke-linejoin:miter;" x="286.653419" xlink:href="#m55bcce33fd" y="260.664755"/>
     <use style="fill:#f13a13;stroke:#f13a13;stroke-linejoin:miter;" x="291.181124" xlink:href="#m55bcce33fd" y="260.645081"/>
     <use style="fill:#f13a13;stroke:#f13a13;stroke-linejoin:miter;" x="295.708828" xlink:href="#m55bcce33fd" y="260.661035"/>
     <use style="fill:#f13a13;stroke:#f13a13;stroke-linejoin:miter;" x="300.236532" xlink:href="#m55bcce33fd" y="260.676397"/>
     <use style="fill:#f13a13;stroke:#f13a13;stroke-linejoin:miter;" x="304.764058" xlink:href="#m55bcce33fd" y="260.666362"/>
     <use style="fill:#f13a13;stroke:#f13a13;stroke-linejoin:miter;" x="309.291762" xlink:href="#m55bcce33fd" y="260.653053"/>
     <use style="fill:#f13a13;stroke:#f13a13;stroke-linejoin:miter;" x="313.819466" xlink:href="#m55bcce33fd" y="260.682126"/>
     <use style="fill:#f13a13;stroke:#f13a13;stroke-linejoin:miter;" x="318.34717" xlink:href="#m55bcce33fd" y="260.669852"/>
     <use style="fill:#f13a13;stroke:#f13a13;stroke-linejoin:miter;" x="322.874874" xlink:href="#m55bcce33fd" y="260.660895"/>
     <use style="fill:#f13a13;stroke:#f13a13;stroke-linejoin:miter;" x="327.402578" xlink:href="#m55bcce33fd" y="260.635719"/>
     <use style="fill:#f13a13;stroke:#f13a13;stroke-linejoin:miter;" x="331.930283" xlink:href="#m55bcce33fd" y="260.649469"/>
     <use style="fill:#f13a13;stroke:#f13a13;stroke-linejoin:miter;" x="336.457987" xlink:href="#m55bcce33fd" y="260.656395"/>
     <use style="fill:#f13a13;stroke:#f13a13;stroke-linejoin:miter;" x="340.985691" xlink:href="#m55bcce33fd" y="260.666656"/>
     <use style="fill:#f13a13;stroke:#f13a13;stroke-linejoin:miter;" x="345.513395" xlink:href="#m55bcce33fd" y="260.660875"/>
     <use style="fill:#f13a13;stroke:#f13a13;stroke-linejoin:miter;" x="350.040921" xlink:href="#m55bcce33fd" y="260.649466"/>
     <use style="fill:#f13a13;stroke:#f13a13;stroke-linejoin:miter;" x="354.568625" xlink:href="#m55bcce33fd" y="260.633612"/>
     <use style="fill:#f13a13;stroke:#f13a13;stroke-linejoin:miter;" x="359.096329" xlink:href="#m55bcce33fd" y="260.66091"/>
     <use style="fill:#f13a13;stroke:#f13a13;stroke-linejoin:miter;" x="363.624033" xlink:href="#m55bcce33fd" y="260.67691"/>
     <use style="fill:#f13a13;stroke:#f13a13;stroke-linejoin:miter;" x="368.151738" xlink:href="#m55bcce33fd" y="260.646581"/>
     <use style="fill:#f13a13;stroke:#f13a13;stroke-linejoin:miter;" x="372.679442" xlink:href="#m55bcce33fd" y="260.697041"/>
     <use style="fill:#f13a13;stroke:#f13a13;stroke-linejoin:miter;" x="377.207146" xlink:href="#m55bcce33fd" y="260.654562"/>
     <use style="fill:#f13a13;stroke:#f13a13;stroke-linejoin:miter;" x="381.73485" xlink:href="#m55bcce33fd" y="260.666647"/>
     <use style="fill:#f13a13;stroke:#f13a13;stroke-linejoin:miter;" x="386.262554" xlink:href="#m55bcce33fd" y="260.655463"/>
     <use style="fill:#f13a13;stroke:#f13a13;stroke-linejoin:miter;" x="390.790258" xlink:href="#m55bcce33fd" y="260.667516"/>
     <use style="fill:#f13a13;stroke:#f13a13;stroke-linejoin:miter;" x="395.317784" xlink:href="#m55bcce33fd" y="260.67057"/>
     <use style="fill:#f13a13;stroke:#f13a13;stroke-linejoin:miter;" x="399.845488" xlink:href="#m55bcce33fd" y="260.673421"/>
     <use style="fill:#f13a13;stroke:#f13a13;stroke-linejoin:miter;" x="404.373192" xlink:href="#m55bcce33fd" y="260.647536"/>
     <use style="fill:#f13a13;stroke:#f13a13;stroke-linejoin:miter;" x="408.900897" xlink:href="#m55bcce33fd" y="260.636833"/>
     <use style="fill:#f13a13;stroke:#f13a13;stroke-linejoin:miter;" x="413.428601" xlink:href="#m55bcce33fd" y="260.643783"/>
    </g>
   </g>
   <g id="line2d_20">
    <defs>
     <path d="M 0 3  C 0.795609 3 1.55874 2.683901 2.12132 2.12132  C 2.683901 1.55874 3 0.795609 3 0  C 3 -0.795609 2.683901 -1.55874 2.12132 -2.12132  C 1.55874 -2.683901 0.795609 -3 0 -3  C -0.795609 -3 -1.55874 -2.683901 -2.12132 -2.12132  C -2.683901 -1.55874 -3 -0.795609 -3 0  C -3 0.795609 -2.683901 1.55874 -2.12132 2.12132  C -1.55874 2.683901 -0.795609 3 0 3  z " id="m198f8bbd47" style="stroke:#803e75;"/>
    </defs>
    <g clip-path="url(#pef1c40e534)">
     <use style="fill:#803e75;stroke:#803e75;" x="55.741377" xlink:href="#m198f8bbd47" y="260.630586"/>
     <use style="fill:#803e75;stroke:#803e75;" x="60.269064" xlink:href="#m198f8bbd47" y="260.661499"/>
     <use style="fill:#803e75;stroke:#803e75;" x="64.79675" xlink:href="#m198f8bbd47" y="260.681704"/>
     <use style="fill:#803e75;stroke:#803e75;" x="69.324437" xlink:href="#m198f8bbd47" y="260.640175"/>
     <use style="fill:#803e75;stroke:#803e75;" x="73.852123" xlink:href="#m198f8bbd47" y="260.649997"/>
     <use style="fill:#803e75;stroke:#803e75;" x="78.379813" xlink:href="#m198f8bbd47" y="260.657619"/>
     <use style="fill:#803e75;stroke:#803e75;" x="82.907499" xlink:href="#m198f8bbd47" y="260.668105"/>
     <use style="fill:#803e75;stroke:#803e75;" x="87.435186" xlink:href="#m198f8bbd47" y="260.655445"/>
     <use style="fill:#803e75;stroke:#803e75;" x="91.962872" xlink:href="#m198f8bbd47" y="260.655345"/>
     <use style="fill:#803e75;stroke:#803e75;" x="96.490558" xlink:href="#m198f8bbd47" y="260.657523"/>
     <use style="fill:#803e75;stroke:#803e75;" x="101.018245" xlink:href="#m198f8bbd47" y="260.665059"/>
     <use style="fill:#803e75;stroke:#803e75;" x="105.545931" xlink:href="#m198f8bbd47" y="260.663963"/>
     <use style="fill:#803e75;stroke:#803e75;" x="110.073617" xlink:href="#m198f8bbd47" y="260.645132"/>
     <use style="fill:#803e75;stroke:#803e75;" x="114.601304" xlink:href="#m198f8bbd47" y="260.65701"/>
     <use style="fill:#803e75;stroke:#803e75;" x="119.12899" xlink:href="#m198f8bbd47" y="260.644211"/>
     <use style="fill:#803e75;stroke:#803e75;" x="123.656676" xlink:href="#m198f8bbd47" y="260.663073"/>
     <use style="fill:#803e75;stroke:#803e75;" x="128.184363" xlink:href="#m198f8bbd47" y="260.663771"/>
     <use style="fill:#803e75;stroke:#803e75;" x="132.712049" xlink:href="#m198f8bbd47" y="260.651971"/>
     <use style="fill:#803e75;stroke:#803e75;" x="137.239735" xlink:href="#m198f8bbd47" y="260.637752"/>
     <use style="fill:#803e75;stroke:#803e75;" x="141.767422" xlink:href="#m198f8bbd47" y="260.636569"/>
     <use style="fill:#803e75;stroke:#803e75;" x="146.295108" xlink:href="#m198f8bbd47" y="260.641796"/>
     <use style="fill:#803e75;stroke:#803e75;" x="150.822794" xlink:href="#m198f8bbd47" y="260.64634"/>
     <use style="fill:#803e75;stroke:#803e75;" x="155.35048" xlink:href="#m198f8bbd47" y="260.624627"/>
     <use style="fill:#803e75;stroke:#803e75;" x="159.878167" xlink:href="#m198f8bbd47" y="260.604922"/>
     <use style="fill:#803e75;stroke:#803e75;" x="164.405853" xlink:href="#m198f8bbd47" y="260.594844"/>
     <use style="fill:#803e75;stroke:#803e75;" x="168.933539" xlink:href="#m198f8bbd47" y="260.547718"/>
     <use style="fill:#803e75;stroke:#803e75;" x="173.461226" xlink:href="#m198f8bbd47" y="260.509126"/>
     <use style="fill:#803e75;stroke:#803e75;" x="177.988912" xlink:href="#m198f8bbd47" y="260.434396"/>
     <use style="fill:#803e75;stroke:#803e75;" x="182.516598" xlink:href="#m198f8bbd47" y="260.349772"/>
     <use style="fill:#803e75;stroke:#803e75;" x="187.044285" xlink:href="#m198f8bbd47" y="260.214505"/>
     <use style="fill:#803e75;stroke:#803e75;" x="191.571971" xlink:href="#m198f8bbd47" y="260.039272"/>
     <use style="fill:#803e75;stroke:#803e75;" x="196.099657" xlink:href="#m198f8bbd47" y="259.823656"/>
     <use style="fill:#803e75;stroke:#803e75;" x="200.627344" xlink:href="#m198f8bbd47" y="259.591448"/>
     <use style="fill:#803e75;stroke:#803e75;" x="205.15503" xlink:href="#m198f8bbd47" y="259.241302"/>
     <use style="fill:#803e75;stroke:#803e75;" x="209.682716" xlink:href="#m198f8bbd47" y="258.797161"/>
     <use style="fill:#803e75;stroke:#803e75;" x="214.210403" xlink:href="#m198f8bbd47" y="258.290939"/>
     <use style="fill:#803e75;stroke:#803e75;" x="218.738089" xlink:href="#m198f8bbd47" y="257.730437"/>
     <use style="fill:#803e75;stroke:#803e75;" x="223.265775" xlink:href="#m198f8bbd47" y="257.070052"/>
     <use style="fill:#803e75;stroke:#803e75;" x="227.793462" xlink:href="#m198f8bbd47" y="256.390631"/>
     <use style="fill:#803e75;stroke:#803e75;" x="232.321148" xlink:href="#m198f8bbd47" y="255.64888"/>
     <use style="fill:#803e75;stroke:#803e75;" x="236.848852" xlink:href="#m198f8bbd47" y="254.85224"/>
     <use style="fill:#803e75;stroke:#803e75;" x="241.376556" xlink:href="#m198f8bbd47" y="253.982708"/>
     <use style="fill:#803e75;stroke:#803e75;" x="245.90426" xlink:href="#m198f8bbd47" y="253.024726"/>
     <use style="fill:#803e75;stroke:#803e75;" x="250.431965" xlink:href="#m198f8bbd47" y="252.03689"/>
     <use style="fill:#803e75;stroke:#803e75;" x="254.959669" xlink:href="#m198f8bbd47" y="250.980495"/>
     <use style="fill:#803e75;stroke:#803e75;" x="259.487194" xlink:href="#m198f8bbd47" y="250.077654"/>
     <use style="fill:#803e75;stroke:#803e75;" x="264.014899" xlink:href="#m198f8bbd47" y="249.386698"/>
     <use style="fill:#803e75;stroke:#803e75;" x="268.542603" xlink:href="#m198f8bbd47" y="248.979983"/>
     <use style="fill:#803e75;stroke:#803e75;" x="273.070307" xlink:href="#m198f8bbd47" y="248.780489"/>
     <use style="fill:#803e75;stroke:#803e75;" x="277.598011" xlink:href="#m198f8bbd47" y="248.691885"/>
     <use style="fill:#803e75;stroke:#803e75;" x="282.125715" xlink:href="#m198f8bbd47" y="248.672722"/>
     <use style="fill:#803e75;stroke:#803e75;" x="286.653419" xlink:href="#m198f8bbd47" y="248.649065"/>
     <use style="fill:#803e75;stroke:#803e75;" x="291.181124" xlink:href="#m198f8bbd47" y="248.615379"/>
     <use style="fill:#803e75;stroke:#803e75;" x="295.708828" xlink:href="#m198f8bbd47" y="248.634217"/>
     <use style="fill:#803e75;stroke:#803e75;" x="300.236532" xlink:href="#m198f8bbd47" y="248.601025"/>
     <use style="fill:#803e75;stroke:#803e75;" x="304.764058" xlink:href="#m198f8bbd47" y="248.58946"/>
     <use style="fill:#803e75;stroke:#803e75;" x="309.291762" xlink:href="#m198f8bbd47" y="248.588095"/>
     <use style="fill:#803e75;stroke:#803e75;" x="313.819466" xlink:href="#m198f8bbd47" y="248.570405"/>
     <use style="fill:#803e75;stroke:#803e75;" x="318.34717" xlink:href="#m198f8bbd47" y="248.5943"/>
     <use style="fill:#803e75;stroke:#803e75;" x="322.874874" xlink:href="#m198f8bbd47" y="248.589634"/>
     <use style="fill:#803e75;stroke:#803e75;" x="327.402578" xlink:href="#m198f8bbd47" y="248.586798"/>
     <use style="fill:#803e75;stroke:#803e75;" x="331.930283" xlink:href="#m198f8bbd47" y="248.576397"/>
     <use style="fill:#803e75;stroke:#803e75;" x="336.457987" xlink:href="#m198f8bbd47" y="248.593215"/>
     <use style="fill:#803e75;stroke:#803e75;" x="340.985691" xlink:href="#m198f8bbd47" y="248.577777"/>
     <use style="fill:#803e75;stroke:#803e75;" x="345.513395" xlink:href="#m198f8bbd47" y="248.588404"/>
     <use style="fill:#803e75;stroke:#803e75;" x="350.040921" xlink:href="#m198f8bbd47" y="248.581119"/>
     <use style="fill:#803e75;stroke:#803e75;" x="354.568625" xlink:href="#m198f8bbd47" y="248.573397"/>
     <use style="fill:#803e75;stroke:#803e75;" x="359.096329" xlink:href="#m198f8bbd47" y="248.564869"/>
     <use style="fill:#803e75;stroke:#803e75;" x="363.624033" xlink:href="#m198f8bbd47" y="248.565749"/>
     <use style="fill:#803e75;stroke:#803e75;" x="368.151738" xlink:href="#m198f8bbd47" y="248.586932"/>
     <use style="fill:#803e75;stroke:#803e75;" x="372.679442" xlink:href="#m198f8bbd47" y="248.573508"/>
     <use style="fill:#803e75;stroke:#803e75;" x="377.207146" xlink:href="#m198f8bbd47" y="248.579808"/>
     <use style="fill:#803e75;stroke:#803e75;" x="381.73485" xlink:href="#m198f8bbd47" y="248.575331"/>
     <use style="fill:#803e75;stroke:#803e75;" x="386.262554" xlink:href="#m198f8bbd47" y="248.587975"/>
     <use style="fill:#803e75;stroke:#803e75;" x="390.790258" xlink:href="#m198f8bbd47" y="248.601032"/>
     <use style="fill:#803e75;stroke:#803e75;" x="395.317784" xlink:href="#m198f8bbd47" y="248.574472"/>
     <use style="fill:#803e75;stroke:#803e75;" x="399.845488" xlink:href="#m198f8bbd47" y="248.584479"/>
     <use style="fill:#803e75;stroke:#803e75;" x="404.373192" xlink:href="#m198f8bbd47" y="248.570004"/>
     <use style="fill:#803e75;stroke:#803e75;" x="408.900897" xlink:href="#m198f8bbd47" y="248.574583"/>
     <use style="fill:#803e75;stroke:#803e75;" x="413.428601" xlink:href="#m198f8bbd47" y="248.58964"/>
    </g>
   </g>
   <g id="line2d_21">
    <path clip-path="url(#pef1c40e534)" d="M 55.741377 246.853728  L 177.585129 246.963913  L 194.528208 247.218393  L 206.607997 247.615603  L 214.765776 248.086406  L 219.785948 248.590487  L 223.132729 248.883818  L 225.851988 249.152174  L 226.871711 249.465115  L 227.603819 249.911477  L 228.231341 250.551755  L 228.858862 251.537151  L 230.375372 254.187528  L 230.689133 254.196146  L 231.473535 254.032089  L 231.891883 254.228407  L 232.31023 254.731037  L 232.519404 255.19175  L 232.623991 256.258709  L 233.042339 264.005677  L 233.199219 265.158614  L 233.303806 215.204575  L 233.356099 27.890909  L 233.408393 290.509091  L 233.51298 280.275675  L 233.983621 249.818241  L 234.192795 246.853053  L 234.245088 246.739018  L 234.297381 246.771745  L 234.401968 247.361495  L 234.924903 254.20565  L 235.081783 254.359559  L 235.238664 254.150964  L 235.970772 252.863518  L 236.336826 252.75934  L 236.807467 252.869241  L 237.539576 253.314346  L 241.775346 256.33557  L 243.42259 257.019834  L 245.618915 257.66439  L 249.17487 258.437848  L 256.077606 259.692957  L 260.261082 260.246873  L 264.026211 260.51824  L 269.046383 260.634148  L 284.682126 260.657236  L 413.428614 260.657273  L 413.428614 260.657273  " style="fill:none;stroke:#f13a13;stroke-linecap:square;stroke-width:2;"/>
   </g>
   <g id="line2d_22">
    <path clip-path="url(#pef1c40e534)" d="M 55.741377 260.657272  L 178.630998 260.547628  L 195.574078 260.293849  L 207.653866 259.898093  L 215.497884 259.440308  L 220.831817 258.914373  L 223.969424 258.420725  L 225.642815 257.933287  L 226.871711 257.339901  L 227.91758 256.573851  L 229.852438 255.030182  L 230.79372 254.573876  L 231.368948 254.265265  L 232.467111 253.914454  L 232.571697 253.615977  L 232.728578 251.167323  L 232.885458 249.074564  L 232.937752 249.064181  L 233.094632 249.536573  L 233.146925 248.137868  L 233.251512 208.265751  L 233.303806 210.020885  L 233.408393 269.68299  L 233.51298 267.801635  L 234.245088 259.245905  L 234.663436 256.743808  L 235.02949 256.386114  L 236.598294 255.138733  L 240.154249 253.328315  L 242.350574 252.381288  L 244.468459 251.711964  L 247.187718 251.10426  L 252.103303 250.28471  L 259.215213 249.288633  L 263.294103 248.942448  L 268.209688 248.768689  L 279.661954 248.660024  L 313.861874 248.584154  L 413.428614 248.579171  L 413.428614 248.579171  " style="fill:none;stroke:#803e75;stroke-linecap:square;stroke-width:2;"/>
   </g>
   <g id="patch_3">
    <path d="M 56.09 303.64  L 56.09 14.76  " style="fill:none;stroke:#000000;stroke-linecap:square;stroke-linejoin:miter;stroke-width:0.8;"/>
   </g>
   <g id="patch_4">
    <path d="M 413.08 303.64  L 413.08 14.76  " style="fill:none;stroke:#000000;stroke-linecap:square;stroke-linejoin:miter;stroke-width:0.8;"/>
   </g>
   <g id="patch_5">
    <path d="M 56.09 303.64  L 413.08 303.64  " style="fill:none;stroke:#000000;stroke-linecap:square;stroke-linejoin:miter;stroke-width:0.8;"/>
   </g>
   <g id="patch_6">
    <path d="M 56.09 14.76  L 413.08 14.76  " style="fill:none;stroke:#000000;stroke-linecap:square;stroke-linejoin:miter;stroke-width:0.8;"/>
   </g>
  </g>
  <g id="axes_2">
   <g id="matplotlib.axis_3">
    <g id="ytick_10">
     <g id="line2d_23">
      <defs>
       <path d="M 0 0  L 3.5 0  " id="mfa92e09a08" style="stroke:#000000;stroke-width:0.8;"/>
      </defs>
      <g>
       <use style="stroke:#000000;stroke-width:0.8;" x="413.08" xlink:href="#mfa92e09a08" y="303.64"/>
      </g>
     </g>
     <g id="text_21">
      <!-- 0.0 -->
      <g transform="translate(420.08 307.439219)scale(0.1 -0.1)">
       <use xlink:href="#DejaVuSans-30"/>
       <use x="63.623047" xlink:href="#DejaVuSans-2e"/>
       <use x="95.410156" xlink:href="#DejaVuSans-30"/>
      </g>
     </g>
    </g>
    <g id="ytick_11">
     <g id="line2d_24">
      <g>
       <use style="stroke:#000000;stroke-width:0.8;" x="413.08" xlink:href="#mfa92e09a08" y="245.864"/>
      </g>
     </g>
     <g id="text_22">
      <!-- 0.2 -->
      <g transform="translate(420.08 249.663219)scale(0.1 -0.1)">
       <use xlink:href="#DejaVuSans-30"/>
       <use x="63.623047" xlink:href="#DejaVuSans-2e"/>
       <use x="95.410156" xlink:href="#DejaVuSans-32"/>
      </g>
     </g>
    </g>
    <g id="ytick_12">
     <g id="line2d_25">
      <g>
       <use style="stroke:#000000;stroke-width:0.8;" x="413.08" xlink:href="#mfa92e09a08" y="188.088"/>
      </g>
     </g>
     <g id="text_23">
      <!-- 0.4 -->
      <defs>
       <path d="M 37.796875 64.3125  L 12.890625 25.390625  L 37.796875 25.390625  z M 35.203125 72.90625  L 47.609375 72.90625  L 47.609375 25.390625  L 58.015625 25.390625  L 58.015625 17.1875  L 47.609375 17.1875  L 47.609375 0  L 37.796875 0  L 37.796875 17.1875  L 4.890625 17.1875  L 4.890625 26.703125  z " id="DejaVuSans-34"/>
      </defs>
      <g transform="translate(420.08 191.887219)scale(0.1 -0.1)">
       <use xlink:href="#DejaVuSans-30"/>
       <use x="63.623047" xlink:href="#DejaVuSans-2e"/>
       <use x="95.410156" xlink:href="#DejaVuSans-34"/>
      </g>
     </g>
    </g>
    <g id="ytick_13">
     <g id="line2d_26">
      <g>
       <use style="stroke:#000000;stroke-width:0.8;" x="413.08" xlink:href="#mfa92e09a08" y="130.312"/>
      </g>
     </g>
     <g id="text_24">
      <!-- 0.6 -->
      <defs>
       <path d="M 33.015625 40.375  Q 26.375 40.375 22.484375 35.828125  Q 18.609375 31.296875 18.609375 23.390625  Q 18.609375 15.53125 22.484375 10.953125  Q 26.375 6.390625 33.015625 6.390625  Q 39.65625 6.390625 43.53125 10.953125  Q 47.40625 15.53125 47.40625 23.390625  Q 47.40625 31.296875 43.53125 35.828125  Q 39.65625 40.375 33.015625 40.375  z M 52.59375 71.296875  L 52.59375 62.3125  Q 48.875 64.0625 45.09375 64.984375  Q 41.3125 65.921875 37.59375 65.921875  Q 27.828125 65.921875 22.671875 59.328125  Q 17.53125 52.734375 16.796875 39.40625  Q 19.671875 43.65625 24.015625 45.921875  Q 28.375 48.1875 33.59375 48.1875  Q 44.578125 48.1875 50.953125 41.515625  Q 57.328125 34.859375 57.328125 23.390625  Q 57.328125 12.15625 50.6875 5.359375  Q 44.046875 -1.421875 33.015625 -1.421875  Q 20.359375 -1.421875 13.671875 8.265625  Q 6.984375 17.96875 6.984375 36.375  Q 6.984375 53.65625 15.1875 63.9375  Q 23.390625 74.21875 37.203125 74.21875  Q 40.921875 74.21875 44.703125 73.484375  Q 48.484375 72.75 52.59375 71.296875  z " id="DejaVuSans-36"/>
      </defs>
      <g transform="translate(420.08 134.111219)scale(0.1 -0.1)">
       <use xlink:href="#DejaVuSans-30"/>
       <use x="63.623047" xlink:href="#DejaVuSans-2e"/>
       <use x="95.410156" xlink:href="#DejaVuSans-36"/>
      </g>
     </g>
    </g>
    <g id="ytick_14">
     <g id="line2d_27">
      <g>
       <use style="stroke:#000000;stroke-width:0.8;" x="413.08" xlink:href="#mfa92e09a08" y="72.536"/>
      </g>
     </g>
     <g id="text_25">
      <!-- 0.8 -->
      <defs>
       <path d="M 31.78125 34.625  Q 24.75 34.625 20.71875 30.859375  Q 16.703125 27.09375 16.703125 20.515625  Q 16.703125 13.921875 20.71875 10.15625  Q 24.75 6.390625 31.78125 6.390625  Q 38.8125 6.390625 42.859375 10.171875  Q 46.921875 13.96875 46.921875 20.515625  Q 46.921875 27.09375 42.890625 30.859375  Q 38.875 34.625 31.78125 34.625  z M 21.921875 38.8125  Q 15.578125 40.375 12.03125 44.71875  Q 8.5 49.078125 8.5 55.328125  Q 8.5 64.0625 14.71875 69.140625  Q 20.953125 74.21875 31.78125 74.21875  Q 42.671875 74.21875 48.875 69.140625  Q 55.078125 64.0625 55.078125 55.328125  Q 55.078125 49.078125 51.53125 44.71875  Q 48 40.375 41.703125 38.8125  Q 48.828125 37.15625 52.796875 32.3125  Q 56.78125 27.484375 56.78125 20.515625  Q 56.78125 9.90625 50.3125 4.234375  Q 43.84375 -1.421875 31.78125 -1.421875  Q 19.734375 -1.421875 13.25 4.234375  Q 6.78125 9.90625 6.78125 20.515625  Q 6.78125 27.484375 10.78125 32.3125  Q 14.796875 37.15625 21.921875 38.8125  z M 18.3125 54.390625  Q 18.3125 48.734375 21.84375 45.5625  Q 25.390625 42.390625 31.78125 42.390625  Q 38.140625 42.390625 41.71875 45.5625  Q 45.3125 48.734375 45.3125 54.390625  Q 45.3125 60.0625 41.71875 63.234375  Q 38.140625 66.40625 31.78125 66.40625  Q 25.390625 66.40625 21.84375 63.234375  Q 18.3125 60.0625 18.3125 54.390625  z " id="DejaVuSans-38"/>
      </defs>
      <g transform="translate(420.08 76.335219)scale(0.1 -0.1)">
       <use xlink:href="#DejaVuSans-30"/>
       <use x="63.623047" xlink:href="#DejaVuSans-2e"/>
       <use x="95.410156" xlink:href="#DejaVuSans-38"/>
      </g>
     </g>
    </g>
    <g id="ytick_15">
     <g id="line2d_28">
      <g>
       <use style="stroke:#000000;stroke-width:0.8;" x="413.08" xlink:href="#mfa92e09a08" y="14.76"/>
      </g>
     </g>
     <g id="text_26">
      <!-- 1.0 -->
      <g transform="translate(420.08 18.559219)scale(0.1 -0.1)">
       <use xlink:href="#DejaVuSans-31"/>
       <use x="63.623047" xlink:href="#DejaVuSans-2e"/>
       <use x="95.410156" xlink:href="#DejaVuSans-30"/>
      </g>
     </g>
    </g>
    <g id="text_27">
     <!-- Mole Fraction (ZN) -->
     <defs>
      <path d="M 5.609375 72.90625  L 62.890625 72.90625  L 62.890625 65.375  L 16.796875 8.296875  L 64.015625 8.296875  L 64.015625 0  L 4.5 0  L 4.5 7.515625  L 50.59375 64.59375  L 5.609375 64.59375  z " id="DejaVuSans-5a"/>
      <path d="M 9.8125 72.90625  L 23.09375 72.90625  L 55.421875 11.921875  L 55.421875 72.90625  L 64.984375 72.90625  L 64.984375 0  L 51.703125 0  L 19.390625 60.984375  L 19.390625 0  L 9.8125 0  z " id="DejaVuSans-4e"/>
     </defs>
     <g transform="translate(447.581563 205.600781)rotate(-90)scale(0.1 -0.1)">
      <use xlink:href="#DejaVuSans-4d"/>
      <use x="86.279297" xlink:href="#DejaVuSans-6f"/>
      <use x="147.460938" xlink:href="#DejaVuSans-6c"/>
      <use x="175.244141" xlink:href="#DejaVuSans-65"/>
      <use x="236.767578" xlink:href="#DejaVuSans-20"/>
      <use x="268.554688" xlink:href="#DejaVuSans-46"/>
      <use x="325.964844" xlink:href="#DejaVuSans-72"/>
      <use x="367.078125" xlink:href="#DejaVuSans-61"/>
      <use x="428.357422" xlink:href="#DejaVuSans-63"/>
      <use x="483.337891" xlink:href="#DejaVuSans-74"/>
      <use x="522.546875" xlink:href="#DejaVuSans-69"/>
      <use x="550.330078" xlink:href="#DejaVuSans-6f"/>
      <use x="611.511719" xlink:href="#DejaVuSans-6e"/>
      <use x="674.890625" xlink:href="#DejaVuSans-20"/>
      <use x="706.677734" xlink:href="#DejaVuSans-28"/>
      <use x="745.691406" xlink:href="#DejaVuSans-5a"/>
      <use x="814.197266" xlink:href="#DejaVuSans-4e"/>
      <use x="889.001953" xlink:href="#DejaVuSans-29"/>
     </g>
    </g>
   </g>
   <g id="line2d_29">
    <defs>
     <path d="M 0 -3  L -0.673542 -0.927051  L -2.85317 -0.927051  L -1.089814 0.354102  L -1.763356 2.427051  L -0 1.145898  L 1.763356 2.427051  L 1.089814 0.354102  L 2.85317 -0.927051  L 0.673542 -0.927051  z " id="m08b5f2f353" style="stroke:#fd522b;stroke-linejoin:bevel;"/>
    </defs>
    <g clip-path="url(#pef1c40e534)">
     <use style="fill:#fd522b;stroke:#fd522b;stroke-linejoin:bevel;" x="55.741377" xlink:href="#m08b5f2f353" y="303.962987"/>
     <use style="fill:#fd522b;stroke:#fd522b;stroke-linejoin:bevel;" x="60.269064" xlink:href="#m08b5f2f353" y="303.83889"/>
     <use style="fill:#fd522b;stroke:#fd522b;stroke-linejoin:bevel;" x="64.79675" xlink:href="#m08b5f2f353" y="302.991293"/>
     <use style="fill:#fd522b;stroke:#fd522b;stroke-linejoin:bevel;" x="69.324437" xlink:href="#m08b5f2f353" y="303.95594"/>
     <use style="fill:#fd522b;stroke:#fd522b;stroke-linejoin:bevel;" x="73.852123" xlink:href="#m08b5f2f353" y="303.567768"/>
     <use style="fill:#fd522b;stroke:#fd522b;stroke-linejoin:bevel;" x="78.379813" xlink:href="#m08b5f2f353" y="303.831454"/>
     <use style="fill:#fd522b;stroke:#fd522b;stroke-linejoin:bevel;" x="82.907499" xlink:href="#m08b5f2f353" y="303.55094"/>
     <use style="fill:#fd522b;stroke:#fd522b;stroke-linejoin:bevel;" x="87.435186" xlink:href="#m08b5f2f353" y="303.944356"/>
     <use style="fill:#fd522b;stroke:#fd522b;stroke-linejoin:bevel;" x="91.962872" xlink:href="#m08b5f2f353" y="303.777957"/>
     <use style="fill:#fd522b;stroke:#fd522b;stroke-linejoin:bevel;" x="96.490558" xlink:href="#m08b5f2f353" y="303.756861"/>
     <use style="fill:#fd522b;stroke:#fd522b;stroke-linejoin:bevel;" x="101.018245" xlink:href="#m08b5f2f353" y="303.641193"/>
     <use style="fill:#fd522b;stroke:#fd522b;stroke-linejoin:bevel;" x="105.545931" xlink:href="#m08b5f2f353" y="303.383785"/>
     <use style="fill:#fd522b;stroke:#fd522b;stroke-linejoin:bevel;" x="110.073617" xlink:href="#m08b5f2f353" y="304.033819"/>
     <use style="fill:#fd522b;stroke:#fd522b;stroke-linejoin:bevel;" x="114.601304" xlink:href="#m08b5f2f353" y="303.797345"/>
     <use style="fill:#fd522b;stroke:#fd522b;stroke-linejoin:bevel;" x="119.12899" xlink:href="#m08b5f2f353" y="304.090217"/>
     <use style="fill:#fd522b;stroke:#fd522b;stroke-linejoin:bevel;" x="123.656676" xlink:href="#m08b5f2f353" y="303.329137"/>
     <use style="fill:#fd522b;stroke:#fd522b;stroke-linejoin:bevel;" x="128.184363" xlink:href="#m08b5f2f353" y="303.02917"/>
     <use style="fill:#fd522b;stroke:#fd522b;stroke-linejoin:bevel;" x="132.712049" xlink:href="#m08b5f2f353" y="303.82022"/>
     <use style="fill:#fd522b;stroke:#fd522b;stroke-linejoin:bevel;" x="137.239735" xlink:href="#m08b5f2f353" y="303.940084"/>
     <use style="fill:#fd522b;stroke:#fd522b;stroke-linejoin:bevel;" x="141.767422" xlink:href="#m08b5f2f353" y="303.874022"/>
     <use style="fill:#fd522b;stroke:#fd522b;stroke-linejoin:bevel;" x="146.295108" xlink:href="#m08b5f2f353" y="303.646594"/>
     <use style="fill:#fd522b;stroke:#fd522b;stroke-linejoin:bevel;" x="150.822794" xlink:href="#m08b5f2f353" y="303.67237"/>
     <use style="fill:#fd522b;stroke:#fd522b;stroke-linejoin:bevel;" x="155.35048" xlink:href="#m08b5f2f353" y="304.113444"/>
     <use style="fill:#fd522b;stroke:#fd522b;stroke-linejoin:bevel;" x="159.878167" xlink:href="#m08b5f2f353" y="303.665358"/>
     <use style="fill:#fd522b;stroke:#fd522b;stroke-linejoin:bevel;" x="164.405853" xlink:href="#m08b5f2f353" y="303.30508"/>
     <use style="fill:#fd522b;stroke:#fd522b;stroke-linejoin:bevel;" x="168.933539" xlink:href="#m08b5f2f353" y="303.544192"/>
     <use style="fill:#fd522b;stroke:#fd522b;stroke-linejoin:bevel;" x="173.461226" xlink:href="#m08b5f2f353" y="303.212003"/>
     <use style="fill:#fd522b;stroke:#fd522b;stroke-linejoin:bevel;" x="177.988912" xlink:href="#m08b5f2f353" y="303.247478"/>
     <use style="fill:#fd522b;stroke:#fd522b;stroke-linejoin:bevel;" x="182.516598" xlink:href="#m08b5f2f353" y="302.537017"/>
     <use style="fill:#fd522b;stroke:#fd522b;stroke-linejoin:bevel;" x="187.044285" xlink:href="#m08b5f2f353" y="303.07581"/>
     <use style="fill:#fd522b;stroke:#fd522b;stroke-linejoin:bevel;" x="191.571971" xlink:href="#m08b5f2f353" y="303.564769"/>
     <use style="fill:#fd522b;stroke:#fd522b;stroke-linejoin:bevel;" x="196.099657" xlink:href="#m08b5f2f353" y="302.863898"/>
     <use style="fill:#fd522b;stroke:#fd522b;stroke-linejoin:bevel;" x="200.627344" xlink:href="#m08b5f2f353" y="301.958613"/>
     <use style="fill:#fd522b;stroke:#fd522b;stroke-linejoin:bevel;" x="205.15503" xlink:href="#m08b5f2f353" y="301.594882"/>
     <use style="fill:#fd522b;stroke:#fd522b;stroke-linejoin:bevel;" x="209.682716" xlink:href="#m08b5f2f353" y="301.674998"/>
     <use style="fill:#fd522b;stroke:#fd522b;stroke-linejoin:bevel;" x="214.210403" xlink:href="#m08b5f2f353" y="300.82594"/>
     <use style="fill:#fd522b;stroke:#fd522b;stroke-linejoin:bevel;" x="218.738089" xlink:href="#m08b5f2f353" y="300.071653"/>
     <use style="fill:#fd522b;stroke:#fd522b;stroke-linejoin:bevel;" x="223.265775" xlink:href="#m08b5f2f353" y="299.876295"/>
     <use style="fill:#fd522b;stroke:#fd522b;stroke-linejoin:bevel;" x="227.793462" xlink:href="#m08b5f2f353" y="298.544827"/>
     <use style="fill:#fd522b;stroke:#fd522b;stroke-linejoin:bevel;" x="232.321148" xlink:href="#m08b5f2f353" y="295.047507"/>
     <use style="fill:#fd522b;stroke:#fd522b;stroke-linejoin:bevel;" x="236.848852" xlink:href="#m08b5f2f353" y="290.758266"/>
     <use style="fill:#fd522b;stroke:#fd522b;stroke-linejoin:bevel;" x="241.376556" xlink:href="#m08b5f2f353" y="284.447359"/>
     <use style="fill:#fd522b;stroke:#fd522b;stroke-linejoin:bevel;" x="245.90426" xlink:href="#m08b5f2f353" y="278.217742"/>
     <use style="fill:#fd522b;stroke:#fd522b;stroke-linejoin:bevel;" x="250.431965" xlink:href="#m08b5f2f353" y="272.125099"/>
     <use style="fill:#fd522b;stroke:#fd522b;stroke-linejoin:bevel;" x="254.959669" xlink:href="#m08b5f2f353" y="268.493964"/>
     <use style="fill:#fd522b;stroke:#fd522b;stroke-linejoin:bevel;" x="259.487194" xlink:href="#m08b5f2f353" y="265.517431"/>
     <use style="fill:#fd522b;stroke:#fd522b;stroke-linejoin:bevel;" x="264.014899" xlink:href="#m08b5f2f353" y="263.828407"/>
     <use style="fill:#fd522b;stroke:#fd522b;stroke-linejoin:bevel;" x="268.542603" xlink:href="#m08b5f2f353" y="264.032876"/>
     <use style="fill:#fd522b;stroke:#fd522b;stroke-linejoin:bevel;" x="273.070307" xlink:href="#m08b5f2f353" y="265.012411"/>
     <use style="fill:#fd522b;stroke:#fd522b;stroke-linejoin:bevel;" x="277.598011" xlink:href="#m08b5f2f353" y="265.338556"/>
     <use style="fill:#fd522b;stroke:#fd522b;stroke-linejoin:bevel;" x="282.125715" xlink:href="#m08b5f2f353" y="265.718289"/>
     <use style="fill:#fd522b;stroke:#fd522b;stroke-linejoin:bevel;" x="286.653419" xlink:href="#m08b5f2f353" y="265.910654"/>
     <use style="fill:#fd522b;stroke:#fd522b;stroke-linejoin:bevel;" x="291.181124" xlink:href="#m08b5f2f353" y="267.027378"/>
     <use style="fill:#fd522b;stroke:#fd522b;stroke-linejoin:bevel;" x="295.708828" xlink:href="#m08b5f2f353" y="266.299256"/>
     <use style="fill:#fd522b;stroke:#fd522b;stroke-linejoin:bevel;" x="300.236532" xlink:href="#m08b5f2f353" y="266.672402"/>
     <use style="fill:#fd522b;stroke:#fd522b;stroke-linejoin:bevel;" x="304.764058" xlink:href="#m08b5f2f353" y="267.124441"/>
     <use style="fill:#fd522b;stroke:#fd522b;stroke-linejoin:bevel;" x="309.291762" xlink:href="#m08b5f2f353" y="267.43155"/>
     <use style="fill:#fd522b;stroke:#fd522b;stroke-linejoin:bevel;" x="313.819466" xlink:href="#m08b5f2f353" y="267.193368"/>
     <use style="fill:#fd522b;stroke:#fd522b;stroke-linejoin:bevel;" x="318.34717" xlink:href="#m08b5f2f353" y="266.950131"/>
     <use style="fill:#fd522b;stroke:#fd522b;stroke-linejoin:bevel;" x="322.874874" xlink:href="#m08b5f2f353" y="267.235227"/>
     <use style="fill:#fd522b;stroke:#fd522b;stroke-linejoin:bevel;" x="327.402578" xlink:href="#m08b5f2f353" y="267.82148"/>
     <use style="fill:#fd522b;stroke:#fd522b;stroke-linejoin:bevel;" x="331.930283" xlink:href="#m08b5f2f353" y="267.751398"/>
     <use style="fill:#fd522b;stroke:#fd522b;stroke-linejoin:bevel;" x="336.457987" xlink:href="#m08b5f2f353" y="267.254466"/>
     <use style="fill:#fd522b;stroke:#fd522b;stroke-linejoin:bevel;" x="340.985691" xlink:href="#m08b5f2f353" y="267.362825"/>
     <use style="fill:#fd522b;stroke:#fd522b;stroke-linejoin:bevel;" x="345.513395" xlink:href="#m08b5f2f353" y="267.261342"/>
     <use style="fill:#fd522b;stroke:#fd522b;stroke-linejoin:bevel;" x="350.040921" xlink:href="#m08b5f2f353" y="267.65263"/>
     <use style="fill:#fd522b;stroke:#fd522b;stroke-linejoin:bevel;" x="354.568625" xlink:href="#m08b5f2f353" y="268.146008"/>
     <use style="fill:#fd522b;stroke:#fd522b;stroke-linejoin:bevel;" x="359.096329" xlink:href="#m08b5f2f353" y="267.753189"/>
     <use style="fill:#fd522b;stroke:#fd522b;stroke-linejoin:bevel;" x="363.624033" xlink:href="#m08b5f2f353" y="267.399917"/>
     <use style="fill:#fd522b;stroke:#fd522b;stroke-linejoin:bevel;" x="368.151738" xlink:href="#m08b5f2f353" y="267.591358"/>
     <use style="fill:#fd522b;stroke:#fd522b;stroke-linejoin:bevel;" x="372.679442" xlink:href="#m08b5f2f353" y="266.816264"/>
     <use style="fill:#fd522b;stroke:#fd522b;stroke-linejoin:bevel;" x="377.207146" xlink:href="#m08b5f2f353" y="267.573419"/>
     <use style="fill:#fd522b;stroke:#fd522b;stroke-linejoin:bevel;" x="381.73485" xlink:href="#m08b5f2f353" y="267.414188"/>
     <use style="fill:#fd522b;stroke:#fd522b;stroke-linejoin:bevel;" x="386.262554" xlink:href="#m08b5f2f353" y="267.383625"/>
     <use style="fill:#fd522b;stroke:#fd522b;stroke-linejoin:bevel;" x="390.790258" xlink:href="#m08b5f2f353" y="266.858123"/>
     <use style="fill:#fd522b;stroke:#fd522b;stroke-linejoin:bevel;" x="395.317784" xlink:href="#m08b5f2f353" y="267.350028"/>
     <use style="fill:#fd522b;stroke:#fd522b;stroke-linejoin:bevel;" x="399.845488" xlink:href="#m08b5f2f353" y="267.080994"/>
     <use style="fill:#fd522b;stroke:#fd522b;stroke-linejoin:bevel;" x="404.373192" xlink:href="#m08b5f2f353" y="267.925621"/>
     <use style="fill:#fd522b;stroke:#fd522b;stroke-linejoin:bevel;" x="408.900897" xlink:href="#m08b5f2f353" y="268.053797"/>
     <use style="fill:#fd522b;stroke:#fd522b;stroke-linejoin:bevel;" x="413.428601" xlink:href="#m08b5f2f353" y="267.593207"/>
    </g>
   </g>
   <g id="line2d_30">
    <path clip-path="url(#pef1c40e534)" d="M 55.741377 303.639999  L 169.218176 303.529679  L 188.04382 303.281486  L 200.541956 302.901472  L 213.510733 302.272679  L 216.439166 301.932457  L 218.740078 301.4301  L 220.308882 301.147891  L 220.936404 301.233593  L 221.459338 301.533626  L 221.877686 302.026087  L 222.714381 303.560546  L 223.551076 305.570652  L 224.387772 308.213256  L 225.329054 311.965299  L 226.976298 318.733568  L 227.394645 319.595643  L 227.603819 319.683247  L 227.7607 319.541202  L 227.969873 319.001048  L 228.231341 317.601699  L 228.545101 314.504  L 228.911156 308.29713  L 229.381797 295.623711  L 230.166198 273.423929  L 230.375372 272.063394  L 230.479959 272.55204  L 230.689133 275.698771  L 231.264361 286.668726  L 231.473535 287.738278  L 231.578122 287.6138  L 231.735002 286.587553  L 231.996469 282.860502  L 232.519404 272.293681  L 232.623991 264.297479  L 233.094632 169.132197  L 233.146925 190.307729  L 233.177975 346.6  M 234.485834 346.6  L 235.134077 315.672189  L 235.709305 297.574513  L 236.284533 286.057202  L 236.859761 278.94174  L 237.382695 274.979266  L 237.90563 272.586339  L 238.376271 271.338461  L 238.846912 270.675748  L 239.26526 270.426783  L 239.735901 270.404509  L 240.363422 270.631898  L 243.213416 272.018926  L 244.050111 272.053067  L 244.886806 271.876915  L 245.932675 271.405354  L 247.187718 270.56969  L 249.279457 268.849122  L 252.20789 266.479711  L 253.985868 265.328329  L 255.659258 264.512158  L 257.228062 263.984347  L 258.901452 263.652381  L 260.784017 263.518876  L 262.980342 263.604524  L 265.908775 263.960072  L 280.49865 266.026497  L 286.983038 266.589907  L 294.513296 267.011083  L 303.926118 267.299695  L 317.208656 267.465212  L 343.982905 267.526574  L 413.428614 267.53  L 413.428614 267.53  " style="fill:none;stroke:#fd522b;stroke-linecap:square;stroke-width:2;"/>
   </g>
   <g id="patch_7">
    <path d="M 56.09 303.64  L 56.09 14.76  " style="fill:none;stroke:#000000;stroke-linecap:square;stroke-linejoin:miter;stroke-width:0.8;"/>
   </g>
   <g id="patch_8">
    <path d="M 413.08 303.64  L 413.08 14.76  " style="fill:none;stroke:#000000;stroke-linecap:square;stroke-linejoin:miter;stroke-width:0.8;"/>
   </g>
   <g id="patch_9">
    <path d="M 56.09 303.64  L 413.08 303.64  " style="fill:none;stroke:#000000;stroke-linecap:square;stroke-linejoin:miter;stroke-width:0.8;"/>
   </g>
   <g id="patch_10">
    <path d="M 56.09 14.76  L 413.08 14.76  " style="fill:none;stroke:#000000;stroke-linecap:square;stroke-linejoin:miter;stroke-width:0.8;"/>
   </g>
  </g>
 </g>
 <defs>
  <clipPath id="pef1c40e534">
   <rect height="288.88" width="356.99" x="56.09" y="14.76"/>
  </clipPath>
 </defs>
</g>
    <g transform="translate(10, 300) scale(1) ">
      <g transform="translate(0, 0) scale(3.0) "><defs id="defs831"/>
  <sodipodi:namedview xmlns:sodipodi="http://sodipodi.sourceforge.net/DTD/sodipodi-0.dtd" xmlns:inkscape="http://www.inkscape.org/namespaces/inkscape" id="base" pagecolor="#ffffff" bordercolor="#666666" borderopacity="1.0" inkscape:pageopacity="0.0" inkscape:pageshadow="2" inkscape:zoom="1.979899" inkscape:cx="-12.763683" inkscape:cy="-16.680883" inkscape:document-units="mm" inkscape:current-layer="layer1" showgrid="false" inkscape:window-width="1920" inkscape:window-height="1001" inkscape:window-x="-9" inkscape:window-y="-9" inkscape:window-maximized="1" units="pt"/>
  <metadata xmlns:rdf="http://www.w3.org/1999/02/22-rdf-syntax-ns#" xmlns:cc="http://creativecommons.org/ns#" xmlns:dc="http://purl.org/dc/elements/1.1/" id="metadata834">
    <rdf:RDF>
      <cc:Work rdf:about="">
        <dc:format>image/svg+xml</dc:format>
        <dc:type rdf:resource="http://purl.org/dc/dcmitype/StillImage"/>
        <dc:title/>
      </cc:Work>
    </rdf:RDF>
  </metadata>
  <g xmlns:inkscape="http://www.inkscape.org/namespaces/inkscape" xmlns:sodipodi="http://sodipodi.sourceforge.net/DTD/sodipodi-0.dtd" inkscape:label="Layer 1" inkscape:groupmode="layer" id="layer1" transform="translate(0,-288.81557)">
    <g id="g4761" transform="matrix(0.07377843,0,0,0.07377843,-0.76923022,275.45946)">
      <path inkscape:connector-curvature="0" id="path1959-6-7-1-6-5-4-0-3-2-6-0-3-9-6" style="font-style:normal;font-variant:normal;font-weight:bold;font-stretch:normal;font-size:120.99466705px;line-height:1.25;font-family:Aharoni;-inkscape-font-specification:'Aharoni, Bold';font-variant-ligatures:normal;font-variant-caps:normal;font-variant-numeric:normal;font-feature-settings:normal;text-align:start;letter-spacing:0px;word-spacing:0px;writing-mode:lr-tb;text-anchor:start;fill:#000000;fill-opacity:1;stroke:none;stroke-width:2.37649584" d="M 52.937412,287.55677 H 40.587702 V 265.43005 H 22.776041 v 22.12672 h -12.34982 v -53.17432 h 12.34982 v 20.5296 h 17.811661 v -20.5296 h 12.34971 z"/>
      <path inkscape:connector-curvature="0" id="path1961-2-9-7-9-3-1-6-5-1-5-8-7-8-2" style="font-style:normal;font-variant:normal;font-weight:bold;font-stretch:normal;font-size:120.99466705px;line-height:1.25;font-family:Aharoni;-inkscape-font-specification:'Aharoni, Bold';font-variant-ligatures:normal;font-variant-caps:normal;font-variant-numeric:normal;font-feature-settings:normal;text-align:start;letter-spacing:0px;word-spacing:0px;writing-mode:lr-tb;text-anchor:start;fill:#000000;fill-opacity:1;stroke:none;stroke-width:2.37649584" d="m 69.681125,237.49895 q 0,3.0385 -1.87856,5.1421 -1.84375,2.0647 -4.55721,2.0647 -2.67866,0 -4.55722,-2.1036 -1.84375,-2.1036 -1.84375,-5.1032 0,-2.9996 1.84375,-5.0642 1.87856,-2.1036 4.55722,-2.1036 2.67865,0 4.55721,2.1036 1.87856,2.0646 1.87856,5.0642 z m -0.73057,50.05782 h -11.41048 v -36.15072 h 11.41048 z"/>
      <path inkscape:connector-curvature="0" id="path1963-3-1-2-8-3-6-3-3-3-4-7-6-0-8" style="font-style:normal;font-variant:normal;font-weight:bold;font-stretch:normal;font-size:120.99466705px;line-height:1.25;font-family:Aharoni;-inkscape-font-specification:'Aharoni, Bold';font-variant-ligatures:normal;font-variant-caps:normal;font-variant-numeric:normal;font-feature-settings:normal;text-align:start;letter-spacing:0px;word-spacing:0px;writing-mode:lr-tb;text-anchor:start;fill:#000000;fill-opacity:1;stroke:none;stroke-width:2.37649584" d="m 93.369625,261.92405 h -6.50536 v 25.63272 h -11.4104 v -25.63272 h -3.75712 v -10.518 h 3.75712 v -10.8686 h 11.4104 v 10.8686 h 6.50536 z"/>
      <path id="path1967-3-3-6-2-9-6-2-5-3-0-9-8-2-1" style="font-style:normal;font-variant:normal;font-weight:bold;font-stretch:normal;font-size:120.99466705px;line-height:1.25;font-family:Aharoni;-inkscape-font-specification:'Aharoni, Bold';font-variant-ligatures:normal;font-variant-caps:normal;font-variant-numeric:normal;font-feature-settings:normal;text-align:start;letter-spacing:0px;word-spacing:0px;writing-mode:lr-tb;text-anchor:start;fill:#000000;fill-opacity:1;stroke:none;stroke-width:2.37649584" d="m 160.61447,287.55677 h -12.34971 v -53.17432 h 12.34971 z" inkscape:connector-curvature="0"/>
      <path inkscape:connector-curvature="0" id="path1969-8-0-8-5-3-5-6-6-3-9-8-6-2-0" style="font-style:normal;font-variant:normal;font-weight:bold;font-stretch:normal;font-size:120.99466705px;line-height:1.25;font-family:Aharoni;-inkscape-font-specification:'Aharoni, Bold';font-variant-ligatures:normal;font-variant-caps:normal;font-variant-numeric:normal;font-feature-settings:normal;text-align:start;letter-spacing:0px;word-spacing:0px;writing-mode:lr-tb;text-anchor:start;fill:#000000;fill-opacity:1;stroke:none;stroke-width:2.37649584" d="m 201.6896,284.86883 q -6.05314,2.68794 -11.20172,2.68794 -8.97528,0 -16.07201,-6.42764 -9.04489,-8.21959 -9.04489,-21.42558 0,-13.2448 9.04489,-21.4644 7.09673,-6.4277 16.17636,-6.4277 4.93989,0 11.09737,2.6879 v 16.5561 q -1.73941,-2.3763 -3.54836,-3.5839 -3.30489,-2.2204 -7.09679,-2.2204 -4.8007,0 -8.34907,3.2333 -4.48766,4.0903 -4.48766,11.2191 0,7.0899 4.48766,11.1803 3.54837,3.23328 8.34907,3.23328 3.7919,0 7.09679,-2.22049 1.77415,-1.16869 3.54836,-3.58389 z"/>
      <path inkscape:transform-center-y="-13.656107" inkscape:transform-center-x="-3.9758045" sodipodi:nodetypes="csssssc" inkscape:connector-curvature="0" id="rect815-3-0-9-3-5-6-0-4-03-7-3-7-5-3-2-76-3-8-8-5-3-7-8-0-1-3-7-9-2-8-1" d="m 104.61223,181.4353 c 0,0 17.68257,27.27493 22.63096,34.41579 7.92879,11.44185 16.42741,30.36094 17.92806,45.50275 1.21005,12.20999 -1.38345,26.51285 -17.32077,30.11208 -11.70405,2.64313 -26.75007,-5.41371 -30.334975,-20.50903 -3.30533,-13.91816 -2.13088,-34.61412 0.0984,-48.67354 1.22049,-7.69719 5.657305,-36.06774 6.998335,-40.84805 z" style="font-style:normal;font-weight:normal;font-size:242.08590698px;line-height:1.25;font-family:sans-serif;letter-spacing:0px;word-spacing:0px;opacity:1;fill:#00456b;fill-opacity:1;stroke:none;stroke-width:0.6720385;stroke-miterlimit:4;stroke-dasharray:none;stroke-dashoffset:0;stroke-opacity:1;paint-order:markers fill stroke"/>
      <path sodipodi:nodetypes="ccscscsccscccscc" d="m 107.52748,246.32531 6.45576,30.78617 6.82019,-1.47997 c 5.75791,-1.24946 9.70999,-3.40081 11.85576,-6.45394 2.16431,-3.05721 2.68673,-7.25521 1.56721,-12.59398 -1.11209,-5.30332 -3.26743,-8.89247 -6.46601,-10.76744 -3.18372,-1.89669 -7.65528,-2.22015 -13.4127,-0.97081 z m -8.759905,-5.09591 12.713095,-2.78742 c 8.8634,-1.94336 15.73718,-1.59097 20.62135,1.05715 4.88003,2.62843 8.10326,7.71587 9.6697,15.26232 1.57464,7.58584 0.64804,13.61405 -2.77981,18.08462 -3.42783,4.4705 -9.55303,7.67294 -18.37559,9.60735 l -12.71311,2.78742 z" style="font-style:normal;font-weight:normal;font-size:242.08590698px;line-height:1.25;font-family:sans-serif;letter-spacing:0px;word-spacing:0px;fill:#ffffff;fill-opacity:1;stroke:none;stroke-width:1.60286868" id="path1193-3-5-3-2-7-4-5-6-0-0-6-9-2-4-7-0-0" inkscape:connector-curvature="0"/>
    </g>
  </g>
</g>
    </g>
  </g>
</svg>
