<?xml version='1.0' encoding='ASCII' standalone='yes'?>
<svg xmlns:xlink="http://www.w3.org/1999/xlink" xmlns="http://www.w3.org/2000/svg" version="1.1" width="460.8px" viewBox="0 0 460.8px 345.6px" height="345.6px">
  <g>
    <g><defs>
  <style type="text/css">
*{stroke-linecap:butt;stroke-linejoin:round;}
  </style>
 </defs>
 <g id="figure_1">
  <g id="patch_1">
   <path d="M 0 345.6  L 460.8 345.6  L 460.8 0  L 0 0  z " style="fill:#ffffff;"/>
  </g>
  <g id="axes_1">
   <g id="patch_2">
    <path d="M 74.72 300.76  L 440.55 300.76  L 440.55 13.32  L 74.72 13.32  z " style="fill:#ffffff;"/>
   </g>
   <g id="matplotlib.axis_1">
    <g id="xtick_1">
     <g id="line2d_1">
      <defs>
       <path d="M 0 0  L 0 3.5  " id="m49656979f6" style="stroke:#000000;stroke-width:0.8;"/>
      </defs>
      <g>
       <use style="stroke:#000000;stroke-width:0.8;" x="74.72" xlink:href="#m49656979f6" y="300.76"/>
      </g>
     </g>
     <g id="text_1">
      <!-- 0 -->
      <defs>
       <path d="M 31.78125 66.40625  Q 24.171875 66.40625 20.328125 58.90625  Q 16.5 51.421875 16.5 36.375  Q 16.5 21.390625 20.328125 13.890625  Q 24.171875 6.390625 31.78125 6.390625  Q 39.453125 6.390625 43.28125 13.890625  Q 47.125 21.390625 47.125 36.375  Q 47.125 51.421875 43.28125 58.90625  Q 39.453125 66.40625 31.78125 66.40625  z M 31.78125 74.21875  Q 44.046875 74.21875 50.515625 64.515625  Q 56.984375 54.828125 56.984375 36.375  Q 56.984375 17.96875 50.515625 8.265625  Q 44.046875 -1.421875 31.78125 -1.421875  Q 19.53125 -1.421875 13.0625 8.265625  Q 6.59375 17.96875 6.59375 36.375  Q 6.59375 54.828125 13.0625 64.515625  Q 19.53125 74.21875 31.78125 74.21875  z " id="DejaVuSans-30"/>
      </defs>
      <g transform="translate(71.53875 315.358437)scale(0.1 -0.1)">
       <use xlink:href="#DejaVuSans-30"/>
      </g>
     </g>
    </g>
    <g id="xtick_2">
     <g id="line2d_2">
      <g>
       <use style="stroke:#000000;stroke-width:0.8;" x="120.44875" xlink:href="#m49656979f6" y="300.76"/>
      </g>
     </g>
     <g id="text_2">
      <!-- 25 -->
      <defs>
       <path d="M 19.1875 8.296875  L 53.609375 8.296875  L 53.609375 0  L 7.328125 0  L 7.328125 8.296875  Q 12.9375 14.109375 22.625 23.890625  Q 32.328125 33.6875 34.8125 36.53125  Q 39.546875 41.84375 41.421875 45.53125  Q 43.3125 49.21875 43.3125 52.78125  Q 43.3125 58.59375 39.234375 62.25  Q 35.15625 65.921875 28.609375 65.921875  Q 23.96875 65.921875 18.8125 64.3125  Q 13.671875 62.703125 7.8125 59.421875  L 7.8125 69.390625  Q 13.765625 71.78125 18.9375 73  Q 24.125 74.21875 28.421875 74.21875  Q 39.75 74.21875 46.484375 68.546875  Q 53.21875 62.890625 53.21875 53.421875  Q 53.21875 48.921875 51.53125 44.890625  Q 49.859375 40.875 45.40625 35.40625  Q 44.1875 33.984375 37.640625 27.21875  Q 31.109375 20.453125 19.1875 8.296875  z " id="DejaVuSans-32"/>
       <path d="M 10.796875 72.90625  L 49.515625 72.90625  L 49.515625 64.59375  L 19.828125 64.59375  L 19.828125 46.734375  Q 21.96875 47.46875 24.109375 47.828125  Q 26.265625 48.1875 28.421875 48.1875  Q 40.625 48.1875 47.75 41.5  Q 54.890625 34.8125 54.890625 23.390625  Q 54.890625 11.625 47.5625 5.09375  Q 40.234375 -1.421875 26.90625 -1.421875  Q 22.3125 -1.421875 17.546875 -0.640625  Q 12.796875 0.140625 7.71875 1.703125  L 7.71875 11.625  Q 12.109375 9.234375 16.796875 8.0625  Q 21.484375 6.890625 26.703125 6.890625  Q 35.15625 6.890625 40.078125 11.328125  Q 45.015625 15.765625 45.015625 23.390625  Q 45.015625 31 40.078125 35.4375  Q 35.15625 39.890625 26.703125 39.890625  Q 22.75 39.890625 18.8125 39.015625  Q 14.890625 38.140625 10.796875 36.28125  z " id="DejaVuSans-35"/>
      </defs>
      <g transform="translate(114.08625 315.358437)scale(0.1 -0.1)">
       <use xlink:href="#DejaVuSans-32"/>
       <use x="63.623047" xlink:href="#DejaVuSans-35"/>
      </g>
     </g>
    </g>
    <g id="xtick_3">
     <g id="line2d_3">
      <g>
       <use style="stroke:#000000;stroke-width:0.8;" x="166.1775" xlink:href="#m49656979f6" y="300.76"/>
      </g>
     </g>
     <g id="text_3">
      <!-- 50 -->
      <g transform="translate(159.815 315.358437)scale(0.1 -0.1)">
       <use xlink:href="#DejaVuSans-35"/>
       <use x="63.623047" xlink:href="#DejaVuSans-30"/>
      </g>
     </g>
    </g>
    <g id="xtick_4">
     <g id="line2d_4">
      <g>
       <use style="stroke:#000000;stroke-width:0.8;" x="211.90625" xlink:href="#m49656979f6" y="300.76"/>
      </g>
     </g>
     <g id="text_4">
      <!-- 75 -->
      <defs>
       <path d="M 8.203125 72.90625  L 55.078125 72.90625  L 55.078125 68.703125  L 28.609375 0  L 18.3125 0  L 43.21875 64.59375  L 8.203125 64.59375  z " id="DejaVuSans-37"/>
      </defs>
      <g transform="translate(205.54375 315.358437)scale(0.1 -0.1)">
       <use xlink:href="#DejaVuSans-37"/>
       <use x="63.623047" xlink:href="#DejaVuSans-35"/>
      </g>
     </g>
    </g>
    <g id="xtick_5">
     <g id="line2d_5">
      <g>
       <use style="stroke:#000000;stroke-width:0.8;" x="257.635" xlink:href="#m49656979f6" y="300.76"/>
      </g>
     </g>
     <g id="text_5">
      <!-- 100 -->
      <defs>
       <path d="M 12.40625 8.296875  L 28.515625 8.296875  L 28.515625 63.921875  L 10.984375 60.40625  L 10.984375 69.390625  L 28.421875 72.90625  L 38.28125 72.90625  L 38.28125 8.296875  L 54.390625 8.296875  L 54.390625 0  L 12.40625 0  z " id="DejaVuSans-31"/>
      </defs>
      <g transform="translate(248.09125 315.358437)scale(0.1 -0.1)">
       <use xlink:href="#DejaVuSans-31"/>
       <use x="63.623047" xlink:href="#DejaVuSans-30"/>
       <use x="127.246094" xlink:href="#DejaVuSans-30"/>
      </g>
     </g>
    </g>
    <g id="xtick_6">
     <g id="line2d_6">
      <g>
       <use style="stroke:#000000;stroke-width:0.8;" x="303.36375" xlink:href="#m49656979f6" y="300.76"/>
      </g>
     </g>
     <g id="text_6">
      <!-- 125 -->
      <g transform="translate(293.82 315.358437)scale(0.1 -0.1)">
       <use xlink:href="#DejaVuSans-31"/>
       <use x="63.623047" xlink:href="#DejaVuSans-32"/>
       <use x="127.246094" xlink:href="#DejaVuSans-35"/>
      </g>
     </g>
    </g>
    <g id="xtick_7">
     <g id="line2d_7">
      <g>
       <use style="stroke:#000000;stroke-width:0.8;" x="349.0925" xlink:href="#m49656979f6" y="300.76"/>
      </g>
     </g>
     <g id="text_7">
      <!-- 150 -->
      <g transform="translate(339.54875 315.358437)scale(0.1 -0.1)">
       <use xlink:href="#DejaVuSans-31"/>
       <use x="63.623047" xlink:href="#DejaVuSans-35"/>
       <use x="127.246094" xlink:href="#DejaVuSans-30"/>
      </g>
     </g>
    </g>
    <g id="xtick_8">
     <g id="line2d_8">
      <g>
       <use style="stroke:#000000;stroke-width:0.8;" x="394.82125" xlink:href="#m49656979f6" y="300.76"/>
      </g>
     </g>
     <g id="text_8">
      <!-- 175 -->
      <g transform="translate(385.2775 315.358437)scale(0.1 -0.1)">
       <use xlink:href="#DejaVuSans-31"/>
       <use x="63.623047" xlink:href="#DejaVuSans-37"/>
       <use x="127.246094" xlink:href="#DejaVuSans-35"/>
      </g>
     </g>
    </g>
    <g id="xtick_9">
     <g id="line2d_9">
      <g>
       <use style="stroke:#000000;stroke-width:0.8;" x="440.55" xlink:href="#m49656979f6" y="300.76"/>
      </g>
     </g>
     <g id="text_9">
      <!-- 200 -->
      <g transform="translate(431.00625 315.358437)scale(0.1 -0.1)">
       <use xlink:href="#DejaVuSans-32"/>
       <use x="63.623047" xlink:href="#DejaVuSans-30"/>
       <use x="127.246094" xlink:href="#DejaVuSans-30"/>
      </g>
     </g>
    </g>
    <g id="text_10">
     <!-- Distance ($\mu$m) -->
     <defs>
      <path d="M 19.671875 64.796875  L 19.671875 8.109375  L 31.59375 8.109375  Q 46.6875 8.109375 53.6875 14.9375  Q 60.6875 21.78125 60.6875 36.53125  Q 60.6875 51.171875 53.6875 57.984375  Q 46.6875 64.796875 31.59375 64.796875  z M 9.8125 72.90625  L 30.078125 72.90625  Q 51.265625 72.90625 61.171875 64.09375  Q 71.09375 55.28125 71.09375 36.53125  Q 71.09375 17.671875 61.125 8.828125  Q 51.171875 0 30.078125 0  L 9.8125 0  z " id="DejaVuSans-44"/>
      <path d="M 9.421875 54.6875  L 18.40625 54.6875  L 18.40625 0  L 9.421875 0  z M 9.421875 75.984375  L 18.40625 75.984375  L 18.40625 64.59375  L 9.421875 64.59375  z " id="DejaVuSans-69"/>
      <path d="M 44.28125 53.078125  L 44.28125 44.578125  Q 40.484375 46.53125 36.375 47.5  Q 32.28125 48.484375 27.875 48.484375  Q 21.1875 48.484375 17.84375 46.4375  Q 14.5 44.390625 14.5 40.28125  Q 14.5 37.15625 16.890625 35.375  Q 19.28125 33.59375 26.515625 31.984375  L 29.59375 31.296875  Q 39.15625 29.25 43.1875 25.515625  Q 47.21875 21.78125 47.21875 15.09375  Q 47.21875 7.46875 41.1875 3.015625  Q 35.15625 -1.421875 24.609375 -1.421875  Q 20.21875 -1.421875 15.453125 -0.5625  Q 10.6875 0.296875 5.421875 2  L 5.421875 11.28125  Q 10.40625 8.6875 15.234375 7.390625  Q 20.0625 6.109375 24.8125 6.109375  Q 31.15625 6.109375 34.5625 8.28125  Q 37.984375 10.453125 37.984375 14.40625  Q 37.984375 18.0625 35.515625 20.015625  Q 33.0625 21.96875 24.703125 23.78125  L 21.578125 24.515625  Q 13.234375 26.265625 9.515625 29.90625  Q 5.8125 33.546875 5.8125 39.890625  Q 5.8125 47.609375 11.28125 51.796875  Q 16.75 56 26.8125 56  Q 31.78125 56 36.171875 55.265625  Q 40.578125 54.546875 44.28125 53.078125  z " id="DejaVuSans-73"/>
      <path d="M 18.3125 70.21875  L 18.3125 54.6875  L 36.8125 54.6875  L 36.8125 47.703125  L 18.3125 47.703125  L 18.3125 18.015625  Q 18.3125 11.328125 20.140625 9.421875  Q 21.96875 7.515625 27.59375 7.515625  L 36.8125 7.515625  L 36.8125 0  L 27.59375 0  Q 17.1875 0 13.234375 3.875  Q 9.28125 7.765625 9.28125 18.015625  L 9.28125 47.703125  L 2.6875 47.703125  L 2.6875 54.6875  L 9.28125 54.6875  L 9.28125 70.21875  z " id="DejaVuSans-74"/>
      <path d="M 34.28125 27.484375  Q 23.390625 27.484375 19.1875 25  Q 14.984375 22.515625 14.984375 16.5  Q 14.984375 11.71875 18.140625 8.90625  Q 21.296875 6.109375 26.703125 6.109375  Q 34.1875 6.109375 38.703125 11.40625  Q 43.21875 16.703125 43.21875 25.484375  L 43.21875 27.484375  z M 52.203125 31.203125  L 52.203125 0  L 43.21875 0  L 43.21875 8.296875  Q 40.140625 3.328125 35.546875 0.953125  Q 30.953125 -1.421875 24.3125 -1.421875  Q 15.921875 -1.421875 10.953125 3.296875  Q 6 8.015625 6 15.921875  Q 6 25.140625 12.171875 29.828125  Q 18.359375 34.515625 30.609375 34.515625  L 43.21875 34.515625  L 43.21875 35.40625  Q 43.21875 41.609375 39.140625 45  Q 35.0625 48.390625 27.6875 48.390625  Q 23 48.390625 18.546875 47.265625  Q 14.109375 46.140625 10.015625 43.890625  L 10.015625 52.203125  Q 14.9375 54.109375 19.578125 55.046875  Q 24.21875 56 28.609375 56  Q 40.484375 56 46.34375 49.84375  Q 52.203125 43.703125 52.203125 31.203125  z " id="DejaVuSans-61"/>
      <path d="M 54.890625 33.015625  L 54.890625 0  L 45.90625 0  L 45.90625 32.71875  Q 45.90625 40.484375 42.875 44.328125  Q 39.84375 48.1875 33.796875 48.1875  Q 26.515625 48.1875 22.3125 43.546875  Q 18.109375 38.921875 18.109375 30.90625  L 18.109375 0  L 9.078125 0  L 9.078125 54.6875  L 18.109375 54.6875  L 18.109375 46.1875  Q 21.34375 51.125 25.703125 53.5625  Q 30.078125 56 35.796875 56  Q 45.21875 56 50.046875 50.171875  Q 54.890625 44.34375 54.890625 33.015625  z " id="DejaVuSans-6e"/>
      <path d="M 48.78125 52.59375  L 48.78125 44.1875  Q 44.96875 46.296875 41.140625 47.34375  Q 37.3125 48.390625 33.40625 48.390625  Q 24.65625 48.390625 19.8125 42.84375  Q 14.984375 37.3125 14.984375 27.296875  Q 14.984375 17.28125 19.8125 11.734375  Q 24.65625 6.203125 33.40625 6.203125  Q 37.3125 6.203125 41.140625 7.25  Q 44.96875 8.296875 48.78125 10.40625  L 48.78125 2.09375  Q 45.015625 0.34375 40.984375 -0.53125  Q 36.96875 -1.421875 32.421875 -1.421875  Q 20.0625 -1.421875 12.78125 6.34375  Q 5.515625 14.109375 5.515625 27.296875  Q 5.515625 40.671875 12.859375 48.328125  Q 20.21875 56 33.015625 56  Q 37.15625 56 41.109375 55.140625  Q 45.0625 54.296875 48.78125 52.59375  z " id="DejaVuSans-63"/>
      <path d="M 56.203125 29.59375  L 56.203125 25.203125  L 14.890625 25.203125  Q 15.484375 15.921875 20.484375 11.0625  Q 25.484375 6.203125 34.421875 6.203125  Q 39.59375 6.203125 44.453125 7.46875  Q 49.3125 8.734375 54.109375 11.28125  L 54.109375 2.78125  Q 49.265625 0.734375 44.1875 -0.34375  Q 39.109375 -1.421875 33.890625 -1.421875  Q 20.796875 -1.421875 13.15625 6.1875  Q 5.515625 13.8125 5.515625 26.8125  Q 5.515625 40.234375 12.765625 48.109375  Q 20.015625 56 32.328125 56  Q 43.359375 56 49.78125 48.890625  Q 56.203125 41.796875 56.203125 29.59375  z M 47.21875 32.234375  Q 47.125 39.59375 43.09375 43.984375  Q 39.0625 48.390625 32.421875 48.390625  Q 24.90625 48.390625 20.390625 44.140625  Q 15.875 39.890625 15.1875 32.171875  z " id="DejaVuSans-65"/>
      <path id="DejaVuSans-20"/>
      <path d="M 31 75.875  Q 24.46875 64.65625 21.28125 53.65625  Q 18.109375 42.671875 18.109375 31.390625  Q 18.109375 20.125 21.3125 9.0625  Q 24.515625 -2 31 -13.1875  L 23.1875 -13.1875  Q 15.875 -1.703125 12.234375 9.375  Q 8.59375 20.453125 8.59375 31.390625  Q 8.59375 42.28125 12.203125 53.3125  Q 15.828125 64.359375 23.1875 75.875  z " id="DejaVuSans-28"/>
      <path d="M -1.3125 -20.796875  L 13.375 54.6875  L 22.40625 54.6875  L 15.765625 20.65625  Q 15.578125 19.625 15.421875 18.359375  Q 15.28125 17.09375 15.28125 15.828125  Q 15.28125 11.28125 18.140625 8.828125  Q 21 6.390625 26.3125 6.390625  Q 33.546875 6.390625 37.984375 10.484375  Q 42.4375 14.59375 44 22.796875  L 50.203125 54.6875  L 59.1875 54.6875  L 51.03125 12.640625  Q 50.828125 11.71875 50.75 11.03125  Q 50.6875 10.359375 50.6875 9.8125  Q 50.6875 8.296875 51.296875 7.59375  Q 51.90625 6.890625 53.21875 6.890625  Q 53.71875 6.890625 54.5625 7.125  Q 55.421875 7.375 56.984375 8.015625  L 55.609375 0.78125  Q 53.46875 -0.296875 51.515625 -0.859375  Q 49.5625 -1.421875 47.703125 -1.421875  Q 44.484375 -1.421875 42.65625 0.625  Q 40.828125 2.6875 40.828125 6.296875  Q 38.09375 2.390625 34.296875 0.484375  Q 30.515625 -1.421875 25.390625 -1.421875  Q 20.84375 -1.421875 17.453125 0.671875  Q 14.0625 2.78125 12.984375 6.203125  L 7.71875 -20.796875  z " id="DejaVuSans-Oblique-3bc"/>
      <path d="M 52 44.1875  Q 55.375 50.25 60.0625 53.125  Q 64.75 56 71.09375 56  Q 79.640625 56 84.28125 50.015625  Q 88.921875 44.046875 88.921875 33.015625  L 88.921875 0  L 79.890625 0  L 79.890625 32.71875  Q 79.890625 40.578125 77.09375 44.375  Q 74.3125 48.1875 68.609375 48.1875  Q 61.625 48.1875 57.5625 43.546875  Q 53.515625 38.921875 53.515625 30.90625  L 53.515625 0  L 44.484375 0  L 44.484375 32.71875  Q 44.484375 40.625 41.703125 44.40625  Q 38.921875 48.1875 33.109375 48.1875  Q 26.21875 48.1875 22.15625 43.53125  Q 18.109375 38.875 18.109375 30.90625  L 18.109375 0  L 9.078125 0  L 9.078125 54.6875  L 18.109375 54.6875  L 18.109375 46.1875  Q 21.1875 51.21875 25.484375 53.609375  Q 29.78125 56 35.6875 56  Q 41.65625 56 45.828125 52.96875  Q 50 49.953125 52 44.1875  z " id="DejaVuSans-6d"/>
      <path d="M 8.015625 75.875  L 15.828125 75.875  Q 23.140625 64.359375 26.78125 53.3125  Q 30.421875 42.28125 30.421875 31.390625  Q 30.421875 20.453125 26.78125 9.375  Q 23.140625 -1.703125 15.828125 -13.1875  L 8.015625 -13.1875  Q 14.5 -2 17.703125 9.0625  Q 20.90625 20.125 20.90625 31.390625  Q 20.90625 42.671875 17.703125 53.65625  Q 14.5 64.65625 8.015625 75.875  z " id="DejaVuSans-29"/>
     </defs>
     <g transform="translate(222.185 329.038125)scale(0.1 -0.1)">
      <use transform="translate(0 0.015625)" xlink:href="#DejaVuSans-44"/>
      <use transform="translate(77.001953 0.015625)" xlink:href="#DejaVuSans-69"/>
      <use transform="translate(104.785156 0.015625)" xlink:href="#DejaVuSans-73"/>
      <use transform="translate(156.884766 0.015625)" xlink:href="#DejaVuSans-74"/>
      <use transform="translate(196.09375 0.015625)" xlink:href="#DejaVuSans-61"/>
      <use transform="translate(257.373047 0.015625)" xlink:href="#DejaVuSans-6e"/>
      <use transform="translate(320.751953 0.015625)" xlink:href="#DejaVuSans-63"/>
      <use transform="translate(375.732422 0.015625)" xlink:href="#DejaVuSans-65"/>
      <use transform="translate(437.255859 0.015625)" xlink:href="#DejaVuSans-20"/>
      <use transform="translate(469.042969 0.015625)" xlink:href="#DejaVuSans-28"/>
      <use transform="translate(508.056641 0.015625)" xlink:href="#DejaVuSans-Oblique-3bc"/>
      <use transform="translate(571.679688 0.015625)" xlink:href="#DejaVuSans-6d"/>
      <use transform="translate(669.091797 0.015625)" xlink:href="#DejaVuSans-29"/>
     </g>
    </g>
   </g>
   <g id="matplotlib.axis_2">
    <g id="ytick_1">
     <g id="line2d_10">
      <defs>
       <path d="M 0 0  L -3.5 0  " id="m0e01a6a43a" style="stroke:#000000;stroke-width:0.8;"/>
      </defs>
      <g>
       <use style="stroke:#000000;stroke-width:0.8;" x="74.72" xlink:href="#m0e01a6a43a" y="277.955687"/>
      </g>
     </g>
     <g id="text_11">
      <!-- &#8722;60000 -->
      <defs>
       <path d="M 10.59375 35.5  L 73.1875 35.5  L 73.1875 27.203125  L 10.59375 27.203125  z " id="DejaVuSans-2212"/>
       <path d="M 33.015625 40.375  Q 26.375 40.375 22.484375 35.828125  Q 18.609375 31.296875 18.609375 23.390625  Q 18.609375 15.53125 22.484375 10.953125  Q 26.375 6.390625 33.015625 6.390625  Q 39.65625 6.390625 43.53125 10.953125  Q 47.40625 15.53125 47.40625 23.390625  Q 47.40625 31.296875 43.53125 35.828125  Q 39.65625 40.375 33.015625 40.375  z M 52.59375 71.296875  L 52.59375 62.3125  Q 48.875 64.0625 45.09375 64.984375  Q 41.3125 65.921875 37.59375 65.921875  Q 27.828125 65.921875 22.671875 59.328125  Q 17.53125 52.734375 16.796875 39.40625  Q 19.671875 43.65625 24.015625 45.921875  Q 28.375 48.1875 33.59375 48.1875  Q 44.578125 48.1875 50.953125 41.515625  Q 57.328125 34.859375 57.328125 23.390625  Q 57.328125 12.15625 50.6875 5.359375  Q 44.046875 -1.421875 33.015625 -1.421875  Q 20.359375 -1.421875 13.671875 8.265625  Q 6.984375 17.96875 6.984375 36.375  Q 6.984375 53.65625 15.1875 63.9375  Q 23.390625 74.21875 37.203125 74.21875  Q 40.921875 74.21875 44.703125 73.484375  Q 48.484375 72.75 52.59375 71.296875  z " id="DejaVuSans-36"/>
      </defs>
      <g transform="translate(27.527813 281.754905)scale(0.1 -0.1)">
       <use xlink:href="#DejaVuSans-2212"/>
       <use x="83.789062" xlink:href="#DejaVuSans-36"/>
       <use x="147.412109" xlink:href="#DejaVuSans-30"/>
       <use x="211.035156" xlink:href="#DejaVuSans-30"/>
       <use x="274.658203" xlink:href="#DejaVuSans-30"/>
       <use x="338.28125" xlink:href="#DejaVuSans-30"/>
      </g>
     </g>
    </g>
    <g id="ytick_2">
     <g id="line2d_11">
      <g>
       <use style="stroke:#000000;stroke-width:0.8;" x="74.72" xlink:href="#m0e01a6a43a" y="226.228441"/>
      </g>
     </g>
     <g id="text_12">
      <!-- &#8722;40000 -->
      <defs>
       <path d="M 37.796875 64.3125  L 12.890625 25.390625  L 37.796875 25.390625  z M 35.203125 72.90625  L 47.609375 72.90625  L 47.609375 25.390625  L 58.015625 25.390625  L 58.015625 17.1875  L 47.609375 17.1875  L 47.609375 0  L 37.796875 0  L 37.796875 17.1875  L 4.890625 17.1875  L 4.890625 26.703125  z " id="DejaVuSans-34"/>
      </defs>
      <g transform="translate(27.527813 230.02766)scale(0.1 -0.1)">
       <use xlink:href="#DejaVuSans-2212"/>
       <use x="83.789062" xlink:href="#DejaVuSans-34"/>
       <use x="147.412109" xlink:href="#DejaVuSans-30"/>
       <use x="211.035156" xlink:href="#DejaVuSans-30"/>
       <use x="274.658203" xlink:href="#DejaVuSans-30"/>
       <use x="338.28125" xlink:href="#DejaVuSans-30"/>
      </g>
     </g>
    </g>
    <g id="ytick_3">
     <g id="line2d_12">
      <g>
       <use style="stroke:#000000;stroke-width:0.8;" x="74.72" xlink:href="#m0e01a6a43a" y="174.501196"/>
      </g>
     </g>
     <g id="text_13">
      <!-- &#8722;20000 -->
      <g transform="translate(27.527813 178.300414)scale(0.1 -0.1)">
       <use xlink:href="#DejaVuSans-2212"/>
       <use x="83.789062" xlink:href="#DejaVuSans-32"/>
       <use x="147.412109" xlink:href="#DejaVuSans-30"/>
       <use x="211.035156" xlink:href="#DejaVuSans-30"/>
       <use x="274.658203" xlink:href="#DejaVuSans-30"/>
       <use x="338.28125" xlink:href="#DejaVuSans-30"/>
      </g>
     </g>
    </g>
    <g id="ytick_4">
     <g id="line2d_13">
      <g>
       <use style="stroke:#000000;stroke-width:0.8;" x="74.72" xlink:href="#m0e01a6a43a" y="122.77395"/>
      </g>
     </g>
     <g id="text_14">
      <!-- 0 -->
      <g transform="translate(61.3575 126.573169)scale(0.1 -0.1)">
       <use xlink:href="#DejaVuSans-30"/>
      </g>
     </g>
    </g>
    <g id="ytick_5">
     <g id="line2d_14">
      <g>
       <use style="stroke:#000000;stroke-width:0.8;" x="74.72" xlink:href="#m0e01a6a43a" y="71.046704"/>
      </g>
     </g>
     <g id="text_15">
      <!-- 20000 -->
      <g transform="translate(35.9075 74.845923)scale(0.1 -0.1)">
       <use xlink:href="#DejaVuSans-32"/>
       <use x="63.623047" xlink:href="#DejaVuSans-30"/>
       <use x="127.246094" xlink:href="#DejaVuSans-30"/>
       <use x="190.869141" xlink:href="#DejaVuSans-30"/>
       <use x="254.492188" xlink:href="#DejaVuSans-30"/>
      </g>
     </g>
    </g>
    <g id="ytick_6">
     <g id="line2d_15">
      <g>
       <use style="stroke:#000000;stroke-width:0.8;" x="74.72" xlink:href="#m0e01a6a43a" y="19.319459"/>
      </g>
     </g>
     <g id="text_16">
      <!-- 40000 -->
      <g transform="translate(35.9075 23.118678)scale(0.1 -0.1)">
       <use xlink:href="#DejaVuSans-34"/>
       <use x="63.623047" xlink:href="#DejaVuSans-30"/>
       <use x="127.246094" xlink:href="#DejaVuSans-30"/>
       <use x="190.869141" xlink:href="#DejaVuSans-30"/>
       <use x="254.492188" xlink:href="#DejaVuSans-30"/>
      </g>
     </g>
    </g>
    <g id="text_17">
     <!-- Slope, at. / $\mu m$ -->
     <defs>
      <path d="M 53.515625 70.515625  L 53.515625 60.890625  Q 47.90625 63.578125 42.921875 64.890625  Q 37.9375 66.21875 33.296875 66.21875  Q 25.25 66.21875 20.875 63.09375  Q 16.5 59.96875 16.5 54.203125  Q 16.5 49.359375 19.40625 46.890625  Q 22.3125 44.4375 30.421875 42.921875  L 36.375 41.703125  Q 47.40625 39.59375 52.65625 34.296875  Q 57.90625 29 57.90625 20.125  Q 57.90625 9.515625 50.796875 4.046875  Q 43.703125 -1.421875 29.984375 -1.421875  Q 24.8125 -1.421875 18.96875 -0.25  Q 13.140625 0.921875 6.890625 3.21875  L 6.890625 13.375  Q 12.890625 10.015625 18.65625 8.296875  Q 24.421875 6.59375 29.984375 6.59375  Q 38.421875 6.59375 43.015625 9.90625  Q 47.609375 13.234375 47.609375 19.390625  Q 47.609375 24.75 44.3125 27.78125  Q 41.015625 30.8125 33.5 32.328125  L 27.484375 33.5  Q 16.453125 35.6875 11.515625 40.375  Q 6.59375 45.0625 6.59375 53.421875  Q 6.59375 63.09375 13.40625 68.65625  Q 20.21875 74.21875 32.171875 74.21875  Q 37.3125 74.21875 42.625 73.28125  Q 47.953125 72.359375 53.515625 70.515625  z " id="DejaVuSans-53"/>
      <path d="M 9.421875 75.984375  L 18.40625 75.984375  L 18.40625 0  L 9.421875 0  z " id="DejaVuSans-6c"/>
      <path d="M 30.609375 48.390625  Q 23.390625 48.390625 19.1875 42.75  Q 14.984375 37.109375 14.984375 27.296875  Q 14.984375 17.484375 19.15625 11.84375  Q 23.34375 6.203125 30.609375 6.203125  Q 37.796875 6.203125 41.984375 11.859375  Q 46.1875 17.53125 46.1875 27.296875  Q 46.1875 37.015625 41.984375 42.703125  Q 37.796875 48.390625 30.609375 48.390625  z M 30.609375 56  Q 42.328125 56 49.015625 48.375  Q 55.71875 40.765625 55.71875 27.296875  Q 55.71875 13.875 49.015625 6.21875  Q 42.328125 -1.421875 30.609375 -1.421875  Q 18.84375 -1.421875 12.171875 6.21875  Q 5.515625 13.875 5.515625 27.296875  Q 5.515625 40.765625 12.171875 48.375  Q 18.84375 56 30.609375 56  z " id="DejaVuSans-6f"/>
      <path d="M 18.109375 8.203125  L 18.109375 -20.796875  L 9.078125 -20.796875  L 9.078125 54.6875  L 18.109375 54.6875  L 18.109375 46.390625  Q 20.953125 51.265625 25.265625 53.625  Q 29.59375 56 35.59375 56  Q 45.5625 56 51.78125 48.09375  Q 58.015625 40.1875 58.015625 27.296875  Q 58.015625 14.40625 51.78125 6.484375  Q 45.5625 -1.421875 35.59375 -1.421875  Q 29.59375 -1.421875 25.265625 0.953125  Q 20.953125 3.328125 18.109375 8.203125  z M 48.6875 27.296875  Q 48.6875 37.203125 44.609375 42.84375  Q 40.53125 48.484375 33.40625 48.484375  Q 26.265625 48.484375 22.1875 42.84375  Q 18.109375 37.203125 18.109375 27.296875  Q 18.109375 17.390625 22.1875 11.75  Q 26.265625 6.109375 33.40625 6.109375  Q 40.53125 6.109375 44.609375 11.75  Q 48.6875 17.390625 48.6875 27.296875  z " id="DejaVuSans-70"/>
      <path d="M 11.71875 12.40625  L 22.015625 12.40625  L 22.015625 4  L 14.015625 -11.625  L 7.71875 -11.625  L 11.71875 4  z " id="DejaVuSans-2c"/>
      <path d="M 10.6875 12.40625  L 21 12.40625  L 21 0  L 10.6875 0  z " id="DejaVuSans-2e"/>
      <path d="M 25.390625 72.90625  L 33.6875 72.90625  L 8.296875 -9.28125  L 0 -9.28125  z " id="DejaVuSans-2f"/>
      <path d="M 89.796875 33.015625  L 83.40625 0  L 74.421875 0  L 80.71875 32.71875  Q 81.109375 34.8125 81.296875 36.328125  Q 81.5 37.84375 81.5 38.921875  Q 81.5 43.3125 79.046875 45.75  Q 76.609375 48.1875 72.21875 48.1875  Q 65.671875 48.1875 60.546875 43.28125  Q 55.421875 38.375 53.90625 30.515625  L 47.90625 0  L 38.921875 0  L 45.3125 32.71875  Q 45.703125 34.515625 45.890625 36.046875  Q 46.09375 37.59375 46.09375 38.8125  Q 46.09375 43.265625 43.65625 45.71875  Q 41.21875 48.1875 36.921875 48.1875  Q 30.28125 48.1875 25.140625 43.28125  Q 20.015625 38.375 18.5 30.515625  L 12.5 0  L 3.515625 0  L 14.203125 54.6875  L 23.1875 54.6875  L 21.484375 46.1875  Q 25.140625 50.984375 30.046875 53.484375  Q 34.96875 56 40.578125 56  Q 46.53125 56 50.359375 52.875  Q 54.203125 49.75 54.984375 44.1875  Q 59.078125 49.953125 64.46875 52.96875  Q 69.875 56 75.875 56  Q 82.90625 56 86.734375 51.953125  Q 90.578125 47.90625 90.578125 40.484375  Q 90.578125 38.875 90.375 36.9375  Q 90.1875 35.015625 89.796875 33.015625  z " id="DejaVuSans-Oblique-6d"/>
     </defs>
     <g transform="translate(21.427813 193.64)rotate(-90)scale(0.1 -0.1)">
      <use transform="translate(0 0.015625)" xlink:href="#DejaVuSans-53"/>
      <use transform="translate(63.476562 0.015625)" xlink:href="#DejaVuSans-6c"/>
      <use transform="translate(91.259766 0.015625)" xlink:href="#DejaVuSans-6f"/>
      <use transform="translate(152.441406 0.015625)" xlink:href="#DejaVuSans-70"/>
      <use transform="translate(215.917969 0.015625)" xlink:href="#DejaVuSans-65"/>
      <use transform="translate(277.441406 0.015625)" xlink:href="#DejaVuSans-2c"/>
      <use transform="translate(309.228516 0.015625)" xlink:href="#DejaVuSans-20"/>
      <use transform="translate(341.015625 0.015625)" xlink:href="#DejaVuSans-61"/>
      <use transform="translate(402.294922 0.015625)" xlink:href="#DejaVuSans-74"/>
      <use transform="translate(441.503906 0.015625)" xlink:href="#DejaVuSans-2e"/>
      <use transform="translate(473.291016 0.015625)" xlink:href="#DejaVuSans-20"/>
      <use transform="translate(505.078125 0.015625)" xlink:href="#DejaVuSans-2f"/>
      <use transform="translate(538.769531 0.015625)" xlink:href="#DejaVuSans-20"/>
      <use transform="translate(570.556641 0.015625)" xlink:href="#DejaVuSans-Oblique-3bc"/>
      <use transform="translate(634.179688 0.015625)" xlink:href="#DejaVuSans-Oblique-6d"/>
     </g>
    </g>
   </g>
   <g id="line2d_16">
    <defs>
     <path d="M -0 3  L 3 -3  L -3 -3  z " id="m384656563c" style="stroke:#f13a13;stroke-linejoin:miter;"/>
    </defs>
    <g clip-path="url(#pbb7f073727)">
     <use style="fill:#f13a13;stroke:#f13a13;stroke-linejoin:miter;" x="74.362744" xlink:href="#m384656563c" y="121.598836"/>
     <use style="fill:#f13a13;stroke:#f13a13;stroke-linejoin:miter;" x="79.002549" xlink:href="#m384656563c" y="121.598836"/>
     <use style="fill:#f13a13;stroke:#f13a13;stroke-linejoin:miter;" x="83.642352" xlink:href="#m384656563c" y="122.564928"/>
     <use style="fill:#f13a13;stroke:#f13a13;stroke-linejoin:miter;" x="88.282156" xlink:href="#m384656563c" y="123.237368"/>
     <use style="fill:#f13a13;stroke:#f13a13;stroke-linejoin:miter;" x="92.921959" xlink:href="#m384656563c" y="123.086719"/>
     <use style="fill:#f13a13;stroke:#f13a13;stroke-linejoin:miter;" x="97.561767" xlink:href="#m384656563c" y="122.388023"/>
     <use style="fill:#f13a13;stroke:#f13a13;stroke-linejoin:miter;" x="102.20157" xlink:href="#m384656563c" y="122.587614"/>
     <use style="fill:#f13a13;stroke:#f13a13;stroke-linejoin:miter;" x="106.841374" xlink:href="#m384656563c" y="123.138465"/>
     <use style="fill:#f13a13;stroke:#f13a13;stroke-linejoin:miter;" x="111.481178" xlink:href="#m384656563c" y="123.143359"/>
     <use style="fill:#f13a13;stroke:#f13a13;stroke-linejoin:miter;" x="116.120981" xlink:href="#m384656563c" y="123.120723"/>
     <use style="fill:#f13a13;stroke:#f13a13;stroke-linejoin:miter;" x="120.760785" xlink:href="#m384656563c" y="122.865104"/>
     <use style="fill:#f13a13;stroke:#f13a13;stroke-linejoin:miter;" x="125.400588" xlink:href="#m384656563c" y="122.647415"/>
     <use style="fill:#f13a13;stroke:#f13a13;stroke-linejoin:miter;" x="130.040392" xlink:href="#m384656563c" y="121.764321"/>
     <use style="fill:#f13a13;stroke:#f13a13;stroke-linejoin:miter;" x="134.680195" xlink:href="#m384656563c" y="123.644707"/>
     <use style="fill:#f13a13;stroke:#f13a13;stroke-linejoin:miter;" x="139.319999" xlink:href="#m384656563c" y="123.847306"/>
     <use style="fill:#f13a13;stroke:#f13a13;stroke-linejoin:miter;" x="143.959803" xlink:href="#m384656563c" y="121.150202"/>
     <use style="fill:#f13a13;stroke:#f13a13;stroke-linejoin:miter;" x="148.599606" xlink:href="#m384656563c" y="122.845629"/>
     <use style="fill:#f13a13;stroke:#f13a13;stroke-linejoin:miter;" x="153.23941" xlink:href="#m384656563c" y="124.15773"/>
     <use style="fill:#f13a13;stroke:#f13a13;stroke-linejoin:miter;" x="157.879213" xlink:href="#m384656563c" y="121.963861"/>
     <use style="fill:#f13a13;stroke:#f13a13;stroke-linejoin:miter;" x="162.519017" xlink:href="#m384656563c" y="122.884426"/>
     <use style="fill:#f13a13;stroke:#f13a13;stroke-linejoin:miter;" x="167.158821" xlink:href="#m384656563c" y="124.583218"/>
     <use style="fill:#f13a13;stroke:#f13a13;stroke-linejoin:miter;" x="171.798624" xlink:href="#m384656563c" y="123.65108"/>
     <use style="fill:#f13a13;stroke:#f13a13;stroke-linejoin:miter;" x="176.438428" xlink:href="#m384656563c" y="123.190771"/>
     <use style="fill:#f13a13;stroke:#f13a13;stroke-linejoin:miter;" x="181.078231" xlink:href="#m384656563c" y="123.812996"/>
     <use style="fill:#f13a13;stroke:#f13a13;stroke-linejoin:miter;" x="185.718035" xlink:href="#m384656563c" y="125.07284"/>
     <use style="fill:#f13a13;stroke:#f13a13;stroke-linejoin:miter;" x="190.357839" xlink:href="#m384656563c" y="125.888588"/>
     <use style="fill:#f13a13;stroke:#f13a13;stroke-linejoin:miter;" x="194.997642" xlink:href="#m384656563c" y="125.988358"/>
     <use style="fill:#f13a13;stroke:#f13a13;stroke-linejoin:miter;" x="199.637446" xlink:href="#m384656563c" y="126.573774"/>
     <use style="fill:#f13a13;stroke:#f13a13;stroke-linejoin:miter;" x="204.277249" xlink:href="#m384656563c" y="128.07634"/>
     <use style="fill:#f13a13;stroke:#f13a13;stroke-linejoin:miter;" x="208.917053" xlink:href="#m384656563c" y="130.948155"/>
     <use style="fill:#f13a13;stroke:#f13a13;stroke-linejoin:miter;" x="213.556857" xlink:href="#m384656563c" y="131.412746"/>
     <use style="fill:#f13a13;stroke:#f13a13;stroke-linejoin:miter;" x="218.19666" xlink:href="#m384656563c" y="133.581838"/>
     <use style="fill:#f13a13;stroke:#f13a13;stroke-linejoin:miter;" x="222.836464" xlink:href="#m384656563c" y="137.980996"/>
     <use style="fill:#f13a13;stroke:#f13a13;stroke-linejoin:miter;" x="227.476267" xlink:href="#m384656563c" y="140.797446"/>
     <use style="fill:#f13a13;stroke:#f13a13;stroke-linejoin:miter;" x="232.116071" xlink:href="#m384656563c" y="147.631614"/>
     <use style="fill:#f13a13;stroke:#f13a13;stroke-linejoin:miter;" x="236.755875" xlink:href="#m384656563c" y="156.151216"/>
     <use style="fill:#f13a13;stroke:#f13a13;stroke-linejoin:miter;" x="241.395678" xlink:href="#m384656563c" y="168.319178"/>
     <use style="fill:#f13a13;stroke:#f13a13;stroke-linejoin:miter;" x="246.035482" xlink:href="#m384656563c" y="184.044957"/>
     <use style="fill:#f13a13;stroke:#f13a13;stroke-linejoin:miter;" x="250.675285" xlink:href="#m384656563c" y="198.473624"/>
     <use style="fill:#f13a13;stroke:#f13a13;stroke-linejoin:miter;" x="255.315089" xlink:href="#m384656563c" y="211.631463"/>
     <use style="fill:#f13a13;stroke:#f13a13;stroke-linejoin:miter;" x="259.954911" xlink:href="#m384656563c" y="226.530605"/>
     <use style="fill:#f13a13;stroke:#f13a13;stroke-linejoin:miter;" x="264.594733" xlink:href="#m384656563c" y="246.793824"/>
     <use style="fill:#f13a13;stroke:#f13a13;stroke-linejoin:miter;" x="269.234555" xlink:href="#m384656563c" y="261.961606"/>
     <use style="fill:#f13a13;stroke:#f13a13;stroke-linejoin:miter;" x="273.874377" xlink:href="#m384656563c" y="249.588209"/>
     <use style="fill:#f13a13;stroke:#f13a13;stroke-linejoin:miter;" x="278.514199" xlink:href="#m384656563c" y="205.691414"/>
     <use style="fill:#f13a13;stroke:#f13a13;stroke-linejoin:miter;" x="283.153837" xlink:href="#m384656563c" y="151.267561"/>
     <use style="fill:#f13a13;stroke:#f13a13;stroke-linejoin:miter;" x="287.793659" xlink:href="#m384656563c" y="122.89795"/>
     <use style="fill:#f13a13;stroke:#f13a13;stroke-linejoin:miter;" x="292.433481" xlink:href="#m384656563c" y="122.371736"/>
     <use style="fill:#f13a13;stroke:#f13a13;stroke-linejoin:miter;" x="297.073303" xlink:href="#m384656563c" y="123.583979"/>
     <use style="fill:#f13a13;stroke:#f13a13;stroke-linejoin:miter;" x="301.713125" xlink:href="#m384656563c" y="123.447898"/>
     <use style="fill:#f13a13;stroke:#f13a13;stroke-linejoin:miter;" x="306.352947" xlink:href="#m384656563c" y="122.345973"/>
     <use style="fill:#f13a13;stroke:#f13a13;stroke-linejoin:miter;" x="310.992769" xlink:href="#m384656563c" y="123.661443"/>
     <use style="fill:#f13a13;stroke:#f13a13;stroke-linejoin:miter;" x="315.632591" xlink:href="#m384656563c" y="123.634398"/>
     <use style="fill:#f13a13;stroke:#f13a13;stroke-linejoin:miter;" x="320.272413" xlink:href="#m384656563c" y="122.138643"/>
     <use style="fill:#f13a13;stroke:#f13a13;stroke-linejoin:miter;" x="324.912234" xlink:href="#m384656563c" y="121.809684"/>
     <use style="fill:#f13a13;stroke:#f13a13;stroke-linejoin:miter;" x="329.551873" xlink:href="#m384656563c" y="122.483595"/>
     <use style="fill:#f13a13;stroke:#f13a13;stroke-linejoin:miter;" x="334.191695" xlink:href="#m384656563c" y="123.724926"/>
     <use style="fill:#f13a13;stroke:#f13a13;stroke-linejoin:miter;" x="338.831517" xlink:href="#m384656563c" y="123.528976"/>
     <use style="fill:#f13a13;stroke:#f13a13;stroke-linejoin:miter;" x="343.471339" xlink:href="#m384656563c" y="123.945905"/>
     <use style="fill:#f13a13;stroke:#f13a13;stroke-linejoin:miter;" x="348.111161" xlink:href="#m384656563c" y="122.404449"/>
     <use style="fill:#f13a13;stroke:#f13a13;stroke-linejoin:miter;" x="352.750983" xlink:href="#m384656563c" y="121.798906"/>
     <use style="fill:#f13a13;stroke:#f13a13;stroke-linejoin:miter;" x="357.390805" xlink:href="#m384656563c" y="123.55482"/>
     <use style="fill:#f13a13;stroke:#f13a13;stroke-linejoin:miter;" x="362.030627" xlink:href="#m384656563c" y="122.659296"/>
     <use style="fill:#f13a13;stroke:#f13a13;stroke-linejoin:miter;" x="366.670449" xlink:href="#m384656563c" y="121.771532"/>
     <use style="fill:#f13a13;stroke:#f13a13;stroke-linejoin:miter;" x="371.31027" xlink:href="#m384656563c" y="122.169085"/>
     <use style="fill:#f13a13;stroke:#f13a13;stroke-linejoin:miter;" x="375.949909" xlink:href="#m384656563c" y="122.912927"/>
     <use style="fill:#f13a13;stroke:#f13a13;stroke-linejoin:miter;" x="380.589731" xlink:href="#m384656563c" y="122.379245"/>
     <use style="fill:#f13a13;stroke:#f13a13;stroke-linejoin:miter;" x="385.229553" xlink:href="#m384656563c" y="122.160373"/>
     <use style="fill:#f13a13;stroke:#f13a13;stroke-linejoin:miter;" x="389.869375" xlink:href="#m384656563c" y="123.392279"/>
     <use style="fill:#f13a13;stroke:#f13a13;stroke-linejoin:miter;" x="394.509197" xlink:href="#m384656563c" y="124.247277"/>
     <use style="fill:#f13a13;stroke:#f13a13;stroke-linejoin:miter;" x="399.149019" xlink:href="#m384656563c" y="123.095449"/>
     <use style="fill:#f13a13;stroke:#f13a13;stroke-linejoin:miter;" x="403.788841" xlink:href="#m384656563c" y="122.204999"/>
     <use style="fill:#f13a13;stroke:#f13a13;stroke-linejoin:miter;" x="408.428663" xlink:href="#m384656563c" y="121.962233"/>
     <use style="fill:#f13a13;stroke:#f13a13;stroke-linejoin:miter;" x="413.068485" xlink:href="#m384656563c" y="122.929161"/>
     <use style="fill:#f13a13;stroke:#f13a13;stroke-linejoin:miter;" x="417.708306" xlink:href="#m384656563c" y="122.907967"/>
     <use style="fill:#f13a13;stroke:#f13a13;stroke-linejoin:miter;" x="422.347945" xlink:href="#m384656563c" y="122.521598"/>
     <use style="fill:#f13a13;stroke:#f13a13;stroke-linejoin:miter;" x="426.987767" xlink:href="#m384656563c" y="123.520072"/>
     <use style="fill:#f13a13;stroke:#f13a13;stroke-linejoin:miter;" x="431.627589" xlink:href="#m384656563c" y="122.671597"/>
     <use style="fill:#f13a13;stroke:#f13a13;stroke-linejoin:miter;" x="436.267411" xlink:href="#m384656563c" y="123.006908"/>
     <use style="fill:#f13a13;stroke:#f13a13;stroke-linejoin:miter;" x="440.907233" xlink:href="#m384656563c" y="123.006908"/>
    </g>
   </g>
   <g id="line2d_17">
    <defs>
     <path d="M 0 -3  L -0.673542 -0.927051  L -2.85317 -0.927051  L -1.089814 0.354102  L -1.763356 2.427051  L -0 1.145898  L 1.763356 2.427051  L 1.089814 0.354102  L 2.85317 -0.927051  L 0.673542 -0.927051  z " id="m15c104c372" style="stroke:#fd522b;stroke-linejoin:bevel;"/>
    </defs>
    <g clip-path="url(#pbb7f073727)">
     <use style="fill:#fd522b;stroke:#fd522b;stroke-linejoin:bevel;" x="74.362744" xlink:href="#m15c104c372" y="122.931611"/>
     <use style="fill:#fd522b;stroke:#fd522b;stroke-linejoin:bevel;" x="79.002549" xlink:href="#m15c104c372" y="122.931611"/>
     <use style="fill:#fd522b;stroke:#fd522b;stroke-linejoin:bevel;" x="83.642352" xlink:href="#m15c104c372" y="123.321517"/>
     <use style="fill:#fd522b;stroke:#fd522b;stroke-linejoin:bevel;" x="88.282156" xlink:href="#m15c104c372" y="122.803345"/>
     <use style="fill:#fd522b;stroke:#fd522b;stroke-linejoin:bevel;" x="92.921959" xlink:href="#m15c104c372" y="122.323719"/>
     <use style="fill:#fd522b;stroke:#fd522b;stroke-linejoin:bevel;" x="97.561767" xlink:href="#m15c104c372" y="122.002986"/>
     <use style="fill:#fd522b;stroke:#fd522b;stroke-linejoin:bevel;" x="102.20157" xlink:href="#m15c104c372" y="122.429017"/>
     <use style="fill:#fd522b;stroke:#fd522b;stroke-linejoin:bevel;" x="106.841374" xlink:href="#m15c104c372" y="123.73783"/>
     <use style="fill:#fd522b;stroke:#fd522b;stroke-linejoin:bevel;" x="111.481178" xlink:href="#m15c104c372" y="124.103026"/>
     <use style="fill:#fd522b;stroke:#fd522b;stroke-linejoin:bevel;" x="116.120981" xlink:href="#m15c104c372" y="122.756255"/>
     <use style="fill:#fd522b;stroke:#fd522b;stroke-linejoin:bevel;" x="120.760785" xlink:href="#m15c104c372" y="121.8918"/>
     <use style="fill:#fd522b;stroke:#fd522b;stroke-linejoin:bevel;" x="125.400588" xlink:href="#m15c104c372" y="122.599786"/>
     <use style="fill:#fd522b;stroke:#fd522b;stroke-linejoin:bevel;" x="130.040392" xlink:href="#m15c104c372" y="122.74006"/>
     <use style="fill:#fd522b;stroke:#fd522b;stroke-linejoin:bevel;" x="134.680195" xlink:href="#m15c104c372" y="122.824484"/>
     <use style="fill:#fd522b;stroke:#fd522b;stroke-linejoin:bevel;" x="139.319999" xlink:href="#m15c104c372" y="123.979346"/>
     <use style="fill:#fd522b;stroke:#fd522b;stroke-linejoin:bevel;" x="143.959803" xlink:href="#m15c104c372" y="122.509829"/>
     <use style="fill:#fd522b;stroke:#fd522b;stroke-linejoin:bevel;" x="148.599606" xlink:href="#m15c104c372" y="121.299814"/>
     <use style="fill:#fd522b;stroke:#fd522b;stroke-linejoin:bevel;" x="153.23941" xlink:href="#m15c104c372" y="122.204503"/>
     <use style="fill:#fd522b;stroke:#fd522b;stroke-linejoin:bevel;" x="157.879213" xlink:href="#m15c104c372" y="123.028969"/>
     <use style="fill:#fd522b;stroke:#fd522b;stroke-linejoin:bevel;" x="162.519017" xlink:href="#m15c104c372" y="123.662904"/>
     <use style="fill:#fd522b;stroke:#fd522b;stroke-linejoin:bevel;" x="167.158821" xlink:href="#m15c104c372" y="123.678542"/>
     <use style="fill:#fd522b;stroke:#fd522b;stroke-linejoin:bevel;" x="171.798624" xlink:href="#m15c104c372" y="122.561846"/>
     <use style="fill:#fd522b;stroke:#fd522b;stroke-linejoin:bevel;" x="176.438428" xlink:href="#m15c104c372" y="121.366217"/>
     <use style="fill:#fd522b;stroke:#fd522b;stroke-linejoin:bevel;" x="181.078231" xlink:href="#m15c104c372" y="122.985383"/>
     <use style="fill:#fd522b;stroke:#fd522b;stroke-linejoin:bevel;" x="185.718035" xlink:href="#m15c104c372" y="122.727162"/>
     <use style="fill:#fd522b;stroke:#fd522b;stroke-linejoin:bevel;" x="190.357839" xlink:href="#m15c104c372" y="121.69231"/>
     <use style="fill:#fd522b;stroke:#fd522b;stroke-linejoin:bevel;" x="194.997642" xlink:href="#m15c104c372" y="122.636021"/>
     <use style="fill:#fd522b;stroke:#fd522b;stroke-linejoin:bevel;" x="199.637446" xlink:href="#m15c104c372" y="122.99084"/>
     <use style="fill:#fd522b;stroke:#fd522b;stroke-linejoin:bevel;" x="204.277249" xlink:href="#m15c104c372" y="122.676112"/>
     <use style="fill:#fd522b;stroke:#fd522b;stroke-linejoin:bevel;" x="208.917053" xlink:href="#m15c104c372" y="121.330767"/>
     <use style="fill:#fd522b;stroke:#fd522b;stroke-linejoin:bevel;" x="213.556857" xlink:href="#m15c104c372" y="120.494506"/>
     <use style="fill:#fd522b;stroke:#fd522b;stroke-linejoin:bevel;" x="218.19666" xlink:href="#m15c104c372" y="120.537761"/>
     <use style="fill:#fd522b;stroke:#fd522b;stroke-linejoin:bevel;" x="222.836464" xlink:href="#m15c104c372" y="120.18137"/>
     <use style="fill:#fd522b;stroke:#fd522b;stroke-linejoin:bevel;" x="227.476267" xlink:href="#m15c104c372" y="116.935324"/>
     <use style="fill:#fd522b;stroke:#fd522b;stroke-linejoin:bevel;" x="232.116071" xlink:href="#m15c104c372" y="113.278335"/>
     <use style="fill:#fd522b;stroke:#fd522b;stroke-linejoin:bevel;" x="236.755875" xlink:href="#m15c104c372" y="109.394453"/>
     <use style="fill:#fd522b;stroke:#fd522b;stroke-linejoin:bevel;" x="241.395678" xlink:href="#m15c104c372" y="103.53222"/>
     <use style="fill:#fd522b;stroke:#fd522b;stroke-linejoin:bevel;" x="246.035482" xlink:href="#m15c104c372" y="96.544242"/>
     <use style="fill:#fd522b;stroke:#fd522b;stroke-linejoin:bevel;" x="250.675285" xlink:href="#m15c104c372" y="90.548892"/>
     <use style="fill:#fd522b;stroke:#fd522b;stroke-linejoin:bevel;" x="255.315089" xlink:href="#m15c104c372" y="86.421178"/>
     <use style="fill:#fd522b;stroke:#fd522b;stroke-linejoin:bevel;" x="259.954911" xlink:href="#m15c104c372" y="80.92002"/>
     <use style="fill:#fd522b;stroke:#fd522b;stroke-linejoin:bevel;" x="264.594733" xlink:href="#m15c104c372" y="71.02361"/>
     <use style="fill:#fd522b;stroke:#fd522b;stroke-linejoin:bevel;" x="269.234555" xlink:href="#m15c104c372" y="61.769815"/>
     <use style="fill:#fd522b;stroke:#fd522b;stroke-linejoin:bevel;" x="273.874377" xlink:href="#m15c104c372" y="69.667671"/>
     <use style="fill:#fd522b;stroke:#fd522b;stroke-linejoin:bevel;" x="278.514199" xlink:href="#m15c104c372" y="91.788992"/>
     <use style="fill:#fd522b;stroke:#fd522b;stroke-linejoin:bevel;" x="283.153837" xlink:href="#m15c104c372" y="113.707789"/>
     <use style="fill:#fd522b;stroke:#fd522b;stroke-linejoin:bevel;" x="287.793659" xlink:href="#m15c104c372" y="125.577593"/>
     <use style="fill:#fd522b;stroke:#fd522b;stroke-linejoin:bevel;" x="292.433481" xlink:href="#m15c104c372" y="125.135079"/>
     <use style="fill:#fd522b;stroke:#fd522b;stroke-linejoin:bevel;" x="297.073303" xlink:href="#m15c104c372" y="123.958797"/>
     <use style="fill:#fd522b;stroke:#fd522b;stroke-linejoin:bevel;" x="301.713125" xlink:href="#m15c104c372" y="125.994718"/>
     <use style="fill:#fd522b;stroke:#fd522b;stroke-linejoin:bevel;" x="306.352947" xlink:href="#m15c104c372" y="125.306986"/>
     <use style="fill:#fd522b;stroke:#fd522b;stroke-linejoin:bevel;" x="310.992769" xlink:href="#m15c104c372" y="123.017027"/>
     <use style="fill:#fd522b;stroke:#fd522b;stroke-linejoin:bevel;" x="315.632591" xlink:href="#m15c104c372" y="124.357824"/>
     <use style="fill:#fd522b;stroke:#fd522b;stroke-linejoin:bevel;" x="320.272413" xlink:href="#m15c104c372" y="123.609272"/>
     <use style="fill:#fd522b;stroke:#fd522b;stroke-linejoin:bevel;" x="324.912234" xlink:href="#m15c104c372" y="123.303091"/>
     <use style="fill:#fd522b;stroke:#fd522b;stroke-linejoin:bevel;" x="329.551873" xlink:href="#m15c104c372" y="124.346996"/>
     <use style="fill:#fd522b;stroke:#fd522b;stroke-linejoin:bevel;" x="334.191695" xlink:href="#m15c104c372" y="123.015446"/>
     <use style="fill:#fd522b;stroke:#fd522b;stroke-linejoin:bevel;" x="338.831517" xlink:href="#m15c104c372" y="122.81815"/>
     <use style="fill:#fd522b;stroke:#fd522b;stroke-linejoin:bevel;" x="343.471339" xlink:href="#m15c104c372" y="122.64609"/>
     <use style="fill:#fd522b;stroke:#fd522b;stroke-linejoin:bevel;" x="348.111161" xlink:href="#m15c104c372" y="122.891359"/>
     <use style="fill:#fd522b;stroke:#fd522b;stroke-linejoin:bevel;" x="352.750983" xlink:href="#m15c104c372" y="123.537899"/>
     <use style="fill:#fd522b;stroke:#fd522b;stroke-linejoin:bevel;" x="357.390805" xlink:href="#m15c104c372" y="122.253945"/>
     <use style="fill:#fd522b;stroke:#fd522b;stroke-linejoin:bevel;" x="362.030627" xlink:href="#m15c104c372" y="123.678657"/>
     <use style="fill:#fd522b;stroke:#fd522b;stroke-linejoin:bevel;" x="366.670449" xlink:href="#m15c104c372" y="123.692829"/>
     <use style="fill:#fd522b;stroke:#fd522b;stroke-linejoin:bevel;" x="371.31027" xlink:href="#m15c104c372" y="121.536518"/>
     <use style="fill:#fd522b;stroke:#fd522b;stroke-linejoin:bevel;" x="375.949909" xlink:href="#m15c104c372" y="121.996578"/>
     <use style="fill:#fd522b;stroke:#fd522b;stroke-linejoin:bevel;" x="380.589731" xlink:href="#m15c104c372" y="124.085229"/>
     <use style="fill:#fd522b;stroke:#fd522b;stroke-linejoin:bevel;" x="385.229553" xlink:href="#m15c104c372" y="123.379195"/>
     <use style="fill:#fd522b;stroke:#fd522b;stroke-linejoin:bevel;" x="389.869375" xlink:href="#m15c104c372" y="121.540264"/>
     <use style="fill:#fd522b;stroke:#fd522b;stroke-linejoin:bevel;" x="394.509197" xlink:href="#m15c104c372" y="122.865461"/>
     <use style="fill:#fd522b;stroke:#fd522b;stroke-linejoin:bevel;" x="399.149019" xlink:href="#m15c104c372" y="122.032433"/>
     <use style="fill:#fd522b;stroke:#fd522b;stroke-linejoin:bevel;" x="403.788841" xlink:href="#m15c104c372" y="122.31293"/>
     <use style="fill:#fd522b;stroke:#fd522b;stroke-linejoin:bevel;" x="408.428663" xlink:href="#m15c104c372" y="123.957981"/>
     <use style="fill:#fd522b;stroke:#fd522b;stroke-linejoin:bevel;" x="413.068485" xlink:href="#m15c104c372" y="123.636903"/>
     <use style="fill:#fd522b;stroke:#fd522b;stroke-linejoin:bevel;" x="417.708306" xlink:href="#m15c104c372" y="122.482843"/>
     <use style="fill:#fd522b;stroke:#fd522b;stroke-linejoin:bevel;" x="422.347945" xlink:href="#m15c104c372" y="122.209733"/>
     <use style="fill:#fd522b;stroke:#fd522b;stroke-linejoin:bevel;" x="426.987767" xlink:href="#m15c104c372" y="123.384242"/>
     <use style="fill:#fd522b;stroke:#fd522b;stroke-linejoin:bevel;" x="431.627589" xlink:href="#m15c104c372" y="123.500071"/>
     <use style="fill:#fd522b;stroke:#fd522b;stroke-linejoin:bevel;" x="436.267411" xlink:href="#m15c104c372" y="122.24069"/>
     <use style="fill:#fd522b;stroke:#fd522b;stroke-linejoin:bevel;" x="440.907233" xlink:href="#m15c104c372" y="122.24069"/>
    </g>
   </g>
   <g id="line2d_18">
    <defs>
     <path d="M 0 3  C 0.795609 3 1.55874 2.683901 2.12132 2.12132  C 2.683901 1.55874 3 0.795609 3 0  C 3 -0.795609 2.683901 -1.55874 2.12132 -2.12132  C 1.55874 -2.683901 0.795609 -3 0 -3  C -0.795609 -3 -1.55874 -2.683901 -2.12132 -2.12132  C -2.683901 -1.55874 -3 -0.795609 -3 0  C -3 0.795609 -2.683901 1.55874 -2.12132 2.12132  C -1.55874 2.683901 -0.795609 3 0 3  z " id="m05b7b50937" style="stroke:#803e75;"/>
    </defs>
    <g clip-path="url(#pbb7f073727)">
     <use style="fill:#803e75;stroke:#803e75;" x="74.362744" xlink:href="#m05b7b50937" y="123.791192"/>
     <use style="fill:#803e75;stroke:#803e75;" x="79.002549" xlink:href="#m05b7b50937" y="123.791192"/>
     <use style="fill:#803e75;stroke:#803e75;" x="83.642352" xlink:href="#m05b7b50937" y="122.435591"/>
     <use style="fill:#803e75;stroke:#803e75;" x="88.282156" xlink:href="#m05b7b50937" y="122.281451"/>
     <use style="fill:#803e75;stroke:#803e75;" x="92.921959" xlink:href="#m05b7b50937" y="122.911336"/>
     <use style="fill:#803e75;stroke:#803e75;" x="97.561767" xlink:href="#m05b7b50937" y="123.930822"/>
     <use style="fill:#803e75;stroke:#803e75;" x="102.20157" xlink:href="#m05b7b50937" y="123.305263"/>
     <use style="fill:#803e75;stroke:#803e75;" x="106.841374" xlink:href="#m05b7b50937" y="121.445595"/>
     <use style="fill:#803e75;stroke:#803e75;" x="111.481178" xlink:href="#m05b7b50937" y="121.075397"/>
     <use style="fill:#803e75;stroke:#803e75;" x="116.120981" xlink:href="#m05b7b50937" y="122.444724"/>
     <use style="fill:#803e75;stroke:#803e75;" x="120.760785" xlink:href="#m05b7b50937" y="123.564985"/>
     <use style="fill:#803e75;stroke:#803e75;" x="125.400588" xlink:href="#m05b7b50937" y="123.074468"/>
     <use style="fill:#803e75;stroke:#803e75;" x="130.040392" xlink:href="#m05b7b50937" y="123.817249"/>
     <use style="fill:#803e75;stroke:#803e75;" x="134.680195" xlink:href="#m05b7b50937" y="121.852867"/>
     <use style="fill:#803e75;stroke:#803e75;" x="139.319999" xlink:href="#m05b7b50937" y="120.495412"/>
     <use style="fill:#803e75;stroke:#803e75;" x="143.959803" xlink:href="#m05b7b50937" y="124.66196"/>
     <use style="fill:#803e75;stroke:#803e75;" x="148.599606" xlink:href="#m05b7b50937" y="124.176404"/>
     <use style="fill:#803e75;stroke:#803e75;" x="153.23941" xlink:href="#m05b7b50937" y="121.959467"/>
     <use style="fill:#803e75;stroke:#803e75;" x="157.879213" xlink:href="#m05b7b50937" y="123.329226"/>
     <use style="fill:#803e75;stroke:#803e75;" x="162.519017" xlink:href="#m05b7b50937" y="121.774506"/>
     <use style="fill:#803e75;stroke:#803e75;" x="167.158821" xlink:href="#m05b7b50937" y="120.059868"/>
     <use style="fill:#803e75;stroke:#803e75;" x="171.798624" xlink:href="#m05b7b50937" y="122.108916"/>
     <use style="fill:#803e75;stroke:#803e75;" x="176.438428" xlink:href="#m05b7b50937" y="123.764881"/>
     <use style="fill:#803e75;stroke:#803e75;" x="181.078231" xlink:href="#m05b7b50937" y="121.523484"/>
     <use style="fill:#803e75;stroke:#803e75;" x="185.718035" xlink:href="#m05b7b50937" y="120.521837"/>
     <use style="fill:#803e75;stroke:#803e75;" x="190.357839" xlink:href="#m05b7b50937" y="120.740968"/>
     <use style="fill:#803e75;stroke:#803e75;" x="194.997642" xlink:href="#m05b7b50937" y="119.697483"/>
     <use style="fill:#803e75;stroke:#803e75;" x="199.637446" xlink:href="#m05b7b50937" y="118.757235"/>
     <use style="fill:#803e75;stroke:#803e75;" x="204.277249" xlink:href="#m05b7b50937" y="117.569388"/>
     <use style="fill:#803e75;stroke:#803e75;" x="208.917053" xlink:href="#m05b7b50937" y="116.042938"/>
     <use style="fill:#803e75;stroke:#803e75;" x="213.556857" xlink:href="#m05b7b50937" y="116.41461"/>
     <use style="fill:#803e75;stroke:#803e75;" x="218.19666" xlink:href="#m05b7b50937" y="114.20222"/>
     <use style="fill:#803e75;stroke:#803e75;" x="222.836464" xlink:href="#m05b7b50937" y="110.159486"/>
     <use style="fill:#803e75;stroke:#803e75;" x="227.476267" xlink:href="#m05b7b50937" y="110.589083"/>
     <use style="fill:#803e75;stroke:#803e75;" x="232.116071" xlink:href="#m05b7b50937" y="107.411896"/>
     <use style="fill:#803e75;stroke:#803e75;" x="236.755875" xlink:href="#m05b7b50937" y="102.776196"/>
     <use style="fill:#803e75;stroke:#803e75;" x="241.395678" xlink:href="#m05b7b50937" y="96.470462"/>
     <use style="fill:#803e75;stroke:#803e75;" x="246.035482" xlink:href="#m05b7b50937" y="87.732661"/>
     <use style="fill:#803e75;stroke:#803e75;" x="250.675285" xlink:href="#m05b7b50937" y="79.299319"/>
     <use style="fill:#803e75;stroke:#803e75;" x="255.315089" xlink:href="#m05b7b50937" y="70.269193"/>
     <use style="fill:#803e75;stroke:#803e75;" x="259.954911" xlink:href="#m05b7b50937" y="60.871226"/>
     <use style="fill:#803e75;stroke:#803e75;" x="264.594733" xlink:href="#m05b7b50937" y="50.504415"/>
     <use style="fill:#803e75;stroke:#803e75;" x="269.234555" xlink:href="#m05b7b50937" y="44.590429"/>
     <use style="fill:#803e75;stroke:#803e75;" x="273.874377" xlink:href="#m05b7b50937" y="49.06599"/>
     <use style="fill:#803e75;stroke:#803e75;" x="278.514199" xlink:href="#m05b7b50937" y="70.841451"/>
     <use style="fill:#803e75;stroke:#803e75;" x="283.153837" xlink:href="#m05b7b50937" y="103.346485"/>
     <use style="fill:#803e75;stroke:#803e75;" x="287.793659" xlink:href="#m05b7b50937" y="119.846271"/>
     <use style="fill:#803e75;stroke:#803e75;" x="292.433481" xlink:href="#m05b7b50937" y="120.815009"/>
     <use style="fill:#803e75;stroke:#803e75;" x="297.073303" xlink:href="#m05b7b50937" y="120.779119"/>
     <use style="fill:#803e75;stroke:#803e75;" x="301.713125" xlink:href="#m05b7b50937" y="118.879265"/>
     <use style="fill:#803e75;stroke:#803e75;" x="306.352947" xlink:href="#m05b7b50937" y="120.668898"/>
     <use style="fill:#803e75;stroke:#803e75;" x="310.992769" xlink:href="#m05b7b50937" y="121.643347"/>
     <use style="fill:#803e75;stroke:#803e75;" x="315.632591" xlink:href="#m05b7b50937" y="120.329569"/>
     <use style="fill:#803e75;stroke:#803e75;" x="320.272413" xlink:href="#m05b7b50937" y="122.573952"/>
     <use style="fill:#803e75;stroke:#803e75;" x="324.912234" xlink:href="#m05b7b50937" y="123.20908"/>
     <use style="fill:#803e75;stroke:#803e75;" x="329.551873" xlink:href="#m05b7b50937" y="121.491297"/>
     <use style="fill:#803e75;stroke:#803e75;" x="334.191695" xlink:href="#m05b7b50937" y="121.581507"/>
     <use style="fill:#803e75;stroke:#803e75;" x="338.831517" xlink:href="#m05b7b50937" y="121.974672"/>
     <use style="fill:#803e75;stroke:#803e75;" x="343.471339" xlink:href="#m05b7b50937" y="121.729861"/>
     <use style="fill:#803e75;stroke:#803e75;" x="348.111161" xlink:href="#m05b7b50937" y="123.02605"/>
     <use style="fill:#803e75;stroke:#803e75;" x="352.750983" xlink:href="#m05b7b50937" y="122.985062"/>
     <use style="fill:#803e75;stroke:#803e75;" x="357.390805" xlink:href="#m05b7b50937" y="122.513132"/>
     <use style="fill:#803e75;stroke:#803e75;" x="362.030627" xlink:href="#m05b7b50937" y="121.983899"/>
     <use style="fill:#803e75;stroke:#803e75;" x="366.670449" xlink:href="#m05b7b50937" y="122.857457"/>
     <use style="fill:#803e75;stroke:#803e75;" x="371.31027" xlink:href="#m05b7b50937" y="124.616232"/>
     <use style="fill:#803e75;stroke:#803e75;" x="375.949909" xlink:href="#m05b7b50937" y="123.412345"/>
     <use style="fill:#803e75;stroke:#803e75;" x="380.589731" xlink:href="#m05b7b50937" y="121.857365"/>
     <use style="fill:#803e75;stroke:#803e75;" x="385.229553" xlink:href="#m05b7b50937" y="122.782311"/>
     <use style="fill:#803e75;stroke:#803e75;" x="389.869375" xlink:href="#m05b7b50937" y="123.389289"/>
     <use style="fill:#803e75;stroke:#803e75;" x="394.509197" xlink:href="#m05b7b50937" y="121.209092"/>
     <use style="fill:#803e75;stroke:#803e75;" x="399.149019" xlink:href="#m05b7b50937" y="123.193982"/>
     <use style="fill:#803e75;stroke:#803e75;" x="403.788841" xlink:href="#m05b7b50937" y="123.803917"/>
     <use style="fill:#803e75;stroke:#803e75;" x="408.428663" xlink:href="#m05b7b50937" y="122.401637"/>
     <use style="fill:#803e75;stroke:#803e75;" x="413.068485" xlink:href="#m05b7b50937" y="121.755811"/>
     <use style="fill:#803e75;stroke:#803e75;" x="417.708306" xlink:href="#m05b7b50937" y="122.931076"/>
     <use style="fill:#803e75;stroke:#803e75;" x="422.347945" xlink:href="#m05b7b50937" y="123.590476"/>
     <use style="fill:#803e75;stroke:#803e75;" x="426.987767" xlink:href="#m05b7b50937" y="121.417502"/>
     <use style="fill:#803e75;stroke:#803e75;" x="431.627589" xlink:href="#m05b7b50937" y="122.150148"/>
     <use style="fill:#803e75;stroke:#803e75;" x="436.267411" xlink:href="#m05b7b50937" y="123.074227"/>
     <use style="fill:#803e75;stroke:#803e75;" x="440.907233" xlink:href="#m05b7b50937" y="123.074227"/>
    </g>
   </g>
   <g id="line2d_19">
    <path clip-path="url(#pbb7f073727)" d="M 74.362744 122.774016  L 147.242938 122.884137  L 162.247683 123.135417  L 172.107945 123.507836  L 180.253378 124.03625  L 187.005514 124.698518  L 192.793059 125.486411  L 197.937543 126.408232  L 202.438967 127.431353  L 206.511683 128.575524  L 210.155693 129.819316  L 213.585349 131.22838  L 216.586298 132.699605  L 219.372894 134.315969  L 222.159489 136.215139  L 224.249436 137.921116  L 226.392971 139.919072  L 228.42933 142.119935  L 230.358511 144.52923  L 232.287693 147.309035  L 234.109698 150.325815  L 235.931702 153.76909  L 237.860884 157.918669  L 239.790066 162.602283  L 241.933601 168.401815  L 244.505843 176.037313  L 248.685736 189.274518  L 254.821606 209.345808  L 257.072317 217.498911  L 258.894322 224.922017  L 260.555562 232.646347  L 262.109625 240.947591  L 263.717276 250.809447  L 265.592869 263.835059  L 267.977552 280.350355  L 268.834966 284.772355  L 269.37085 286.640858  L 269.799557 287.490328  L 270.121087 287.694545  L 270.335441 287.607466  L 270.656971 287.124374  L 270.978501 286.204233  L 271.407208 284.287417  L 271.943092 280.807582  L 272.693329 274.10885  L 273.65792 263.097279  L 275.479925 238.956057  L 279.659819 181.364095  L 280.517233 164.203905  L 282.017707 131.761979  L 282.446414 127.203597  L 282.875121 124.811642  L 283.303828 123.676786  L 283.732535 123.166321  L 284.268419 122.910485  L 285.125833 122.798736  L 288.126782 122.774007  L 440.907247 122.77395  L 440.907247 122.77395  " style="fill:none;stroke:#f13a13;stroke-linecap:square;stroke-width:2;"/>
   </g>
   <g id="line2d_20">
    <path clip-path="url(#pbb7f073727)" d="M 74.362744 122.773938  L 170.393117 122.665876  L 187.862928 122.422019  L 198.580603 122.068084  L 206.082976 121.615086  L 211.870521 121.049374  L 216.371945 120.391622  L 220.015954 119.644936  L 223.177669 118.774354  L 225.964264 117.773155  L 228.42933 116.649097  L 230.680041 115.377995  L 232.823577 113.905967  L 234.859935 112.23506  L 236.896293 110.273286  L 239.039828 107.888487  L 241.504894 104.785827  L 245.57761 99.208276  L 249.007267 94.683494  L 250.266593 93.147365  L 257.608201 84.225912  L 259.108676 81.811985  L 260.501974 79.155821  L 261.895271 76.007219  L 263.288569 72.301068  L 264.842632 67.517903  L 268.299083 56.508689  L 269.04932 54.987078  L 269.585204 54.365767  L 270.013911 54.212298  L 270.335441 54.320735  L 270.764148 54.782862  L 271.192855 55.617895  L 271.728739 57.177933  L 272.371799 59.743758  L 273.229213 64.102866  L 274.729688 73.104808  L 277.30193 88.401394  L 279.552642 101.565921  L 280.410056 108.1437  L 282.017707 121.639247  L 282.446414 123.378318  L 282.875121 124.279228  L 283.303828 124.694566  L 283.839712 124.891943  L 284.804303 124.945435  L 288.662666 124.7561  L 311.116196 123.646814  L 325.049174 123.204415  L 340.589804 122.939514  L 362.882569 122.805601  L 419.043189 122.774089  L 440.907247 122.773962  L 440.907247 122.773962  " style="fill:none;stroke:#fd522b;stroke-linecap:square;stroke-width:2;"/>
   </g>
   <g id="line2d_21">
    <path clip-path="url(#pbb7f073727)" d="M 74.362744 122.773895  L 149.386473 122.664199  L 164.391218 122.420326  L 174.680187 122.04521  L 182.82562 121.540137  L 190.006463 120.874628  L 196.222715 120.078966  L 201.795906 119.148287  L 206.94039 118.065678  L 211.656167 116.842664  L 215.728884 115.567403  L 219.587247 114.124484  L 222.963315 112.624451  L 225.964264 111.053505  L 228.75086 109.340767  L 231.215925 107.570689  L 233.573814 105.60276  L 235.824526 103.424828  L 237.968061 101.036021  L 240.111596 98.30661  L 242.255131 95.218612  L 244.61302 91.413873  L 247.185262 86.821915  L 250.159417 81.035632  L 253.428308 74.17777  L 256.375669 67.49678  L 258.787145 61.499224  L 260.823504 55.848744  L 262.699097 49.974243  L 264.57469 43.340068  L 268.513436 29.022452  L 269.263673 27.302045  L 269.799557 26.583444  L 270.228264 26.385455  L 270.549794 26.482947  L 270.871325 26.805169  L 271.300032 27.596757  L 271.835915 29.169706  L 272.478976 31.866111  L 273.33639 36.616248  L 274.515334 44.571427  L 278.266521 72.347703  L 279.338288 81.451686  L 280.195702 90.790191  L 281.160293 104.437367  L 281.91053 113.949492  L 282.339237 117.182243  L 282.767944 118.950406  L 283.196651 119.818123  L 283.625358 120.224793  L 284.268419 120.472058  L 285.447363 120.610506  L 294.182269 121.091311  L 311.759257 121.926359  L 325.692235 122.358755  L 341.447218 122.617656  L 364.16869 122.745454  L 424.61638 122.773876  L 440.907247 122.773938  L 440.907247 122.773938  " style="fill:none;stroke:#803e75;stroke-linecap:square;stroke-width:2;"/>
   </g>
   <g id="patch_3">
    <path d="M 74.72 300.76  L 74.72 13.32  " style="fill:none;stroke:#000000;stroke-linecap:square;stroke-linejoin:miter;stroke-width:0.8;"/>
   </g>
   <g id="patch_4">
    <path d="M 440.55 300.76  L 440.55 13.32  " style="fill:none;stroke:#000000;stroke-linecap:square;stroke-linejoin:miter;stroke-width:0.8;"/>
   </g>
   <g id="patch_5">
    <path d="M 74.72 300.76  L 440.55 300.76  " style="fill:none;stroke:#000000;stroke-linecap:square;stroke-linejoin:miter;stroke-width:0.8;"/>
   </g>
   <g id="patch_6">
    <path d="M 74.72 13.32  L 440.55 13.32  " style="fill:none;stroke:#000000;stroke-linecap:square;stroke-linejoin:miter;stroke-width:0.8;"/>
   </g>
   <g id="legend_1">
    <g id="patch_7">
     <path d="M 363.146875 109.38875  L 433.55 109.38875  Q 435.55 109.38875 435.55 107.38875  L 435.55 20.32  Q 435.55 18.32 433.55 18.32  L 363.146875 18.32  Q 361.146875 18.32 361.146875 20.32  L 361.146875 107.38875  Q 361.146875 109.38875 363.146875 109.38875  z " style="fill:#ffffff;opacity:0.8;stroke:#cccccc;stroke-linejoin:miter;"/>
    </g>
    <g id="line2d_22"/>
    <g id="line2d_23">
     <g>
      <use style="fill:#f13a13;stroke:#f13a13;stroke-linejoin:miter;" x="375.146875" xlink:href="#m384656563c" y="26.418437"/>
     </g>
    </g>
    <g id="text_18">
     <!-- exp-AL -->
     <defs>
      <path d="M 54.890625 54.6875  L 35.109375 28.078125  L 55.90625 0  L 45.3125 0  L 29.390625 21.484375  L 13.484375 0  L 2.875 0  L 24.125 28.609375  L 4.6875 54.6875  L 15.28125 54.6875  L 29.78125 35.203125  L 44.28125 54.6875  z " id="DejaVuSans-78"/>
      <path d="M 4.890625 31.390625  L 31.203125 31.390625  L 31.203125 23.390625  L 4.890625 23.390625  z " id="DejaVuSans-2d"/>
      <path d="M 34.1875 63.1875  L 20.796875 26.90625  L 47.609375 26.90625  z M 28.609375 72.90625  L 39.796875 72.90625  L 67.578125 0  L 57.328125 0  L 50.6875 18.703125  L 17.828125 18.703125  L 11.1875 0  L 0.78125 0  z " id="DejaVuSans-41"/>
      <path d="M 9.8125 72.90625  L 19.671875 72.90625  L 19.671875 8.296875  L 55.171875 8.296875  L 55.171875 0  L 9.8125 0  z " id="DejaVuSans-4c"/>
     </defs>
     <g transform="translate(393.146875 29.918437)scale(0.1 -0.1)">
      <use xlink:href="#DejaVuSans-65"/>
      <use x="61.507812" xlink:href="#DejaVuSans-78"/>
      <use x="120.6875" xlink:href="#DejaVuSans-70"/>
      <use x="184.164062" xlink:href="#DejaVuSans-2d"/>
      <use x="220.216797" xlink:href="#DejaVuSans-41"/>
      <use x="288.625" xlink:href="#DejaVuSans-4c"/>
     </g>
    </g>
    <g id="line2d_24"/>
    <g id="line2d_25">
     <g>
      <use style="fill:#fd522b;stroke:#fd522b;stroke-linejoin:bevel;" x="375.146875" xlink:href="#m15c104c372" y="41.096563"/>
     </g>
    </g>
    <g id="text_19">
     <!-- exp-MG -->
     <defs>
      <path d="M 9.8125 72.90625  L 24.515625 72.90625  L 43.109375 23.296875  L 61.8125 72.90625  L 76.515625 72.90625  L 76.515625 0  L 66.890625 0  L 66.890625 64.015625  L 48.09375 14.015625  L 38.1875 14.015625  L 19.390625 64.015625  L 19.390625 0  L 9.8125 0  z " id="DejaVuSans-4d"/>
      <path d="M 59.515625 10.40625  L 59.515625 29.984375  L 43.40625 29.984375  L 43.40625 38.09375  L 69.28125 38.09375  L 69.28125 6.78125  Q 63.578125 2.734375 56.6875 0.65625  Q 49.8125 -1.421875 42 -1.421875  Q 24.90625 -1.421875 15.25 8.5625  Q 5.609375 18.5625 5.609375 36.375  Q 5.609375 54.25 15.25 64.234375  Q 24.90625 74.21875 42 74.21875  Q 49.125 74.21875 55.546875 72.453125  Q 61.96875 70.703125 67.390625 67.28125  L 67.390625 56.78125  Q 61.921875 61.421875 55.765625 63.765625  Q 49.609375 66.109375 42.828125 66.109375  Q 29.4375 66.109375 22.71875 58.640625  Q 16.015625 51.171875 16.015625 36.375  Q 16.015625 21.625 22.71875 14.15625  Q 29.4375 6.6875 42.828125 6.6875  Q 48.046875 6.6875 52.140625 7.59375  Q 56.25 8.5 59.515625 10.40625  z " id="DejaVuSans-47"/>
     </defs>
     <g transform="translate(393.146875 44.596563)scale(0.1 -0.1)">
      <use xlink:href="#DejaVuSans-65"/>
      <use x="61.507812" xlink:href="#DejaVuSans-78"/>
      <use x="120.6875" xlink:href="#DejaVuSans-70"/>
      <use x="184.164062" xlink:href="#DejaVuSans-2d"/>
      <use x="220.248047" xlink:href="#DejaVuSans-4d"/>
      <use x="306.527344" xlink:href="#DejaVuSans-47"/>
     </g>
    </g>
    <g id="line2d_26"/>
    <g id="line2d_27">
     <g>
      <use style="fill:#803e75;stroke:#803e75;" x="375.146875" xlink:href="#m05b7b50937" y="55.774687"/>
     </g>
    </g>
    <g id="text_20">
     <!-- exp-ZN -->
     <defs>
      <path d="M 5.609375 72.90625  L 62.890625 72.90625  L 62.890625 65.375  L 16.796875 8.296875  L 64.015625 8.296875  L 64.015625 0  L 4.5 0  L 4.5 7.515625  L 50.59375 64.59375  L 5.609375 64.59375  z " id="DejaVuSans-5a"/>
      <path d="M 9.8125 72.90625  L 23.09375 72.90625  L 55.421875 11.921875  L 55.421875 72.90625  L 64.984375 72.90625  L 64.984375 0  L 51.703125 0  L 19.390625 60.984375  L 19.390625 0  L 9.8125 0  z " id="DejaVuSans-4e"/>
     </defs>
     <g transform="translate(393.146875 59.274687)scale(0.1 -0.1)">
      <use xlink:href="#DejaVuSans-65"/>
      <use x="61.507812" xlink:href="#DejaVuSans-78"/>
      <use x="120.6875" xlink:href="#DejaVuSans-70"/>
      <use x="184.164062" xlink:href="#DejaVuSans-2d"/>
      <use x="220.248047" xlink:href="#DejaVuSans-5a"/>
      <use x="288.753906" xlink:href="#DejaVuSans-4e"/>
     </g>
    </g>
    <g id="line2d_28">
     <path d="M 365.146875 70.452812  L 385.146875 70.452812  " style="fill:none;stroke:#f13a13;stroke-linecap:square;stroke-width:2;"/>
    </g>
    <g id="line2d_29"/>
    <g id="text_21">
     <!-- sim-AL -->
     <g transform="translate(393.146875 73.952812)scale(0.1 -0.1)">
      <use xlink:href="#DejaVuSans-73"/>
      <use x="52.099609" xlink:href="#DejaVuSans-69"/>
      <use x="79.882812" xlink:href="#DejaVuSans-6d"/>
      <use x="177.294922" xlink:href="#DejaVuSans-2d"/>
      <use x="213.347656" xlink:href="#DejaVuSans-41"/>
      <use x="281.755859" xlink:href="#DejaVuSans-4c"/>
     </g>
    </g>
    <g id="line2d_30">
     <path d="M 365.146875 85.130938  L 385.146875 85.130938  " style="fill:none;stroke:#fd522b;stroke-linecap:square;stroke-width:2;"/>
    </g>
    <g id="line2d_31"/>
    <g id="text_22">
     <!-- sim-MG -->
     <g transform="translate(393.146875 88.630938)scale(0.1 -0.1)">
      <use xlink:href="#DejaVuSans-73"/>
      <use x="52.099609" xlink:href="#DejaVuSans-69"/>
      <use x="79.882812" xlink:href="#DejaVuSans-6d"/>
      <use x="177.294922" xlink:href="#DejaVuSans-2d"/>
      <use x="213.378906" xlink:href="#DejaVuSans-4d"/>
      <use x="299.658203" xlink:href="#DejaVuSans-47"/>
     </g>
    </g>
    <g id="line2d_32">
     <path d="M 365.146875 99.809062  L 385.146875 99.809062  " style="fill:none;stroke:#803e75;stroke-linecap:square;stroke-width:2;"/>
    </g>
    <g id="line2d_33"/>
    <g id="text_23">
     <!-- sim-ZN -->
     <g transform="translate(393.146875 103.309062)scale(0.1 -0.1)">
      <use xlink:href="#DejaVuSans-73"/>
      <use x="52.099609" xlink:href="#DejaVuSans-69"/>
      <use x="79.882812" xlink:href="#DejaVuSans-6d"/>
      <use x="177.294922" xlink:href="#DejaVuSans-2d"/>
      <use x="213.378906" xlink:href="#DejaVuSans-5a"/>
      <use x="281.884766" xlink:href="#DejaVuSans-4e"/>
     </g>
    </g>
   </g>
  </g>
 </g>
 <defs>
  <clipPath id="pbb7f073727">
   <rect height="287.44" width="365.83" x="74.72" y="13.32"/>
  </clipPath>
 </defs>
</g>
    <g transform="translate(10, 300) scale(1) ">
      <g transform="translate(0, 0) scale(3.0) "><defs id="defs831"/>
  <sodipodi:namedview xmlns:sodipodi="http://sodipodi.sourceforge.net/DTD/sodipodi-0.dtd" xmlns:inkscape="http://www.inkscape.org/namespaces/inkscape" id="base" pagecolor="#ffffff" bordercolor="#666666" borderopacity="1.0" inkscape:pageopacity="0.0" inkscape:pageshadow="2" inkscape:zoom="1.979899" inkscape:cx="-12.763683" inkscape:cy="-16.680883" inkscape:document-units="mm" inkscape:current-layer="layer1" showgrid="false" inkscape:window-width="1920" inkscape:window-height="1001" inkscape:window-x="-9" inkscape:window-y="-9" inkscape:window-maximized="1" units="pt"/>
  <metadata xmlns:rdf="http://www.w3.org/1999/02/22-rdf-syntax-ns#" xmlns:cc="http://creativecommons.org/ns#" xmlns:dc="http://purl.org/dc/elements/1.1/" id="metadata834">
    <rdf:RDF>
      <cc:Work rdf:about="">
        <dc:format>image/svg+xml</dc:format>
        <dc:type rdf:resource="http://purl.org/dc/dcmitype/StillImage"/>
        <dc:title/>
      </cc:Work>
    </rdf:RDF>
  </metadata>
  <g xmlns:inkscape="http://www.inkscape.org/namespaces/inkscape" xmlns:sodipodi="http://sodipodi.sourceforge.net/DTD/sodipodi-0.dtd" inkscape:label="Layer 1" inkscape:groupmode="layer" id="layer1" transform="translate(0,-288.81557)">
    <g id="g4761" transform="matrix(0.07377843,0,0,0.07377843,-0.76923022,275.45946)">
      <path inkscape:connector-curvature="0" id="path1959-6-7-1-6-5-4-0-3-2-6-0-3-9-6" style="font-style:normal;font-variant:normal;font-weight:bold;font-stretch:normal;font-size:120.99466705px;line-height:1.25;font-family:Aharoni;-inkscape-font-specification:'Aharoni, Bold';font-variant-ligatures:normal;font-variant-caps:normal;font-variant-numeric:normal;font-feature-settings:normal;text-align:start;letter-spacing:0px;word-spacing:0px;writing-mode:lr-tb;text-anchor:start;fill:#000000;fill-opacity:1;stroke:none;stroke-width:2.37649584" d="M 52.937412,287.55677 H 40.587702 V 265.43005 H 22.776041 v 22.12672 h -12.34982 v -53.17432 h 12.34982 v 20.5296 h 17.811661 v -20.5296 h 12.34971 z"/>
      <path inkscape:connector-curvature="0" id="path1961-2-9-7-9-3-1-6-5-1-5-8-7-8-2" style="font-style:normal;font-variant:normal;font-weight:bold;font-stretch:normal;font-size:120.99466705px;line-height:1.25;font-family:Aharoni;-inkscape-font-specification:'Aharoni, Bold';font-variant-ligatures:normal;font-variant-caps:normal;font-variant-numeric:normal;font-feature-settings:normal;text-align:start;letter-spacing:0px;word-spacing:0px;writing-mode:lr-tb;text-anchor:start;fill:#000000;fill-opacity:1;stroke:none;stroke-width:2.37649584" d="m 69.681125,237.49895 q 0,3.0385 -1.87856,5.1421 -1.84375,2.0647 -4.55721,2.0647 -2.67866,0 -4.55722,-2.1036 -1.84375,-2.1036 -1.84375,-5.1032 0,-2.9996 1.84375,-5.0642 1.87856,-2.1036 4.55722,-2.1036 2.67865,0 4.55721,2.1036 1.87856,2.0646 1.87856,5.0642 z m -0.73057,50.05782 h -11.41048 v -36.15072 h 11.41048 z"/>
      <path inkscape:connector-curvature="0" id="path1963-3-1-2-8-3-6-3-3-3-4-7-6-0-8" style="font-style:normal;font-variant:normal;font-weight:bold;font-stretch:normal;font-size:120.99466705px;line-height:1.25;font-family:Aharoni;-inkscape-font-specification:'Aharoni, Bold';font-variant-ligatures:normal;font-variant-caps:normal;font-variant-numeric:normal;font-feature-settings:normal;text-align:start;letter-spacing:0px;word-spacing:0px;writing-mode:lr-tb;text-anchor:start;fill:#000000;fill-opacity:1;stroke:none;stroke-width:2.37649584" d="m 93.369625,261.92405 h -6.50536 v 25.63272 h -11.4104 v -25.63272 h -3.75712 v -10.518 h 3.75712 v -10.8686 h 11.4104 v 10.8686 h 6.50536 z"/>
      <path id="path1967-3-3-6-2-9-6-2-5-3-0-9-8-2-1" style="font-style:normal;font-variant:normal;font-weight:bold;font-stretch:normal;font-size:120.99466705px;line-height:1.25;font-family:Aharoni;-inkscape-font-specification:'Aharoni, Bold';font-variant-ligatures:normal;font-variant-caps:normal;font-variant-numeric:normal;font-feature-settings:normal;text-align:start;letter-spacing:0px;word-spacing:0px;writing-mode:lr-tb;text-anchor:start;fill:#000000;fill-opacity:1;stroke:none;stroke-width:2.37649584" d="m 160.61447,287.55677 h -12.34971 v -53.17432 h 12.34971 z" inkscape:connector-curvature="0"/>
      <path inkscape:connector-curvature="0" id="path1969-8-0-8-5-3-5-6-6-3-9-8-6-2-0" style="font-style:normal;font-variant:normal;font-weight:bold;font-stretch:normal;font-size:120.99466705px;line-height:1.25;font-family:Aharoni;-inkscape-font-specification:'Aharoni, Bold';font-variant-ligatures:normal;font-variant-caps:normal;font-variant-numeric:normal;font-feature-settings:normal;text-align:start;letter-spacing:0px;word-spacing:0px;writing-mode:lr-tb;text-anchor:start;fill:#000000;fill-opacity:1;stroke:none;stroke-width:2.37649584" d="m 201.6896,284.86883 q -6.05314,2.68794 -11.20172,2.68794 -8.97528,0 -16.07201,-6.42764 -9.04489,-8.21959 -9.04489,-21.42558 0,-13.2448 9.04489,-21.4644 7.09673,-6.4277 16.17636,-6.4277 4.93989,0 11.09737,2.6879 v 16.5561 q -1.73941,-2.3763 -3.54836,-3.5839 -3.30489,-2.2204 -7.09679,-2.2204 -4.8007,0 -8.34907,3.2333 -4.48766,4.0903 -4.48766,11.2191 0,7.0899 4.48766,11.1803 3.54837,3.23328 8.34907,3.23328 3.7919,0 7.09679,-2.22049 1.77415,-1.16869 3.54836,-3.58389 z"/>
      <path inkscape:transform-center-y="-13.656107" inkscape:transform-center-x="-3.9758045" sodipodi:nodetypes="csssssc" inkscape:connector-curvature="0" id="rect815-3-0-9-3-5-6-0-4-03-7-3-7-5-3-2-76-3-8-8-5-3-7-8-0-1-3-7-9-2-8-1" d="m 104.61223,181.4353 c 0,0 17.68257,27.27493 22.63096,34.41579 7.92879,11.44185 16.42741,30.36094 17.92806,45.50275 1.21005,12.20999 -1.38345,26.51285 -17.32077,30.11208 -11.70405,2.64313 -26.75007,-5.41371 -30.334975,-20.50903 -3.30533,-13.91816 -2.13088,-34.61412 0.0984,-48.67354 1.22049,-7.69719 5.657305,-36.06774 6.998335,-40.84805 z" style="font-style:normal;font-weight:normal;font-size:242.08590698px;line-height:1.25;font-family:sans-serif;letter-spacing:0px;word-spacing:0px;opacity:1;fill:#00456b;fill-opacity:1;stroke:none;stroke-width:0.6720385;stroke-miterlimit:4;stroke-dasharray:none;stroke-dashoffset:0;stroke-opacity:1;paint-order:markers fill stroke"/>
      <path sodipodi:nodetypes="ccscscsccscccscc" d="m 107.52748,246.32531 6.45576,30.78617 6.82019,-1.47997 c 5.75791,-1.24946 9.70999,-3.40081 11.85576,-6.45394 2.16431,-3.05721 2.68673,-7.25521 1.56721,-12.59398 -1.11209,-5.30332 -3.26743,-8.89247 -6.46601,-10.76744 -3.18372,-1.89669 -7.65528,-2.22015 -13.4127,-0.97081 z m -8.759905,-5.09591 12.713095,-2.78742 c 8.8634,-1.94336 15.73718,-1.59097 20.62135,1.05715 4.88003,2.62843 8.10326,7.71587 9.6697,15.26232 1.57464,7.58584 0.64804,13.61405 -2.77981,18.08462 -3.42783,4.4705 -9.55303,7.67294 -18.37559,9.60735 l -12.71311,2.78742 z" style="font-style:normal;font-weight:normal;font-size:242.08590698px;line-height:1.25;font-family:sans-serif;letter-spacing:0px;word-spacing:0px;fill:#ffffff;fill-opacity:1;stroke:none;stroke-width:1.60286868" id="path1193-3-5-3-2-7-4-5-6-0-0-6-9-2-4-7-0-0" inkscape:connector-curvature="0"/>
    </g>
  </g>
</g>
    </g>
  </g>
</svg>
