<?xml version='1.0' encoding='ASCII' standalone='yes'?>
<svg xmlns:xlink="http://www.w3.org/1999/xlink" xmlns="http://www.w3.org/2000/svg" version="1.1" width="460.8px" viewBox="0 0 460.8px 345.6px" height="345.6px">
  <g>
    <g><defs>
  <style type="text/css">
*{stroke-linecap:butt;stroke-linejoin:round;}
  </style>
 </defs>
 <g id="figure_1">
  <g id="patch_1">
   <path d="M 0 345.6  L 460.8 345.6  L 460.8 0  L 0 0  z " style="fill:#ffffff;"/>
  </g>
  <g id="axes_1">
   <g id="patch_2">
    <path d="M 74.63 300.76  L 440.55 300.76  L 440.55 13.32  L 74.63 13.32  z " style="fill:#ffffff;"/>
   </g>
   <g id="matplotlib.axis_1">
    <g id="xtick_1">
     <g id="line2d_1">
      <defs>
       <path d="M 0 0  L 0 3.5  " id="mee77f1d9a3" style="stroke:#000000;stroke-width:0.8;"/>
      </defs>
      <g>
       <use style="stroke:#000000;stroke-width:0.8;" x="74.63" xlink:href="#mee77f1d9a3" y="300.76"/>
      </g>
     </g>
     <g id="text_1">
      <!-- 0 -->
      <defs>
       <path d="M 31.78125 66.40625  Q 24.171875 66.40625 20.328125 58.90625  Q 16.5 51.421875 16.5 36.375  Q 16.5 21.390625 20.328125 13.890625  Q 24.171875 6.390625 31.78125 6.390625  Q 39.453125 6.390625 43.28125 13.890625  Q 47.125 21.390625 47.125 36.375  Q 47.125 51.421875 43.28125 58.90625  Q 39.453125 66.40625 31.78125 66.40625  z M 31.78125 74.21875  Q 44.046875 74.21875 50.515625 64.515625  Q 56.984375 54.828125 56.984375 36.375  Q 56.984375 17.96875 50.515625 8.265625  Q 44.046875 -1.421875 31.78125 -1.421875  Q 19.53125 -1.421875 13.0625 8.265625  Q 6.59375 17.96875 6.59375 36.375  Q 6.59375 54.828125 13.0625 64.515625  Q 19.53125 74.21875 31.78125 74.21875  z " id="DejaVuSans-30"/>
      </defs>
      <g transform="translate(71.44875 315.358437)scale(0.1 -0.1)">
       <use xlink:href="#DejaVuSans-30"/>
      </g>
     </g>
    </g>
    <g id="xtick_2">
     <g id="line2d_2">
      <g>
       <use style="stroke:#000000;stroke-width:0.8;" x="120.37" xlink:href="#mee77f1d9a3" y="300.76"/>
      </g>
     </g>
     <g id="text_2">
      <!-- 25 -->
      <defs>
       <path d="M 19.1875 8.296875  L 53.609375 8.296875  L 53.609375 0  L 7.328125 0  L 7.328125 8.296875  Q 12.9375 14.109375 22.625 23.890625  Q 32.328125 33.6875 34.8125 36.53125  Q 39.546875 41.84375 41.421875 45.53125  Q 43.3125 49.21875 43.3125 52.78125  Q 43.3125 58.59375 39.234375 62.25  Q 35.15625 65.921875 28.609375 65.921875  Q 23.96875 65.921875 18.8125 64.3125  Q 13.671875 62.703125 7.8125 59.421875  L 7.8125 69.390625  Q 13.765625 71.78125 18.9375 73  Q 24.125 74.21875 28.421875 74.21875  Q 39.75 74.21875 46.484375 68.546875  Q 53.21875 62.890625 53.21875 53.421875  Q 53.21875 48.921875 51.53125 44.890625  Q 49.859375 40.875 45.40625 35.40625  Q 44.1875 33.984375 37.640625 27.21875  Q 31.109375 20.453125 19.1875 8.296875  z " id="DejaVuSans-32"/>
       <path d="M 10.796875 72.90625  L 49.515625 72.90625  L 49.515625 64.59375  L 19.828125 64.59375  L 19.828125 46.734375  Q 21.96875 47.46875 24.109375 47.828125  Q 26.265625 48.1875 28.421875 48.1875  Q 40.625 48.1875 47.75 41.5  Q 54.890625 34.8125 54.890625 23.390625  Q 54.890625 11.625 47.5625 5.09375  Q 40.234375 -1.421875 26.90625 -1.421875  Q 22.3125 -1.421875 17.546875 -0.640625  Q 12.796875 0.140625 7.71875 1.703125  L 7.71875 11.625  Q 12.109375 9.234375 16.796875 8.0625  Q 21.484375 6.890625 26.703125 6.890625  Q 35.15625 6.890625 40.078125 11.328125  Q 45.015625 15.765625 45.015625 23.390625  Q 45.015625 31 40.078125 35.4375  Q 35.15625 39.890625 26.703125 39.890625  Q 22.75 39.890625 18.8125 39.015625  Q 14.890625 38.140625 10.796875 36.28125  z " id="DejaVuSans-35"/>
      </defs>
      <g transform="translate(114.0075 315.358437)scale(0.1 -0.1)">
       <use xlink:href="#DejaVuSans-32"/>
       <use x="63.623047" xlink:href="#DejaVuSans-35"/>
      </g>
     </g>
    </g>
    <g id="xtick_3">
     <g id="line2d_3">
      <g>
       <use style="stroke:#000000;stroke-width:0.8;" x="166.11" xlink:href="#mee77f1d9a3" y="300.76"/>
      </g>
     </g>
     <g id="text_3">
      <!-- 50 -->
      <g transform="translate(159.7475 315.358437)scale(0.1 -0.1)">
       <use xlink:href="#DejaVuSans-35"/>
       <use x="63.623047" xlink:href="#DejaVuSans-30"/>
      </g>
     </g>
    </g>
    <g id="xtick_4">
     <g id="line2d_4">
      <g>
       <use style="stroke:#000000;stroke-width:0.8;" x="211.85" xlink:href="#mee77f1d9a3" y="300.76"/>
      </g>
     </g>
     <g id="text_4">
      <!-- 75 -->
      <defs>
       <path d="M 8.203125 72.90625  L 55.078125 72.90625  L 55.078125 68.703125  L 28.609375 0  L 18.3125 0  L 43.21875 64.59375  L 8.203125 64.59375  z " id="DejaVuSans-37"/>
      </defs>
      <g transform="translate(205.4875 315.358437)scale(0.1 -0.1)">
       <use xlink:href="#DejaVuSans-37"/>
       <use x="63.623047" xlink:href="#DejaVuSans-35"/>
      </g>
     </g>
    </g>
    <g id="xtick_5">
     <g id="line2d_5">
      <g>
       <use style="stroke:#000000;stroke-width:0.8;" x="257.59" xlink:href="#mee77f1d9a3" y="300.76"/>
      </g>
     </g>
     <g id="text_5">
      <!-- 100 -->
      <defs>
       <path d="M 12.40625 8.296875  L 28.515625 8.296875  L 28.515625 63.921875  L 10.984375 60.40625  L 10.984375 69.390625  L 28.421875 72.90625  L 38.28125 72.90625  L 38.28125 8.296875  L 54.390625 8.296875  L 54.390625 0  L 12.40625 0  z " id="DejaVuSans-31"/>
      </defs>
      <g transform="translate(248.04625 315.358437)scale(0.1 -0.1)">
       <use xlink:href="#DejaVuSans-31"/>
       <use x="63.623047" xlink:href="#DejaVuSans-30"/>
       <use x="127.246094" xlink:href="#DejaVuSans-30"/>
      </g>
     </g>
    </g>
    <g id="xtick_6">
     <g id="line2d_6">
      <g>
       <use style="stroke:#000000;stroke-width:0.8;" x="303.33" xlink:href="#mee77f1d9a3" y="300.76"/>
      </g>
     </g>
     <g id="text_6">
      <!-- 125 -->
      <g transform="translate(293.78625 315.358437)scale(0.1 -0.1)">
       <use xlink:href="#DejaVuSans-31"/>
       <use x="63.623047" xlink:href="#DejaVuSans-32"/>
       <use x="127.246094" xlink:href="#DejaVuSans-35"/>
      </g>
     </g>
    </g>
    <g id="xtick_7">
     <g id="line2d_7">
      <g>
       <use style="stroke:#000000;stroke-width:0.8;" x="349.07" xlink:href="#mee77f1d9a3" y="300.76"/>
      </g>
     </g>
     <g id="text_7">
      <!-- 150 -->
      <g transform="translate(339.52625 315.358437)scale(0.1 -0.1)">
       <use xlink:href="#DejaVuSans-31"/>
       <use x="63.623047" xlink:href="#DejaVuSans-35"/>
       <use x="127.246094" xlink:href="#DejaVuSans-30"/>
      </g>
     </g>
    </g>
    <g id="xtick_8">
     <g id="line2d_8">
      <g>
       <use style="stroke:#000000;stroke-width:0.8;" x="394.81" xlink:href="#mee77f1d9a3" y="300.76"/>
      </g>
     </g>
     <g id="text_8">
      <!-- 175 -->
      <g transform="translate(385.26625 315.358437)scale(0.1 -0.1)">
       <use xlink:href="#DejaVuSans-31"/>
       <use x="63.623047" xlink:href="#DejaVuSans-37"/>
       <use x="127.246094" xlink:href="#DejaVuSans-35"/>
      </g>
     </g>
    </g>
    <g id="xtick_9">
     <g id="line2d_9">
      <g>
       <use style="stroke:#000000;stroke-width:0.8;" x="440.55" xlink:href="#mee77f1d9a3" y="300.76"/>
      </g>
     </g>
     <g id="text_9">
      <!-- 200 -->
      <g transform="translate(431.00625 315.358437)scale(0.1 -0.1)">
       <use xlink:href="#DejaVuSans-32"/>
       <use x="63.623047" xlink:href="#DejaVuSans-30"/>
       <use x="127.246094" xlink:href="#DejaVuSans-30"/>
      </g>
     </g>
    </g>
    <g id="text_10">
     <!-- Distance ($\mu$m) -->
     <defs>
      <path d="M 19.671875 64.796875  L 19.671875 8.109375  L 31.59375 8.109375  Q 46.6875 8.109375 53.6875 14.9375  Q 60.6875 21.78125 60.6875 36.53125  Q 60.6875 51.171875 53.6875 57.984375  Q 46.6875 64.796875 31.59375 64.796875  z M 9.8125 72.90625  L 30.078125 72.90625  Q 51.265625 72.90625 61.171875 64.09375  Q 71.09375 55.28125 71.09375 36.53125  Q 71.09375 17.671875 61.125 8.828125  Q 51.171875 0 30.078125 0  L 9.8125 0  z " id="DejaVuSans-44"/>
      <path d="M 9.421875 54.6875  L 18.40625 54.6875  L 18.40625 0  L 9.421875 0  z M 9.421875 75.984375  L 18.40625 75.984375  L 18.40625 64.59375  L 9.421875 64.59375  z " id="DejaVuSans-69"/>
      <path d="M 44.28125 53.078125  L 44.28125 44.578125  Q 40.484375 46.53125 36.375 47.5  Q 32.28125 48.484375 27.875 48.484375  Q 21.1875 48.484375 17.84375 46.4375  Q 14.5 44.390625 14.5 40.28125  Q 14.5 37.15625 16.890625 35.375  Q 19.28125 33.59375 26.515625 31.984375  L 29.59375 31.296875  Q 39.15625 29.25 43.1875 25.515625  Q 47.21875 21.78125 47.21875 15.09375  Q 47.21875 7.46875 41.1875 3.015625  Q 35.15625 -1.421875 24.609375 -1.421875  Q 20.21875 -1.421875 15.453125 -0.5625  Q 10.6875 0.296875 5.421875 2  L 5.421875 11.28125  Q 10.40625 8.6875 15.234375 7.390625  Q 20.0625 6.109375 24.8125 6.109375  Q 31.15625 6.109375 34.5625 8.28125  Q 37.984375 10.453125 37.984375 14.40625  Q 37.984375 18.0625 35.515625 20.015625  Q 33.0625 21.96875 24.703125 23.78125  L 21.578125 24.515625  Q 13.234375 26.265625 9.515625 29.90625  Q 5.8125 33.546875 5.8125 39.890625  Q 5.8125 47.609375 11.28125 51.796875  Q 16.75 56 26.8125 56  Q 31.78125 56 36.171875 55.265625  Q 40.578125 54.546875 44.28125 53.078125  z " id="DejaVuSans-73"/>
      <path d="M 18.3125 70.21875  L 18.3125 54.6875  L 36.8125 54.6875  L 36.8125 47.703125  L 18.3125 47.703125  L 18.3125 18.015625  Q 18.3125 11.328125 20.140625 9.421875  Q 21.96875 7.515625 27.59375 7.515625  L 36.8125 7.515625  L 36.8125 0  L 27.59375 0  Q 17.1875 0 13.234375 3.875  Q 9.28125 7.765625 9.28125 18.015625  L 9.28125 47.703125  L 2.6875 47.703125  L 2.6875 54.6875  L 9.28125 54.6875  L 9.28125 70.21875  z " id="DejaVuSans-74"/>
      <path d="M 34.28125 27.484375  Q 23.390625 27.484375 19.1875 25  Q 14.984375 22.515625 14.984375 16.5  Q 14.984375 11.71875 18.140625 8.90625  Q 21.296875 6.109375 26.703125 6.109375  Q 34.1875 6.109375 38.703125 11.40625  Q 43.21875 16.703125 43.21875 25.484375  L 43.21875 27.484375  z M 52.203125 31.203125  L 52.203125 0  L 43.21875 0  L 43.21875 8.296875  Q 40.140625 3.328125 35.546875 0.953125  Q 30.953125 -1.421875 24.3125 -1.421875  Q 15.921875 -1.421875 10.953125 3.296875  Q 6 8.015625 6 15.921875  Q 6 25.140625 12.171875 29.828125  Q 18.359375 34.515625 30.609375 34.515625  L 43.21875 34.515625  L 43.21875 35.40625  Q 43.21875 41.609375 39.140625 45  Q 35.0625 48.390625 27.6875 48.390625  Q 23 48.390625 18.546875 47.265625  Q 14.109375 46.140625 10.015625 43.890625  L 10.015625 52.203125  Q 14.9375 54.109375 19.578125 55.046875  Q 24.21875 56 28.609375 56  Q 40.484375 56 46.34375 49.84375  Q 52.203125 43.703125 52.203125 31.203125  z " id="DejaVuSans-61"/>
      <path d="M 54.890625 33.015625  L 54.890625 0  L 45.90625 0  L 45.90625 32.71875  Q 45.90625 40.484375 42.875 44.328125  Q 39.84375 48.1875 33.796875 48.1875  Q 26.515625 48.1875 22.3125 43.546875  Q 18.109375 38.921875 18.109375 30.90625  L 18.109375 0  L 9.078125 0  L 9.078125 54.6875  L 18.109375 54.6875  L 18.109375 46.1875  Q 21.34375 51.125 25.703125 53.5625  Q 30.078125 56 35.796875 56  Q 45.21875 56 50.046875 50.171875  Q 54.890625 44.34375 54.890625 33.015625  z " id="DejaVuSans-6e"/>
      <path d="M 48.78125 52.59375  L 48.78125 44.1875  Q 44.96875 46.296875 41.140625 47.34375  Q 37.3125 48.390625 33.40625 48.390625  Q 24.65625 48.390625 19.8125 42.84375  Q 14.984375 37.3125 14.984375 27.296875  Q 14.984375 17.28125 19.8125 11.734375  Q 24.65625 6.203125 33.40625 6.203125  Q 37.3125 6.203125 41.140625 7.25  Q 44.96875 8.296875 48.78125 10.40625  L 48.78125 2.09375  Q 45.015625 0.34375 40.984375 -0.53125  Q 36.96875 -1.421875 32.421875 -1.421875  Q 20.0625 -1.421875 12.78125 6.34375  Q 5.515625 14.109375 5.515625 27.296875  Q 5.515625 40.671875 12.859375 48.328125  Q 20.21875 56 33.015625 56  Q 37.15625 56 41.109375 55.140625  Q 45.0625 54.296875 48.78125 52.59375  z " id="DejaVuSans-63"/>
      <path d="M 56.203125 29.59375  L 56.203125 25.203125  L 14.890625 25.203125  Q 15.484375 15.921875 20.484375 11.0625  Q 25.484375 6.203125 34.421875 6.203125  Q 39.59375 6.203125 44.453125 7.46875  Q 49.3125 8.734375 54.109375 11.28125  L 54.109375 2.78125  Q 49.265625 0.734375 44.1875 -0.34375  Q 39.109375 -1.421875 33.890625 -1.421875  Q 20.796875 -1.421875 13.15625 6.1875  Q 5.515625 13.8125 5.515625 26.8125  Q 5.515625 40.234375 12.765625 48.109375  Q 20.015625 56 32.328125 56  Q 43.359375 56 49.78125 48.890625  Q 56.203125 41.796875 56.203125 29.59375  z M 47.21875 32.234375  Q 47.125 39.59375 43.09375 43.984375  Q 39.0625 48.390625 32.421875 48.390625  Q 24.90625 48.390625 20.390625 44.140625  Q 15.875 39.890625 15.1875 32.171875  z " id="DejaVuSans-65"/>
      <path id="DejaVuSans-20"/>
      <path d="M 31 75.875  Q 24.46875 64.65625 21.28125 53.65625  Q 18.109375 42.671875 18.109375 31.390625  Q 18.109375 20.125 21.3125 9.0625  Q 24.515625 -2 31 -13.1875  L 23.1875 -13.1875  Q 15.875 -1.703125 12.234375 9.375  Q 8.59375 20.453125 8.59375 31.390625  Q 8.59375 42.28125 12.203125 53.3125  Q 15.828125 64.359375 23.1875 75.875  z " id="DejaVuSans-28"/>
      <path d="M -1.3125 -20.796875  L 13.375 54.6875  L 22.40625 54.6875  L 15.765625 20.65625  Q 15.578125 19.625 15.421875 18.359375  Q 15.28125 17.09375 15.28125 15.828125  Q 15.28125 11.28125 18.140625 8.828125  Q 21 6.390625 26.3125 6.390625  Q 33.546875 6.390625 37.984375 10.484375  Q 42.4375 14.59375 44 22.796875  L 50.203125 54.6875  L 59.1875 54.6875  L 51.03125 12.640625  Q 50.828125 11.71875 50.75 11.03125  Q 50.6875 10.359375 50.6875 9.8125  Q 50.6875 8.296875 51.296875 7.59375  Q 51.90625 6.890625 53.21875 6.890625  Q 53.71875 6.890625 54.5625 7.125  Q 55.421875 7.375 56.984375 8.015625  L 55.609375 0.78125  Q 53.46875 -0.296875 51.515625 -0.859375  Q 49.5625 -1.421875 47.703125 -1.421875  Q 44.484375 -1.421875 42.65625 0.625  Q 40.828125 2.6875 40.828125 6.296875  Q 38.09375 2.390625 34.296875 0.484375  Q 30.515625 -1.421875 25.390625 -1.421875  Q 20.84375 -1.421875 17.453125 0.671875  Q 14.0625 2.78125 12.984375 6.203125  L 7.71875 -20.796875  z " id="DejaVuSans-Oblique-3bc"/>
      <path d="M 52 44.1875  Q 55.375 50.25 60.0625 53.125  Q 64.75 56 71.09375 56  Q 79.640625 56 84.28125 50.015625  Q 88.921875 44.046875 88.921875 33.015625  L 88.921875 0  L 79.890625 0  L 79.890625 32.71875  Q 79.890625 40.578125 77.09375 44.375  Q 74.3125 48.1875 68.609375 48.1875  Q 61.625 48.1875 57.5625 43.546875  Q 53.515625 38.921875 53.515625 30.90625  L 53.515625 0  L 44.484375 0  L 44.484375 32.71875  Q 44.484375 40.625 41.703125 44.40625  Q 38.921875 48.1875 33.109375 48.1875  Q 26.21875 48.1875 22.15625 43.53125  Q 18.109375 38.875 18.109375 30.90625  L 18.109375 0  L 9.078125 0  L 9.078125 54.6875  L 18.109375 54.6875  L 18.109375 46.1875  Q 21.1875 51.21875 25.484375 53.609375  Q 29.78125 56 35.6875 56  Q 41.65625 56 45.828125 52.96875  Q 50 49.953125 52 44.1875  z " id="DejaVuSans-6d"/>
      <path d="M 8.015625 75.875  L 15.828125 75.875  Q 23.140625 64.359375 26.78125 53.3125  Q 30.421875 42.28125 30.421875 31.390625  Q 30.421875 20.453125 26.78125 9.375  Q 23.140625 -1.703125 15.828125 -13.1875  L 8.015625 -13.1875  Q 14.5 -2 17.703125 9.0625  Q 20.90625 20.125 20.90625 31.390625  Q 20.90625 42.671875 17.703125 53.65625  Q 14.5 64.65625 8.015625 75.875  z " id="DejaVuSans-29"/>
     </defs>
     <g transform="translate(222.14 329.038125)scale(0.1 -0.1)">
      <use transform="translate(0 0.015625)" xlink:href="#DejaVuSans-44"/>
      <use transform="translate(77.001953 0.015625)" xlink:href="#DejaVuSans-69"/>
      <use transform="translate(104.785156 0.015625)" xlink:href="#DejaVuSans-73"/>
      <use transform="translate(156.884766 0.015625)" xlink:href="#DejaVuSans-74"/>
      <use transform="translate(196.09375 0.015625)" xlink:href="#DejaVuSans-61"/>
      <use transform="translate(257.373047 0.015625)" xlink:href="#DejaVuSans-6e"/>
      <use transform="translate(320.751953 0.015625)" xlink:href="#DejaVuSans-63"/>
      <use transform="translate(375.732422 0.015625)" xlink:href="#DejaVuSans-65"/>
      <use transform="translate(437.255859 0.015625)" xlink:href="#DejaVuSans-20"/>
      <use transform="translate(469.042969 0.015625)" xlink:href="#DejaVuSans-28"/>
      <use transform="translate(508.056641 0.015625)" xlink:href="#DejaVuSans-Oblique-3bc"/>
      <use transform="translate(571.679688 0.015625)" xlink:href="#DejaVuSans-6d"/>
      <use transform="translate(669.091797 0.015625)" xlink:href="#DejaVuSans-29"/>
     </g>
    </g>
   </g>
   <g id="matplotlib.axis_2">
    <g id="ytick_1">
     <g id="line2d_10">
      <defs>
       <path d="M 0 0  L -3.5 0  " id="m395a78dcca" style="stroke:#000000;stroke-width:0.8;"/>
      </defs>
      <g>
       <use style="stroke:#000000;stroke-width:0.8;" x="74.63" xlink:href="#m395a78dcca" y="250.440094"/>
      </g>
     </g>
     <g id="text_11">
      <!-- &#8722;40000 -->
      <defs>
       <path d="M 10.59375 35.5  L 73.1875 35.5  L 73.1875 27.203125  L 10.59375 27.203125  z " id="DejaVuSans-2212"/>
       <path d="M 37.796875 64.3125  L 12.890625 25.390625  L 37.796875 25.390625  z M 35.203125 72.90625  L 47.609375 72.90625  L 47.609375 25.390625  L 58.015625 25.390625  L 58.015625 17.1875  L 47.609375 17.1875  L 47.609375 0  L 37.796875 0  L 37.796875 17.1875  L 4.890625 17.1875  L 4.890625 26.703125  z " id="DejaVuSans-34"/>
      </defs>
      <g transform="translate(27.437813 254.239313)scale(0.1 -0.1)">
       <use xlink:href="#DejaVuSans-2212"/>
       <use x="83.789062" xlink:href="#DejaVuSans-34"/>
       <use x="147.412109" xlink:href="#DejaVuSans-30"/>
       <use x="211.035156" xlink:href="#DejaVuSans-30"/>
       <use x="274.658203" xlink:href="#DejaVuSans-30"/>
       <use x="338.28125" xlink:href="#DejaVuSans-30"/>
      </g>
     </g>
    </g>
    <g id="ytick_2">
     <g id="line2d_11">
      <g>
       <use style="stroke:#000000;stroke-width:0.8;" x="74.63" xlink:href="#m395a78dcca" y="190.669989"/>
      </g>
     </g>
     <g id="text_12">
      <!-- &#8722;20000 -->
      <g transform="translate(27.437813 194.469207)scale(0.1 -0.1)">
       <use xlink:href="#DejaVuSans-2212"/>
       <use x="83.789062" xlink:href="#DejaVuSans-32"/>
       <use x="147.412109" xlink:href="#DejaVuSans-30"/>
       <use x="211.035156" xlink:href="#DejaVuSans-30"/>
       <use x="274.658203" xlink:href="#DejaVuSans-30"/>
       <use x="338.28125" xlink:href="#DejaVuSans-30"/>
      </g>
     </g>
    </g>
    <g id="ytick_3">
     <g id="line2d_12">
      <g>
       <use style="stroke:#000000;stroke-width:0.8;" x="74.63" xlink:href="#m395a78dcca" y="130.899883"/>
      </g>
     </g>
     <g id="text_13">
      <!-- 0 -->
      <g transform="translate(61.2675 134.699102)scale(0.1 -0.1)">
       <use xlink:href="#DejaVuSans-30"/>
      </g>
     </g>
    </g>
    <g id="ytick_4">
     <g id="line2d_13">
      <g>
       <use style="stroke:#000000;stroke-width:0.8;" x="74.63" xlink:href="#m395a78dcca" y="71.129778"/>
      </g>
     </g>
     <g id="text_14">
      <!-- 20000 -->
      <g transform="translate(35.8175 74.928997)scale(0.1 -0.1)">
       <use xlink:href="#DejaVuSans-32"/>
       <use x="63.623047" xlink:href="#DejaVuSans-30"/>
       <use x="127.246094" xlink:href="#DejaVuSans-30"/>
       <use x="190.869141" xlink:href="#DejaVuSans-30"/>
       <use x="254.492188" xlink:href="#DejaVuSans-30"/>
      </g>
     </g>
    </g>
    <g id="text_15">
     <!-- Slope, at. / $\mu m$ -->
     <defs>
      <path d="M 53.515625 70.515625  L 53.515625 60.890625  Q 47.90625 63.578125 42.921875 64.890625  Q 37.9375 66.21875 33.296875 66.21875  Q 25.25 66.21875 20.875 63.09375  Q 16.5 59.96875 16.5 54.203125  Q 16.5 49.359375 19.40625 46.890625  Q 22.3125 44.4375 30.421875 42.921875  L 36.375 41.703125  Q 47.40625 39.59375 52.65625 34.296875  Q 57.90625 29 57.90625 20.125  Q 57.90625 9.515625 50.796875 4.046875  Q 43.703125 -1.421875 29.984375 -1.421875  Q 24.8125 -1.421875 18.96875 -0.25  Q 13.140625 0.921875 6.890625 3.21875  L 6.890625 13.375  Q 12.890625 10.015625 18.65625 8.296875  Q 24.421875 6.59375 29.984375 6.59375  Q 38.421875 6.59375 43.015625 9.90625  Q 47.609375 13.234375 47.609375 19.390625  Q 47.609375 24.75 44.3125 27.78125  Q 41.015625 30.8125 33.5 32.328125  L 27.484375 33.5  Q 16.453125 35.6875 11.515625 40.375  Q 6.59375 45.0625 6.59375 53.421875  Q 6.59375 63.09375 13.40625 68.65625  Q 20.21875 74.21875 32.171875 74.21875  Q 37.3125 74.21875 42.625 73.28125  Q 47.953125 72.359375 53.515625 70.515625  z " id="DejaVuSans-53"/>
      <path d="M 9.421875 75.984375  L 18.40625 75.984375  L 18.40625 0  L 9.421875 0  z " id="DejaVuSans-6c"/>
      <path d="M 30.609375 48.390625  Q 23.390625 48.390625 19.1875 42.75  Q 14.984375 37.109375 14.984375 27.296875  Q 14.984375 17.484375 19.15625 11.84375  Q 23.34375 6.203125 30.609375 6.203125  Q 37.796875 6.203125 41.984375 11.859375  Q 46.1875 17.53125 46.1875 27.296875  Q 46.1875 37.015625 41.984375 42.703125  Q 37.796875 48.390625 30.609375 48.390625  z M 30.609375 56  Q 42.328125 56 49.015625 48.375  Q 55.71875 40.765625 55.71875 27.296875  Q 55.71875 13.875 49.015625 6.21875  Q 42.328125 -1.421875 30.609375 -1.421875  Q 18.84375 -1.421875 12.171875 6.21875  Q 5.515625 13.875 5.515625 27.296875  Q 5.515625 40.765625 12.171875 48.375  Q 18.84375 56 30.609375 56  z " id="DejaVuSans-6f"/>
      <path d="M 18.109375 8.203125  L 18.109375 -20.796875  L 9.078125 -20.796875  L 9.078125 54.6875  L 18.109375 54.6875  L 18.109375 46.390625  Q 20.953125 51.265625 25.265625 53.625  Q 29.59375 56 35.59375 56  Q 45.5625 56 51.78125 48.09375  Q 58.015625 40.1875 58.015625 27.296875  Q 58.015625 14.40625 51.78125 6.484375  Q 45.5625 -1.421875 35.59375 -1.421875  Q 29.59375 -1.421875 25.265625 0.953125  Q 20.953125 3.328125 18.109375 8.203125  z M 48.6875 27.296875  Q 48.6875 37.203125 44.609375 42.84375  Q 40.53125 48.484375 33.40625 48.484375  Q 26.265625 48.484375 22.1875 42.84375  Q 18.109375 37.203125 18.109375 27.296875  Q 18.109375 17.390625 22.1875 11.75  Q 26.265625 6.109375 33.40625 6.109375  Q 40.53125 6.109375 44.609375 11.75  Q 48.6875 17.390625 48.6875 27.296875  z " id="DejaVuSans-70"/>
      <path d="M 11.71875 12.40625  L 22.015625 12.40625  L 22.015625 4  L 14.015625 -11.625  L 7.71875 -11.625  L 11.71875 4  z " id="DejaVuSans-2c"/>
      <path d="M 10.6875 12.40625  L 21 12.40625  L 21 0  L 10.6875 0  z " id="DejaVuSans-2e"/>
      <path d="M 25.390625 72.90625  L 33.6875 72.90625  L 8.296875 -9.28125  L 0 -9.28125  z " id="DejaVuSans-2f"/>
      <path d="M 89.796875 33.015625  L 83.40625 0  L 74.421875 0  L 80.71875 32.71875  Q 81.109375 34.8125 81.296875 36.328125  Q 81.5 37.84375 81.5 38.921875  Q 81.5 43.3125 79.046875 45.75  Q 76.609375 48.1875 72.21875 48.1875  Q 65.671875 48.1875 60.546875 43.28125  Q 55.421875 38.375 53.90625 30.515625  L 47.90625 0  L 38.921875 0  L 45.3125 32.71875  Q 45.703125 34.515625 45.890625 36.046875  Q 46.09375 37.59375 46.09375 38.8125  Q 46.09375 43.265625 43.65625 45.71875  Q 41.21875 48.1875 36.921875 48.1875  Q 30.28125 48.1875 25.140625 43.28125  Q 20.015625 38.375 18.5 30.515625  L 12.5 0  L 3.515625 0  L 14.203125 54.6875  L 23.1875 54.6875  L 21.484375 46.1875  Q 25.140625 50.984375 30.046875 53.484375  Q 34.96875 56 40.578125 56  Q 46.53125 56 50.359375 52.875  Q 54.203125 49.75 54.984375 44.1875  Q 59.078125 49.953125 64.46875 52.96875  Q 69.875 56 75.875 56  Q 82.90625 56 86.734375 51.953125  Q 90.578125 47.90625 90.578125 40.484375  Q 90.578125 38.875 90.375 36.9375  Q 90.1875 35.015625 89.796875 33.015625  z " id="DejaVuSans-Oblique-6d"/>
     </defs>
     <g transform="translate(21.337813 193.64)rotate(-90)scale(0.1 -0.1)">
      <use transform="translate(0 0.015625)" xlink:href="#DejaVuSans-53"/>
      <use transform="translate(63.476562 0.015625)" xlink:href="#DejaVuSans-6c"/>
      <use transform="translate(91.259766 0.015625)" xlink:href="#DejaVuSans-6f"/>
      <use transform="translate(152.441406 0.015625)" xlink:href="#DejaVuSans-70"/>
      <use transform="translate(215.917969 0.015625)" xlink:href="#DejaVuSans-65"/>
      <use transform="translate(277.441406 0.015625)" xlink:href="#DejaVuSans-2c"/>
      <use transform="translate(309.228516 0.015625)" xlink:href="#DejaVuSans-20"/>
      <use transform="translate(341.015625 0.015625)" xlink:href="#DejaVuSans-61"/>
      <use transform="translate(402.294922 0.015625)" xlink:href="#DejaVuSans-74"/>
      <use transform="translate(441.503906 0.015625)" xlink:href="#DejaVuSans-2e"/>
      <use transform="translate(473.291016 0.015625)" xlink:href="#DejaVuSans-20"/>
      <use transform="translate(505.078125 0.015625)" xlink:href="#DejaVuSans-2f"/>
      <use transform="translate(538.769531 0.015625)" xlink:href="#DejaVuSans-20"/>
      <use transform="translate(570.556641 0.015625)" xlink:href="#DejaVuSans-Oblique-3bc"/>
      <use transform="translate(634.179688 0.015625)" xlink:href="#DejaVuSans-Oblique-6d"/>
     </g>
    </g>
   </g>
   <g id="line2d_14">
    <defs>
     <path d="M -0 3  L 3 -3  L -3 -3  z " id="m864c4d212f" style="stroke:#f13a13;stroke-linejoin:miter;"/>
    </defs>
    <g clip-path="url(#p79e5585f27)">
     <use style="fill:#f13a13;stroke:#f13a13;stroke-linejoin:miter;" x="74.272656" xlink:href="#m864c4d212f" y="131.39524"/>
     <use style="fill:#f13a13;stroke:#f13a13;stroke-linejoin:miter;" x="78.913602" xlink:href="#m864c4d212f" y="131.39524"/>
     <use style="fill:#f13a13;stroke:#f13a13;stroke-linejoin:miter;" x="83.554547" xlink:href="#m864c4d212f" y="130.352687"/>
     <use style="fill:#f13a13;stroke:#f13a13;stroke-linejoin:miter;" x="88.195492" xlink:href="#m864c4d212f" y="129.14154"/>
     <use style="fill:#f13a13;stroke:#f13a13;stroke-linejoin:miter;" x="92.836437" xlink:href="#m864c4d212f" y="131.71187"/>
     <use style="fill:#f13a13;stroke:#f13a13;stroke-linejoin:miter;" x="97.477386" xlink:href="#m864c4d212f" y="130.989423"/>
     <use style="fill:#f13a13;stroke:#f13a13;stroke-linejoin:miter;" x="102.118331" xlink:href="#m864c4d212f" y="130.739065"/>
     <use style="fill:#f13a13;stroke:#f13a13;stroke-linejoin:miter;" x="106.759276" xlink:href="#m864c4d212f" y="132.841547"/>
     <use style="fill:#f13a13;stroke:#f13a13;stroke-linejoin:miter;" x="111.400221" xlink:href="#m864c4d212f" y="131.156899"/>
     <use style="fill:#f13a13;stroke:#f13a13;stroke-linejoin:miter;" x="116.041166" xlink:href="#m864c4d212f" y="129.406508"/>
     <use style="fill:#f13a13;stroke:#f13a13;stroke-linejoin:miter;" x="120.682111" xlink:href="#m864c4d212f" y="130.984828"/>
     <use style="fill:#f13a13;stroke:#f13a13;stroke-linejoin:miter;" x="125.323057" xlink:href="#m864c4d212f" y="131.622094"/>
     <use style="fill:#f13a13;stroke:#f13a13;stroke-linejoin:miter;" x="129.964002" xlink:href="#m864c4d212f" y="130.252544"/>
     <use style="fill:#f13a13;stroke:#f13a13;stroke-linejoin:miter;" x="134.604947" xlink:href="#m864c4d212f" y="129.955589"/>
     <use style="fill:#f13a13;stroke:#f13a13;stroke-linejoin:miter;" x="139.245892" xlink:href="#m864c4d212f" y="131.141288"/>
     <use style="fill:#f13a13;stroke:#f13a13;stroke-linejoin:miter;" x="143.886837" xlink:href="#m864c4d212f" y="131.162613"/>
     <use style="fill:#f13a13;stroke:#f13a13;stroke-linejoin:miter;" x="148.527782" xlink:href="#m864c4d212f" y="129.857331"/>
     <use style="fill:#f13a13;stroke:#f13a13;stroke-linejoin:miter;" x="153.168727" xlink:href="#m864c4d212f" y="132.142841"/>
     <use style="fill:#f13a13;stroke:#f13a13;stroke-linejoin:miter;" x="157.809672" xlink:href="#m864c4d212f" y="132.352788"/>
     <use style="fill:#f13a13;stroke:#f13a13;stroke-linejoin:miter;" x="162.450617" xlink:href="#m864c4d212f" y="131.77932"/>
     <use style="fill:#f13a13;stroke:#f13a13;stroke-linejoin:miter;" x="167.091562" xlink:href="#m864c4d212f" y="131.295273"/>
     <use style="fill:#f13a13;stroke:#f13a13;stroke-linejoin:miter;" x="171.732507" xlink:href="#m864c4d212f" y="132.09701"/>
     <use style="fill:#f13a13;stroke:#f13a13;stroke-linejoin:miter;" x="176.373452" xlink:href="#m864c4d212f" y="133.002896"/>
     <use style="fill:#f13a13;stroke:#f13a13;stroke-linejoin:miter;" x="181.014397" xlink:href="#m864c4d212f" y="134.411797"/>
     <use style="fill:#f13a13;stroke:#f13a13;stroke-linejoin:miter;" x="185.655342" xlink:href="#m864c4d212f" y="135.910356"/>
     <use style="fill:#f13a13;stroke:#f13a13;stroke-linejoin:miter;" x="190.296287" xlink:href="#m864c4d212f" y="135.59296"/>
     <use style="fill:#f13a13;stroke:#f13a13;stroke-linejoin:miter;" x="194.937232" xlink:href="#m864c4d212f" y="136.833208"/>
     <use style="fill:#f13a13;stroke:#f13a13;stroke-linejoin:miter;" x="199.578178" xlink:href="#m864c4d212f" y="137.917938"/>
     <use style="fill:#f13a13;stroke:#f13a13;stroke-linejoin:miter;" x="204.219123" xlink:href="#m864c4d212f" y="141.009014"/>
     <use style="fill:#f13a13;stroke:#f13a13;stroke-linejoin:miter;" x="208.860068" xlink:href="#m864c4d212f" y="143.011707"/>
     <use style="fill:#f13a13;stroke:#f13a13;stroke-linejoin:miter;" x="213.501013" xlink:href="#m864c4d212f" y="142.643415"/>
     <use style="fill:#f13a13;stroke:#f13a13;stroke-linejoin:miter;" x="218.141958" xlink:href="#m864c4d212f" y="148.26488"/>
     <use style="fill:#f13a13;stroke:#f13a13;stroke-linejoin:miter;" x="222.782903" xlink:href="#m864c4d212f" y="151.731259"/>
     <use style="fill:#f13a13;stroke:#f13a13;stroke-linejoin:miter;" x="227.423848" xlink:href="#m864c4d212f" y="152.536059"/>
     <use style="fill:#f13a13;stroke:#f13a13;stroke-linejoin:miter;" x="232.064793" xlink:href="#m864c4d212f" y="160.188375"/>
     <use style="fill:#f13a13;stroke:#f13a13;stroke-linejoin:miter;" x="236.705738" xlink:href="#m864c4d212f" y="169.277044"/>
     <use style="fill:#f13a13;stroke:#f13a13;stroke-linejoin:miter;" x="241.346683" xlink:href="#m864c4d212f" y="179.696266"/>
     <use style="fill:#f13a13;stroke:#f13a13;stroke-linejoin:miter;" x="245.987628" xlink:href="#m864c4d212f" y="195.34339"/>
     <use style="fill:#f13a13;stroke:#f13a13;stroke-linejoin:miter;" x="250.628573" xlink:href="#m864c4d212f" y="210.048518"/>
     <use style="fill:#f13a13;stroke:#f13a13;stroke-linejoin:miter;" x="255.269518" xlink:href="#m864c4d212f" y="222.756308"/>
     <use style="fill:#f13a13;stroke:#f13a13;stroke-linejoin:miter;" x="259.910482" xlink:href="#m864c4d212f" y="235.026247"/>
     <use style="fill:#f13a13;stroke:#f13a13;stroke-linejoin:miter;" x="264.551445" xlink:href="#m864c4d212f" y="246.972139"/>
     <use style="fill:#f13a13;stroke:#f13a13;stroke-linejoin:miter;" x="269.192408" xlink:href="#m864c4d212f" y="262.829796"/>
     <use style="fill:#f13a13;stroke:#f13a13;stroke-linejoin:miter;" x="273.833372" xlink:href="#m864c4d212f" y="267.049472"/>
     <use style="fill:#f13a13;stroke:#f13a13;stroke-linejoin:miter;" x="278.474335" xlink:href="#m864c4d212f" y="246.440383"/>
     <use style="fill:#f13a13;stroke:#f13a13;stroke-linejoin:miter;" x="283.115116" xlink:href="#m864c4d212f" y="202.090853"/>
     <use style="fill:#f13a13;stroke:#f13a13;stroke-linejoin:miter;" x="287.756079" xlink:href="#m864c4d212f" y="153.730693"/>
     <use style="fill:#f13a13;stroke:#f13a13;stroke-linejoin:miter;" x="292.397042" xlink:href="#m864c4d212f" y="132.241434"/>
     <use style="fill:#f13a13;stroke:#f13a13;stroke-linejoin:miter;" x="297.038006" xlink:href="#m864c4d212f" y="132.127715"/>
     <use style="fill:#f13a13;stroke:#f13a13;stroke-linejoin:miter;" x="301.678969" xlink:href="#m864c4d212f" y="131.842326"/>
     <use style="fill:#f13a13;stroke:#f13a13;stroke-linejoin:miter;" x="306.319932" xlink:href="#m864c4d212f" y="129.734924"/>
     <use style="fill:#f13a13;stroke:#f13a13;stroke-linejoin:miter;" x="310.960896" xlink:href="#m864c4d212f" y="131.870764"/>
     <use style="fill:#f13a13;stroke:#f13a13;stroke-linejoin:miter;" x="315.601859" xlink:href="#m864c4d212f" y="130.541205"/>
     <use style="fill:#f13a13;stroke:#f13a13;stroke-linejoin:miter;" x="320.242822" xlink:href="#m864c4d212f" y="129.301779"/>
     <use style="fill:#f13a13;stroke:#f13a13;stroke-linejoin:miter;" x="324.883786" xlink:href="#m864c4d212f" y="131.459597"/>
     <use style="fill:#f13a13;stroke:#f13a13;stroke-linejoin:miter;" x="329.524566" xlink:href="#m864c4d212f" y="132.031637"/>
     <use style="fill:#f13a13;stroke:#f13a13;stroke-linejoin:miter;" x="334.16553" xlink:href="#m864c4d212f" y="130.804595"/>
     <use style="fill:#f13a13;stroke:#f13a13;stroke-linejoin:miter;" x="338.806493" xlink:href="#m864c4d212f" y="130.505338"/>
     <use style="fill:#f13a13;stroke:#f13a13;stroke-linejoin:miter;" x="343.447456" xlink:href="#m864c4d212f" y="131.38574"/>
     <use style="fill:#f13a13;stroke:#f13a13;stroke-linejoin:miter;" x="348.08842" xlink:href="#m864c4d212f" y="130.655348"/>
     <use style="fill:#f13a13;stroke:#f13a13;stroke-linejoin:miter;" x="352.729383" xlink:href="#m864c4d212f" y="130.600105"/>
     <use style="fill:#f13a13;stroke:#f13a13;stroke-linejoin:miter;" x="357.370346" xlink:href="#m864c4d212f" y="130.814367"/>
     <use style="fill:#f13a13;stroke:#f13a13;stroke-linejoin:miter;" x="362.01131" xlink:href="#m864c4d212f" y="131.003345"/>
     <use style="fill:#f13a13;stroke:#f13a13;stroke-linejoin:miter;" x="366.652273" xlink:href="#m864c4d212f" y="130.3873"/>
     <use style="fill:#f13a13;stroke:#f13a13;stroke-linejoin:miter;" x="371.293236" xlink:href="#m864c4d212f" y="131.273256"/>
     <use style="fill:#f13a13;stroke:#f13a13;stroke-linejoin:miter;" x="375.934017" xlink:href="#m864c4d212f" y="130.694872"/>
     <use style="fill:#f13a13;stroke:#f13a13;stroke-linejoin:miter;" x="380.57498" xlink:href="#m864c4d212f" y="129.788655"/>
     <use style="fill:#f13a13;stroke:#f13a13;stroke-linejoin:miter;" x="385.215944" xlink:href="#m864c4d212f" y="131.109575"/>
     <use style="fill:#f13a13;stroke:#f13a13;stroke-linejoin:miter;" x="389.856907" xlink:href="#m864c4d212f" y="131.132778"/>
     <use style="fill:#f13a13;stroke:#f13a13;stroke-linejoin:miter;" x="394.49787" xlink:href="#m864c4d212f" y="130.928079"/>
     <use style="fill:#f13a13;stroke:#f13a13;stroke-linejoin:miter;" x="399.138834" xlink:href="#m864c4d212f" y="131.292496"/>
     <use style="fill:#f13a13;stroke:#f13a13;stroke-linejoin:miter;" x="403.779797" xlink:href="#m864c4d212f" y="131.50213"/>
     <use style="fill:#f13a13;stroke:#f13a13;stroke-linejoin:miter;" x="408.42076" xlink:href="#m864c4d212f" y="131.939638"/>
     <use style="fill:#f13a13;stroke:#f13a13;stroke-linejoin:miter;" x="413.061724" xlink:href="#m864c4d212f" y="130.244059"/>
     <use style="fill:#f13a13;stroke:#f13a13;stroke-linejoin:miter;" x="417.702687" xlink:href="#m864c4d212f" y="129.257652"/>
     <use style="fill:#f13a13;stroke:#f13a13;stroke-linejoin:miter;" x="422.343467" xlink:href="#m864c4d212f" y="131.134466"/>
     <use style="fill:#f13a13;stroke:#f13a13;stroke-linejoin:miter;" x="426.984431" xlink:href="#m864c4d212f" y="132.010895"/>
     <use style="fill:#f13a13;stroke:#f13a13;stroke-linejoin:miter;" x="431.625394" xlink:href="#m864c4d212f" y="131.876218"/>
     <use style="fill:#f13a13;stroke:#f13a13;stroke-linejoin:miter;" x="436.266358" xlink:href="#m864c4d212f" y="130.637931"/>
     <use style="fill:#f13a13;stroke:#f13a13;stroke-linejoin:miter;" x="440.907321" xlink:href="#m864c4d212f" y="130.637931"/>
    </g>
   </g>
   <g id="line2d_15">
    <defs>
     <path d="M 0 -3  L -0.673542 -0.927051  L -2.85317 -0.927051  L -1.089814 0.354102  L -1.763356 2.427051  L -0 1.145898  L 1.763356 2.427051  L 1.089814 0.354102  L 2.85317 -0.927051  L 0.673542 -0.927051  z " id="mc7df99eb11" style="stroke:#fd522b;stroke-linejoin:bevel;"/>
    </defs>
    <g clip-path="url(#p79e5585f27)">
     <use style="fill:#fd522b;stroke:#fd522b;stroke-linejoin:bevel;" x="74.272656" xlink:href="#mc7df99eb11" y="131.164247"/>
     <use style="fill:#fd522b;stroke:#fd522b;stroke-linejoin:bevel;" x="78.913602" xlink:href="#mc7df99eb11" y="131.164247"/>
     <use style="fill:#fd522b;stroke:#fd522b;stroke-linejoin:bevel;" x="83.554547" xlink:href="#mc7df99eb11" y="131.687075"/>
     <use style="fill:#fd522b;stroke:#fd522b;stroke-linejoin:bevel;" x="88.195492" xlink:href="#mc7df99eb11" y="130.335888"/>
     <use style="fill:#fd522b;stroke:#fd522b;stroke-linejoin:bevel;" x="92.836437" xlink:href="#mc7df99eb11" y="130.412732"/>
     <use style="fill:#fd522b;stroke:#fd522b;stroke-linejoin:bevel;" x="97.477386" xlink:href="#mc7df99eb11" y="130.056764"/>
     <use style="fill:#fd522b;stroke:#fd522b;stroke-linejoin:bevel;" x="102.118331" xlink:href="#mc7df99eb11" y="130.822402"/>
     <use style="fill:#fd522b;stroke:#fd522b;stroke-linejoin:bevel;" x="106.759276" xlink:href="#mc7df99eb11" y="132.233932"/>
     <use style="fill:#fd522b;stroke:#fd522b;stroke-linejoin:bevel;" x="111.400221" xlink:href="#mc7df99eb11" y="130.766921"/>
     <use style="fill:#fd522b;stroke:#fd522b;stroke-linejoin:bevel;" x="116.041166" xlink:href="#mc7df99eb11" y="130.886968"/>
     <use style="fill:#fd522b;stroke:#fd522b;stroke-linejoin:bevel;" x="120.682111" xlink:href="#mc7df99eb11" y="130.9283"/>
     <use style="fill:#fd522b;stroke:#fd522b;stroke-linejoin:bevel;" x="125.323057" xlink:href="#mc7df99eb11" y="130.829017"/>
     <use style="fill:#fd522b;stroke:#fd522b;stroke-linejoin:bevel;" x="129.964002" xlink:href="#mc7df99eb11" y="131.508631"/>
     <use style="fill:#fd522b;stroke:#fd522b;stroke-linejoin:bevel;" x="134.604947" xlink:href="#mc7df99eb11" y="131.502023"/>
     <use style="fill:#fd522b;stroke:#fd522b;stroke-linejoin:bevel;" x="139.245892" xlink:href="#mc7df99eb11" y="131.303212"/>
     <use style="fill:#fd522b;stroke:#fd522b;stroke-linejoin:bevel;" x="143.886837" xlink:href="#mc7df99eb11" y="130.096079"/>
     <use style="fill:#fd522b;stroke:#fd522b;stroke-linejoin:bevel;" x="148.527782" xlink:href="#mc7df99eb11" y="130.859442"/>
     <use style="fill:#fd522b;stroke:#fd522b;stroke-linejoin:bevel;" x="153.168727" xlink:href="#mc7df99eb11" y="130.848051"/>
     <use style="fill:#fd522b;stroke:#fd522b;stroke-linejoin:bevel;" x="157.809672" xlink:href="#mc7df99eb11" y="128.954683"/>
     <use style="fill:#fd522b;stroke:#fd522b;stroke-linejoin:bevel;" x="162.450617" xlink:href="#mc7df99eb11" y="131.22145"/>
     <use style="fill:#fd522b;stroke:#fd522b;stroke-linejoin:bevel;" x="167.091562" xlink:href="#mc7df99eb11" y="132.948027"/>
     <use style="fill:#fd522b;stroke:#fd522b;stroke-linejoin:bevel;" x="171.732507" xlink:href="#mc7df99eb11" y="131.202273"/>
     <use style="fill:#fd522b;stroke:#fd522b;stroke-linejoin:bevel;" x="176.373452" xlink:href="#mc7df99eb11" y="129.480659"/>
     <use style="fill:#fd522b;stroke:#fd522b;stroke-linejoin:bevel;" x="181.014397" xlink:href="#mc7df99eb11" y="130.100711"/>
     <use style="fill:#fd522b;stroke:#fd522b;stroke-linejoin:bevel;" x="185.655342" xlink:href="#mc7df99eb11" y="131.720141"/>
     <use style="fill:#fd522b;stroke:#fd522b;stroke-linejoin:bevel;" x="190.296287" xlink:href="#mc7df99eb11" y="131.696252"/>
     <use style="fill:#fd522b;stroke:#fd522b;stroke-linejoin:bevel;" x="194.937232" xlink:href="#mc7df99eb11" y="130.497073"/>
     <use style="fill:#fd522b;stroke:#fd522b;stroke-linejoin:bevel;" x="199.578178" xlink:href="#mc7df99eb11" y="130.31574"/>
     <use style="fill:#fd522b;stroke:#fd522b;stroke-linejoin:bevel;" x="204.219123" xlink:href="#mc7df99eb11" y="131.956739"/>
     <use style="fill:#fd522b;stroke:#fd522b;stroke-linejoin:bevel;" x="208.860068" xlink:href="#mc7df99eb11" y="130.648861"/>
     <use style="fill:#fd522b;stroke:#fd522b;stroke-linejoin:bevel;" x="213.501013" xlink:href="#mc7df99eb11" y="130.31532"/>
     <use style="fill:#fd522b;stroke:#fd522b;stroke-linejoin:bevel;" x="218.141958" xlink:href="#mc7df99eb11" y="131.139239"/>
     <use style="fill:#fd522b;stroke:#fd522b;stroke-linejoin:bevel;" x="222.782903" xlink:href="#mc7df99eb11" y="128.98746"/>
     <use style="fill:#fd522b;stroke:#fd522b;stroke-linejoin:bevel;" x="227.423848" xlink:href="#mc7df99eb11" y="129.377841"/>
     <use style="fill:#fd522b;stroke:#fd522b;stroke-linejoin:bevel;" x="232.064793" xlink:href="#mc7df99eb11" y="127.851377"/>
     <use style="fill:#fd522b;stroke:#fd522b;stroke-linejoin:bevel;" x="236.705738" xlink:href="#mc7df99eb11" y="121.751724"/>
     <use style="fill:#fd522b;stroke:#fd522b;stroke-linejoin:bevel;" x="241.346683" xlink:href="#mc7df99eb11" y="115.785475"/>
     <use style="fill:#fd522b;stroke:#fd522b;stroke-linejoin:bevel;" x="245.987628" xlink:href="#mc7df99eb11" y="107.30896"/>
     <use style="fill:#fd522b;stroke:#fd522b;stroke-linejoin:bevel;" x="250.628573" xlink:href="#mc7df99eb11" y="100.45001"/>
     <use style="fill:#fd522b;stroke:#fd522b;stroke-linejoin:bevel;" x="255.269518" xlink:href="#mc7df99eb11" y="100.555886"/>
     <use style="fill:#fd522b;stroke:#fd522b;stroke-linejoin:bevel;" x="259.910482" xlink:href="#mc7df99eb11" y="97.330561"/>
     <use style="fill:#fd522b;stroke:#fd522b;stroke-linejoin:bevel;" x="264.551445" xlink:href="#mc7df99eb11" y="92.987538"/>
     <use style="fill:#fd522b;stroke:#fd522b;stroke-linejoin:bevel;" x="269.192408" xlink:href="#mc7df99eb11" y="89.087907"/>
     <use style="fill:#fd522b;stroke:#fd522b;stroke-linejoin:bevel;" x="273.833372" xlink:href="#mc7df99eb11" y="85.912252"/>
     <use style="fill:#fd522b;stroke:#fd522b;stroke-linejoin:bevel;" x="278.474335" xlink:href="#mc7df99eb11" y="96.548891"/>
     <use style="fill:#fd522b;stroke:#fd522b;stroke-linejoin:bevel;" x="283.115116" xlink:href="#mc7df99eb11" y="115.467471"/>
     <use style="fill:#fd522b;stroke:#fd522b;stroke-linejoin:bevel;" x="287.756079" xlink:href="#mc7df99eb11" y="130.100624"/>
     <use style="fill:#fd522b;stroke:#fd522b;stroke-linejoin:bevel;" x="292.397042" xlink:href="#mc7df99eb11" y="134.090678"/>
     <use style="fill:#fd522b;stroke:#fd522b;stroke-linejoin:bevel;" x="297.038006" xlink:href="#mc7df99eb11" y="136.202813"/>
     <use style="fill:#fd522b;stroke:#fd522b;stroke-linejoin:bevel;" x="301.678969" xlink:href="#mc7df99eb11" y="136.60692"/>
     <use style="fill:#fd522b;stroke:#fd522b;stroke-linejoin:bevel;" x="306.319932" xlink:href="#mc7df99eb11" y="134.263513"/>
     <use style="fill:#fd522b;stroke:#fd522b;stroke-linejoin:bevel;" x="310.960896" xlink:href="#mc7df99eb11" y="134.43352"/>
     <use style="fill:#fd522b;stroke:#fd522b;stroke-linejoin:bevel;" x="315.601859" xlink:href="#mc7df99eb11" y="134.155947"/>
     <use style="fill:#fd522b;stroke:#fd522b;stroke-linejoin:bevel;" x="320.242822" xlink:href="#mc7df99eb11" y="132.786579"/>
     <use style="fill:#fd522b;stroke:#fd522b;stroke-linejoin:bevel;" x="324.883786" xlink:href="#mc7df99eb11" y="131.740277"/>
     <use style="fill:#fd522b;stroke:#fd522b;stroke-linejoin:bevel;" x="329.524566" xlink:href="#mc7df99eb11" y="131.359961"/>
     <use style="fill:#fd522b;stroke:#fd522b;stroke-linejoin:bevel;" x="334.16553" xlink:href="#mc7df99eb11" y="130.910074"/>
     <use style="fill:#fd522b;stroke:#fd522b;stroke-linejoin:bevel;" x="338.806493" xlink:href="#mc7df99eb11" y="131.365843"/>
     <use style="fill:#fd522b;stroke:#fd522b;stroke-linejoin:bevel;" x="343.447456" xlink:href="#mc7df99eb11" y="130.977936"/>
     <use style="fill:#fd522b;stroke:#fd522b;stroke-linejoin:bevel;" x="348.08842" xlink:href="#mc7df99eb11" y="131.875748"/>
     <use style="fill:#fd522b;stroke:#fd522b;stroke-linejoin:bevel;" x="352.729383" xlink:href="#mc7df99eb11" y="132.089112"/>
     <use style="fill:#fd522b;stroke:#fd522b;stroke-linejoin:bevel;" x="357.370346" xlink:href="#mc7df99eb11" y="130.274755"/>
     <use style="fill:#fd522b;stroke:#fd522b;stroke-linejoin:bevel;" x="362.01131" xlink:href="#mc7df99eb11" y="130.080536"/>
     <use style="fill:#fd522b;stroke:#fd522b;stroke-linejoin:bevel;" x="366.652273" xlink:href="#mc7df99eb11" y="130.589558"/>
     <use style="fill:#fd522b;stroke:#fd522b;stroke-linejoin:bevel;" x="371.293236" xlink:href="#mc7df99eb11" y="131.266237"/>
     <use style="fill:#fd522b;stroke:#fd522b;stroke-linejoin:bevel;" x="375.934017" xlink:href="#mc7df99eb11" y="130.729872"/>
     <use style="fill:#fd522b;stroke:#fd522b;stroke-linejoin:bevel;" x="380.57498" xlink:href="#mc7df99eb11" y="131.088624"/>
     <use style="fill:#fd522b;stroke:#fd522b;stroke-linejoin:bevel;" x="385.215944" xlink:href="#mc7df99eb11" y="132.729556"/>
     <use style="fill:#fd522b;stroke:#fd522b;stroke-linejoin:bevel;" x="389.856907" xlink:href="#mc7df99eb11" y="130.382615"/>
     <use style="fill:#fd522b;stroke:#fd522b;stroke-linejoin:bevel;" x="394.49787" xlink:href="#mc7df99eb11" y="128.916873"/>
     <use style="fill:#fd522b;stroke:#fd522b;stroke-linejoin:bevel;" x="399.138834" xlink:href="#mc7df99eb11" y="131.284315"/>
     <use style="fill:#fd522b;stroke:#fd522b;stroke-linejoin:bevel;" x="403.779797" xlink:href="#mc7df99eb11" y="130.865069"/>
     <use style="fill:#fd522b;stroke:#fd522b;stroke-linejoin:bevel;" x="408.42076" xlink:href="#mc7df99eb11" y="130.224153"/>
     <use style="fill:#fd522b;stroke:#fd522b;stroke-linejoin:bevel;" x="413.061724" xlink:href="#mc7df99eb11" y="131.639175"/>
     <use style="fill:#fd522b;stroke:#fd522b;stroke-linejoin:bevel;" x="417.702687" xlink:href="#mc7df99eb11" y="132.274934"/>
     <use style="fill:#fd522b;stroke:#fd522b;stroke-linejoin:bevel;" x="422.343467" xlink:href="#mc7df99eb11" y="132.407066"/>
     <use style="fill:#fd522b;stroke:#fd522b;stroke-linejoin:bevel;" x="426.984431" xlink:href="#mc7df99eb11" y="128.929421"/>
     <use style="fill:#fd522b;stroke:#fd522b;stroke-linejoin:bevel;" x="431.625394" xlink:href="#mc7df99eb11" y="129.773509"/>
     <use style="fill:#fd522b;stroke:#fd522b;stroke-linejoin:bevel;" x="436.266358" xlink:href="#mc7df99eb11" y="133.065389"/>
     <use style="fill:#fd522b;stroke:#fd522b;stroke-linejoin:bevel;" x="440.907321" xlink:href="#mc7df99eb11" y="133.065389"/>
    </g>
   </g>
   <g id="line2d_16">
    <defs>
     <path d="M 0 3  C 0.795609 3 1.55874 2.683901 2.12132 2.12132  C 2.683901 1.55874 3 0.795609 3 0  C 3 -0.795609 2.683901 -1.55874 2.12132 -2.12132  C 1.55874 -2.683901 0.795609 -3 0 -3  C -0.795609 -3 -1.55874 -2.683901 -2.12132 -2.12132  C -2.683901 -1.55874 -3 -0.795609 -3 0  C -3 0.795609 -2.683901 1.55874 -2.12132 2.12132  C -1.55874 2.683901 -0.795609 3 0 3  z " id="m1f846fc963" style="stroke:#803e75;"/>
    </defs>
    <g clip-path="url(#p79e5585f27)">
     <use style="fill:#803e75;stroke:#803e75;" x="74.272656" xlink:href="#m1f846fc963" y="130.140318"/>
     <use style="fill:#803e75;stroke:#803e75;" x="78.913602" xlink:href="#m1f846fc963" y="130.140318"/>
     <use style="fill:#803e75;stroke:#803e75;" x="83.554547" xlink:href="#m1f846fc963" y="130.659937"/>
     <use style="fill:#803e75;stroke:#803e75;" x="88.195492" xlink:href="#m1f846fc963" y="133.221986"/>
     <use style="fill:#803e75;stroke:#803e75;" x="92.836437" xlink:href="#m1f846fc963" y="130.574987"/>
     <use style="fill:#803e75;stroke:#803e75;" x="97.477386" xlink:href="#m1f846fc963" y="131.653489"/>
     <use style="fill:#803e75;stroke:#803e75;" x="102.118331" xlink:href="#m1f846fc963" y="131.138175"/>
     <use style="fill:#803e75;stroke:#803e75;" x="106.759276" xlink:href="#m1f846fc963" y="127.624354"/>
     <use style="fill:#803e75;stroke:#803e75;" x="111.400221" xlink:href="#m1f846fc963" y="130.775866"/>
     <use style="fill:#803e75;stroke:#803e75;" x="116.041166" xlink:href="#m1f846fc963" y="132.40611"/>
     <use style="fill:#803e75;stroke:#803e75;" x="120.682111" xlink:href="#m1f846fc963" y="130.786532"/>
     <use style="fill:#803e75;stroke:#803e75;" x="125.323057" xlink:href="#m1f846fc963" y="130.248742"/>
     <use style="fill:#803e75;stroke:#803e75;" x="129.964002" xlink:href="#m1f846fc963" y="130.938454"/>
     <use style="fill:#803e75;stroke:#803e75;" x="134.604947" xlink:href="#m1f846fc963" y="131.241689"/>
     <use style="fill:#803e75;stroke:#803e75;" x="139.245892" xlink:href="#m1f846fc963" y="130.255119"/>
     <use style="fill:#803e75;stroke:#803e75;" x="143.886837" xlink:href="#m1f846fc963" y="131.441199"/>
     <use style="fill:#803e75;stroke:#803e75;" x="148.527782" xlink:href="#m1f846fc963" y="131.982927"/>
     <use style="fill:#803e75;stroke:#803e75;" x="153.168727" xlink:href="#m1f846fc963" y="129.708742"/>
     <use style="fill:#803e75;stroke:#803e75;" x="157.809672" xlink:href="#m1f846fc963" y="131.39215"/>
     <use style="fill:#803e75;stroke:#803e75;" x="162.450617" xlink:href="#m1f846fc963" y="129.698902"/>
     <use style="fill:#803e75;stroke:#803e75;" x="167.091562" xlink:href="#m1f846fc963" y="128.456358"/>
     <use style="fill:#803e75;stroke:#803e75;" x="171.732507" xlink:href="#m1f846fc963" y="129.400342"/>
     <use style="fill:#803e75;stroke:#803e75;" x="176.373452" xlink:href="#m1f846fc963" y="130.216084"/>
     <use style="fill:#803e75;stroke:#803e75;" x="181.014397" xlink:href="#m1f846fc963" y="128.187145"/>
     <use style="fill:#803e75;stroke:#803e75;" x="185.655342" xlink:href="#m1f846fc963" y="125.069153"/>
     <use style="fill:#803e75;stroke:#803e75;" x="190.296287" xlink:href="#m1f846fc963" y="125.410449"/>
     <use style="fill:#803e75;stroke:#803e75;" x="194.937232" xlink:href="#m1f846fc963" y="125.369395"/>
     <use style="fill:#803e75;stroke:#803e75;" x="199.578178" xlink:href="#m1f846fc963" y="124.465959"/>
     <use style="fill:#803e75;stroke:#803e75;" x="204.219123" xlink:href="#m1f846fc963" y="119.733903"/>
     <use style="fill:#803e75;stroke:#803e75;" x="208.860068" xlink:href="#m1f846fc963" y="119.039084"/>
     <use style="fill:#803e75;stroke:#803e75;" x="213.501013" xlink:href="#m1f846fc963" y="119.740884"/>
     <use style="fill:#803e75;stroke:#803e75;" x="218.141958" xlink:href="#m1f846fc963" y="113.295555"/>
     <use style="fill:#803e75;stroke:#803e75;" x="222.782903" xlink:href="#m1f846fc963" y="111.980924"/>
     <use style="fill:#803e75;stroke:#803e75;" x="227.423848" xlink:href="#m1f846fc963" y="110.78573"/>
     <use style="fill:#803e75;stroke:#803e75;" x="232.064793" xlink:href="#m1f846fc963" y="104.659918"/>
     <use style="fill:#803e75;stroke:#803e75;" x="236.705738" xlink:href="#m1f846fc963" y="101.670888"/>
     <use style="fill:#803e75;stroke:#803e75;" x="241.346683" xlink:href="#m1f846fc963" y="97.21792"/>
     <use style="fill:#803e75;stroke:#803e75;" x="245.987628" xlink:href="#m1f846fc963" y="90.047293"/>
     <use style="fill:#803e75;stroke:#803e75;" x="250.628573" xlink:href="#m1f846fc963" y="82.201052"/>
     <use style="fill:#803e75;stroke:#803e75;" x="255.269518" xlink:href="#m1f846fc963" y="69.387462"/>
     <use style="fill:#803e75;stroke:#803e75;" x="259.910482" xlink:href="#m1f846fc963" y="60.342895"/>
     <use style="fill:#803e75;stroke:#803e75;" x="264.551445" xlink:href="#m1f846fc963" y="52.739914"/>
     <use style="fill:#803e75;stroke:#803e75;" x="269.192408" xlink:href="#m1f846fc963" y="40.781946"/>
     <use style="fill:#803e75;stroke:#803e75;" x="273.833372" xlink:href="#m1f846fc963" y="39.737925"/>
     <use style="fill:#803e75;stroke:#803e75;" x="278.474335" xlink:href="#m1f846fc963" y="49.710399"/>
     <use style="fill:#803e75;stroke:#803e75;" x="283.115116" xlink:href="#m1f846fc963" y="75.141412"/>
     <use style="fill:#803e75;stroke:#803e75;" x="287.756079" xlink:href="#m1f846fc963" y="108.868287"/>
     <use style="fill:#803e75;stroke:#803e75;" x="292.397042" xlink:href="#m1f846fc963" y="126.367525"/>
     <use style="fill:#803e75;stroke:#803e75;" x="297.038006" xlink:href="#m1f846fc963" y="124.36914"/>
     <use style="fill:#803e75;stroke:#803e75;" x="301.678969" xlink:href="#m1f846fc963" y="124.250382"/>
     <use style="fill:#803e75;stroke:#803e75;" x="306.319932" xlink:href="#m1f846fc963" y="128.701212"/>
     <use style="fill:#803e75;stroke:#803e75;" x="310.960896" xlink:href="#m1f846fc963" y="126.395388"/>
     <use style="fill:#803e75;stroke:#803e75;" x="315.601859" xlink:href="#m1f846fc963" y="128.002508"/>
     <use style="fill:#803e75;stroke:#803e75;" x="320.242822" xlink:href="#m1f846fc963" y="130.611294"/>
     <use style="fill:#803e75;stroke:#803e75;" x="324.883786" xlink:href="#m1f846fc963" y="129.499796"/>
     <use style="fill:#803e75;stroke:#803e75;" x="329.524566" xlink:href="#m1f846fc963" y="129.307989"/>
     <use style="fill:#803e75;stroke:#803e75;" x="334.16553" xlink:href="#m1f846fc963" y="130.984946"/>
     <use style="fill:#803e75;stroke:#803e75;" x="338.806493" xlink:href="#m1f846fc963" y="130.828487"/>
     <use style="fill:#803e75;stroke:#803e75;" x="343.447456" xlink:href="#m1f846fc963" y="130.33596"/>
     <use style="fill:#803e75;stroke:#803e75;" x="348.08842" xlink:href="#m1f846fc963" y="130.168603"/>
     <use style="fill:#803e75;stroke:#803e75;" x="352.729383" xlink:href="#m1f846fc963" y="130.010495"/>
     <use style="fill:#803e75;stroke:#803e75;" x="357.370346" xlink:href="#m1f846fc963" y="131.610487"/>
     <use style="fill:#803e75;stroke:#803e75;" x="362.01131" xlink:href="#m1f846fc963" y="131.61573"/>
     <use style="fill:#803e75;stroke:#803e75;" x="366.652273" xlink:href="#m1f846fc963" y="131.722824"/>
     <use style="fill:#803e75;stroke:#803e75;" x="371.293236" xlink:href="#m1f846fc963" y="130.160165"/>
     <use style="fill:#803e75;stroke:#803e75;" x="375.934017" xlink:href="#m1f846fc963" y="131.274897"/>
     <use style="fill:#803e75;stroke:#803e75;" x="380.57498" xlink:href="#m1f846fc963" y="131.822378"/>
     <use style="fill:#803e75;stroke:#803e75;" x="385.215944" xlink:href="#m1f846fc963" y="128.860499"/>
     <use style="fill:#803e75;stroke:#803e75;" x="389.856907" xlink:href="#m1f846fc963" y="131.184231"/>
     <use style="fill:#803e75;stroke:#803e75;" x="394.49787" xlink:href="#m1f846fc963" y="132.854676"/>
     <use style="fill:#803e75;stroke:#803e75;" x="399.138834" xlink:href="#m1f846fc963" y="130.122832"/>
     <use style="fill:#803e75;stroke:#803e75;" x="403.779797" xlink:href="#m1f846fc963" y="130.332484"/>
     <use style="fill:#803e75;stroke:#803e75;" x="408.42076" xlink:href="#m1f846fc963" y="130.535834"/>
     <use style="fill:#803e75;stroke:#803e75;" x="413.061724" xlink:href="#m1f846fc963" y="130.81647"/>
     <use style="fill:#803e75;stroke:#803e75;" x="417.702687" xlink:href="#m1f846fc963" y="131.167094"/>
     <use style="fill:#803e75;stroke:#803e75;" x="422.343467" xlink:href="#m1f846fc963" y="129.158066"/>
     <use style="fill:#803e75;stroke:#803e75;" x="426.984431" xlink:href="#m1f846fc963" y="131.759347"/>
     <use style="fill:#803e75;stroke:#803e75;" x="431.625394" xlink:href="#m1f846fc963" y="131.049921"/>
     <use style="fill:#803e75;stroke:#803e75;" x="436.266358" xlink:href="#m1f846fc963" y="128.99634"/>
     <use style="fill:#803e75;stroke:#803e75;" x="440.907321" xlink:href="#m1f846fc963" y="128.99634"/>
    </g>
   </g>
   <g id="line2d_17">
    <path clip-path="url(#p79e5585f27)" d="M 74.272656 130.900008  L 139.452155 131.008752  L 153.602967 131.257662  L 163.036842 131.639244  L 170.326654 132.146286  L 176.758841 132.819591  L 182.333404 133.629367  L 187.37195 134.584127  L 192.088888 135.702435  L 196.591419 136.998222  L 200.879544 138.459444  L 205.167669 140.158893  L 209.241387 142.008984  L 213.315106 144.108  L 217.174418 146.357163  L 220.604918 148.616503  L 223.660207 150.899628  L 226.233082 153.093012  L 228.484348 155.290417  L 230.521207 157.578629  L 232.450863 160.090142  L 234.166113 162.67705  L 235.881363 165.670097  L 237.596613 169.13641  L 239.311863 173.125523  L 241.134316 177.949133  L 243.278379 184.31456  L 246.280066 194.031267  L 251.506218 210.95511  L 256.062351 224.729841  L 259.332046 234.926897  L 261.52971 242.528302  L 263.459366 250.011421  L 265.389023 258.415345  L 267.72069 269.651108  L 270.079159 280.796442  L 271.043987 284.428102  L 271.794409 286.470571  L 272.330425 287.365444  L 272.759237 287.677735  L 273.080847 287.650736  L 273.402456 287.384155  L 273.831268 286.637061  L 274.260081 285.426804  L 274.796097 283.254583  L 275.439315 279.704473  L 276.29694 273.509754  L 277.368971 263.858822  L 278.869815 247.983571  L 280.799471 225.076192  L 282.193112 206.137421  L 283.372346 186.926636  L 285.838018 144.207475  L 286.481237 138.120261  L 287.017252 135.031064  L 287.553268 133.197919  L 288.089284 132.156255  L 288.625299 131.579616  L 289.268518 131.222447  L 290.126143 131.018293  L 291.73419 130.917708  L 298.219979 130.899891  L 440.907334 130.899883  L 440.907334 130.899883  " style="fill:none;stroke:#f13a13;stroke-linecap:square;stroke-width:2;"/>
   </g>
   <g id="line2d_18">
    <path clip-path="url(#p79e5585f27)" d="M 74.272656 130.899881  L 196.591419 130.788966  L 209.6702 130.569109  L 216.5312 130.247971  L 221.033731 129.829074  L 224.410629 129.301533  L 227.090707 128.66604  L 229.341973 127.910338  L 231.271629 127.039711  L 233.094082 125.971108  L 234.809332 124.694427  L 236.417379 123.216597  L 238.025426 121.437758  L 239.740676 119.202535  L 241.777535 116.154456  L 247.78091 106.863189  L 249.362156 105.007325  L 250.755796 103.702022  L 252.203038 102.650208  L 253.864687 101.7324  L 258.849632 99.198899  L 260.189671 98.142012  L 261.476109 96.84026  L 262.762546 95.210673  L 264.102585 93.135174  L 265.549827 90.46128  L 267.291878 86.750158  L 270.079159 80.767774  L 271.043987 79.262861  L 271.687206 78.618986  L 272.223222 78.368265  L 272.652034 78.384539  L 273.080847 78.61247  L 273.616862 79.213492  L 274.152878 80.175461  L 274.796097 81.797385  L 275.653721 84.678845  L 276.725753 89.17623  L 278.655409 98.475565  L 285.730815 132.775384  L 286.374034 134.461117  L 286.910049 135.296639  L 287.446065 135.764004  L 288.089284 136.023859  L 288.946909 136.105893  L 290.447752 135.985299  L 296.504729 135.116843  L 307.010635 133.720021  L 315.586885 132.804094  L 324.163134 132.115834  L 333.2754 131.611631  L 343.995712 131.251691  L 357.717712 131.027583  L 380.015961 130.919112  L 440.907334 130.899914  L 440.907334 130.899914  " style="fill:none;stroke:#fd522b;stroke-linecap:square;stroke-width:2;"/>
   </g>
   <g id="line2d_19">
    <path clip-path="url(#p79e5585f27)" d="M 74.272656 130.899761  L 139.452155 130.792619  L 153.602967 130.547141  L 163.036842 130.170738  L 170.326654 129.670698  L 176.758841 129.007161  L 182.333404 128.210128  L 187.586357 127.227154  L 192.303294 126.121437  L 196.805825 124.846642  L 201.308356 123.341933  L 205.810887 121.59849  L 210.313418 119.614778  L 215.030356 117.283804  L 219.747293 114.699918  L 224.410629 111.888154  L 228.484348 109.182156  L 232.022051 106.569041  L 234.916535 104.162493  L 237.382207 101.837912  L 239.633472 99.414161  L 241.670332 96.899889  L 243.599988 94.1699  L 245.529644 91.042428  L 247.4593 87.477204  L 249.52296 83.176654  L 251.881429 77.723557  L 255.258327 69.291079  L 268.0423 36.394496  L 270.293565 30.631589  L 271.365597 28.397593  L 272.223222 27.102242  L 272.86644 26.533963  L 273.295253 26.389332  L 273.724065 26.455957  L 274.152878 26.75086  L 274.688893 27.459411  L 275.224909 28.557533  L 275.868128 30.388073  L 276.61855 33.196391  L 277.583378 37.753407  L 278.762612 44.51506  L 280.156253 53.922862  L 281.44269 64.156278  L 282.514721 74.463254  L 283.586753 87.169977  L 285.838018 115.377205  L 286.481237 119.914543  L 287.017252 122.253727  L 287.553268 123.676093  L 288.089284 124.519536  L 288.732502 125.096412  L 289.482924 125.464679  L 290.769362 125.799927  L 293.931854 126.307855  L 305.080979 127.843403  L 313.871635 128.830734  L 322.233478 129.548382  L 331.131337 130.088223  L 341.422837 130.480262  L 354.287212 130.733489  L 373.583774 130.865683  L 422.468397 130.899632  L 440.907334 130.899852  L 440.907334 130.899852  " style="fill:none;stroke:#803e75;stroke-linecap:square;stroke-width:2;"/>
   </g>
   <g id="patch_3">
    <path d="M 74.63 300.76  L 74.63 13.32  " style="fill:none;stroke:#000000;stroke-linecap:square;stroke-linejoin:miter;stroke-width:0.8;"/>
   </g>
   <g id="patch_4">
    <path d="M 440.55 300.76  L 440.55 13.32  " style="fill:none;stroke:#000000;stroke-linecap:square;stroke-linejoin:miter;stroke-width:0.8;"/>
   </g>
   <g id="patch_5">
    <path d="M 74.63 300.76  L 440.55 300.76  " style="fill:none;stroke:#000000;stroke-linecap:square;stroke-linejoin:miter;stroke-width:0.8;"/>
   </g>
   <g id="patch_6">
    <path d="M 74.63 13.32  L 440.55 13.32  " style="fill:none;stroke:#000000;stroke-linecap:square;stroke-linejoin:miter;stroke-width:0.8;"/>
   </g>
   <g id="legend_1">
    <g id="patch_7">
     <path d="M 363.146875 109.38875  L 433.55 109.38875  Q 435.55 109.38875 435.55 107.38875  L 435.55 20.32  Q 435.55 18.32 433.55 18.32  L 363.146875 18.32  Q 361.146875 18.32 361.146875 20.32  L 361.146875 107.38875  Q 361.146875 109.38875 363.146875 109.38875  z " style="fill:#ffffff;opacity:0.8;stroke:#cccccc;stroke-linejoin:miter;"/>
    </g>
    <g id="line2d_20"/>
    <g id="line2d_21">
     <g>
      <use style="fill:#f13a13;stroke:#f13a13;stroke-linejoin:miter;" x="375.146875" xlink:href="#m864c4d212f" y="26.418437"/>
     </g>
    </g>
    <g id="text_16">
     <!-- exp-AL -->
     <defs>
      <path d="M 54.890625 54.6875  L 35.109375 28.078125  L 55.90625 0  L 45.3125 0  L 29.390625 21.484375  L 13.484375 0  L 2.875 0  L 24.125 28.609375  L 4.6875 54.6875  L 15.28125 54.6875  L 29.78125 35.203125  L 44.28125 54.6875  z " id="DejaVuSans-78"/>
      <path d="M 4.890625 31.390625  L 31.203125 31.390625  L 31.203125 23.390625  L 4.890625 23.390625  z " id="DejaVuSans-2d"/>
      <path d="M 34.1875 63.1875  L 20.796875 26.90625  L 47.609375 26.90625  z M 28.609375 72.90625  L 39.796875 72.90625  L 67.578125 0  L 57.328125 0  L 50.6875 18.703125  L 17.828125 18.703125  L 11.1875 0  L 0.78125 0  z " id="DejaVuSans-41"/>
      <path d="M 9.8125 72.90625  L 19.671875 72.90625  L 19.671875 8.296875  L 55.171875 8.296875  L 55.171875 0  L 9.8125 0  z " id="DejaVuSans-4c"/>
     </defs>
     <g transform="translate(393.146875 29.918437)scale(0.1 -0.1)">
      <use xlink:href="#DejaVuSans-65"/>
      <use x="61.507812" xlink:href="#DejaVuSans-78"/>
      <use x="120.6875" xlink:href="#DejaVuSans-70"/>
      <use x="184.164062" xlink:href="#DejaVuSans-2d"/>
      <use x="220.216797" xlink:href="#DejaVuSans-41"/>
      <use x="288.625" xlink:href="#DejaVuSans-4c"/>
     </g>
    </g>
    <g id="line2d_22"/>
    <g id="line2d_23">
     <g>
      <use style="fill:#fd522b;stroke:#fd522b;stroke-linejoin:bevel;" x="375.146875" xlink:href="#mc7df99eb11" y="41.096563"/>
     </g>
    </g>
    <g id="text_17">
     <!-- exp-MG -->
     <defs>
      <path d="M 9.8125 72.90625  L 24.515625 72.90625  L 43.109375 23.296875  L 61.8125 72.90625  L 76.515625 72.90625  L 76.515625 0  L 66.890625 0  L 66.890625 64.015625  L 48.09375 14.015625  L 38.1875 14.015625  L 19.390625 64.015625  L 19.390625 0  L 9.8125 0  z " id="DejaVuSans-4d"/>
      <path d="M 59.515625 10.40625  L 59.515625 29.984375  L 43.40625 29.984375  L 43.40625 38.09375  L 69.28125 38.09375  L 69.28125 6.78125  Q 63.578125 2.734375 56.6875 0.65625  Q 49.8125 -1.421875 42 -1.421875  Q 24.90625 -1.421875 15.25 8.5625  Q 5.609375 18.5625 5.609375 36.375  Q 5.609375 54.25 15.25 64.234375  Q 24.90625 74.21875 42 74.21875  Q 49.125 74.21875 55.546875 72.453125  Q 61.96875 70.703125 67.390625 67.28125  L 67.390625 56.78125  Q 61.921875 61.421875 55.765625 63.765625  Q 49.609375 66.109375 42.828125 66.109375  Q 29.4375 66.109375 22.71875 58.640625  Q 16.015625 51.171875 16.015625 36.375  Q 16.015625 21.625 22.71875 14.15625  Q 29.4375 6.6875 42.828125 6.6875  Q 48.046875 6.6875 52.140625 7.59375  Q 56.25 8.5 59.515625 10.40625  z " id="DejaVuSans-47"/>
     </defs>
     <g transform="translate(393.146875 44.596563)scale(0.1 -0.1)">
      <use xlink:href="#DejaVuSans-65"/>
      <use x="61.507812" xlink:href="#DejaVuSans-78"/>
      <use x="120.6875" xlink:href="#DejaVuSans-70"/>
      <use x="184.164062" xlink:href="#DejaVuSans-2d"/>
      <use x="220.248047" xlink:href="#DejaVuSans-4d"/>
      <use x="306.527344" xlink:href="#DejaVuSans-47"/>
     </g>
    </g>
    <g id="line2d_24"/>
    <g id="line2d_25">
     <g>
      <use style="fill:#803e75;stroke:#803e75;" x="375.146875" xlink:href="#m1f846fc963" y="55.774687"/>
     </g>
    </g>
    <g id="text_18">
     <!-- exp-ZN -->
     <defs>
      <path d="M 5.609375 72.90625  L 62.890625 72.90625  L 62.890625 65.375  L 16.796875 8.296875  L 64.015625 8.296875  L 64.015625 0  L 4.5 0  L 4.5 7.515625  L 50.59375 64.59375  L 5.609375 64.59375  z " id="DejaVuSans-5a"/>
      <path d="M 9.8125 72.90625  L 23.09375 72.90625  L 55.421875 11.921875  L 55.421875 72.90625  L 64.984375 72.90625  L 64.984375 0  L 51.703125 0  L 19.390625 60.984375  L 19.390625 0  L 9.8125 0  z " id="DejaVuSans-4e"/>
     </defs>
     <g transform="translate(393.146875 59.274687)scale(0.1 -0.1)">
      <use xlink:href="#DejaVuSans-65"/>
      <use x="61.507812" xlink:href="#DejaVuSans-78"/>
      <use x="120.6875" xlink:href="#DejaVuSans-70"/>
      <use x="184.164062" xlink:href="#DejaVuSans-2d"/>
      <use x="220.248047" xlink:href="#DejaVuSans-5a"/>
      <use x="288.753906" xlink:href="#DejaVuSans-4e"/>
     </g>
    </g>
    <g id="line2d_26">
     <path d="M 365.146875 70.452812  L 385.146875 70.452812  " style="fill:none;stroke:#f13a13;stroke-linecap:square;stroke-width:2;"/>
    </g>
    <g id="line2d_27"/>
    <g id="text_19">
     <!-- sim-AL -->
     <g transform="translate(393.146875 73.952812)scale(0.1 -0.1)">
      <use xlink:href="#DejaVuSans-73"/>
      <use x="52.099609" xlink:href="#DejaVuSans-69"/>
      <use x="79.882812" xlink:href="#DejaVuSans-6d"/>
      <use x="177.294922" xlink:href="#DejaVuSans-2d"/>
      <use x="213.347656" xlink:href="#DejaVuSans-41"/>
      <use x="281.755859" xlink:href="#DejaVuSans-4c"/>
     </g>
    </g>
    <g id="line2d_28">
     <path d="M 365.146875 85.130938  L 385.146875 85.130938  " style="fill:none;stroke:#fd522b;stroke-linecap:square;stroke-width:2;"/>
    </g>
    <g id="line2d_29"/>
    <g id="text_20">
     <!-- sim-MG -->
     <g transform="translate(393.146875 88.630938)scale(0.1 -0.1)">
      <use xlink:href="#DejaVuSans-73"/>
      <use x="52.099609" xlink:href="#DejaVuSans-69"/>
      <use x="79.882812" xlink:href="#DejaVuSans-6d"/>
      <use x="177.294922" xlink:href="#DejaVuSans-2d"/>
      <use x="213.378906" xlink:href="#DejaVuSans-4d"/>
      <use x="299.658203" xlink:href="#DejaVuSans-47"/>
     </g>
    </g>
    <g id="line2d_30">
     <path d="M 365.146875 99.809062  L 385.146875 99.809062  " style="fill:none;stroke:#803e75;stroke-linecap:square;stroke-width:2;"/>
    </g>
    <g id="line2d_31"/>
    <g id="text_21">
     <!-- sim-ZN -->
     <g transform="translate(393.146875 103.309062)scale(0.1 -0.1)">
      <use xlink:href="#DejaVuSans-73"/>
      <use x="52.099609" xlink:href="#DejaVuSans-69"/>
      <use x="79.882812" xlink:href="#DejaVuSans-6d"/>
      <use x="177.294922" xlink:href="#DejaVuSans-2d"/>
      <use x="213.378906" xlink:href="#DejaVuSans-5a"/>
      <use x="281.884766" xlink:href="#DejaVuSans-4e"/>
     </g>
    </g>
   </g>
  </g>
 </g>
 <defs>
  <clipPath id="p79e5585f27">
   <rect height="287.44" width="365.92" x="74.63" y="13.32"/>
  </clipPath>
 </defs>
</g>
    <g transform="translate(10, 300) scale(1) ">
      <g transform="translate(0, 0) scale(3.0) "><defs id="defs831"/>
  <sodipodi:namedview xmlns:sodipodi="http://sodipodi.sourceforge.net/DTD/sodipodi-0.dtd" xmlns:inkscape="http://www.inkscape.org/namespaces/inkscape" id="base" pagecolor="#ffffff" bordercolor="#666666" borderopacity="1.0" inkscape:pageopacity="0.0" inkscape:pageshadow="2" inkscape:zoom="1.979899" inkscape:cx="-12.763683" inkscape:cy="-16.680883" inkscape:document-units="mm" inkscape:current-layer="layer1" showgrid="false" inkscape:window-width="1920" inkscape:window-height="1001" inkscape:window-x="-9" inkscape:window-y="-9" inkscape:window-maximized="1" units="pt"/>
  <metadata xmlns:rdf="http://www.w3.org/1999/02/22-rdf-syntax-ns#" xmlns:cc="http://creativecommons.org/ns#" xmlns:dc="http://purl.org/dc/elements/1.1/" id="metadata834">
    <rdf:RDF>
      <cc:Work rdf:about="">
        <dc:format>image/svg+xml</dc:format>
        <dc:type rdf:resource="http://purl.org/dc/dcmitype/StillImage"/>
        <dc:title/>
      </cc:Work>
    </rdf:RDF>
  </metadata>
  <g xmlns:inkscape="http://www.inkscape.org/namespaces/inkscape" xmlns:sodipodi="http://sodipodi.sourceforge.net/DTD/sodipodi-0.dtd" inkscape:label="Layer 1" inkscape:groupmode="layer" id="layer1" transform="translate(0,-288.81557)">
    <g id="g4761" transform="matrix(0.07377843,0,0,0.07377843,-0.76923022,275.45946)">
      <path inkscape:connector-curvature="0" id="path1959-6-7-1-6-5-4-0-3-2-6-0-3-9-6" style="font-style:normal;font-variant:normal;font-weight:bold;font-stretch:normal;font-size:120.99466705px;line-height:1.25;font-family:Aharoni;-inkscape-font-specification:'Aharoni, Bold';font-variant-ligatures:normal;font-variant-caps:normal;font-variant-numeric:normal;font-feature-settings:normal;text-align:start;letter-spacing:0px;word-spacing:0px;writing-mode:lr-tb;text-anchor:start;fill:#000000;fill-opacity:1;stroke:none;stroke-width:2.37649584" d="M 52.937412,287.55677 H 40.587702 V 265.43005 H 22.776041 v 22.12672 h -12.34982 v -53.17432 h 12.34982 v 20.5296 h 17.811661 v -20.5296 h 12.34971 z"/>
      <path inkscape:connector-curvature="0" id="path1961-2-9-7-9-3-1-6-5-1-5-8-7-8-2" style="font-style:normal;font-variant:normal;font-weight:bold;font-stretch:normal;font-size:120.99466705px;line-height:1.25;font-family:Aharoni;-inkscape-font-specification:'Aharoni, Bold';font-variant-ligatures:normal;font-variant-caps:normal;font-variant-numeric:normal;font-feature-settings:normal;text-align:start;letter-spacing:0px;word-spacing:0px;writing-mode:lr-tb;text-anchor:start;fill:#000000;fill-opacity:1;stroke:none;stroke-width:2.37649584" d="m 69.681125,237.49895 q 0,3.0385 -1.87856,5.1421 -1.84375,2.0647 -4.55721,2.0647 -2.67866,0 -4.55722,-2.1036 -1.84375,-2.1036 -1.84375,-5.1032 0,-2.9996 1.84375,-5.0642 1.87856,-2.1036 4.55722,-2.1036 2.67865,0 4.55721,2.1036 1.87856,2.0646 1.87856,5.0642 z m -0.73057,50.05782 h -11.41048 v -36.15072 h 11.41048 z"/>
      <path inkscape:connector-curvature="0" id="path1963-3-1-2-8-3-6-3-3-3-4-7-6-0-8" style="font-style:normal;font-variant:normal;font-weight:bold;font-stretch:normal;font-size:120.99466705px;line-height:1.25;font-family:Aharoni;-inkscape-font-specification:'Aharoni, Bold';font-variant-ligatures:normal;font-variant-caps:normal;font-variant-numeric:normal;font-feature-settings:normal;text-align:start;letter-spacing:0px;word-spacing:0px;writing-mode:lr-tb;text-anchor:start;fill:#000000;fill-opacity:1;stroke:none;stroke-width:2.37649584" d="m 93.369625,261.92405 h -6.50536 v 25.63272 h -11.4104 v -25.63272 h -3.75712 v -10.518 h 3.75712 v -10.8686 h 11.4104 v 10.8686 h 6.50536 z"/>
      <path id="path1967-3-3-6-2-9-6-2-5-3-0-9-8-2-1" style="font-style:normal;font-variant:normal;font-weight:bold;font-stretch:normal;font-size:120.99466705px;line-height:1.25;font-family:Aharoni;-inkscape-font-specification:'Aharoni, Bold';font-variant-ligatures:normal;font-variant-caps:normal;font-variant-numeric:normal;font-feature-settings:normal;text-align:start;letter-spacing:0px;word-spacing:0px;writing-mode:lr-tb;text-anchor:start;fill:#000000;fill-opacity:1;stroke:none;stroke-width:2.37649584" d="m 160.61447,287.55677 h -12.34971 v -53.17432 h 12.34971 z" inkscape:connector-curvature="0"/>
      <path inkscape:connector-curvature="0" id="path1969-8-0-8-5-3-5-6-6-3-9-8-6-2-0" style="font-style:normal;font-variant:normal;font-weight:bold;font-stretch:normal;font-size:120.99466705px;line-height:1.25;font-family:Aharoni;-inkscape-font-specification:'Aharoni, Bold';font-variant-ligatures:normal;font-variant-caps:normal;font-variant-numeric:normal;font-feature-settings:normal;text-align:start;letter-spacing:0px;word-spacing:0px;writing-mode:lr-tb;text-anchor:start;fill:#000000;fill-opacity:1;stroke:none;stroke-width:2.37649584" d="m 201.6896,284.86883 q -6.05314,2.68794 -11.20172,2.68794 -8.97528,0 -16.07201,-6.42764 -9.04489,-8.21959 -9.04489,-21.42558 0,-13.2448 9.04489,-21.4644 7.09673,-6.4277 16.17636,-6.4277 4.93989,0 11.09737,2.6879 v 16.5561 q -1.73941,-2.3763 -3.54836,-3.5839 -3.30489,-2.2204 -7.09679,-2.2204 -4.8007,0 -8.34907,3.2333 -4.48766,4.0903 -4.48766,11.2191 0,7.0899 4.48766,11.1803 3.54837,3.23328 8.34907,3.23328 3.7919,0 7.09679,-2.22049 1.77415,-1.16869 3.54836,-3.58389 z"/>
      <path inkscape:transform-center-y="-13.656107" inkscape:transform-center-x="-3.9758045" sodipodi:nodetypes="csssssc" inkscape:connector-curvature="0" id="rect815-3-0-9-3-5-6-0-4-03-7-3-7-5-3-2-76-3-8-8-5-3-7-8-0-1-3-7-9-2-8-1" d="m 104.61223,181.4353 c 0,0 17.68257,27.27493 22.63096,34.41579 7.92879,11.44185 16.42741,30.36094 17.92806,45.50275 1.21005,12.20999 -1.38345,26.51285 -17.32077,30.11208 -11.70405,2.64313 -26.75007,-5.41371 -30.334975,-20.50903 -3.30533,-13.91816 -2.13088,-34.61412 0.0984,-48.67354 1.22049,-7.69719 5.657305,-36.06774 6.998335,-40.84805 z" style="font-style:normal;font-weight:normal;font-size:242.08590698px;line-height:1.25;font-family:sans-serif;letter-spacing:0px;word-spacing:0px;opacity:1;fill:#00456b;fill-opacity:1;stroke:none;stroke-width:0.6720385;stroke-miterlimit:4;stroke-dasharray:none;stroke-dashoffset:0;stroke-opacity:1;paint-order:markers fill stroke"/>
      <path sodipodi:nodetypes="ccscscsccscccscc" d="m 107.52748,246.32531 6.45576,30.78617 6.82019,-1.47997 c 5.75791,-1.24946 9.70999,-3.40081 11.85576,-6.45394 2.16431,-3.05721 2.68673,-7.25521 1.56721,-12.59398 -1.11209,-5.30332 -3.26743,-8.89247 -6.46601,-10.76744 -3.18372,-1.89669 -7.65528,-2.22015 -13.4127,-0.97081 z m -8.759905,-5.09591 12.713095,-2.78742 c 8.8634,-1.94336 15.73718,-1.59097 20.62135,1.05715 4.88003,2.62843 8.10326,7.71587 9.6697,15.26232 1.57464,7.58584 0.64804,13.61405 -2.77981,18.08462 -3.42783,4.4705 -9.55303,7.67294 -18.37559,9.60735 l -12.71311,2.78742 z" style="font-style:normal;font-weight:normal;font-size:242.08590698px;line-height:1.25;font-family:sans-serif;letter-spacing:0px;word-spacing:0px;fill:#ffffff;fill-opacity:1;stroke:none;stroke-width:1.60286868" id="path1193-3-5-3-2-7-4-5-6-0-0-6-9-2-4-7-0-0" inkscape:connector-curvature="0"/>
    </g>
  </g>
</g>
    </g>
  </g>
</svg>
